<svg version="1.1" id="Layer_1" xmlns="http://www.w3.org/2000/svg" xmlns:xlink="http://www.w3.org/1999/xlink" x="0px"
    y="0px" width="1024px" height="768px" viewBox="0 0 1024 768" enable-background="new 0 0 1024 768" xml:space="preserve">
    <rect x="1" y="-2" fill="#0D2234" width="1023" height="769" />
    <g opacity="0.1">
        <rect x="-0.5" y="-2.5" fill="none" stroke="#FFFFFF" stroke-miterlimit="10" width="1023" height="769" />
        <line fill="none" stroke="#FFFFFF" stroke-miterlimit="10" x1="4" y1="728.5" x2="1021" y2="728.5" />
        <line fill="none" stroke="#FFFFFF" stroke-miterlimit="10" x1="4" y1="691.5" x2="1021" y2="691.5" />
        <line fill="none" stroke="#FFFFFF" stroke-miterlimit="10" x1="4" y1="650.5" x2="1021" y2="650.5" />
        <line fill="none" stroke="#FFFFFF" stroke-miterlimit="10" x1="4" y1="624.5" x2="1021" y2="624.5" />
        <line fill="none" stroke="#FFFFFF" stroke-miterlimit="10" x1="4" y1="586.5" x2="1021" y2="586.5" />
        <line fill="none" stroke="#FFFFFF" stroke-miterlimit="10" x1="4" y1="545.5" x2="1021" y2="545.5" />
        <line fill="none" stroke="#FFFFFF" stroke-miterlimit="10" x1="4" y1="508.5" x2="1021" y2="508.5" />
        <line fill="none" stroke="#FFFFFF" stroke-miterlimit="10" x1="4" y1="471.5" x2="1021" y2="471.5" />
        <line fill="none" stroke="#FFFFFF" stroke-miterlimit="10" x1="4" y1="433.5" x2="1021" y2="433.5" />
        <line fill="none" stroke="#FFFFFF" stroke-miterlimit="10" x1="4" y1="396.5" x2="1021" y2="396.5" />
        <line fill="none" stroke="#FFFFFF" stroke-miterlimit="10" x1="4" y1="366.5" x2="1021" y2="366.5" />
        <line fill="none" stroke="#FFFFFF" stroke-miterlimit="10" x1="4" y1="329.5" x2="1021" y2="329.5" />
        <line fill="none" stroke="#FFFFFF" stroke-miterlimit="10" x1="4" y1="292.5" x2="1021" y2="292.5" />
        <line fill="none" stroke="#FFFFFF" stroke-miterlimit="10" x1="4" y1="251.5" x2="1021" y2="251.5" />
        <line fill="none" stroke="#FFFFFF" stroke-miterlimit="10" x1="4" y1="213.5" x2="1021" y2="213.5" />
        <line fill="none" stroke="#FFFFFF" stroke-miterlimit="10" x1="4" y1="176.5" x2="1021" y2="176.5" />
        <line fill="none" stroke="#FFFFFF" stroke-miterlimit="10" x1="4" y1="139.5" x2="1021" y2="139.5" />
        <line fill="none" stroke="#FFFFFF" stroke-miterlimit="10" x1="4" y1="109.5" x2="1021" y2="109.5" />
        <line fill="none" stroke="#FFFFFF" stroke-miterlimit="10" x1="4" y1="72.5" x2="1021" y2="72.5" />
        <line fill="none" stroke="#FFFFFF" stroke-miterlimit="10" x1="4" y1="34.5" x2="1021" y2="34.5" />
        <line fill="none" stroke="#FFFFFF" stroke-miterlimit="10" x1="977.5" y1="-1" x2="977.5" y2="760" />
        <line fill="none" stroke="#FFFFFF" stroke-miterlimit="10" x1="925.5" y1="-1" x2="925.5" y2="760" />
        <line fill="none" stroke="#FFFFFF" stroke-miterlimit="10" x1="877.5" y1="-1" x2="877.5" y2="760" />
        <line fill="none" stroke="#FFFFFF" stroke-miterlimit="10" x1="825.5" y1="-1" x2="825.5" y2="760" />
        <line fill="none" stroke="#FFFFFF" stroke-miterlimit="10" x1="780.5" y1="-1" x2="780.5" y2="760" />
        <line fill="none" stroke="#FFFFFF" stroke-miterlimit="10" x1="734.5" y1="-1" x2="734.5" y2="760" />
        <line fill="none" stroke="#FFFFFF" stroke-miterlimit="10" x1="682.5" y1="-1" x2="682.5" y2="760" />
        <line fill="none" stroke="#FFFFFF" stroke-miterlimit="10" x1="637.5" y1="-1" x2="637.5" y2="760" />
        <line fill="none" stroke="#FFFFFF" stroke-miterlimit="10" x1="585.5" y1="-1" x2="585.5" y2="760" />
        <line fill="none" stroke="#FFFFFF" stroke-miterlimit="10" x1="537.5" y1="-1" x2="537.5" y2="760" />
        <line fill="none" stroke="#FFFFFF" stroke-miterlimit="10" x1="491.5" y1="-1" x2="491.5" y2="760" />
        <line fill="none" stroke="#FFFFFF" stroke-miterlimit="10" x1="439.5" y1="-1" x2="439.5" y2="760" />
        <line fill="none" stroke="#FFFFFF" stroke-miterlimit="10" x1="394.5" y1="-1" x2="394.5" y2="760" />
        <line fill="none" stroke="#FFFFFF" stroke-miterlimit="10" x1="342.5" y1="-1" x2="342.5" y2="760" />
        <line fill="none" stroke="#FFFFFF" stroke-miterlimit="10" x1="294.5" y1="-1" x2="294.5" y2="760" />
        <line fill="none" stroke="#FFFFFF" stroke-miterlimit="10" x1="248.5" y1="-1" x2="248.5" y2="760" />
        <line fill="none" stroke="#FFFFFF" stroke-miterlimit="10" x1="197.5" y1="-1" x2="197.5" y2="760" />
        <line fill="none" stroke="#FFFFFF" stroke-miterlimit="10" x1="151.5" y1="-1" x2="151.5" y2="760" />
        <line fill="none" stroke="#FFFFFF" stroke-miterlimit="10" x1="99.5" y1="-1" x2="99.5" y2="760" />
        <line fill="none" stroke="#FFFFFF" stroke-miterlimit="10" x1="54.5" y1="-1" x2="54.5" y2="760" />
    </g>
    <text transform="matrix(1 0 0 1 272.6973 116.0674)">
        <tspan x="0" y="0" fill="#F7BE2C" font-family="'Roboto'" font-size="41.9282">Arrays:</tspan>
        <tspan x="135.714" y="0" fill="#FFFFFF" font-family="'Roboto'" font-size="41.9282"> Accessing Values</tspan>
    </text>
    <rect x="198" y="176.5" fill="none" width="619.5" height="80.75" />
    <text transform="matrix(1 0 0 1 198 194.5)">
        <tspan x="0" y="0" fill="#FFFFFF" font-family="'Roboto'" font-size="24">You can access any Array element using
            the variable’s </tspan>
        <tspan x="0" y="30" fill="#FFFFFF" font-family="'Roboto'" font-size="24">name followed by the index number within
            [ brackets ]:</tspan>
    </text>
    <text transform="matrix(1.0055 0 0 1 88.0962 315.5)">
        <tspan x="0" y="0" fill="#F7BE2C" font-family="'Hack'" font-size="24" letter-spacing="22.874"> </tspan>
        <tspan x="509.184" y="0" fill="#F7BE2C" font-family="'Hack'" font-size="24"> </tspan>
        <tspan x="524.904" y="0" fill="#FFFFFF" font-family="'Hack'" font-size="24">0</tspan>
        <tspan x="540.625" y="0" fill="#FFFFFF" font-family="'Hack'" font-size="24" letter-spacing="-7.956"> </tspan>
        <tspan x="548.351" y="0" fill="#FFFFFF" font-family="'Hack'" font-size="24" letter-spacing="22.874"> </tspan>
        <tspan x="665.855" y="0" fill="#FFFFFF" font-family="'Hack'" font-size="24">1</tspan>
        <tspan x="681.576" y="0" fill="#FFFFFF" font-family="'Hack'" font-size="24" letter-spacing="6.962"> </tspan>
        <tspan x="705.023" y="0" fill="#FFFFFF" font-family="'Hack'" font-size="24" letter-spacing="22.874"> </tspan>
        <tspan x="783.359" y="0" fill="#FFFFFF" font-family="'Hack'" font-size="24"> 2</tspan>
        <tspan x="0" y="32.64" fill="#F7BE2C" font-family="'Hack'" font-size="24">listOfNames[0]</tspan>
        <tspan x="220.09" y="32.64" fill="#CCCCCC" font-family="'Hack'" font-size="24">;</tspan>
        <tspan x="235.81" y="32.64" fill="#CCCCCC" font-family="'Hack'" font-size="24" letter-spacing="21.879"> </tspan>
        <tspan x="274.175" y="32.64" fill="#CCCCCC" font-family="'Hack'" font-size="24" letter-spacing="22.874"> </tspan>
        <tspan x="313.343" y="32.64" fill="#CCCCCC" font-family="'Hack'" font-size="24">‘Abdul’</tspan>
        <tspan x="423.389" y="32.64" fill="#CCCCCC" font-family="'Hack'" font-size="24" letter-spacing="-7.956"> </tspan>
        <tspan x="430.847" y="32.64" fill="#CCCCCC" font-family="'Hack'" font-size="24" letter-spacing="22.874"> </tspan>
        <tspan x="470.016" y="32.64" fill="#CCCCCC" font-family="'Hack'" font-size="24">[</tspan>
        <tspan x="485.736" y="32.64" fill="#FFFFFF" font-family="'Hack'" font-size="24">‘</tspan>
        <tspan x="501.457" y="32.64" fill="#FFFFFF" font-family="'Hack'" font-size="24">Abdul</tspan>
        <tspan x="580.06" y="32.64" fill="#FFFFFF" font-family="'Hack'" font-size="24">’</tspan>
        <tspan x="595.781" y="32.64" fill="#CCCCCC" font-family="'Hack'" font-size="24">,‘Kostas’,‘Chris’]</tspan>
        <tspan x="0" y="65.28" fill="#F7BE2C" font-family="'Hack'" font-size="24">listOfNames[1]</tspan>
        <tspan x="220.09" y="65.28" fill="#CCCCCC" font-family="'Hack'" font-size="24">;</tspan>
        <tspan x="235.81" y="65.28" fill="#CCCCCC" font-family="'Hack'" font-size="24" letter-spacing="21.879"> </tspan>
        <tspan x="274.175" y="65.28" fill="#CCCCCC" font-family="'Hack'" font-size="24" letter-spacing="22.874"> </tspan>
        <tspan x="313.343" y="65.28" fill="#CCCCCC" font-family="'Hack'" font-size="24">‘Kostas’</tspan>
        <tspan x="439.109" y="65.28" fill="#CCCCCC" font-family="'Hack'" font-size="24" letter-spacing="14.918"> </tspan>
        <tspan x="470.016" y="65.28" fill="#CCCCCC" font-family="'Hack'" font-size="24">[‘Abdul’,‘</tspan>
        <tspan x="627.222" y="65.28" fill="#FFFFFF" font-family="'Hack'" font-size="24">Kostas</tspan>
        <tspan x="721.546" y="65.28" fill="#CCCCCC" font-family="'Hack'" font-size="24">’,‘Chris’]</tspan>
        <tspan x="0" y="97.92" fill="#F7BE2C" font-family="'Hack'" font-size="24">listOfNames[2]</tspan>
        <tspan x="220.09" y="97.92" fill="#CCCCCC" font-family="'Hack'" font-size="24">;</tspan>
        <tspan x="235.81" y="97.92" fill="#CCCCCC" font-family="'Hack'" font-size="24" letter-spacing="21.879"> </tspan>
        <tspan x="274.175" y="97.92" fill="#CCCCCC" font-family="'Hack'" font-size="24" letter-spacing="22.874"> </tspan>
        <tspan x="313.343" y="97.92" fill="#CCCCCC" font-family="'Hack'" font-size="24">‘Chris’</tspan>
        <tspan x="423.389" y="97.92" fill="#CCCCCC" font-family="'Hack'" font-size="24" letter-spacing="-7.956"> </tspan>
        <tspan x="430.847" y="97.92" fill="#CCCCCC" font-family="'Hack'" font-size="24" letter-spacing="22.874"> </tspan>
        <tspan x="470.016" y="97.92" fill="#CCCCCC" font-family="'Hack'" font-size="24">[‘Abdul’,‘Kostas’,‘</tspan>
        <tspan x="768.708" y="97.92" fill="#FFFFFF" font-family="'Hack'" font-size="24">Chris</tspan>
        <tspan x="847.312" y="97.92" fill="#CCCCCC" font-family="'Hack'" font-size="24">’]</tspan>
        <tspan x="0" y="130.56" fill="#F7BE2C" font-family="'Hack'" font-size="24">listOfNames[3]</tspan>
        <tspan x="220.09" y="130.56" fill="#CCCCCC" font-family="'Hack'" font-size="24">;</tspan>
        <tspan x="235.81" y="130.56" fill="#CCCCCC" font-family="'Hack'" font-size="24" letter-spacing="21.879"> </tspan>
        <tspan x="274.175" y="130.56" fill="#CCCCCC" font-family="'Hack'" font-size="24" letter-spacing="22.874"> </tspan>
        <tspan x="313.343" y="130.56" fill="#CCCCCC" font-family="'Hack'" font-size="24">undefined</tspan>
        <tspan x="454.83" y="130.56" fill="#CCCCCC" font-family="'Hack'" font-size="24"> </tspan>
    </text>
    <text transform="matrix(1 0 0 1 160.4658 680.0537)" fill="#FFFFFF" font-family="'Hack'" font-size="22">Index count
        always starts from 0</text>
    <g>
        <circle fill="#FCEE21" cx="134.419" cy="671.11" r="14.61" />
        <text transform="matrix(1 0 0 1 131.1079 680.0537)" font-family="'Roboto'" font-size="24.7523">!</text>
    </g>
</svg>
