<svg version="1.1" id="Layer_1" xmlns="http://www.w3.org/2000/svg" xmlns:xlink="http://www.w3.org/1999/xlink" x="0px"
    y="0px" width="1024px" height="768px" viewBox="0 0 1024 768" enable-background="new 0 0 1024 768" xml:space="preserve">
    <rect x="1" y="-2" fill="#0D2234" width="1023" height="769" />
    <g opacity="0.1">
        <rect x="-0.5" y="-2.5" fill="none" stroke="#FFFFFF" stroke-miterlimit="10" width="1023" height="769" />
        <line fill="none" stroke="#FFFFFF" stroke-miterlimit="10" x1="4" y1="728.5" x2="1021" y2="728.5" />
        <line fill="none" stroke="#FFFFFF" stroke-miterlimit="10" x1="4" y1="691.5" x2="1021" y2="691.5" />
        <line fill="none" stroke="#FFFFFF" stroke-miterlimit="10" x1="4" y1="650.5" x2="1021" y2="650.5" />
        <line fill="none" stroke="#FFFFFF" stroke-miterlimit="10" x1="4" y1="624.5" x2="1021" y2="624.5" />
        <line fill="none" stroke="#FFFFFF" stroke-miterlimit="10" x1="4" y1="586.5" x2="1021" y2="586.5" />
        <line fill="none" stroke="#FFFFFF" stroke-miterlimit="10" x1="4" y1="545.5" x2="1021" y2="545.5" />
        <line fill="none" stroke="#FFFFFF" stroke-miterlimit="10" x1="4" y1="508.5" x2="1021" y2="508.5" />
        <line fill="none" stroke="#FFFFFF" stroke-miterlimit="10" x1="4" y1="471.5" x2="1021" y2="471.5" />
        <line fill="none" stroke="#FFFFFF" stroke-miterlimit="10" x1="4" y1="433.5" x2="1021" y2="433.5" />
        <line fill="none" stroke="#FFFFFF" stroke-miterlimit="10" x1="4" y1="396.5" x2="1021" y2="396.5" />
        <line fill="none" stroke="#FFFFFF" stroke-miterlimit="10" x1="4" y1="366.5" x2="1021" y2="366.5" />
        <line fill="none" stroke="#FFFFFF" stroke-miterlimit="10" x1="4" y1="329.5" x2="1021" y2="329.5" />
        <line fill="none" stroke="#FFFFFF" stroke-miterlimit="10" x1="4" y1="292.5" x2="1021" y2="292.5" />
        <line fill="none" stroke="#FFFFFF" stroke-miterlimit="10" x1="4" y1="251.5" x2="1021" y2="251.5" />
        <line fill="none" stroke="#FFFFFF" stroke-miterlimit="10" x1="4" y1="213.5" x2="1021" y2="213.5" />
        <line fill="none" stroke="#FFFFFF" stroke-miterlimit="10" x1="4" y1="176.5" x2="1021" y2="176.5" />
        <line fill="none" stroke="#FFFFFF" stroke-miterlimit="10" x1="4" y1="139.5" x2="1021" y2="139.5" />
        <line fill="none" stroke="#FFFFFF" stroke-miterlimit="10" x1="4" y1="109.5" x2="1021" y2="109.5" />
        <line fill="none" stroke="#FFFFFF" stroke-miterlimit="10" x1="4" y1="72.5" x2="1021" y2="72.5" />
        <line fill="none" stroke="#FFFFFF" stroke-miterlimit="10" x1="4" y1="34.5" x2="1021" y2="34.5" />
        <line fill="none" stroke="#FFFFFF" stroke-miterlimit="10" x1="977.5" y1="-1" x2="977.5" y2="760" />
        <line fill="none" stroke="#FFFFFF" stroke-miterlimit="10" x1="925.5" y1="-1" x2="925.5" y2="760" />
        <line fill="none" stroke="#FFFFFF" stroke-miterlimit="10" x1="877.5" y1="-1" x2="877.5" y2="760" />
        <line fill="none" stroke="#FFFFFF" stroke-miterlimit="10" x1="825.5" y1="-1" x2="825.5" y2="760" />
        <line fill="none" stroke="#FFFFFF" stroke-miterlimit="10" x1="780.5" y1="-1" x2="780.5" y2="760" />
        <line fill="none" stroke="#FFFFFF" stroke-miterlimit="10" x1="734.5" y1="-1" x2="734.5" y2="760" />
        <line fill="none" stroke="#FFFFFF" stroke-miterlimit="10" x1="682.5" y1="-1" x2="682.5" y2="760" />
        <line fill="none" stroke="#FFFFFF" stroke-miterlimit="10" x1="637.5" y1="-1" x2="637.5" y2="760" />
        <line fill="none" stroke="#FFFFFF" stroke-miterlimit="10" x1="585.5" y1="-1" x2="585.5" y2="760" />
        <line fill="none" stroke="#FFFFFF" stroke-miterlimit="10" x1="537.5" y1="-1" x2="537.5" y2="760" />
        <line fill="none" stroke="#FFFFFF" stroke-miterlimit="10" x1="491.5" y1="-1" x2="491.5" y2="760" />
        <line fill="none" stroke="#FFFFFF" stroke-miterlimit="10" x1="439.5" y1="-1" x2="439.5" y2="760" />
        <line fill="none" stroke="#FFFFFF" stroke-miterlimit="10" x1="394.5" y1="-1" x2="394.5" y2="760" />
        <line fill="none" stroke="#FFFFFF" stroke-miterlimit="10" x1="342.5" y1="-1" x2="342.5" y2="760" />
        <line fill="none" stroke="#FFFFFF" stroke-miterlimit="10" x1="294.5" y1="-1" x2="294.5" y2="760" />
        <line fill="none" stroke="#FFFFFF" stroke-miterlimit="10" x1="248.5" y1="-1" x2="248.5" y2="760" />
        <line fill="none" stroke="#FFFFFF" stroke-miterlimit="10" x1="197.5" y1="-1" x2="197.5" y2="760" />
        <line fill="none" stroke="#FFFFFF" stroke-miterlimit="10" x1="151.5" y1="-1" x2="151.5" y2="760" />
        <line fill="none" stroke="#FFFFFF" stroke-miterlimit="10" x1="99.5" y1="-1" x2="99.5" y2="760" />
        <line fill="none" stroke="#FFFFFF" stroke-miterlimit="10" x1="54.5" y1="-1" x2="54.5" y2="760" />
    </g>
    <text transform="matrix(1 0 0 1 336.0195 116.0674)">
        <tspan x="0" y="0" fill="#FFFFFF" font-family="'Roboto'" font-size="41.9282">Meet the </tspan>
        <tspan x="174.489" y="0" fill="#F7BE2C" font-family="'Roboto'" font-size="41.9282">Booleans</tspan>
    </text>
    <rect x="242.597" y="165.25" fill="none" width="536.805" height="33.75" />
    <text transform="matrix(1 0 0 1 242.5972 183.25)">
        <tspan x="0" y="0" fill="#FFFFFF" font-family="'Roboto'" font-size="24">Values of type </tspan>
        <tspan x="157.688" y="0" fill="#FFFFFF" font-family="'Roboto'" font-size="24">Boolean</tspan>
        <tspan x="245.789" y="0" fill="#FFFFFF" font-family="'Roboto'" font-size="24">, can be either </tspan>
        <tspan x="399.739" y="0" fill="#FFFFFF" font-family="'Roboto'" font-size="24">true </tspan>
        <tspan x="448.981" y="0" fill="#FFFFFF" font-family="'Roboto'" font-size="24">or </tspan>
        <tspan x="476.731" y="0" fill="#FFFFFF" font-family="'Roboto'" font-size="24">false</tspan>
        <tspan x="529.875" y="0" fill="#FFFFFF" font-family="'Roboto'" font-size="24">.</tspan>
    </text>
    <rect x="197.5" y="439.75" fill="none" width="628" height="63.25" />
    <text transform="matrix(1 0 0 1 205.3652 457.75)">
        <tspan x="0" y="0" fill="#FFFFFF" font-family="'Roboto'" font-size="24">Booleans </tspan>
        <tspan x="106.418" y="0" fill="#FFFFFF" font-family="'Roboto'" font-size="24">can also be the result of </tspan>
        <tspan x="367.945" y="0" fill="#FFFFFF" font-family="'Roboto'" font-size="24">Comparison Operators</tspan>
        <tspan x="612.27" y="0" fill="#FFFFFF" font-family="'Roboto'" font-size="24"> </tspan>
        <tspan x="39.592" y="30" fill="#FFFFFF" font-family="'Roboto'" font-size="24">such as === which is used to
            compare two values:</tspan>
    </text>
    <text transform="matrix(1 0 0 1 242.5972 271.5)">
        <tspan x="0" y="0" fill="#F9672E" font-family="'Hack'" font-size="24">let</tspan>
        <tspan x="47.162" y="0" fill="#F7BE2C" font-family="'Hack'" font-size="24"> someBoolean </tspan>
        <tspan x="282.973" y="0" fill="#CCCCCC" font-family="'Hack'" font-size="24">= </tspan>
        <tspan x="314.415" y="0" fill="#CCCCCC" font-family="'Hack'" font-size="24">true</tspan>
        <tspan x="377.297" y="0" fill="#CCCCCC" font-family="'Hack'" font-size="24">;</tspan>
        <tspan x="0" y="32.64" fill="#F9672E" font-family="'Hack'" font-size="24">const</tspan>
        <tspan x="78.604" y="32.64" fill="#F7BE2C" font-family="'Hack'" font-size="24"> anotherName </tspan>
        <tspan x="282.973" y="32.64" fill="#CCCCCC" font-family="'Hack'" font-size="24">= </tspan>
        <tspan x="314.415" y="32.64" fill="#CCCCCC" font-family="'Hack'" font-size="24">false</tspan>
        <tspan x="393.018" y="32.64" fill="#CCCCCC" font-family="'Hack'" font-size="24">;</tspan>
        <tspan x="0" y="97.92" fill="#F9672E" font-family="'Hack'" font-size="24">console.log</tspan>
        <tspan x="172.928" y="97.92" fill="#CCCCCC" font-family="'Hack'" font-size="24">( typeof </tspan>
        <tspan x="314.415" y="97.92" fill="#F7BE2C" font-family="'Hack'" font-size="24">someBoolean</tspan>
        <tspan x="487.342" y="97.92" fill="#CCCCCC" font-family="'Hack'" font-size="24"> ); </tspan>
        <tspan x="581.667" y="97.92" fill="#FFFFFF" font-family="'Hack'" font-size="24">“boolean”</tspan>
    </text>
    <text transform="matrix(1 0 0 1 242.5972 566.5)">
        <tspan x="0" y="0" fill="#F9672E" font-family="'Hack'" font-size="24">console.log</tspan>
        <tspan x="172.928" y="0" fill="#CCCCCC" font-family="'Hack'" font-size="24">( “text” </tspan>
        <tspan x="314.415" y="0" fill="#FFFFFF" font-family="'Hack'" font-size="24">===</tspan>
        <tspan x="361.577" y="0" fill="#CCCCCC" font-family="'Hack'" font-size="24"> “text” );</tspan>
        <tspan x="518.784" y="0" fill="#FFFFFF" font-family="'Hack'" font-size="24" letter-spacing="13"> </tspan>
        <tspan x="548.35" y="0" fill="#FFFFFF" font-family="'Hack'" font-size="24">true</tspan>
        <tspan x="611.233" y="0" fill="#CCCCCC" font-family="'Hack'" font-size="24"> </tspan>
        <tspan x="0" y="32.64" fill="#F9672E" font-family="'Hack'" font-size="24">console.log</tspan>
        <tspan x="172.928" y="32.64" fill="#CCCCCC" font-family="'Hack'" font-size="24">( 34 </tspan>
        <tspan x="251.531" y="32.64" fill="#FFFFFF" font-family="'Hack'" font-size="24">===</tspan>
        <tspan x="298.694" y="32.64" fill="#CCCCCC" font-family="'Hack'" font-size="24"> 45 );</tspan>
        <tspan x="393.018" y="32.64" fill="#CCCCCC" font-family="'Hack'" font-size="24" letter-spacing="22"> </tspan>
        <tspan x="430.847" y="32.64" fill="#CCCCCC" font-family="'Hack'" font-size="24" letter-spacing="23"> </tspan>
        <tspan x="548.35" y="32.64" fill="#FFFFFF" font-family="'Hack'" font-size="24">false</tspan>
    </text>
    <text transform="matrix(1 0 0 1 160.4658 687.0537)">
        <tspan x="0" y="0" fill="#FFFFFF" font-family="'Hack'" font-size="22">The opposite of === is the !== operator
            which checks if two</tspan>
        <tspan x="0" y="30" fill="#FFFFFF" font-family="'Hack'" font-size="22">values are not the same.</tspan>
    </text>
    <g>
        <circle fill="#FCEE21" cx="134.419" cy="678.11" r="14.61" />
        <text transform="matrix(1 0 0 1 131.1079 687.0537)" font-family="'Roboto'" font-size="24.7523">!</text>
    </g>
</svg>
