<svg xmlns="http://www.w3.org/2000/svg" xmlns:xlink="http://www.w3.org/1999/xlink" version="1.1" id="data_type_talk" x="0px" y="0px" width="640px" height="640px" viewBox="0 0 640 640" enable-background="new 0 0 640 640" xml:space="preserve">
<path fill="#8CC63F" d="M308.702,105.395c0-3.887-3.15-7.036-7.031-7.036H165.833c-3.885,0-7.035,3.149-7.035,7.036v54.522  c0,3.883,3.148,7.033,7.033,7.033h88.945c1.615,0,2.923,1.309,2.923,2.922v7.608c0,1.183,0.711,2.248,1.805,2.701  c1.093,0.453,2.35,0.203,3.187-0.633l11.738-11.743c0.549-0.547,1.294-0.855,2.066-0.855h25.175c3.881,0,7.031-3.15,7.031-7.035  V105.395z"/>
<path fill="#FFE500" d="M327.609,52.884c0-5.2,4.216-9.414,9.41-9.414h181.748c5.198,0,9.413,4.214,9.413,9.414v72.95  c0,5.196-4.213,9.41-9.411,9.41H399.763c-2.16,0-3.911,1.751-3.911,3.91v10.179c0,1.583-0.953,3.009-2.415,3.614  s-3.145,0.271-4.262-0.847l-15.708-15.711c-0.734-0.733-1.73-1.146-2.765-1.146H337.02c-5.194,0-9.41-4.214-9.41-9.413V52.884z"/>
<path fill="#FFE500" d="M270.989,196.781c0-5.2,4.216-9.413,9.41-9.413h181.749c5.198,0,9.413,4.213,9.413,9.413v72.95  c0,5.197-4.213,9.41-9.411,9.41H343.143c-2.16,0-3.911,1.752-3.911,3.91v10.18c0,1.582-0.953,3.008-2.415,3.613  s-3.145,0.271-4.262-0.846l-15.708-15.711c-0.734-0.734-1.73-1.146-2.765-1.146h-33.683c-5.194,0-9.41-4.213-9.41-9.412V196.781z"/>
<g>
	<g>
		<polygon fill="#D18660" points="87.333,431.35 88.58,404.5 69.906,404.5 69.906,431.35   "/>
		<polygon fill="#BD704A" points="87.958,417.916 88.58,404.5 69.906,404.5 69.906,417.916   "/>
		<polygon fill="none" stroke="#45413C" stroke-linecap="round" stroke-linejoin="round" stroke-miterlimit="10" points="    87.333,431.35 88.58,404.5 69.906,404.5 69.906,431.35   "/>
	</g>
	<g>
		<polygon fill="#D18660" points="110.568,431.35 109.323,404.5 127.994,404.5 127.994,431.35   "/>
		<polygon fill="#BD704A" points="109.944,417.916 109.323,404.5 127.994,404.5 127.994,417.916   "/>
		<polygon fill="none" stroke="#45413C" stroke-linecap="round" stroke-linejoin="round" stroke-miterlimit="10" points="    110.568,431.35 109.323,404.5 127.994,404.5 127.994,431.35   "/>
	</g>
	<path fill="#DEA47A" d="M142.519,310.442c0-25.668-20.807-46.474-46.47-46.474c-25.668,0-46.475,20.806-46.475,46.474v5.807h17.427   v37.763h63.899v-37.763h11.618V310.442z"/>
	<g>
		<path fill="#D18660" stroke="#45413C" stroke-linecap="round" stroke-linejoin="round" stroke-miterlimit="10" d="    M101.856,184.603c-16.044,0-29.045,13.005-29.045,29.047v5.81c-8.294,0-7.725,14.522,1.453,14.522l0.022-0.007    c3.718,11.756,14.583,20.337,27.57,20.337c16.042,0,29.045-13.002,29.045-29.045V213.65    C130.901,197.607,117.898,184.603,101.856,184.603z"/>
		<g>
			<g>
				<path fill="#45413C" d="M96.773,219.459c-2.007,0-3.632,1.625-3.632,3.63c0,2.002,1.625,3.63,3.632,3.63      c2.005,0,3.63-1.627,3.63-3.63C100.404,221.085,98.779,219.459,96.773,219.459L96.773,219.459z"/>
			</g>
		</g>
		<g>
			<g>
				<path fill="#45413C" d="M118.556,219.459c-2.002,0-3.63,1.625-3.63,3.63c0,2.002,1.627,3.63,3.63,3.63      c2.007,0,3.632-1.627,3.632-3.63C122.188,221.085,120.563,219.459,118.556,219.459L118.556,219.459z"/>
			</g>
		</g>
		<path fill="#BD704A" d="M93.142,231.8c0,1.604-1.298,2.907-2.905,2.907c-1.603,0-2.903-1.302-2.903-2.907    c0-1.604,1.3-2.903,2.903-2.903C91.844,228.897,93.142,230.197,93.142,231.8z"/>
		<path fill="none" stroke="#45413C" stroke-linecap="round" stroke-linejoin="round" stroke-miterlimit="10" d="M101.856,240.057    c3.078,2.566,6.971,2.887,10.253,0.96c0.469-0.273,0.925-0.595,1.365-0.96"/>
	</g>
	<path fill="#87898C" stroke="#45413C" stroke-linecap="round" stroke-linejoin="round" stroke-miterlimit="10" d="M67.001,225.992   L67.001,225.992v-32.674h14.52v18.149C81.521,219.489,75.021,225.992,67.001,225.992z"/>
	<path fill="#F0C2A1" d="M96.049,263.968c-25.668,0-46.475,20.806-46.475,46.474v5.807h0.822   c4.022-21.565,22.914-37.904,45.653-37.904c22.734,0,41.623,16.339,45.65,37.904h0.82v-5.807   C142.519,284.774,121.712,263.968,96.049,263.968z"/>
	<path fill="none" stroke="#45413C" stroke-linecap="round" stroke-linejoin="round" stroke-miterlimit="10" d="M142.519,310.442   c0-25.668-20.807-46.474-46.47-46.474c-25.668,0-46.475,20.806-46.475,46.474v5.807h17.427v37.763h63.899v-37.763h11.618V310.442z"/>
	<path opacity="0.15" fill="#45413C" d="M150.95,446.467c0,4-21.614,7.242-48.275,7.242c-26.66,0-48.274-3.242-48.274-7.242   c0-3.996,21.614-7.242,48.274-7.242C129.336,439.225,150.95,442.471,150.95,446.467z"/>
	<path fill="#915E3A" stroke="#45413C" stroke-linecap="round" stroke-linejoin="round" stroke-miterlimit="10" d="M117.108,175.888   H80.795c-7.62,0-13.793,6.176-13.793,13.792v12.35h63.899v-12.35C130.901,182.063,124.726,175.888,117.108,175.888z"/>
	<path fill="#915E3A" stroke="#45413C" stroke-linejoin="round" stroke-miterlimit="10" d="M98.951,175.888   c0,0-17.43,8.715-17.43,23.237"/>
	<path fill="#915E3A" stroke="#45413C" stroke-linejoin="round" stroke-miterlimit="10" d="M98.951,175.888   c0,0,17.427,8.715,17.427,23.237"/>
	<g>
		<path fill="#DEA47A" d="M86.91,406.297c2.565,0,4.683-2.014,4.819-4.572l1.161-21.578c0.14-3.24,2.813-5.801,6.062-5.801    c3.249,0,5.92,2.561,6.063,5.801l1.156,21.578c0.14,2.559,2.256,4.572,4.822,4.572h15.082c2.664,0,4.826-2.164,4.826-4.832    v-53.264h-29.045h-5.807H67.001v53.264c0,2.668,2.159,4.832,4.826,4.832H86.91z"/>
		<rect x="67.001" y="354.012" fill="#BF8256" width="63.899" height="11.615"/>
		<path fill="none" stroke="#45413C" stroke-linecap="round" stroke-linejoin="round" stroke-miterlimit="10" d="M92.89,380.146    c0.14-3.24,2.813-5.801,6.062-5.801c3.249,0,5.92,2.561,6.063,5.801l1.156,21.578c0.14,2.559,2.256,4.572,4.822,4.572h15.082    c2.664,0,4.826-2.164,4.826-4.832v-53.264h-29.045h-5.807H67.001v53.264c0,2.668,2.159,4.832,4.826,4.832H86.91    c2.565,0,4.683-2.014,4.819-4.572L92.89,380.146z"/>
	</g>
	<path fill="#87898C" stroke="#45413C" stroke-linecap="round" stroke-linejoin="round" stroke-miterlimit="10" d="M139.616,444.055   c0-10.4-10.167-14.52-19.16-14.52h-7.961c-2.667,0-4.828,2.16-4.828,4.822v4.867c0,2.668,2.161,4.83,4.828,4.83H139.616z"/>
	<path fill="#87898C" stroke="#45413C" stroke-linecap="round" stroke-linejoin="round" stroke-miterlimit="10" d="M98.951,444.055   c0-10.4-10.165-14.52-19.158-14.52h-7.965c-2.667,0-4.826,2.16-4.826,4.822v4.867c0,2.668,2.159,4.83,4.826,4.83H98.951z"/>
	<path fill="#FFFFFF" stroke="#45413C" stroke-linecap="round" stroke-linejoin="round" stroke-miterlimit="10" d="M67.001,356.916"/>
	<path fill="#D18660" stroke="#45413C" stroke-linecap="round" stroke-linejoin="round" stroke-miterlimit="10" d="M67.001,368.535   c0,4.811-3.901,8.713-8.713,8.713c-4.813,0-8.714-3.902-8.714-8.713v-52.287h17.427V368.535z"/>
	
		<line fill="#00B8F0" stroke="#45413C" stroke-linecap="round" stroke-linejoin="round" stroke-miterlimit="10" x1="130.901" y1="316.249" x2="130.901" y2="298.826"/>
	
		<line fill="#00B8F0" stroke="#45413C" stroke-linecap="round" stroke-linejoin="round" stroke-miterlimit="10" x1="67.001" y1="316.249" x2="67.001" y2="298.826"/>
	<path fill="#D18660" stroke="#45413C" stroke-linecap="round" stroke-linejoin="round" stroke-miterlimit="10" d="M96.049,263.968   c-4.501,0-8.84,0.671-12.956,1.865l15.858,27.184l14.879-25.51C108.351,265.236,102.348,263.968,96.049,263.968z"/>
	<path fill="#F0C2A1" stroke="#45413C" stroke-linecap="round" stroke-linejoin="round" stroke-miterlimit="10" d="M121.903,271.825   c-2.525-1.693-5.23-3.138-8.075-4.315l-14.877,25.507c7.929-6.515,15.311-9.708,23.332-11.18c1.466-0.27,2.382-1.725,1.911-3.143   L121.903,271.825z"/>
	<path fill="#F0C2A1" stroke="#45413C" stroke-linecap="round" stroke-linejoin="round" stroke-miterlimit="10" d="M98.951,293.017   l-15.856-27.178c-1.991,0.575-3.929,1.271-5.801,2.102l-3.585,10.757c-0.47,1.415,0.446,2.87,1.91,3.14   C83.641,283.309,91.024,286.502,98.951,293.017z"/>
	
		<line fill="#FFCEBF" stroke="#45413C" stroke-linecap="round" stroke-linejoin="round" stroke-miterlimit="10" x1="98.951" y1="293.017" x2="98.951" y2="307.537"/>
	
		<rect x="67.001" y="345.297" fill="#A86C4D" stroke="#45413C" stroke-linecap="round" stroke-linejoin="round" stroke-miterlimit="10" width="63.899" height="11.619"/>
	
		<rect x="90.236" y="345.297" fill="#FFE500" stroke="#45413C" stroke-linecap="round" stroke-linejoin="round" stroke-miterlimit="10" width="17.43" height="11.619"/>
	<path fill="#DEA47A" stroke="#45413C" stroke-linecap="round" stroke-linejoin="round" stroke-miterlimit="10" d="M67.001,202.03   l6.596,8.797c1.221,1.625,3.329,2.314,5.275,1.72c12.26-3.747,31.762-4.131,48.78,0.061c1.893,0.467,3.879-0.251,5.038-1.818   c1.156-1.57,1.259-3.68,0.256-5.353l-2.045-3.407C119.284,196.222,90.236,196.222,67.001,202.03z"/>
	<path fill="#DEBB7E" stroke="#45413C" stroke-linecap="round" stroke-linejoin="round" stroke-miterlimit="10" d="M161.158,356.916   h-48.895c-2.539,0-4.597-2.055-4.597-4.596v-48.896c0-2.541,2.058-4.599,4.597-4.599h48.895c2.539,0,4.598,2.058,4.598,4.599   v48.896C165.756,354.861,163.697,356.916,161.158,356.916z"/>
	<path fill="#D18660" stroke="#45413C" stroke-linecap="round" stroke-linejoin="round" stroke-miterlimit="10" d="M161.915,344.266   c-2.173-4.293-7.419-6.008-11.711-3.836c-4.292,2.174-6.012,7.418-3.837,11.709l3.067,6.062c0.579,1.141,1.587,2.006,2.806,2.406   c1.217,0.4,2.542,0.297,3.685-0.277l6.934-3.518c2.377-1.207,3.33-4.107,2.124-6.486L161.915,344.266z"/>
	<path fill="#F7E5C6" stroke="#45413C" stroke-linecap="round" stroke-linejoin="round" stroke-miterlimit="10" d="M143.127,324.967   h-12.832c-1.269,0-2.299-1.033-2.299-2.299v-23.842h17.429v23.842C145.426,323.934,144.398,324.967,143.127,324.967z"/>
</g>
<g>
	<path fill="#FFCEBF" stroke="#45413C" stroke-linecap="round" stroke-linejoin="round" stroke-miterlimit="10" d="M484.586,368.535   c0,4.811,3.897,8.713,8.711,8.713c4.812,0,8.715-3.902,8.715-8.713v-52.287h-17.426V368.535z"/>
	<path opacity="0.15" fill="#45413C" d="M571.482,446.467c0,4-21.613,7.242-48.273,7.242c-26.666,0-48.275-3.242-48.275-7.242   c0-3.996,21.609-7.242,48.275-7.242C549.869,439.225,571.482,442.471,571.482,446.467z"/>
	<path fill="#00B8F0" d="M537.226,436.162l-3.008-56.016c-0.144-3.24-2.815-5.801-6.066-5.801c-3.246,0-5.918,2.561-6.057,5.801   l-3.008,56.033l-22.881-0.053v-87.926h29.04h5.811h29.05v87.979L537.226,436.162z"/>
	<rect x="496.206" y="354.012" fill="#009FD9" width="63.9" height="11.615"/>
	<path fill="none" stroke="#45413C" stroke-linecap="round" stroke-linejoin="round" stroke-miterlimit="10" d="M537.226,436.162   l-3.008-56.016c-0.144-3.24-2.815-5.801-6.066-5.801c-3.246,0-5.918,2.561-6.057,5.801l-3.008,56.033l-22.881-0.053v-87.926h29.04   h5.811h29.05v87.979L537.226,436.162z"/>
	<path fill="#DEBB7E" stroke="#45413C" stroke-linecap="round" stroke-linejoin="round" stroke-miterlimit="10" d="M487.486,444.055   c0-10.4,10.17-14.52,19.163-14.52h12.792v9.689c0,2.668-2.159,4.83-4.826,4.83H487.486z"/>
	<path fill="#DEBB7E" stroke="#45413C" stroke-linecap="round" stroke-linejoin="round" stroke-miterlimit="10" d="M528.151,444.055   c0-10.4,10.169-14.52,19.163-14.52h12.792v9.689c0,2.668-2.165,4.83-4.832,4.83H528.151z"/>
	<path fill="#FFFFFF" stroke="#45413C" stroke-linecap="round" stroke-linejoin="round" stroke-miterlimit="10" d="M560.106,356.916   "/>
	<path fill="#FFCEBF" stroke="#45413C" stroke-linecap="round" stroke-linejoin="round" stroke-miterlimit="10" d="M528.151,184.603   c16.043,0,29.049,13.005,29.049,29.047v5.81c8.293,0,7.728,14.522-1.449,14.522l-0.028-0.007   c-3.716,11.756-14.582,20.337-27.571,20.337c-16.037,0-29.045-13.002-29.045-29.045V213.65   C499.106,197.607,512.114,184.603,528.151,184.603z"/>
	<g>
		<g>
			<path fill="#45413C" d="M533.238,216.552c-2.007,0-3.632,1.625-3.632,3.632c0,2.005,1.625,3.63,3.632,3.63     c2.003,0,3.627-1.625,3.627-3.63C536.865,218.178,535.241,216.552,533.238,216.552L533.238,216.552z"/>
		</g>
	</g>
	<g>
		<g>
			<path fill="#45413C" d="M511.453,216.552c-2.007,0-3.628,1.625-3.628,3.632c0,2.005,1.621,3.63,3.628,3.63     c2.004,0,3.628-1.625,3.628-3.63C515.081,218.178,513.457,216.552,511.453,216.552L511.453,216.552z"/>
		</g>
	</g>
	<path fill="#FFB59E" d="M536.865,231.8c0,1.604,1.304,2.907,2.906,2.907c1.602,0,2.904-1.302,2.904-2.907   c0-1.604-1.303-2.903-2.904-2.903C538.169,228.897,536.865,230.197,536.865,231.8z"/>
	<path fill="none" stroke="#45413C" stroke-linecap="round" stroke-linejoin="round" stroke-miterlimit="10" d="M529.606,236.609   c-3.849,3.206-8.715,3.608-12.819,1.203c-0.584-0.344-1.157-0.744-1.706-1.203"/>
	<path fill="#FFE500" d="M499.106,210.747c-5.81-2.909-2.371-17.888,2.905-20.333l-3.776-3.021   c-3.565-2.854-1.549-8.601,3.018-8.601h35.612c12.833,0,23.241,10.406,23.241,23.238v17.429c-17.431,0-17.062-13.705-31.955-17.429   c-0.382,3.385-4.71,6.57-11.615,8.717c0-8.717-8.715-8.717-8.715-8.717L499.106,210.747z"/>
	<path fill="#FFF48C" d="M559.948,199.35c-1.329-11.571-11.156-20.557-23.083-20.557h-35.612c-4.566,0-6.583,5.747-3.018,8.599   l3.776,3.023h34.392C545.406,190.415,553.713,193.807,559.948,199.35z"/>
	<path fill="none" stroke="#45413C" stroke-linecap="round" stroke-linejoin="round" stroke-miterlimit="10" d="M499.106,210.747   c-5.81-2.909-2.371-17.888,2.905-20.333l-3.776-3.021c-3.565-2.854-1.549-8.601,3.018-8.601h35.612   c12.833,0,23.241,10.406,23.241,23.238v17.429c-17.431,0-17.062-13.705-31.955-17.429c-0.382,3.385-4.71,6.57-11.615,8.717   c0-8.717-8.715-8.717-8.715-8.717L499.106,210.747z"/>
	<path fill="#F0F0F0" d="M484.586,310.442c0-25.668,20.807-46.474,46.471-46.474c25.667,0,46.475,20.806,46.475,46.474v5.807   h-17.425v37.763h-63.9v-37.763h-11.62V310.442z"/>
	<path fill="#FFFFFF" d="M531.057,263.968c-25.664,0-46.471,20.806-46.471,46.474v5.807h0.822   c4.023-21.565,22.911-37.904,45.648-37.904c22.736,0,41.63,16.339,45.653,37.904h0.821v-5.807   C577.531,284.774,556.724,263.968,531.057,263.968z"/>
	<path fill="none" stroke="#45413C" stroke-linecap="round" stroke-linejoin="round" stroke-miterlimit="10" d="M484.586,310.442   c0-25.668,20.807-46.474,46.471-46.474c25.667,0,46.475,20.806,46.475,46.474v5.807h-17.425v37.763h-63.9v-37.763h-11.62V310.442z"/>
	
		<line fill="#00B8F0" stroke="#45413C" stroke-linecap="round" stroke-linejoin="round" stroke-miterlimit="10" x1="496.206" y1="316.249" x2="496.206" y2="298.826"/>
	
		<line fill="#00B8F0" stroke="#45413C" stroke-linecap="round" stroke-linejoin="round" stroke-miterlimit="10" x1="560.106" y1="316.249" x2="560.106" y2="298.826"/>
	<path fill="#FFCEBF" stroke="#45413C" stroke-linecap="round" stroke-linejoin="round" stroke-miterlimit="10" d="M528.151,281.398   c-7.853,0-14.121-6.277-14.371-14.072c5.342-2.146,11.165-3.358,17.276-3.358c3.941,0,7.75,0.545,11.403,1.47   C543.281,274.097,536.642,281.398,528.151,281.398z"/>
	<path fill="#FFCEBF" stroke="#45413C" stroke-miterlimit="10" d="M560.106,316.249v2.909c0,15.956-13.767,26.139-23.241,26.139   h-5.809c-4.805,0-8.71,3.91-8.71,8.715c0,4.809,3.905,8.715,8.71,8.715h5.809c19.199,0,40.666-18.633,40.666-43.569v-2.909H560.106   z"/>
</g>
<text transform="matrix(1 0 0 1 340.9521 74.2075)"><tspan x="0" y="0" font-family="'OpenSans-Bold'" font-size="19.7503">“How much is </tspan><tspan x="0" y="23.7" font-family="'OpenSans-Bold'" font-size="19.7503">for express mail?”</tspan></text>
<text transform="matrix(1 0 0 1 284.332 225.8359)"><tspan x="0" y="0" font-family="'OpenSans-Bold'" font-size="19.69">“Is standard mail</tspan><tspan x="0" y="23.628" font-family="'OpenSans-Bold'" font-size="19.69">cheaper?”</tspan></text>
<text transform="matrix(1 0 0 1 191.7856 143.5801)" font-family="'OpenSans-Bold'" font-size="33.8389">99.99</text>
<path fill="#F7931E" d="M334.702,311.31c0-3.887-3.149-7.036-7.031-7.036H191.833c-3.885,0-7.035,3.149-7.035,7.036v54.522  c0,3.883,3.148,7.033,7.033,7.033h88.945c1.615,0,2.923,1.309,2.923,2.922v7.609c0,1.182,0.711,2.248,1.805,2.699  c1.093,0.453,2.35,0.203,3.187-0.633l11.738-11.742c0.549-0.547,1.294-0.855,2.066-0.855h25.175c3.882,0,7.031-3.15,7.031-7.035  V311.31z"/>
<text transform="matrix(1 0 0 1 229.7856 349.4961)" fill="#FFFFFF" font-family="'OpenSans-Bold'" font-size="33.8389">Yes</text>









</svg>