<svg version="1.1" id="Layer_1" xmlns="http://www.w3.org/2000/svg" xmlns:xlink="http://www.w3.org/1999/xlink" x="0px"
    y="0px" width="1024px" height="768px" viewBox="0 0 1024 768" enable-background="new 0 0 1024 768" xml:space="preserve">

    <g>
        <path fill="#FFFFFF" d="M707.722,517.776h244.016V247.801H707.722" />
        <polyline fill="#1B3958" points="707.722,247.799 951.737,247.799 951.737,218.629 707.722,218.629 	" />
        <polyline fill="#1B3958" points="728.488,370.414 930.97,370.414 930.97,285.25 728.488,285.25 	" />
        <path fill="#06A1F2" d="M728.486,269.957h41.429v-6.869h-41.429" />
        <path fill="#FF3279" d="M782.165,269.957h41.436v-6.869h-41.436" />
        <path fill="#06A1F2" d="M835.858,269.957h41.427v-6.869h-41.427 M889.54,269.957h41.432v-6.869h-41.427" />
        <polyline fill="#A4CA39" points="728.488,437.34 780.126,437.34 780.126,385.702 728.488,385.702 	" />
        <polyline fill="#D9D8D7" points="728.488,448.558 780.126,448.558 780.126,444.873 728.488,444.873 	" />
        <polyline fill="#D9D8D7" points="728.488,455.93 780.126,455.93 780.126,452.242 728.488,452.242 	" />
        <polyline fill="#D9D8D7" points="728.488,463.32 754.314,463.32 754.314,459.621 728.488,459.621 	" />
        <polyline fill="#FFDC1A" points="803.908,437.34 855.551,437.34 855.551,385.702 803.908,385.702 	" />
        <polyline fill="#D9D8D7" points="803.908,448.558 855.557,448.558 855.557,444.873 803.908,444.873 	" />
        <polyline fill="#D9D8D7" points="803.908,455.93 855.557,455.93 855.557,452.242 803.908,452.242 	" />
        <polyline fill="#D9D8D7" points="803.908,463.32 829.742,463.32 829.742,459.621 803.908,459.621 	" />
        <path fill="#FF3279" d="M879.328,437.34h51.642v-51.638h-51.642" />
        <path fill="#D9D8D7" d="M879.343,448.558h51.647v-3.685h-51.647 M879.343,455.93h51.647v-3.688h-51.647 M879.34,463.32h25.82
            v-3.699h-25.82" />
        <rect x="737.585" y="480.807" fill="#A4CA39" width="33.444" height="7.601" />
        <rect x="814.609" y="480.807" fill="#FFDC1A" width="33.447" height="7.601" />
        <rect x="886.352" y="480.807" fill="#FF3279" width="33.446" height="7.601" />
        <g>
            <rect x="707.722" y="517.776" fill="#64798A" width="244.016" height="29.08" />
            <path fill="#FFFFFF" d="M908.466,525.576c3.135,0,5.676,2.541,5.676,5.677c0,3.133-2.541,5.674-5.676,5.674
                c-3.131,0-5.674-2.541-5.674-5.674C902.792,528.117,905.335,525.576,908.466,525.576z" />
            <circle fill="#FFFFFF" cx="929.747" cy="531.251" r="5.675" />
            <rect x="718.362" y="524.869" fill="#3A556A" width="51.782" height="7.093" />
        </g>
        <g>
            <g>
                <path fill="#FFFFFF" d="M745.023,334.186c-0.582,0-0.582,0-1.167-0.585l-4.673-4.673c-0.584-0.584-0.584-1.752,0-2.336
                    l4.673-4.672c0.585-0.585,1.752-0.585,2.337,0c0.584,0.583,0.584,1.751,0,2.336l-3.506,3.504l3.506,3.505
                    c0.584,0.585,0.584,1.753,0,2.336C746.193,334.186,745.608,334.186,745.023,334.186z" />
            </g>
            <g>
                <path fill="#FFFFFF" d="M914.436,334.186c0.583,0,0.583,0,1.167-0.585l4.674-4.673c0.583-0.584,0.583-1.752,0-2.336l-4.674-4.672
                    c-0.584-0.585-1.751-0.585-2.336,0c-0.585,0.583-0.585,1.751,0,2.336l3.505,3.504l-3.505,4.09c-0.585,0.583-0.585,1.751,0,2.337
                    C913.267,334.186,913.852,334.186,914.436,334.186z" />
            </g>
        </g>
        <rect x="717.452" y="226.677" fill="#EBF0F3" width="177.992" height="11.552" />
        <g>
            <circle fill="#E56353" cx="939.896" cy="233.016" r="3.768" />
            <path fill="#44C4A1" d="M928.176,229.248c2.079,0,3.766,1.687,3.766,3.768s-1.687,3.769-3.766,3.769
                c-2.083,0-3.771-1.688-3.771-3.769S926.093,229.248,928.176,229.248z" />
            <path fill="#FCD462" d="M916.87,229.248c2.078,0,3.769,1.687,3.769,3.768s-1.69,3.769-3.769,3.769
                c-2.082,0-3.769-1.688-3.769-3.769S914.788,229.248,916.87,229.248z" />
        </g>
    </g>
    <rect x="708" y="247" opacity="0.59" fill="#231F20" width="244" height="300" />
    <g>
        <path fill="#06A1F2" d="M828.896,254.346h175.873v104.907H828.896V254.346z" />
        <path opacity="0.6" fill="#1B3958" enable-background="new    " d="M828.896,330.501h175.873v28.751H828.896V330.501z" />
        <path fill="#6BB9E3" d="M844.322,338.271h97.193v13.21h-97.193V338.271z M945.372,338.271h45.512v13.21h-45.512V338.271z" />
        <path fill="#126295" d="M953.086,343.712h30.084v2.33h-30.084V343.712z" />
        <path opacity="0.5" fill="#FFFFFF" enable-background="new    " d="M856.665,274.483c0,0.92-0.317,1.697-0.947,2.342
            c-0.63,0.642-1.395,0.962-2.292,0.962c-0.901,0-1.667-0.321-2.297-0.962c-0.63-0.644-0.944-1.422-0.944-2.341
            c0-0.91,0.314-1.697,0.944-2.33c0.63-0.632,1.396-0.957,2.297-0.957c0.897,0,1.666,0.325,2.292,0.972
            c0.63,0.646,0.947,1.419,0.947,2.342V274.483z M873.944,281.091v7.706h-23.76v-3.3l5.399-5.509l2.7,2.754l8.641-8.809
            L873.944,281.091z M875.563,268.98h-26.998c-0.148,0-0.274,0.055-0.38,0.164c-0.108,0.107-0.159,0.23-0.159,0.385v20.904
            c0,0.14,0.051,0.278,0.159,0.386c0.108,0.107,0.231,0.154,0.38,0.154h26.998c0.144,0,0.271-0.056,0.38-0.165
            c0.107-0.108,0.159-0.24,0.159-0.386v-20.892c0-0.15-0.054-0.278-0.159-0.386C875.834,269.038,875.707,268.98,875.563,268.98z
                M878.263,269.531v20.917c0,0.755-0.266,1.403-0.792,1.943c-0.53,0.54-1.166,0.808-1.907,0.808h-26.998
            c-0.745,0-1.38-0.27-1.907-0.808c-0.529-0.541-0.794-1.188-0.794-1.943v-20.917c0-0.756,0.263-1.404,0.794-1.944
            c0.527-0.539,1.162-0.808,1.907-0.808h26.998c0.741,0,1.377,0.27,1.907,0.808C877.997,268.127,878.263,268.775,878.263,269.531z
                M885.205,268.334h68.653v6.993h-68.653V268.334z M885.205,279.991h91.794v3.107h-91.794V279.991z M885.205,287.76h84.08v3.108
            h-84.08V287.76z M844.322,303.302h145.791v3.108H844.322V303.302z M844.322,311.073h138.076v3.108H844.322V311.073z
                M844.322,318.844h145.791v3.108H844.322V318.844z" />
        <path opacity="0.5" fill="#004265" enable-background="new    " d="M990.884,268.334l2.962-4.015l-2.876-3.758h1.682l2.282,2.993
            l2.066-2.993h1.386l-2.7,3.943l2.938,3.83h-1.682l-2.345-3.078l-2.269,3.069" />
    </g>
    <polyline fill="#A4CA39" points="728.488,437.34 780.126,437.34 780.126,385.702 728.488,385.702 " />
    <g>
        <path fill="#353F49" d="M769.958,451.066l-16.144-40.007l40.003,16.128l-15.566,8.277" />
        <path fill="#353F49" d="M778.925,431.658l-4.496,4.511l13.326,13.315l4.493-4.508" />
        <path fill="#FFFFFF" d="M745.948,404.322l-5.149-5.155l1.141-1.123l5.145,5.143 M743.973,407.839l-6.725-2.792l0.6-1.469
            l6.732,2.783 M743.495,411.857l-7.29-0.005v-1.595h7.29 M737.855,418.551l-0.6-1.484l6.712-2.797l0.601,1.486 M741.915,424.094
            l-1.138-1.137l5.148-5.152l1.139,1.138 M747.792,427.645l-1.486-0.604l2.796-6.741l1.486,0.604 M752.988,428.666v-7.285h1.61v7.289
                M764.101,411.868h7.293v-1.603h-7.293 M763.637,407.849l-0.61-1.474l6.732-2.787l0.601,1.478 M761.65,404.34l-1.138-1.138
            l5.164-5.149l1.123,1.121 M758.481,401.843l-1.479-0.63l2.788-6.727l1.471,0.617 M752.979,400.734h1.61v-7.274h-1.61
                M749.092,401.843l-2.79-6.728l1.485-0.616l2.791,6.723" />
    </g>
    <g>
        <text transform="matrix(1 0 0 1 729.6113 141.5)" fill="#F7BE2C" font-family="'Roboto'" font-size="41.9282">JavaScript</text>
        <text transform="matrix(1 0 0 1 730.2793 178.5)" fill="#FFFFFF" font-family="'Roboto'" font-size="24">Interaction
            &amp; Logic</text>
    </g>
    <g>
        <text transform="matrix(1 0 0 1 476.2969 141.5)" fill="#00ABDD" font-family="'Roboto'" font-size="41.9282">CSS</text>
        <g>
            <text transform="matrix(1 0 0 1 398.7065 178.5)" fill="#FFFFFF" font-family="'Roboto'" font-size="24">Presentation
                &amp; Styling</text>
        </g>
    </g>
    <text transform="matrix(1 0 0 1 118.1328 141.5)" fill="#F9672E" font-family="'Roboto'" font-size="41.9282">HTML</text>
    <text transform="matrix(1 0 0 1 71.0015 178.5)" fill="#FFFFFF" font-family="'Roboto'" font-size="24">Content &amp;
        Structure</text>
    <text transform="matrix(1 0 0 1 103.0874 599.9785)" fill="#FFFFFF" font-family="'Hack'" font-size="24">index.html</text>
    <text transform="matrix(1 0 0 1 450.7671 599.9785)" fill="#FFFFFF" font-family="'Hack'" font-size="24">style.css</text>
    <text transform="matrix(1 0 0 1 764.9785 599.9785)" fill="#FFFFFF" font-family="'Hack'" font-size="24">script.js</text>
    <g>
        <path fill="#FFFFFF" d="M393.781,518.033h244.016V248.058H393.781" />
        <polyline fill="#1B3958" points="393.781,248.057 637.797,248.057 637.797,218.886 393.781,218.886 	" />
        <polyline fill="#1B3958" points="414.548,370.671 617.029,370.671 617.029,285.507 414.548,285.507 	" />
        <path fill="#06A1F2" d="M414.545,270.214h41.43v-6.868h-41.43" />
        <path fill="#FF3279" d="M468.225,270.214h41.435v-6.868h-41.435" />
        <path fill="#06A1F2" d="M521.918,270.214h41.426v-6.868h-41.426 M575.6,270.214h41.432v-6.868h-41.428" />
        <polyline fill="#A4CA39" points="414.548,437.598 466.186,437.598 466.186,385.96 414.548,385.96 	" />
        <polyline fill="#D9D8D7" points="414.548,448.814 466.186,448.814 466.186,445.131 414.548,445.131 	" />
        <polyline fill="#D9D8D7" points="414.548,456.188 466.186,456.188 466.186,452.5 414.548,452.5 	" />
        <polyline fill="#D9D8D7" points="414.548,463.578 440.374,463.578 440.374,459.879 414.548,459.879 	" />
        <polyline fill="#FFDC1A" points="489.968,437.598 541.609,437.598 541.609,385.96 489.968,385.96 	" />
        <polyline fill="#D9D8D7" points="489.968,448.814 541.615,448.814 541.615,445.131 489.968,445.131 	" />
        <polyline fill="#D9D8D7" points="489.968,456.188 541.615,456.188 541.615,452.5 489.968,452.5 	" />
        <polyline fill="#D9D8D7" points="489.968,463.578 515.801,463.578 515.801,459.879 489.968,459.879 	" />
        <path fill="#FF3279" d="M565.387,437.598h51.643V385.96h-51.643" />
        <path fill="#D9D8D7" d="M565.402,448.814h51.646v-3.684h-51.646 M565.402,456.188h51.646V452.5h-51.646 M565.398,463.578h25.822
            v-3.699h-25.822" />
        <rect x="423.645" y="481.064" fill="#A4CA39" width="33.444" height="7.6" />
        <rect x="500.669" y="481.064" fill="#FFDC1A" width="33.446" height="7.6" />
        <rect x="572.412" y="481.064" fill="#FF3279" width="33.445" height="7.6" />
        <g>
            <rect x="393.781" y="518.033" fill="#64798A" width="244.016" height="29.08" />
            <path fill="#FFFFFF" d="M594.525,525.834c3.135,0,5.676,2.541,5.676,5.676c0,3.133-2.541,5.674-5.676,5.674
                c-3.131,0-5.674-2.541-5.674-5.674C588.852,528.375,591.395,525.834,594.525,525.834z" />
            <circle fill="#FFFFFF" cx="615.807" cy="531.509" r="5.675" />
            <rect x="404.421" y="525.127" fill="#3A556A" width="51.783" height="7.092" />
        </g>
        <g>
            <g>
                <path fill="#FFFFFF" d="M431.083,334.443c-0.582,0-0.582,0-1.167-0.585l-4.673-4.673c-0.584-0.584-0.584-1.752,0-2.336
                    l4.673-4.672c0.584-0.585,1.752-0.585,2.337,0c0.583,0.583,0.583,1.751,0,2.337l-3.506,3.503l3.506,3.505
                    c0.583,0.585,0.583,1.753,0,2.336C432.253,334.443,431.668,334.443,431.083,334.443z" />
            </g>
            <g>
                <path fill="#FFFFFF" d="M600.494,334.443c0.584,0,0.584,0,1.168-0.585l4.674-4.673c0.582-0.584,0.582-1.752,0-2.336l-4.674-4.672
                    c-0.584-0.585-1.75-0.585-2.336,0c-0.586,0.583-0.586,1.751,0,2.337l3.504,3.503l-3.504,4.09c-0.586,0.583-0.586,1.751,0,2.337
                    C599.326,334.443,599.912,334.443,600.494,334.443z" />
            </g>
        </g>
        <rect x="403.512" y="226.934" fill="#EBF0F3" width="177.992" height="11.552" />
        <g>
            <circle fill="#E56353" cx="625.955" cy="233.273" r="3.768" />
            <circle fill="#44C4A1" cx="614.234" cy="233.273" r="3.768" />
            <circle fill="#FCD462" cx="602.93" cy="233.273" r="3.768" />
        </g>
    </g>
    <path fill="none" d="M348.855,472.992c0.063-0.156,0.13-0.315,0.193-0.466C348.98,472.681,348.916,472.82,348.855,472.992z" />
    <path fill="none" d="M348.377,474.229l0.159-0.407C348.479,473.945,348.427,474.087,348.377,474.229z" />
    <path fill="none" d="M349.422,471.659c0.076-0.163,0.154-0.325,0.234-0.485C349.591,471.338,349.51,471.497,349.422,471.659z" />
    <path fill="none" d="M349.994,470.554c0.126-0.239,0.256-0.476,0.389-0.708C350.25,470.078,350.12,470.314,349.994,470.554z" />
    <path fill="none" d="M351.349,468.248c0.215-0.33,0.436-0.654,0.665-0.976C351.784,467.591,351.563,467.916,351.349,468.248z" />
    <path fill="none" d="M350.733,469.229c0.109-0.184,0.22-0.365,0.335-0.545C350.953,468.863,350.843,469.045,350.733,469.229z" />
    <path fill="none" d="M347.939,475.561c0.021-0.086,0.051-0.176,0.075-0.262C347.986,475.385,347.961,475.47,347.939,475.561z" />
    <path fill="none" d="M347.26,478.246l0.025-0.131L347.26,478.246z" />
    <path fill="none" d="M347.002,479.75c0.018-0.113,0.035-0.229,0.055-0.347C347.037,479.506,347.02,479.622,347.002,479.75z" />
    <path fill="none" d="M347.56,476.92l0.095-0.378L347.56,476.92z" />
    <path fill="none" d="M353.963,464.811c0.187-0.212,0.377-0.408,0.573-0.627C354.34,464.391,354.149,464.599,353.963,464.811z" />
    <path fill="none" d="M346.727,482.641c0-0.11,0-0.225,0-0.336C346.735,482.416,346.73,482.53,346.727,482.641z" />
    <path fill="none" d="M352.906,466.073c0.328-0.414,0.67-0.823,1.021-1.223C353.576,465.247,353.234,465.654,352.906,466.073z" />
    <path fill="none" d="M356.57,462.223c-0.662,0.58-1.297,1.187-1.904,1.827C355.273,463.409,355.908,462.803,356.57,462.223z" />
    <path fill="none" d="M352.245,466.942c0.147-0.2,0.297-0.399,0.448-0.595C352.543,466.543,352.393,466.742,352.245,466.942z" />
    <path fill="none" d="M346.836,481.051" />
    <g>
        <path fill="#FFFFFF" d="M74.192,270.687h41.386v-6.86H74.192" />
        <path fill="#FFFFFF" d="M127.818,270.687h41.392v-6.86h-41.392" />
        <path fill="#FFFFFF" d="M181.455,270.687h41.384v-6.86h-41.384 M235.084,270.687h41.387v-6.86h-41.384" />
        <polyline fill="#FFFFFF" points="74.194,449.105 125.78,449.105 125.78,445.425 74.194,445.425 	" />
        <polyline fill="#FFFFFF" points="74.194,456.471 125.78,456.471 125.78,452.785 74.194,452.785 	" />
        <polyline fill="#FFFFFF" points="74.194,463.852 99.994,463.852 99.994,460.158 74.194,460.158 	" />
        <polyline fill="#FFFFFF" points="149.54,449.105 201.134,449.105 201.134,445.425 149.54,445.425 	" />
        <polyline fill="#FFFFFF" points="149.54,456.471 201.134,456.471 201.134,452.785 149.54,452.785 	" />
        <polyline fill="#FFFFFF" points="149.54,463.852 175.346,463.852 175.346,460.158 149.54,460.158 	" />
        <path fill="#FFFFFF" d="M224.896,449.105h51.593v-3.681h-51.593 M224.896,456.471h51.593v-3.686h-51.593 M224.893,463.852h25.793
            v-3.693h-25.793" />
        <rect x="83.284" y="481.321" fill="none" stroke="#FFFFFF" stroke-miterlimit="10" width="33.411" height="7.593" />
        <rect x="160.229" y="481.321" fill="none" stroke="#FFFFFF" stroke-miterlimit="10" width="33.41" height="7.593" />
        <rect x="231.898" y="481.321" fill="none" stroke="#FFFFFF" stroke-miterlimit="10" width="33.411" height="7.593" />

        <rect x="53.451" y="518.251" fill="none" stroke="#FFFFFF" stroke-width="2" stroke-miterlimit="10" width="243.765"
            height="29.053" />

        <rect x="53.451" y="218.696" fill="none" stroke="#FFFFFF" stroke-width="2" stroke-miterlimit="10" width="243.765"
            height="29.052" />
        <path fill="#FFFFFF" d="M253.989,526.045c3.132,0,5.669,2.539,5.669,5.67s-2.537,5.67-5.669,5.67c-3.128,0-5.667-2.539-5.667-5.67
            S250.861,526.045,253.989,526.045z" />
        <circle fill="#FFFFFF" cx="275.25" cy="531.715" r="5.67" />
        <rect x="64.079" y="525.338" fill="#FFFFFF" width="51.731" height="7.087" />
        <rect x="63.172" y="227.451" fill="none" stroke="#FFFFFF" stroke-miterlimit="10" width="177.809" height="11.542" />
        <g>
            <circle fill="#FFFFFF" cx="285.387" cy="233.785" r="3.764" />
            <circle fill="#FFFFFF" cx="273.678" cy="233.785" r="3.764" />
            <circle fill="#FFFFFF" cx="262.384" cy="233.785" r="3.764" />
        </g>

        <rect x="53.451" y="247.748" fill="none" stroke="#FFFFFF" stroke-width="2" stroke-miterlimit="10" width="243.765"
            height="270.503" />

        <rect x="74.525" y="285.966" fill="none" stroke="#FFFFFF" stroke-width="2" stroke-miterlimit="10" width="201.945"
            height="85.076" />

        <rect x="74.525" y="386.313" fill="none" stroke="#FFFFFF" stroke-width="2" stroke-miterlimit="10" width="51.255"
            height="51.586" />

        <rect x="149.705" y="386.313" fill="none" stroke="#FFFFFF" stroke-width="2" stroke-miterlimit="10" width="51.256"
            height="51.586" />

        <rect x="225.064" y="386.313" fill="none" stroke="#FFFFFF" stroke-width="2" stroke-miterlimit="10" width="51.255"
            height="51.586" />
        <g>
            <line fill="none" stroke="#FFFFFF" stroke-miterlimit="10" x1="74.525" y1="386.313" x2="125.78" y2="437.899" />
            <line fill="none" stroke="#FFFFFF" stroke-miterlimit="10" x1="125.78" y1="386.313" x2="74.525" y2="437.899" />
        </g>
        <g>
            <line fill="none" stroke="#FFFFFF" stroke-miterlimit="10" x1="150.459" y1="386.313" x2="201.714" y2="437.899" />
            <line fill="none" stroke="#FFFFFF" stroke-miterlimit="10" x1="201.714" y1="386.313" x2="150.459" y2="437.899" />
        </g>
        <g>
            <line fill="none" stroke="#FFFFFF" stroke-miterlimit="10" x1="224.873" y1="386.313" x2="276.13" y2="437.899" />
            <line fill="none" stroke="#FFFFFF" stroke-miterlimit="10" x1="276.13" y1="386.313" x2="224.873" y2="437.899" />
        </g>
        <g>
            <line fill="none" stroke="#FFFFFF" stroke-miterlimit="10" x1="74.525" y1="284.447" x2="276.471" y2="369.523" />
            <line fill="none" stroke="#FFFFFF" stroke-miterlimit="10" x1="276.471" y1="284.447" x2="74.525" y2="369.523" />
        </g>
        <g>

            <line fill="none" stroke="#FFFFFF" stroke-width="0.5" stroke-miterlimit="10" x1="83.637" y1="480.835" x2="116.694"
                y2="488.914" />

            <line fill="none" stroke="#FFFFFF" stroke-width="0.5" stroke-miterlimit="10" x1="116.694" y1="480.835" x2="83.637"
                y2="488.914" />
        </g>
        <g>

            <line fill="none" stroke="#FFFFFF" stroke-width="0.5" stroke-miterlimit="10" x1="161.09" y1="480.835" x2="194.148"
                y2="488.914" />

            <line fill="none" stroke="#FFFFFF" stroke-width="0.5" stroke-miterlimit="10" x1="194.148" y1="480.835" x2="161.09"
                y2="488.914" />
        </g>
        <g>

            <line fill="none" stroke="#FFFFFF" stroke-width="0.5" stroke-miterlimit="10" x1="232.467" y1="480.835" x2="265.525"
                y2="488.914" />

            <line fill="none" stroke="#FFFFFF" stroke-width="0.5" stroke-miterlimit="10" x1="265.525" y1="480.835" x2="232.467"
                y2="488.914" />
        </g>
    </g>

</svg>