<svg version="1.1" id="Layer_1" xmlns="http://www.w3.org/2000/svg" xmlns:xlink="http://www.w3.org/1999/xlink" x="0px"
    y="0px" width="1024px" height="768px" viewBox="0 0 1024 768" enable-background="new 0 0 1024 768" xml:space="preserve">

    <path fill="none" d="M348.855,472.992c0.063-0.156,0.13-0.315,0.193-0.466C348.98,472.681,348.916,472.82,348.855,472.992z" />
    <path fill="none" d="M348.377,474.229l0.159-0.407C348.479,473.945,348.427,474.087,348.377,474.229z" />
    <path fill="none" d="M349.422,471.659c0.076-0.163,0.154-0.325,0.234-0.485C349.591,471.338,349.51,471.497,349.422,471.659z" />
    <path fill="none" d="M349.994,470.554c0.126-0.239,0.256-0.476,0.389-0.708C350.25,470.078,350.12,470.314,349.994,470.554z" />
    <path fill="none" d="M351.349,468.248c0.215-0.33,0.436-0.654,0.665-0.976C351.784,467.591,351.563,467.916,351.349,468.248z" />
    <path fill="none" d="M350.733,469.229c0.109-0.184,0.22-0.365,0.335-0.545C350.953,468.863,350.843,469.045,350.733,469.229z" />
    <path fill="none" d="M347.939,475.561c0.021-0.086,0.051-0.176,0.075-0.262C347.986,475.385,347.961,475.47,347.939,475.561z" />
    <path fill="none" d="M347.26,478.246l0.025-0.131L347.26,478.246z" />
    <path fill="none" d="M347.002,479.75c0.018-0.113,0.035-0.229,0.055-0.347C347.037,479.506,347.02,479.622,347.002,479.75z" />
    <path fill="none" d="M347.56,476.92l0.095-0.378L347.56,476.92z" />
    <path fill="none" d="M353.963,464.811c0.187-0.212,0.377-0.408,0.573-0.627C354.34,464.391,354.149,464.599,353.963,464.811z" />
    <path fill="none" d="M346.727,482.641c0-0.11,0-0.225,0-0.336C346.735,482.416,346.73,482.53,346.727,482.641z" />
    <path fill="none" d="M352.906,466.073c0.328-0.414,0.67-0.823,1.021-1.223C353.576,465.247,353.234,465.654,352.906,466.073z" />
    <path fill="none" d="M356.57,462.223c-0.662,0.58-1.297,1.187-1.904,1.827C355.273,463.409,355.908,462.803,356.57,462.223z" />
    <path fill="none" d="M352.245,466.942c0.147-0.2,0.297-0.399,0.448-0.595C352.543,466.543,352.393,466.742,352.245,466.942z" />
    <path fill="none" d="M346.836,481.051" />
    <text transform="matrix(1 0 0 1 296.415 115.0674)">
        <tspan x="0" y="0" fill="#FFFFFF" font-family="'Roboto'" font-size="41.9282">A Basic understanding </tspan>
        <tspan x="-47.743" y="50.313" fill="#FFFFFF" font-family="'Roboto'" font-size="41.9282">of the </tspan>
        <tspan x="70.487" y="50.313" fill="#F7BE2C" font-family="'Roboto'" font-size="41.9282">JavaScript</tspan>
        <tspan x="271.878" y="50.313" fill="#FFFFFF" font-family="'Roboto'" font-size="41.9282"> Interpreter</tspan>
    </text>
    <rect x="217.806" y="222.562" fill="none" width="619.5" height="107.938" />
    <text transform="matrix(1 0 0 1 217.8057 240.5615)">
        <tspan x="0" y="0" fill="#FFFFFF" font-family="'Roboto'" font-size="24">For example, we can write a series of
            statements, instruct</tspan>
        <tspan x="612.082" y="0" fill="#FFFFFF" font-family="'Roboto'" font-size="24">-</tspan>
        <tspan x="0" y="30" fill="#FFFFFF" font-family="'Roboto'" font-size="24">ing JavaScript to display a modal window
            whenever the </tspan>
        <tspan x="0" y="60" fill="#FFFFFF" font-family="'Roboto'" font-size="24">user clicks on a specific button on the
            page.</tspan>
    </text>
    <g>
        <path fill="#78909C" d="M519.97,554.248H502.03c-5.111,0-9.253-4.141-9.253-9.252V490.47h36.445v54.526
            C529.223,550.107,525.081,554.248,519.97,554.248z" />
        <path fill="#90A4AE" d="M474.555,403.772v-27.051c0-2.591,2.105-4.696,4.697-4.696h63.496c2.594,0,4.697,2.105,4.697,4.696v27.051
            c0,2.593-2.104,4.698-4.697,4.698h-63.496C476.66,408.471,474.555,406.365,474.555,403.772z M457.531,431.407
            c-2.431-0.655-4.934,0.77-5.595,3.198l-12.9,47.306c-5.768,1.603-10.037,6.842-10.037,13.114c0,2.52,2.041,4.556,4.556,4.556
            c2.515,0,4.555-2.036,4.555-4.556c0-2.515,2.045-4.556,4.555-4.556c2.511,0,4.556,2.041,4.556,4.556
            c0,2.52,2.041,4.556,4.555,4.556c2.516,0,4.555-2.036,4.555-4.556c0-5.526-3.311-10.271-8.04-12.423l12.437-45.601
            C461.389,434.573,459.959,432.072,457.531,431.407z M582.964,481.911l-12.9-47.306c-0.666-2.434-3.186-3.851-5.596-3.198
            c-2.428,0.665-3.862,3.166-3.199,5.595l12.438,45.601c-4.729,2.151-8.04,6.896-8.04,12.423c0,2.52,2.035,4.556,4.555,4.556
            s4.557-2.036,4.557-4.556c0-2.515,2.039-4.556,4.555-4.556s4.555,2.041,4.555,4.556c0,2.52,2.037,4.556,4.557,4.556
            s4.557-2.036,4.557-4.556C593.001,488.753,588.73,483.514,582.964,481.911z M544.601,422.137h-67.203
            c-7.108,0-12.665,6.136-11.953,13.212l6.71,67.08c0.609,6.141,5.78,10.819,11.953,10.819h53.784
            c6.174,0,11.344-4.679,11.953-10.819l6.711-67.08C557.263,428.272,551.708,422.137,544.601,422.137z" />
        <rect x="492.777" y="444.915" fill="#607D8B" width="36.445" height="22.777" />
        <path fill="#455A64" d="M524.667,399.358h-27.333c-5.011,0-9.113-4.099-9.113-9.11l0,0c0-5.011,4.102-9.111,9.113-9.111h27.333
            c5.011,0,9.111,4.101,9.111,9.111l0,0C533.778,395.26,529.678,399.358,524.667,399.358z M465.445,435.804
            c0-5.034-4.079-9.111-9.113-9.111s-9.11,4.077-9.11,9.111s4.076,9.111,9.11,9.111S465.445,440.838,465.445,435.804z
                M529.223,513.248h-36.445v9.111h36.445V513.248z M529.223,531.471h-9.112c-2.515,0-4.556,2.041-4.556,4.556l0,0
            c0,2.515,2.041,4.554,4.556,4.554h9.112V531.471z M506.444,536.026L506.444,536.026c0-2.515-2.041-4.556-4.555-4.556h-9.111v9.109
            h9.111C504.403,540.58,506.444,538.541,506.444,536.026z M565.667,444.915c5.033,0,9.111-4.077,9.111-9.111
            s-4.078-9.111-9.111-9.111c-5.034,0-9.111,4.077-9.111,9.111S560.633,444.915,565.667,444.915z M515.555,414.287v-5.816h-9.111
            v5.816c-2.71,1.577-4.555,4.483-4.555,7.85h4.555h9.111h4.556C520.11,418.775,518.265,415.867,515.555,414.287z" />
        <path fill="#18FFFF" d="M492.777,390.248c0-2.514,2.041-4.557,4.557-4.557c2.514,0,4.555,2.043,4.555,4.557
            c0,2.515-2.041,4.555-4.555,4.555C494.818,394.803,492.777,392.763,492.777,390.248z M524.667,394.803
            c2.514,0,4.556-2.04,4.556-4.555c0-2.514-2.042-4.557-4.556-4.557c-2.515,0-4.557,2.043-4.557,4.557
            C520.11,392.763,522.152,394.803,524.667,394.803z" />
    </g>
    <text transform="matrix(1 0 0 1 63.2314 390.8838)">
        <tspan x="0" y="0" fill="#F7BE2C" font-family="'Hack'" font-size="24">&lt;script&gt;</tspan>
        <tspan x="0.522" y="65.28" fill="#F7BE2C" font-family="'Hack'" font-size="24"> </tspan>
        <tspan x="16.243" y="65.28" fill="#E6E6E6" font-family="'Hack'" font-size="24">if ( button.click ){</tspan>
        <tspan x="0" y="130.56" fill="#E6E6E6" font-family="'Hack'" font-size="24"> openModalWindow();</tspan>
        <tspan x="0" y="195.84" fill="#E6E6E6" font-family="'Hack'" font-size="24"> }</tspan>
        <tspan x="0" y="261.119" fill="#F7BE2C" font-family="'Hack'" font-size="24">&lt;/script&gt;</tspan>
    </text>
    <g>
        <path fill="#F5F5F5" d="M606.812,654.24c0,11.494,9.396,20.869,20.878,20.869h15.179c11.494,0,20.887-9.375,20.887-20.869v-59.717
            c0-11.482-9.374-20.872-20.868-20.872h-15.169c-11.481,0-20.878,9.39-20.878,20.872v59.717H606.812z" />
        <path fill="#E6E5E5" d="M616.436,576.996c-0.205,1.181-0.337,2.383-0.337,3.616v45.287c0,9.047,3.452,18.063,10.334,24.946
            c6.909,6.9,15.935,10.335,24.969,10.335h0.754c4.137,0,8.012-1.234,11.242-3.342c-1.693,9.77-10.271,17.242-20.528,17.242H627.69
            c-11.479,0-20.868-9.374-20.868-20.868v-59.71c0-7.349,3.855-13.813,9.626-17.532" />
        <path fill="#353F49" d="M630.539,595.466c0,2.631,2.107,4.747,4.747,4.747c2.631,0,4.729-2.116,4.729-4.75
            c0-2.618-2.101-4.751-4.729-4.751c-2.64,0-4.747,2.133-4.747,4.751" />
        <path fill="#ECF0F1" d="M718.626,705.04c20.151,0,36.546-16.403,36.549-36.564l0.012-15.46l-4.248-0.008l-0.018,15.468
            c0,17.818-14.505,32.316-32.302,32.316c-17.812,0-32.316-14.498-32.316-32.316h-0.095c0.095-1.161,0.095-2.962,0.095-5.739V505.147
            c0-14.657-11.932-26.582-26.596-26.582c-14.646,0-26.574,11.931-26.574,26.591l0.01,68.498h4.244l-0.012-68.493
            c0-12.324,10.021-22.345,22.329-22.345c12.321,0,22.345,10.021,22.345,22.345c0,115.188-0.006,152.635-0.009,161.212v2.133
            c0,20.16,16.403,36.562,36.552,36.562" />
    </g>
    <g>
        <path fill="#FFFFFF" d="M713.054,625.058h244.549V354.493H713.054" />
        <polyline fill="#1B3958" points="713.054,354.492 957.603,354.492 957.603,325.258 713.054,325.258 	" />
        <polyline fill="#1B3958" points="733.866,477.374 936.789,477.374 936.789,392.025 733.866,392.025 	" />
        <path fill="#06A1F2" d="M733.863,376.697h41.521v-6.883h-41.521" />
        <path fill="#FF3279" d="M787.66,376.697h41.525v-6.883H787.66" />
        <path fill="#06A1F2" d="M841.471,376.697h41.517v-6.883h-41.517 M895.27,376.697h41.521v-6.883h-41.518" />
        <polyline fill="#A4CA39" points="733.866,544.446 785.616,544.446 785.616,492.695 733.866,492.695 	" />
        <polyline fill="#D9D8D7" points="733.866,555.688 785.616,555.688 785.616,551.996 733.866,551.996 	" />
        <polyline fill="#D9D8D7" points="733.866,563.076 785.616,563.076 785.616,559.381 733.866,559.381 	" />
        <polyline fill="#D9D8D7" points="733.866,570.483 759.748,570.483 759.748,566.775 733.866,566.775 	" />
        <polyline fill="#FFDC1A" points="809.45,544.446 861.205,544.446 861.205,492.695 809.45,492.695 	" />
        <polyline fill="#D9D8D7" points="809.45,555.688 861.211,555.688 861.211,551.996 809.45,551.996 	" />
        <polyline fill="#D9D8D7" points="809.45,563.076 861.211,563.076 861.211,559.381 809.45,559.381 	" />
        <polyline fill="#D9D8D7" points="809.45,570.483 835.341,570.483 835.341,566.775 809.45,566.775 	" />
        <path fill="#FF3279" d="M885.034,544.446h51.755v-51.751h-51.755" />
        <path fill="#D9D8D7" d="M885.05,555.688h51.76v-3.692h-51.76 M885.05,563.076h51.76v-3.695h-51.76 M885.046,570.483h25.878v-3.708
            h-25.878" />
        <rect x="742.982" y="588.007" fill="#A4CA39" width="33.518" height="7.618" />
        <rect x="820.176" y="588.007" fill="#FFDC1A" width="33.519" height="7.618" />
        <rect x="892.074" y="588.007" fill="#FF3279" width="33.519" height="7.618" />
        <g>
            <rect x="713.054" y="625.058" fill="#64798A" width="244.549" height="29.145" />
            <path fill="#FFFFFF" d="M914.236,632.875c3.142,0,5.688,2.547,5.688,5.689c0,3.139-2.546,5.686-5.688,5.686
                c-3.138,0-5.687-2.547-5.687-5.686C908.55,635.422,911.099,632.875,914.236,632.875z" />
            <circle fill="#FFFFFF" cx="935.563" cy="638.562" r="5.688" />
            <rect x="723.718" y="632.166" fill="#3A556A" width="51.896" height="7.108" />
        </g>
        <g>
            <g>
                <path fill="#FFFFFF" d="M750.437,441.066c-0.583,0-0.583,0-1.169-0.587l-4.684-4.683c-0.585-0.585-0.585-1.756,0-2.342
                    l4.684-4.683c0.586-0.587,1.756-0.587,2.342,0c0.585,0.585,0.585,1.755,0,2.342l-3.514,3.511l3.514,3.514
                    c0.585,0.586,0.585,1.757,0,2.341C751.609,441.066,751.023,441.066,750.437,441.066z" />
            </g>
            <g>
                <path fill="#FFFFFF" d="M920.219,441.066c0.584,0,0.584,0,1.17-0.587l4.684-4.683c0.585-0.585,0.585-1.756,0-2.342l-4.684-4.683
                    c-0.586-0.587-1.756-0.587-2.341,0c-0.587,0.585-0.587,1.755,0,2.342l3.512,3.511l-3.512,4.1c-0.587,0.584-0.587,1.755,0,2.342
                    C919.048,441.066,919.633,441.066,920.219,441.066z" />
            </g>
        </g>
        <rect x="722.806" y="333.323" fill="#EBF0F3" width="178.381" height="11.578" />
        <g>
            <circle fill="#E56353" cx="945.734" cy="339.676" r="3.776" />
            <circle fill="#44C4A1" cx="933.988" cy="339.676" r="3.776" />
            <circle fill="#FCD462" cx="922.659" cy="339.676" r="3.776" />
        </g>
    </g>
    <g>
        <path fill="#06A1F2" d="M834.492,362.052h176.257v105.135H834.492V362.052z" />
        <path opacity="0.6" fill="#1B3958" enable-background="new    " d="M834.492,438.374h176.257v28.813H834.492V438.374z" />
        <path fill="#6BB9E3" d="M849.953,446.161h97.405V459.4h-97.405V446.161z M951.224,446.161h45.61V459.4h-45.61V446.161z" />
        <path fill="#126295" d="M958.953,451.614h30.15v2.334h-30.15V451.614z" />
        <path opacity="0.5" fill="#FFFFFF" enable-background="new    " d="M862.322,382.234c0,0.922-0.317,1.701-0.949,2.348
            c-0.631,0.643-1.397,0.964-2.297,0.964c-0.903,0-1.671-0.321-2.302-0.964c-0.631-0.646-0.946-1.426-0.946-2.347
            c0-0.911,0.315-1.701,0.946-2.335c0.631-0.633,1.398-0.957,2.302-0.957c0.899,0,1.67,0.324,2.297,0.973
            c0.632,0.646,0.949,1.423,0.949,2.348V382.234z M879.639,388.855v7.723h-23.811v-3.307l5.411-5.521l2.706,2.762l8.659-8.83
            L879.639,388.855z M881.263,376.719h-27.058c-0.148,0-0.275,0.056-0.381,0.165c-0.108,0.107-0.16,0.23-0.16,0.387v20.948
            c0,0.141,0.052,0.278,0.16,0.388c0.109,0.107,0.232,0.154,0.381,0.154h27.058c0.144,0,0.271-0.056,0.38-0.165
            c0.107-0.108,0.159-0.24,0.159-0.387v-20.938c0-0.15-0.054-0.279-0.159-0.387C881.533,376.777,881.406,376.719,881.263,376.719z
                M883.968,377.271v20.962c0,0.757-0.267,1.407-0.794,1.947c-0.531,0.542-1.169,0.812-1.911,0.812h-27.058
            c-0.746,0-1.383-0.271-1.912-0.812c-0.53-0.54-0.795-1.19-0.795-1.947v-20.962c0-0.758,0.264-1.408,0.795-1.949
            c0.529-0.54,1.166-0.809,1.912-0.809h27.058c0.742,0,1.38,0.27,1.911,0.809C883.701,375.863,883.968,376.514,883.968,377.271z
                M890.924,376.071h68.804v7.009h-68.804V376.071z M890.924,387.754h91.995v3.114h-91.995V387.754z M890.924,395.54h84.265v3.115
            h-84.265V395.54z M849.953,411.116h146.108v3.115H849.953V411.116z M849.953,418.903H988.33v3.115H849.953V418.903z
                M849.953,426.691h146.108v3.115H849.953V426.691z" />
        <path opacity="0.5" fill="#004265" enable-background="new    " d="M996.834,376.071l2.969-4.022l-2.883-3.767h1.686l2.287,2.999
            l2.071-2.999h1.388l-2.706,3.951l2.945,3.838h-1.686l-2.35-3.085l-2.274,3.077" />
    </g>
    <g>
        <path fill="#353F49" d="M775.427,559.203l-16.18-40.095l40.09,16.163l-15.6,8.295" />
        <path fill="#353F49" d="M784.412,539.752l-4.505,4.521l13.354,13.345l4.503-4.518" />
        <path fill="#FFFFFF" d="M751.364,512.355l-5.161-5.165l1.143-1.126l5.156,5.153 M749.385,515.881l-6.74-2.799l0.602-1.471
            l6.747,2.788 M748.905,519.908l-7.306-0.005v-1.599h7.306 M743.254,526.616l-0.602-1.487l6.728-2.804l0.602,1.489 M747.322,532.171
            l-1.141-1.14l5.16-5.163l1.141,1.141 M753.211,535.73l-1.488-0.606l2.802-6.755l1.489,0.605 M758.419,536.753v-7.301h1.614v7.305
                M769.556,519.919h7.309v-1.606h-7.309 M769.092,515.891l-0.612-1.477l6.747-2.794l0.603,1.481 M767.101,512.373l-1.141-1.14
            l5.175-5.16l1.126,1.123 M763.925,509.871l-1.481-0.632l2.794-6.74l1.474,0.619 M758.409,508.76h1.614v-7.29h-1.614
                M754.515,509.871l-2.796-6.742l1.488-0.617l2.797,6.737" />
    </g>
    <g>
        <path fill="#FFFFFF" d="M509.229,621.971c0.1-15.391,10.98-28.526,25.978-31.467l25.978-5c0.784-0.196,1.568,0.294,1.862,0.98
            c1.471,3.627,1.568,6.861,0.099,9.705c-1.274,2.549-3.823,4.705-7.548,6.469h33.035c4.411,0,8.137,3.628,8.137,8.039
            s-3.627,8.039-8.137,8.039h-13.332c1.176,1.273,1.862,2.842,1.862,4.803c0,2.254-0.588,4.117-1.96,5.49
            c-0.588,0.588-1.275,1.078-1.961,1.371c1.666,1.471,2.646,3.529,2.646,5.883c0.098,2.156-0.49,3.92-1.666,5.293
            c-0.883,0.98-2.059,1.666-3.529,2.059c0.196,0.196,0.294,0.393,0.49,0.588c1.373,2.156,2.156,5.588,0.588,8.431
            c-0.98,1.961-3.332,4.216-8.725,4.313c0,0,0,0-0.098,0l-25.684-0.393c-7.45-0.098-14.409-3.039-19.702-8.332
            c-5.295-5.293-8.234-12.254-8.234-19.703L509.229,621.971C509.329,622.068,509.329,621.971,509.229,621.971z M560.4,589.033
            l-24.605,4.705c-13.429,2.549-23.134,14.41-23.134,28.135c0,0.098,0,0.195,0,0.293l0.098,6.568
            c0.197,13.725,10.98,24.508,24.703,24.703l25.684,0.393c2.94-0.098,4.999-0.98,5.882-2.549c0.882-1.666,0.392-3.823-0.393-5.098
            c-0.588-0.784-1.274-1.274-1.765-1.274c-0.098,0-0.196,0-0.196,0c-0.098,0-9.215-0.49-12.645-0.49
            c-0.883,0-1.667-0.784-1.667-1.667l0,0c0-0.882,0.784-1.666,1.667-1.666h11.763c3.039,0,5.294-0.588,6.372-1.764
            c0.686-0.688,0.882-1.667,0.784-2.844v-0.098c0-2.646-2.157-4.705-4.804-4.705h-13.527c-0.883,0-1.667-0.785-1.667-1.667v-0.099
            c0-0.881,0.784-1.666,1.667-1.666h12.155c2.156,0,4.804-0.195,6.077-1.568c0.687-0.686,0.98-1.765,0.98-3.137
            c0-1.176-0.393-1.961-1.078-2.646c-1.373-1.373-3.921-1.863-6.666-2.156h-7.842c-1.373,0.098-2.451,0.098-3.137,0
            c-0.883-0.099-1.471-0.883-1.373-1.766c0.098-0.882,0.784-1.568,1.666-1.568h2.844c0.098,0,0.293,0,0.392,0
            c2.255-0.098,4.999-0.195,7.646,0h22.351c2.646,0,4.803-2.156,4.803-4.705s-2.156-4.705-4.803-4.705h-43.917
            c-0.784,0-1.47-0.588-1.667-1.373c-0.098-0.783,0.393-1.568,1.177-1.862c0.392-0.099,0.882-0.196,1.568-0.392
            c3.529-0.883,11.862-2.844,14.312-7.646C560.988,593.053,561.086,591.189,560.4,589.033z" />
    </g>

</svg>