<svg version="1.1" id="Layer_1" xmlns="http://www.w3.org/2000/svg" xmlns:xlink="http://www.w3.org/1999/xlink" x="0px" y="0px"
	 width="1024px" height="768px" viewBox="0 0 1024 768" enable-background="new 0 0 1024 768" xml:space="preserve">
	<path fill="none" d="M348.855,472.992c0.062-0.156,0.13-0.315,0.191-0.466C348.98,472.681,348.916,472.82,348.855,472.992z"/>
	<path fill="none" d="M348.377,474.229l0.159-0.405C348.479,473.945,348.427,474.087,348.377,474.229z"/>
	<path fill="none" d="M349.422,471.659c0.076-0.163,0.154-0.325,0.234-0.485C349.591,471.338,349.51,471.497,349.422,471.659z"/>
	<path fill="none" d="M349.994,470.554c0.126-0.237,0.256-0.476,0.389-0.708C350.25,470.078,350.12,470.314,349.994,470.554z"/>
	<path fill="none" d="M351.349,468.248c0.217-0.33,0.438-0.654,0.665-0.977C351.784,467.591,351.562,467.916,351.349,468.248z"/>
	<path fill="none" d="M350.733,469.229c0.107-0.184,0.22-0.363,0.335-0.545C350.953,468.863,350.843,469.045,350.733,469.229z"/>
	<path fill="none" d="M347.939,475.561c0.021-0.086,0.051-0.176,0.073-0.262C347.986,475.385,347.961,475.47,347.939,475.561z"/>
	<path fill="none" d="M347.26,478.246l0.025-0.131L347.26,478.246z"/>
	<path fill="none" d="M347.002,479.75c0.018-0.113,0.035-0.229,0.055-0.347C347.037,479.506,347.02,479.622,347.002,479.75z"/>
	<path fill="none" d="M347.56,476.92l0.097-0.378L347.56,476.92z"/>
	<path fill="none" d="M353.963,464.811c0.188-0.212,0.377-0.406,0.573-0.627C354.34,464.391,354.149,464.599,353.963,464.811z"/>
	<path fill="none" d="M346.727,482.641c0-0.108,0-0.225,0-0.336C346.735,482.416,346.73,482.53,346.727,482.641z"/>
	<path fill="none" d="M352.906,466.073c0.328-0.414,0.67-0.823,1.021-1.225C353.576,465.247,353.234,465.654,352.906,466.073z"/>
	<path fill="none" d="M356.57,462.223c-0.662,0.58-1.297,1.188-1.904,1.827C355.273,463.409,355.908,462.803,356.57,462.223z"/>
	<path fill="none" d="M352.245,466.942c0.146-0.2,0.297-0.399,0.448-0.597C352.543,466.543,352.393,466.742,352.245,466.942z"/>
	<path fill="none" d="M346.836,481.051"/>
	<text transform="matrix(1 0 0 1 296.415 115.0674)" font-family="'ArialMT'" font-size="12">         </text>
	<text transform="matrix(1 0 0 1 296.415 115.0674)" fill="#FFFFFF" font-family="'Roboto-Regular'" font-size="41.9282">A Basic understanding </text>
	<text transform="matrix(1 0 0 1 725.5859 115.0674)" font-family="'ArialMT'" font-size="12">         </text>
	<text transform="matrix(1 0 0 1 248.6719 165.3809)" fill="#FFFFFF" font-family="'Roboto-Regular'" font-size="41.9282">of the </text>
	<text transform="matrix(1 0 0 1 366.9023 165.3809)" font-family="'ArialMT'" font-size="12">         </text>
	<text transform="matrix(1 0 0 1 366.9019 165.3809)" fill="#F7BE2C" font-family="'Roboto-Regular'" font-size="41.9282">JavaScript</text>
	<text transform="matrix(1 0 0 1 563.748 165.3809)" font-family="'ArialMT'" font-size="12">         </text>
	<text transform="matrix(1 0 0 1 568.293 165.3809)" fill="#FFFFFF" font-family="'Roboto-Regular'" font-size="41.9282"> Interpreter</text>
	<text transform="matrix(1 0 0 1 772.9385 165.3809)" font-family="'ArialMT'" font-size="12">     </text>
	<rect x="217.806" y="222.562" fill="none" width="619.5" height="107.938"/>
	<text transform="matrix(1 0 0 1 217.8057 240.5615)" font-family="'ArialMT'" font-size="12">         </text>
	<text transform="matrix(1 0 0 1 217.8057 240.5615)" fill="#FFFFFF" font-family="'Roboto-Regular'" font-size="24">Dealing with Input means that the interpreter has to deal </text>
	<text transform="matrix(1 0 0 1 217.8057 270.5615)" fill="#FFFFFF" font-family="'Roboto-Regular'" font-size="24">with user input such as mouse clicks, entering text into</text>
	<text transform="matrix(1 0 0 1 431.9775 270.5615)" font-family="'ArialMT'" font-size="12">         </text>
	<text transform="matrix(1 0 0 1 1075.9775 329.5)" fill="#FFFFFF" font-family="'Roboto-Regular'" font-size="24"> as mouse clicks</text>
	<text transform="matrix(1 0 0 1 1084.9385 505.4609)" fill="#FFFFFF" font-family="'Roboto-Regular'" font-size="24">, entering text into input</text>
	<text transform="matrix(1 0 0 1 217.8057 300.5615)" fill="#FFFFFF" font-family="'Roboto-Regular'" font-size="24">input forms or even speech.</text>
	<text transform="matrix(1 0 0 1 281.3564 300.5615)" font-family="'ArialMT'" font-size="12">         </text>
	<text transform="matrix(1 0 0 1 371.4736 300.5615)" font-family="'ArialMT'" font-size="12">         </text>
	<text transform="matrix(1 0 0 1 448.8296 300.5615)" font-family="'ArialMT'" font-size="12">         </text>
	<text transform="matrix(1 0 0 1 449.5205 300.5615)" fill="#FFFFFF" font-family="'Roboto-Regular'" font-size="24">.</text>
	<rect x="217.806" y="333.531" fill="none" width="607.694" height="70.469"/>
	<text transform="matrix(1 0 0 1 217.8057 357.5312)" font-family="'ArialMT'" font-size="12">         </text>
	<text transform="matrix(1 0 0 1 217.8057 357.5312)" fill="#FFFFFF" font-family="'Roboto-Regular'" font-size="32">• Input </text>
	<text transform="matrix(1 0 0 1 316.8369 357.5312)" font-family="'ArialMT'" font-size="12">         </text>
	<text transform="matrix(1 0 0 1 319.2275 357.5312)" opacity="0.2" fill="#FFFFFF" enable-background="new    " font-family="'Roboto-Regular'" font-size="32">/ Output</text>
	<text transform="matrix(1 0 0 1 436.4775 357.5312)" font-family="'ArialMT'" font-size="12">         </text>
	<text transform="matrix(1 0 0 1 217.8057 395.9307)" opacity="0.2" fill="#FFFFFF" enable-background="new    " font-family="'Roboto-Regular'" font-size="32">• Data Manipulation (or Processing)</text>
	<text transform="matrix(1 0 0 1 817.415 395.9307)" font-family="'ArialMT'" font-size="12">     </text>
	<g>
		<path fill="#FFFFFF" d="M165.958,522.648c-1.043,0.572-1.754,1.684-1.754,2.952v9.776c0,1.271,0.711,2.381,1.754,2.952
			c0.047,0.022,0.094,0.043,0.138,0.063v-0.063c0.439,0.261,0.944,0.412,1.473,0.412c0.531,0,1.034-0.151,1.472-0.412v0.063
			c0.045-0.021,0.094-0.041,0.138-0.063c1.043-0.571,1.754-1.683,1.754-2.952v-9.776c0-1.271-0.71-2.38-1.754-2.95
			c-0.044-0.023-0.093-0.042-0.138-0.065v0.065c-0.438-0.261-0.941-0.412-1.472-0.412c-0.53,0-1.034,0.151-1.473,0.412v-0.065
			C166.051,522.607,166.004,522.627,165.958,522.648z"/>
		<path fill="#FFFFFF" d="M131.825,540.739v6.608c10.168,5.738,21.847,9.1,34.271,9.347v-8.143c-0.045-0.014-0.091-0.021-0.138-0.033
			c-2.695-0.716-4.695-3.185-4.695-6.098v-16.82c0-2.915,2-5.383,4.695-6.097c0.047-0.013,0.094-0.021,0.138-0.033v-8.168h-4.834
			C145.073,511.305,131.825,524.552,131.825,540.739z"/>
		<path fill="#FFFFFF" d="M173.878,511.305h-4.837v8.167c0.045,0.014,0.094,0.021,0.138,0.034c2.699,0.713,4.7,3.182,4.7,6.097
			v16.818c0,2.914-2.001,5.384-4.7,6.098c-0.044,0.015-0.093,0.021-0.138,0.033v8.143c12.425-0.247,24.105-3.606,34.271-9.346v-6.608
			C203.312,524.552,190.065,511.305,173.878,511.305z"/>
		<path fill="#FFFFFF" d="M131.825,550.705v36.289c0,16.189,13.249,29.438,29.437,29.438h12.616
			c16.188,0,29.434-13.246,29.434-29.438v-36.289c-10.655,5.713-22.83,8.958-35.743,8.958
			C154.656,559.663,142.481,556.421,131.825,550.705z"/>
		<path fill="#FFFFFF" d="M170.048,498.344c0.669-1.578,1.633-2.979,2.861-4.168l0.216-0.207c1.517-1.467,2.701-3.191,3.526-5.135
			c0.824-1.941,1.239-3.997,1.239-6.104v-8.011h-2.94v8.011c0,1.71-0.339,3.377-1.008,4.952c-0.668,1.576-1.631,2.979-2.859,4.168
			l-0.217,0.207c-1.517,1.468-2.704,3.193-3.526,5.139c-0.823,1.939-1.243,3.995-1.243,6.104v8.007h2.945V503.3
			C169.041,501.587,169.381,499.919,170.048,498.344z"/>
	</g>
	<g>
		<text transform="matrix(1 0 0 1 381.1011 573.998)" fill="#FFFFFF" font-family="'ArialMT'" font-size="34.4808">Be         </text>
		<text transform="matrix(1 0 0 1 436.8794 573.998)" fill="#FFFFFF" font-family="'ArialMT'" font-size="34.4808">lgium</text>
		
			<rect x="360.774" y="530.49" fill="none" stroke="#FFFFFF" stroke-width="8" stroke-miterlimit="10" width="251.31" height="64.676"/>
		
			<line fill="none" stroke="#FFFFFF" stroke-width="4" stroke-miterlimit="10" x1="429.362" y1="540.654" x2="429.362" y2="583.155"/>
	</g>
	<g>
		<path fill="#FFFFFF" d="M793.08,620.195h-57.742v-34.209c-9.525-8.782-14.935-21.062-14.935-34.106
			c0-25.597,20.822-46.419,46.42-46.419c20.896,0,39.313,14.076,44.79,34.23l0.171,0.619l0.345,7.611l14.009,19.646l-12.312,8.942
			v6.842c0,8.238-6.702,14.942-14.946,14.942h-5.795L793.08,620.195L793.08,620.195z M746.986,608.549h34.445v-21.895h17.441
			c1.821,0,3.3-1.481,3.3-3.299v-12.772l7.776-5.648l-9.307-13.045l-0.44-9.734c-4.297-14.776-17.938-25.041-33.384-25.041
			c-19.174,0-34.771,15.599-34.771,34.771c0,10.482,4.662,20.301,12.794,26.938l2.144,1.747L746.986,608.549L746.986,608.549z"/>
		<path fill="#FFFFFF" d="M839.109,588.533l-8.234-8.234c5.253-5.255,5.253-13.805-0.002-19.061l8.238-8.234
			C848.904,562.8,848.904,578.74,839.109,588.533z"/>
		<path fill="#FFFFFF" d="M854.831,600.936l-8.235-8.233c12.092-12.091,12.092-31.771,0-43.861l8.235-8.233
			C871.46,557.238,871.46,584.303,854.831,600.936z"/>
		<path fill="#FFFFFF" d="M872.891,612.562l-8.235-8.234c18.501-18.505,18.501-48.612,0.004-67.115l8.231-8.234
			C895.938,552.018,895.938,589.515,872.891,612.562z"/>
	</g>
</svg>
