<svg enable-background="new 0 0 1024 768" height="768" viewBox="0 0 1024 768" width="1024" xml:space="preserve"
    xmlns="http://www.w3.org/2000/svg">

    <text transform="translate(296.415 115.0674)">
        <tspan fill="#fff" font-family="'Roboto'" font-size="41.9282" x="0" y="0">A Basic understanding </tspan>
        <tspan fill="#fff" font-family="'Roboto'" font-size="41.9282" x="-47.743" y="50.313">of the </tspan>
        <tspan fill="#f7be2c" font-family="'Roboto'" font-size="41.9282" x="70.487" y="50.313">JavaScript</tspan>
        <tspan fill="#fff" font-family="'Roboto'" font-size="41.9282" x="279.878" y="50.313"> Interpreter</tspan>
    </text>
    <path d="m217.806 222.562h619.5v107.938h-619.5z" fill="none" />
    <text transform="translate(217.8057 240.5615)">
        <tspan fill="#fff" font-family="'Roboto'" font-size="24" x="0" y="0">You can think of the </tspan>
        <tspan fill="#f7be2c" font-family="'Roboto'" font-size="24" x="217.98" y="0">JavaScript</tspan>
        <tspan fill="#fff" font-family="'Roboto'" font-size="24" x="333.258" y="0"></tspan>
        <tspan fill="#fff" font-family="'Roboto'" font-size="24" x="339.234" y="0">interpreter, as a robot that </tspan>
        <tspan fill="#fff" font-family="'Roboto'" font-size="24" x="0" y="30">lives inside the browser. It accepts a
            series of statements, </tspan>
        <tspan fill="#fff" font-family="'Roboto'" font-size="24" x="0" y="60">interprets them and executes them one by
            one. </tspan>
    </text>
    <path d="m519.97 554.248h-17.94c-5.111 0-9.253-4.141-9.253-9.252v-54.526h36.445v54.526c.001 5.111-4.141 9.252-9.252 9.252z"
        fill="#78909c" />
    <path d="m474.555 403.772v-27.051c0-2.591 2.105-4.696 4.697-4.696h63.496c2.594 0 4.697 2.105 4.697 4.696v27.051c0 2.593-2.104 4.698-4.697 4.698h-63.496c-2.592.001-4.697-2.105-4.697-4.698zm-17.024 27.635c-2.431-.655-4.934.77-5.595 3.198l-12.9 47.306c-5.768 1.603-10.037 6.842-10.037 13.114 0 2.52 2.041 4.556 4.556 4.556s4.555-2.036 4.555-4.556c0-2.515 2.045-4.556 4.555-4.556 2.511 0 4.556 2.041 4.556 4.556 0 2.52 2.041 4.556 4.555 4.556 2.516 0 4.555-2.036 4.555-4.556 0-5.526-3.311-10.271-8.04-12.423l12.437-45.601c.661-2.428-.769-4.929-3.197-5.594zm125.433 50.504-12.9-47.306c-.666-2.434-3.186-3.851-5.596-3.198-2.428.665-3.862 3.166-3.199 5.595l12.438 45.601c-4.729 2.151-8.04 6.896-8.04 12.423 0 2.52 2.035 4.556 4.555 4.556s4.557-2.036 4.557-4.556c0-2.515 2.039-4.556 4.555-4.556s4.555 2.041 4.555 4.556c0 2.52 2.037 4.556 4.557 4.556s4.557-2.036 4.557-4.556c-.002-6.273-4.273-11.512-10.039-13.115zm-38.363-59.774h-67.203c-7.108 0-12.665 6.136-11.953 13.212l6.71 67.08c.609 6.141 5.78 10.819 11.953 10.819h53.784c6.174 0 11.344-4.679 11.953-10.819l6.711-67.08c.707-7.077-4.848-13.212-11.955-13.212z"
        fill="#90a4ae" />
    <path d="m492.777 444.915h36.445v22.777h-36.445z" fill="#607d8b" />
    <path d="m524.667 399.358h-27.333c-5.011 0-9.113-4.099-9.113-9.11 0-5.011 4.102-9.111 9.113-9.111h27.333c5.011 0 9.111 4.101 9.111 9.111 0 5.012-4.1 9.11-9.111 9.11zm-59.222 36.446c0-5.034-4.079-9.111-9.113-9.111s-9.11 4.077-9.11 9.111 4.076 9.111 9.11 9.111 9.113-4.077 9.113-9.111zm63.778 77.444h-36.445v9.111h36.445zm0 18.223h-9.112c-2.515 0-4.556 2.041-4.556 4.556 0 2.515 2.041 4.554 4.556 4.554h9.112zm-22.779 4.555c0-2.515-2.041-4.556-4.555-4.556h-9.111v9.109h9.111c2.514.001 4.555-2.038 4.555-4.553zm59.223-91.111c5.033 0 9.111-4.077 9.111-9.111s-4.078-9.111-9.111-9.111c-5.034 0-9.111 4.077-9.111 9.111s4.077 9.111 9.111 9.111zm-50.112-30.628v-5.816h-9.111v5.816c-2.71 1.577-4.555 4.483-4.555 7.85h4.555 9.111 4.556c-.001-3.362-1.846-6.27-4.556-7.85z"
        fill="#455a64" />
    <path d="m492.777 390.248c0-2.514 2.041-4.557 4.557-4.557 2.514 0 4.555 2.043 4.555 4.557 0 2.515-2.041 4.555-4.555 4.555-2.516 0-4.557-2.04-4.557-4.555zm31.89 4.555c2.514 0 4.556-2.04 4.556-4.555 0-2.514-2.042-4.557-4.556-4.557-2.515 0-4.557 2.043-4.557 4.557 0 2.515 2.042 4.555 4.557 4.555z"
        fill="#18ffff" />
    <text fill="#f7be2c" font-family="'Hack'" font-size="41.2473" transform="translate(84.5918 471.417)">statements</text>
    <text fill="#f9672e" font-family="'Hack'" font-size="41.2473" transform="translate(729.5 471.417)">actions</text>
    <path d="m398.582 457.466-40.159 14.855-.152-29.292z" fill="#f7be2c" stroke="#5d5d5d" stroke-linecap="square"
        stroke-miterlimit="10" stroke-width=".25" />
    <path d="m676.155 457.466-40.159 14.855-.151-29.292z" fill="#f9672e" />
    <path d="m509.128 611.901c0-1.84-.652-3.409-1.951-4.71-1.3-1.299-2.869-1.951-4.71-1.951-1.84 0-3.409.652-4.709 1.951-1.3 1.301-1.952 2.87-1.952 4.71s.652 3.409 1.952 4.709 2.869 1.952 4.709 1.952c1.841 0 3.41-.652 4.71-1.952 1.304-1.303 1.951-2.874 1.951-4.709zm19.978 13.319c0-.903-.33-1.683-.987-2.34-.658-.658-1.438-.988-2.34-.988-.901 0-1.682.33-2.34.988-.656.657-.988 1.437-.988 2.34 0 .917.325 1.702.973 2.354.653.652 1.438.973 2.355.973s1.702-.326 2.354-.973c.648-.652.973-1.437.973-2.354zm0-26.636c0-.902-.33-1.683-.987-2.34-.658-.657-1.438-.988-2.34-.988-.901 0-1.682.331-2.34.988-.656.657-.988 1.438-.988 2.34 0 .917.325 1.702.973 2.354.653.652 1.438.974 2.355.974s1.702-.326 2.354-.974c.648-.652.973-1.437.973-2.354zm-9.988 10.947v4.812c0 .173-.062.341-.185.51-.121.163-.259.255-.417.275l-4.032.626c-.188.606-.469 1.265-.83 1.978.592.831 1.371 1.83 2.339 2.992.123.173.184.347.184.521 0 .209-.061.371-.184.494-.396.52-1.115 1.294-2.145 2.328-1.035 1.03-1.713 1.55-2.045 1.55-.188 0-.371-.061-.545-.184l-2.991-2.339c-.643.332-1.311.596-2.004.805-.188 1.87-.393 3.217-.596 4.032-.123.418-.383.621-.78.621h-4.836c-.189 0-.367-.065-.521-.193-.157-.127-.244-.28-.26-.454l-.597-3.979c-.591-.175-1.238-.444-1.951-.806l-3.068 2.313c-.123.123-.296.184-.521.184-.188 0-.372-.071-.545-.209-2.497-2.309-3.746-3.694-3.746-4.163 0-.158.062-.322.183-.495.174-.244.53-.704 1.066-1.376.54-.678.948-1.203 1.223-1.586-.397-.764-.703-1.473-.912-2.13l-3.955-.621c-.174-.016-.321-.103-.443-.245-.122-.147-.184-.316-.184-.51v-4.812c0-.173.062-.341.184-.509.122-.163.26-.255.418-.275l4.031-.622c.188-.606.469-1.264.831-1.978-.592-.83-1.371-1.83-2.339-2.992-.123-.188-.185-.366-.185-.52 0-.208.062-.382.185-.52.382-.52 1.09-1.295 2.129-2.313 1.04-1.021 1.723-1.535 2.055-1.535.188 0 .372.062.546.185l2.991 2.339c.591-.311 1.259-.592 2.003-.831.189-1.87.393-3.205.597-4.006.122-.418.382-.621.779-.621h4.837c.188 0 .367.065.52.192.158.128.245.28.261.454l.596 3.98c.591.174 1.238.443 1.952.806l3.068-2.313c.138-.123.311-.185.521-.185.188 0 .371.071.545.21 2.497 2.308 3.745 3.694 3.745 4.163 0 .158-.061.321-.183.495-.209.274-.571.743-1.091 1.406-.521.657-.912 1.178-1.172 1.56.396.831.692 1.544.882 2.13l3.965.582c.173.035.321.127.442.274.124.149.185.317.185.505zm16.651 13.868v3.645c0 .274-1.289.545-3.873.805-.21.469-.469.918-.78 1.351.888 1.962 1.325 3.154 1.325 3.589 0 .071-.036.132-.107.183-2.114 1.229-3.189 1.846-3.227 1.846-.137 0-.539-.408-1.196-1.224-.658-.815-1.112-1.401-1.352-1.769-.347.036-.605.051-.779.051s-.433-.015-.78-.051c-.244.361-.693.953-1.351 1.769s-1.055 1.224-1.197 1.224c-.036 0-1.111-.617-3.227-1.846-.071-.051-.106-.111-.106-.183 0-.435.443-1.632 1.325-3.589-.311-.433-.571-.887-.779-1.351-2.585-.26-3.874-.53-3.874-.805v-3.645c0-.275 1.289-.546 3.874-.806.224-.505.483-.953.779-1.35-.888-1.963-1.325-3.155-1.325-3.589 0-.071.035-.133.106-.184.071-.036.372-.208.912-.52.536-.312 1.05-.606 1.534-.882s.744-.413.78-.418c.138 0 .54.402 1.197 1.208s1.111 1.392 1.351 1.759c.348-.037.606-.052.78-.052s.433.015.779.052c.887-1.233 1.682-2.202 2.391-2.916l.157-.051c.072 0 1.147.606 3.227 1.819.071.051.107.112.107.184 0 .434-.443 1.632-1.325 3.589.296.396.556.851.78 1.35 2.584.262 3.874.527 3.874.807zm0-26.64v3.639c0 .276-1.289.546-3.873.807-.21.469-.469.916-.78 1.35.888 1.963 1.325 3.155 1.325 3.588 0 .071-.036.133-.107.185-2.114 1.228-3.189 1.844-3.227 1.844-.137 0-.539-.407-1.196-1.223-.658-.815-1.112-1.401-1.352-1.769-.347.035-.605.051-.779.051s-.433-.016-.78-.051c-.244.361-.693.953-1.351 1.769s-1.055 1.223-1.197 1.223c-.036 0-1.111-.616-3.227-1.844-.071-.052-.106-.113-.106-.185 0-.433.443-1.631 1.325-3.588-.311-.434-.571-.887-.779-1.35-2.585-.261-3.874-.53-3.874-.807v-3.644c0-.275 1.289-.545 3.874-.805.224-.505.483-.953.779-1.352-.888-1.962-1.325-3.154-1.325-3.588 0-.07.035-.132.106-.184.071-.035.372-.209.912-.52.536-.311 1.05-.606 1.534-.881.484-.276.744-.413.78-.419.138 0 .54.403 1.197 1.208.657.806 1.111 1.392 1.351 1.758.348-.035.606-.05.78-.05s.433.015.779.05c.887-1.228 1.682-2.201 2.391-2.914l.157-.052c.072 0 1.147.606 3.227 1.819.071.052.107.113.107.184 0 .434-.443 1.631-1.325 3.588.296.398.556.852.78 1.352 2.584.266 3.874.535 3.874.811z"
        fill="#f7be2c" />
</svg>
