<svg version="1.1" id="Layer_1" xmlns="http://www.w3.org/2000/svg" xmlns:xlink="http://www.w3.org/1999/xlink" x="0px"
    y="0px" width="1024px" height="768px" viewBox="0 0 1024 768" enable-background="new 0 0 1024 768" xml:space="preserve">

    <text transform="matrix(1 0 0 1 175 99.2651)" fill="#FFFFFF" font-family="'Roboto'" font-size="32">Examples of
        Data Manipulation and Processing</text>
    <path fill="none" d="M348.855,472.992c0.063-0.156,0.13-0.315,0.193-0.466C348.98,472.681,348.916,472.82,348.855,472.992z" />
    <path fill="none" d="M348.377,474.229l0.159-0.407C348.479,473.945,348.427,474.087,348.377,474.229z" />
    <path fill="none" d="M349.422,471.659c0.076-0.163,0.154-0.325,0.234-0.485C349.591,471.338,349.51,471.497,349.422,471.659z" />
    <path fill="none" d="M349.994,470.554c0.126-0.239,0.256-0.476,0.389-0.708C350.25,470.078,350.12,470.314,349.994,470.554z" />
    <path fill="none" d="M351.349,468.248c0.215-0.33,0.436-0.654,0.665-0.976C351.784,467.591,351.563,467.916,351.349,468.248z" />
    <path fill="none" d="M350.733,469.229c0.109-0.184,0.22-0.365,0.335-0.545C350.953,468.863,350.843,469.045,350.733,469.229z" />
    <path fill="none" d="M347.939,475.561c0.021-0.086,0.051-0.176,0.075-0.262C347.986,475.385,347.961,475.47,347.939,475.561z" />
    <path fill="none" d="M347.26,478.246l0.025-0.131L347.26,478.246z" />
    <path fill="none" d="M347.002,479.75c0.018-0.113,0.035-0.229,0.055-0.347C347.037,479.506,347.02,479.622,347.002,479.75z" />
    <path fill="none" d="M347.56,476.92l0.095-0.378L347.56,476.92z" />
    <path fill="none" d="M353.963,464.811c0.187-0.212,0.377-0.408,0.573-0.627C354.34,464.391,354.149,464.599,353.963,464.811z" />
    <path fill="none" d="M346.727,482.641c0-0.11,0-0.225,0-0.336C346.735,482.416,346.73,482.53,346.727,482.641z" />
    <path fill="none" d="M352.906,466.073c0.328-0.414,0.67-0.823,1.021-1.223C353.576,465.247,353.234,465.654,352.906,466.073z" />
    <path fill="none" d="M356.57,462.223c-0.662,0.58-1.297,1.187-1.904,1.827C355.273,463.409,355.908,462.803,356.57,462.223z" />
    <path fill="none" d="M352.245,466.942c0.147-0.2,0.297-0.399,0.448-0.595C352.543,466.543,352.393,466.742,352.245,466.942z" />
    <path fill="none" d="M346.836,481.051" />
    <g>
        <text transform="matrix(1 0 0 1 585.5 214.9561)">
            <tspan x="0" y="0" fill="#F7BE2C" font-family="'Hack'" font-size="29.4135">“BELGIUM”</tspan>
            <tspan x="0" y="110.301" fill="#F7BE2C" font-family="'Hack'" font-size="29.4135">42</tspan>
        </text>
    </g>
    <text transform="matrix(1 0 0 1 29.7065 212.6406)">
        <tspan x="0" y="0" fill="#F7BE2C" font-family="'Hack'" font-size="29.4135">“Belgium”</tspan>
        <tspan x="159.375" y="0" fill="#FFFFFF" font-family="'Hack'" font-size="29.4135">.toUpperCase()</tspan>
        <tspan x="301.043" y="110.301" fill="#F7BE2C" font-family="'Hack'" font-size="29.4135">35 + 7</tspan>
    </text>
    <path id="_x38_1BC7163_x5F_start_x5F_arrow_x5F_path_4_" fill="#F9672E" d="M523.571,201.345L483.412,216.2l-0.151-29.292
        L523.571,201.345z" />
    <path id="_x38_1BC7163_x5F_start_x5F_arrow_x5F_path_5_" fill="#F9672E" d="M523.571,310.453l-40.159,14.855l-0.151-29.292
        L523.571,310.453z" />
    <g>
        <path fill="#8F6B51" d="M418.013,416.022c7.27-4.846,7.457-11.93,7.457-11.93c-7.27-0.372-7.084-7.829-13.794-14.54
            c-8.948-8.947-20.319-3.355-20.319-3.355c0.56-2.797-0.932-4.474,0.187-5.965c-15.286,0-21.997,6.524-21.997,6.524
            s-6.711-6.524-21.997-6.524c0.933,1.491-0.373,3.168,0.187,5.965c0,0-11.558-5.778-20.319,3.355
            c-6.71,6.897-6.524,14.354-13.794,14.54c0,0,0.187,7.084,7.457,11.93c0,0-7.643,7.271-6.338,22.557c0,0,2.983-3.729,10.253-5.033
            c-8.389,7.083-3.542,17.522-9.693,24.606c0,0,8.575,1.864,12.116-0.56c-1.305,10.998,5.406,15.286,5.406,20.692
            c7.643-2.424,8.761-10.067,8.761-10.067c0,13.98,4.847,13.422,4.847,20.878c0,0,8.389-1.305,11.931-8.389
            c1.305,6.525,8.015,7.271,11.557,11.371c3.542-4.101,10.066-4.846,11.558-11.371c3.542,6.897,11.93,8.389,11.93,8.389
            c0-7.456,4.847-6.897,4.847-20.878c0,0,1.119,7.457,8.761,10.067c0-5.406,6.71-9.694,5.406-20.692
            c3.542,2.424,12.117,0.56,12.117,0.56c-6.152-7.271-1.305-17.71-9.693-24.606c7.083,1.491,10.252,5.033,10.252,5.033
            C425.656,423.106,418.013,416.022,418.013,416.022" />
        <path fill="#E5BC5E" d="M413.725,389.739c-4.846-3.914-18.827,0.373-24.233,7.084c6.524,2.236,14.167,7.828,19.946,21.251
            C421.555,412.108,418.758,393.84,413.725,389.739" />
        <path fill="#3E4347" d="M406.829,412.854c7.083-2.983,5.592-13.049,2.795-15.286c-2.423-2.051-9.507,0-12.489,3.355
            C400.49,403.533,403.845,407.448,406.829,412.854" />
        <path fill="#E5BC5E" d="M349.601,396.823c-5.406-6.711-19.387-10.998-24.234-7.084c-5.033,4.101-8.016,22.369,4.288,28.335
            C335.62,404.839,343.076,399.06,349.601,396.823" />
        <path fill="#3E4347" d="M332.264,412.854c2.982-5.406,6.338-9.321,9.693-11.931c-3.169-3.355-10.066-5.406-12.489-3.355
            C326.672,399.806,325.181,409.871,332.264,412.854" />
        <path fill="#E5BC5E" d="M401.05,430.004c0.932-4.101-2.982-13.607-6.524-15.472c-0.56-0.373-2.796,0-2.796,0
            c-0.746-0.932-4.288-11.185-13.608-13.049c-5.592-0.932-8.575,3.728-8.575,3.728s-2.982-4.846-8.574-3.728
            c-9.321,1.678-13.049,12.117-13.608,13.049c0,0-2.237-0.373-2.796,0c-3.542,2.05-7.27,11.371-6.524,15.472
            c1.119,5.033,9.88,10.066,9.88,18.641h43.621C391.356,440.07,400.117,435.037,401.05,430.004" />
        <path fill="#FFFFFF" d="M369.546,407.075l-2.423,4.848l2.423,15.099l2.423-15.099L369.546,407.075z" />
        <g>
            <path fill="#3E4347" d="M389.865,424.972c0,3.168-2.051,5.591-4.474,5.591c-2.424,0-4.474-2.423-4.474-5.591
                c0-3.17,2.05-5.594,4.474-5.594C387.814,419.378,389.865,421.988,389.865,424.972" />
            <path fill="#3E4347" d="M349.227,424.972c0,3.168,2.051,5.591,4.474,5.591c2.424,0,4.474-2.423,4.474-5.591
                c0-3.17-2.05-5.594-4.474-5.594C351.278,419.378,349.227,421.988,349.227,424.972" />
        </g>
        <path fill="#FFFFFF" d="M348.109,454.424c0,11.93,14.354,21.064,14.354,21.064c-0.186-2.424,0.56-4.287,0.56-4.287
            c0.559,3.541,2.237,6.151,2.237,6.151c0-2.983,1.491-4.288,1.491-4.288c1.491,4.102,2.983,5.779,2.983,5.779
            s1.491-1.678,2.982-5.779c0,0,1.491,1.305,1.491,4.288c0,0,1.678-2.61,2.237-6.151c0,0,0.746,2.05,0.56,4.287
            c0,0,14.354-9.135,14.354-21.064H348.109" />
        <path fill="#FFDA87" d="M390.611,444.544c-0.56-1.118-10.066-8.762-10.066-8.762h-21.997c0,0-9.321,7.457-10.066,8.762
            c-0.933,1.864-1.119,7.829-0.373,9.693c0,0,9.134,13.794,21.437,1.864c12.303,11.93,21.438-1.864,21.438-1.864
            C391.729,452.373,391.543,446.408,390.611,444.544" />
        <g>
            <path fill="#3E4347" d="M348.109,454.424L348.109,454.424" />
            <path fill="#3E4347" d="M390.983,454.424L390.983,454.424" />
            <path fill="#3E4347" d="M371.411,456.102v-10.998l7.083-2.983c1.119-0.559,2.051-1.863,2.051-2.981v-3.17h-21.997v3.17
                c0,1.118,0.932,2.423,2.05,2.981l7.083,2.983v10.998c-9.32,8.574-18.455-0.746-19.386-1.678
                c1.118,1.678,10.066,16.59,21.438,4.846c11.185,11.744,20.318-3.355,21.437-4.846C390.051,455.543,380.73,464.862,371.411,456.102
                " />
        </g>
        <path fill="#FFDA87" d="M380.544,435.969c-2.982-5.406-3.355-5.778-5.965-7.084c-2.237-0.932-7.643-0.932-9.88,0
            c-2.609,1.119-2.982,1.678-5.965,7.084H380.544" />
        <path fill="#AF7751" d="M369.546,432.987c-7.083,0-10.998,2.981-10.998,2.981s0.373-0.187,4.287,2.61
            c2.424,1.863,4.474,6.71,6.711,6.71c2.237,0,4.288-4.847,6.711-6.71c3.915-2.982,4.287-2.61,4.287-2.61
            S376.63,432.987,369.546,432.987" />
    </g>
    <g>
        <path fill="#666666" d="M700.921,416.022c7.271-4.846,7.456-11.93,7.456-11.93c-7.27-0.372-7.084-7.829-13.793-14.54
            c-8.949-8.947-20.32-3.355-20.32-3.355c0.561-2.797-0.932-4.474,0.188-5.965c-15.285,0-21.997,6.524-21.997,6.524
            s-6.711-6.524-21.997-6.524c0.934,1.491-0.372,3.168,0.188,5.965c0,0-11.559-5.778-20.319,3.355
            c-6.71,6.897-6.524,14.354-13.794,14.54c0,0,0.187,7.084,7.457,11.93c0,0-7.644,7.271-6.339,22.557c0,0,2.983-3.729,10.253-5.033
            c-8.389,7.083-3.542,17.522-9.693,24.606c0,0,8.574,1.864,12.116-0.56c-1.305,10.998,5.406,15.286,5.406,20.692
            c7.644-2.424,8.761-10.067,8.761-10.067c0,13.98,4.848,13.422,4.848,20.878c0,0,8.389-1.305,11.93-8.389
            c1.305,6.525,8.016,7.271,11.558,11.371c3.542-4.101,10.065-4.846,11.558-11.371c3.541,6.897,11.93,8.389,11.93,8.389
            c0-7.456,4.848-6.897,4.848-20.878c0,0,1.118,7.457,8.761,10.067c0-5.406,6.71-9.694,5.405-20.692
            c3.543,2.424,12.117,0.56,12.117,0.56c-6.152-7.271-1.305-17.71-9.693-24.606c7.084,1.491,10.252,5.033,10.252,5.033
            C708.564,423.106,700.921,416.022,700.921,416.022" />
        <path fill="#CCCCCC" d="M696.633,389.739c-4.846-3.914-18.826,0.373-24.232,7.084c6.523,2.236,14.167,7.828,19.945,21.251
            C704.463,412.108,701.666,393.84,696.633,389.739" />
        <path fill="#3E4347" d="M689.736,412.854c7.084-2.983,5.592-13.049,2.796-15.286c-2.423-2.051-9.507,0-12.489,3.355
            C683.398,403.533,686.754,407.448,689.736,412.854" />
        <path fill="#CCCCCC" d="M632.509,396.823c-5.406-6.711-19.388-10.998-24.233-7.084c-5.033,4.101-8.016,22.369,4.287,28.335
            C618.527,404.839,625.984,399.06,632.509,396.823" />
        <path fill="#3E4347" d="M615.172,412.854c2.982-5.406,6.338-9.321,9.693-11.931c-3.169-3.355-10.066-5.406-12.488-3.355
            C609.58,399.806,608.089,409.871,615.172,412.854" />
        <path fill="#B3B3B3" d="M683.958,430.004c0.932-4.101-2.982-13.607-6.524-15.472c-0.56-0.373-2.797,0-2.797,0
            c-0.745-0.932-4.287-11.185-13.607-13.049c-5.592-0.932-8.575,3.728-8.575,3.728s-2.982-4.846-8.574-3.728
            c-9.321,1.678-13.05,12.117-13.608,13.049c0,0-2.236-0.373-2.797,0c-3.541,2.05-7.27,11.371-6.523,15.472
            c1.119,5.033,9.879,10.066,9.879,18.641h43.621C674.264,440.07,683.025,435.037,683.958,430.004" />
        <path fill="#FFFFFF" d="M652.454,407.075l-2.423,4.848l2.423,15.099l2.423-15.099L652.454,407.075z" />
        <g>
            <path fill="#3E4347" d="M672.773,424.972c0,3.168-2.051,5.591-4.475,5.591s-4.473-2.423-4.473-5.591
                c0-3.17,2.049-5.594,4.473-5.594S672.773,421.988,672.773,424.972" />
            <path fill="#3E4347" d="M632.135,424.972c0,3.168,2.052,5.591,4.475,5.591c2.424,0,4.474-2.423,4.474-5.591
                c0-3.17-2.05-5.594-4.474-5.594C634.187,419.378,632.135,421.988,632.135,424.972" />
        </g>
        <path fill="#FFFFFF" d="M631.018,454.424c0,11.93,14.354,21.064,14.354,21.064c-0.187-2.424,0.559-4.287,0.559-4.287
            c0.56,3.541,2.237,6.151,2.237,6.151c0-2.983,1.491-4.288,1.491-4.288c1.491,4.102,2.982,5.779,2.982,5.779
            s1.491-1.678,2.982-5.779c0,0,1.491,1.305,1.491,4.288c0,0,1.678-2.61,2.237-6.151c0,0,0.746,2.05,0.559,4.287
            c0,0,14.354-9.135,14.354-21.064H631.018" />
        <path fill="#E6E6E6" d="M673.52,444.544c-0.561-1.118-10.066-8.762-10.066-8.762h-21.997c0,0-9.321,7.457-10.065,8.762
            c-0.934,1.864-1.119,7.829-0.373,9.693c0,0,9.134,13.794,21.437,1.864c12.304,11.93,21.438-1.864,21.438-1.864
            C674.637,452.373,674.451,446.408,673.52,444.544" />
        <g>
            <path fill="#3E4347" d="M631.018,454.424L631.018,454.424" />
            <path fill="#3E4347" d="M673.892,454.424L673.892,454.424" />
            <path fill="#3E4347" d="M654.318,456.102v-10.998l7.084-2.983c1.118-0.559,2.051-1.863,2.051-2.981v-3.17h-21.997v3.17
                c0,1.118,0.933,2.423,2.05,2.981l7.084,2.983v10.998c-9.32,8.574-18.455-0.746-19.387-1.678
                c1.119,1.678,10.066,16.59,21.438,4.846c11.186,11.744,20.318-3.355,21.438-4.846
                C672.959,455.543,663.639,464.862,654.318,456.102" />
        </g>
        <path fill="#E6E6E6" d="M663.453,435.969c-2.982-5.406-3.355-5.778-5.966-7.084c-2.237-0.932-7.643-0.932-9.88,0
            c-2.609,1.119-2.982,1.678-5.965,7.084H663.453" />
        <path fill="#B3B3B3" d="M652.454,432.987c-7.083,0-10.998,2.981-10.998,2.981s0.373-0.187,4.287,2.61
            c2.424,1.863,4.474,6.71,6.711,6.71s4.288-4.847,6.712-6.71c3.914-2.982,4.287-2.61,4.287-2.61S659.538,432.987,652.454,432.987" />
    </g>
    <path id="_x38_1BC7163_x5F_start_x5F_arrow_x5F_path_6_" fill="#F9672E" d="M523.571,431.754l-40.159,14.855l-0.151-29.292
        L523.571,431.754z" />

</svg>