<svg version="1.1" id="Layer_1" xmlns="http://www.w3.org/2000/svg" xmlns:xlink="http://www.w3.org/1999/xlink" x="0px"
    y="0px" width="1024px" height="768px" viewBox="0 0 1024 768" enable-background="new 0 0 1024 768" xml:space="preserve">

    <path fill="none" d="M348.855,472.992c0.063-0.156,0.13-0.315,0.193-0.466C348.98,472.681,348.916,472.82,348.855,472.992z" />
    <path fill="none" d="M348.377,474.229l0.159-0.407C348.479,473.945,348.427,474.087,348.377,474.229z" />
    <path fill="none" d="M349.422,471.659c0.076-0.163,0.154-0.325,0.234-0.485C349.591,471.338,349.51,471.497,349.422,471.659z" />
    <path fill="none" d="M349.994,470.554c0.126-0.239,0.256-0.476,0.389-0.708C350.25,470.078,350.12,470.314,349.994,470.554z" />
    <path fill="none" d="M351.349,468.248c0.215-0.33,0.436-0.654,0.665-0.976C351.784,467.591,351.563,467.916,351.349,468.248z" />
    <path fill="none" d="M350.733,469.229c0.109-0.184,0.22-0.365,0.335-0.545C350.953,468.863,350.843,469.045,350.733,469.229z" />
    <path fill="none" d="M347.939,475.561c0.021-0.086,0.051-0.176,0.075-0.262C347.986,475.385,347.961,475.47,347.939,475.561z" />
    <path fill="none" d="M347.26,478.246l0.025-0.131L347.26,478.246z" />
    <path fill="none" d="M347.002,479.75c0.018-0.113,0.035-0.229,0.055-0.347C347.037,479.506,347.02,479.622,347.002,479.75z" />
    <path fill="none" d="M347.56,476.92l0.095-0.378L347.56,476.92z" />
    <path fill="none" d="M353.963,464.811c0.187-0.212,0.377-0.408,0.573-0.627C354.34,464.391,354.149,464.599,353.963,464.811z" />
    <path fill="none" d="M346.727,482.641c0-0.11,0-0.225,0-0.336C346.735,482.416,346.73,482.53,346.727,482.641z" />
    <path fill="none" d="M352.906,466.073c0.328-0.414,0.67-0.823,1.021-1.223C353.576,465.247,353.234,465.654,352.906,466.073z" />
    <path fill="none" d="M356.57,462.223c-0.662,0.58-1.297,1.187-1.904,1.827C355.273,463.409,355.908,462.803,356.57,462.223z" />
    <path fill="none" d="M352.245,466.942c0.147-0.2,0.297-0.399,0.448-0.595C352.543,466.543,352.393,466.742,352.245,466.942z" />
    <path fill="none" d="M346.836,481.051" />
    <text transform="matrix(1 0 0 1 224.2485 115.0674)">
        <tspan x="0" y="0" fill="#FFFFFF" font-family="'Roboto'" font-size="41.9282">Our first </tspan>
        <tspan x="161.121" y="0" fill="#F7BE2C" font-family="'Roboto'" font-size="41.9282">JavaScript</tspan>
        <tspan x="362.511" y="0" fill="#FFFFFF" font-family="'Roboto'" font-size="41.9282"> statement!</tspan>
    </text>
    <rect x="217.806" y="177.5" fill="none" width="619.5" height="99.5" />
    <text transform="matrix(1 0 0 1 217.8057 195.5)">
        <tspan x="0" y="0" fill="#FFFFFF" font-family="'Roboto'" font-size="24">In order to test our very first
            statement, we will use the </tspan>
        <tspan x="0" y="30" fill="#FFFFFF" font-family="'Roboto'" font-size="24">browser’s console which can evaluate
            live JavaScript </tspan>
        <tspan x="0" y="60" fill="#FFFFFF" font-family="'Roboto'" font-size="24">code.</tspan>
    </text>
    <g>
        <path fill="#F7BE2C" d="M156.902,101.04l27.54-27.54l27.54,27.54l-27.54,27.54L156.902,101.04z" />
        <path fill="#231F20" d="M172.583,101.444v-0.688l6.467-4.022l0.794,1.247l-5.044,3.048l5.044,2.981l-0.786,1.247l-6.479-3.812
            H172.583z M186.341,95.67l1.359,0.606l-4.943,11.197l-1.363-0.637l4.943-11.167H186.341z M190,105.257l-0.786-1.247l5.04-2.981
            l-5.044-3.048l0.786-1.243l6.479,4.021v0.693l-6.479,3.809L190,105.257z" />
    </g>
    <text transform="matrix(1 0 0 1 258.751 319.0537)">
        <tspan x="0" y="0" fill="#CCCCCC" font-family="'Hack'" font-size="26">To open the browser’s console, press:</tspan>
        <tspan x="0" y="60" fill="#FFFFFF" font-family="'Hack'" font-size="26">Ctrl + Shift + J (Windows) or F12 Chrome</tspan>
        <tspan x="0" y="90" fill="#FFFFFF" font-family="'Hack'" font-size="26">Cmd + Option + J (Mac) of F12 Chrome</tspan>
    </text>
    <g>
        <circle fill="#FCEE21" cx="232.704" cy="310.11" r="14.61" />
        <text transform="matrix(1 0 0 1 229.3931 319.0537)" font-family="'Roboto'" font-size="24.7523">!</text>
    </g>

</svg>
