<svg version="1.1" id="Layer_1" xmlns="http://www.w3.org/2000/svg" xmlns:xlink="http://www.w3.org/1999/xlink" x="0px"
    y="0px" width="1024px" height="768px" viewBox="0 0 1024 768" enable-background="new 0 0 1024 768" xml:space="preserve">
    <rect x="1" y="-2" fill="#0D2234" width="1023" height="769" />
    <g opacity="0.1">
        <rect x="-0.5" y="-2.5" fill="none" stroke="#FFFFFF" stroke-miterlimit="10" width="1023" height="769" />
        <line fill="none" stroke="#FFFFFF" stroke-miterlimit="10" x1="4" y1="728.5" x2="1021" y2="728.5" />
        <line fill="none" stroke="#FFFFFF" stroke-miterlimit="10" x1="4" y1="691.5" x2="1021" y2="691.5" />
        <line fill="none" stroke="#FFFFFF" stroke-miterlimit="10" x1="4" y1="650.5" x2="1021" y2="650.5" />
        <line fill="none" stroke="#FFFFFF" stroke-miterlimit="10" x1="4" y1="624.5" x2="1021" y2="624.5" />
        <line fill="none" stroke="#FFFFFF" stroke-miterlimit="10" x1="4" y1="586.5" x2="1021" y2="586.5" />
        <line fill="none" stroke="#FFFFFF" stroke-miterlimit="10" x1="4" y1="545.5" x2="1021" y2="545.5" />
        <line fill="none" stroke="#FFFFFF" stroke-miterlimit="10" x1="4" y1="508.5" x2="1021" y2="508.5" />
        <line fill="none" stroke="#FFFFFF" stroke-miterlimit="10" x1="4" y1="471.5" x2="1021" y2="471.5" />
        <line fill="none" stroke="#FFFFFF" stroke-miterlimit="10" x1="4" y1="433.5" x2="1021" y2="433.5" />
        <line fill="none" stroke="#FFFFFF" stroke-miterlimit="10" x1="4" y1="396.5" x2="1021" y2="396.5" />
        <line fill="none" stroke="#FFFFFF" stroke-miterlimit="10" x1="4" y1="366.5" x2="1021" y2="366.5" />
        <line fill="none" stroke="#FFFFFF" stroke-miterlimit="10" x1="4" y1="329.5" x2="1021" y2="329.5" />
        <line fill="none" stroke="#FFFFFF" stroke-miterlimit="10" x1="4" y1="292.5" x2="1021" y2="292.5" />
        <line fill="none" stroke="#FFFFFF" stroke-miterlimit="10" x1="4" y1="251.5" x2="1021" y2="251.5" />
        <line fill="none" stroke="#FFFFFF" stroke-miterlimit="10" x1="4" y1="213.5" x2="1021" y2="213.5" />
        <line fill="none" stroke="#FFFFFF" stroke-miterlimit="10" x1="4" y1="176.5" x2="1021" y2="176.5" />
        <line fill="none" stroke="#FFFFFF" stroke-miterlimit="10" x1="4" y1="139.5" x2="1021" y2="139.5" />
        <line fill="none" stroke="#FFFFFF" stroke-miterlimit="10" x1="4" y1="109.5" x2="1021" y2="109.5" />
        <line fill="none" stroke="#FFFFFF" stroke-miterlimit="10" x1="4" y1="72.5" x2="1021" y2="72.5" />
        <line fill="none" stroke="#FFFFFF" stroke-miterlimit="10" x1="4" y1="34.5" x2="1021" y2="34.5" />
        <line fill="none" stroke="#FFFFFF" stroke-miterlimit="10" x1="977.5" y1="-1" x2="977.5" y2="760" />
        <line fill="none" stroke="#FFFFFF" stroke-miterlimit="10" x1="925.5" y1="-1" x2="925.5" y2="760" />
        <line fill="none" stroke="#FFFFFF" stroke-miterlimit="10" x1="877.5" y1="-1" x2="877.5" y2="760" />
        <line fill="none" stroke="#FFFFFF" stroke-miterlimit="10" x1="825.5" y1="-1" x2="825.5" y2="760" />
        <line fill="none" stroke="#FFFFFF" stroke-miterlimit="10" x1="780.5" y1="-1" x2="780.5" y2="760" />
        <line fill="none" stroke="#FFFFFF" stroke-miterlimit="10" x1="734.5" y1="-1" x2="734.5" y2="760" />
        <line fill="none" stroke="#FFFFFF" stroke-miterlimit="10" x1="682.5" y1="-1" x2="682.5" y2="760" />
        <line fill="none" stroke="#FFFFFF" stroke-miterlimit="10" x1="637.5" y1="-1" x2="637.5" y2="760" />
        <line fill="none" stroke="#FFFFFF" stroke-miterlimit="10" x1="585.5" y1="-1" x2="585.5" y2="760" />
        <line fill="none" stroke="#FFFFFF" stroke-miterlimit="10" x1="537.5" y1="-1" x2="537.5" y2="760" />
        <line fill="none" stroke="#FFFFFF" stroke-miterlimit="10" x1="491.5" y1="-1" x2="491.5" y2="760" />
        <line fill="none" stroke="#FFFFFF" stroke-miterlimit="10" x1="439.5" y1="-1" x2="439.5" y2="760" />
        <line fill="none" stroke="#FFFFFF" stroke-miterlimit="10" x1="394.5" y1="-1" x2="394.5" y2="760" />
        <line fill="none" stroke="#FFFFFF" stroke-miterlimit="10" x1="342.5" y1="-1" x2="342.5" y2="760" />
        <line fill="none" stroke="#FFFFFF" stroke-miterlimit="10" x1="294.5" y1="-1" x2="294.5" y2="760" />
        <line fill="none" stroke="#FFFFFF" stroke-miterlimit="10" x1="248.5" y1="-1" x2="248.5" y2="760" />
        <line fill="none" stroke="#FFFFFF" stroke-miterlimit="10" x1="197.5" y1="-1" x2="197.5" y2="760" />
        <line fill="none" stroke="#FFFFFF" stroke-miterlimit="10" x1="151.5" y1="-1" x2="151.5" y2="760" />
        <line fill="none" stroke="#FFFFFF" stroke-miterlimit="10" x1="99.5" y1="-1" x2="99.5" y2="760" />
        <line fill="none" stroke="#FFFFFF" stroke-miterlimit="10" x1="54.5" y1="-1" x2="54.5" y2="760" />
    </g>
    <rect x="227" y="224" fill="#009245" width="142" height="7" />
    <rect x="433" y="224" fill="#009245" width="142" height="7" />
    <rect x="227" y="293" fill="#009245" width="142" height="7" />
    <rect x="433" y="293" fill="#ED1C24" width="142" height="7" />
    <rect x="556" y="355" fill="#ED1C24" width="119" height="7" />
    <rect x="228" y="355" fill="#ED1C24" width="268" height="7" />
    <rect x="227" y="538" fill="#009245" width="142" height="7" />
    <rect x="433" y="538" fill="#009245" width="142" height="7" />
    <rect x="227" y="607" fill="#009245" width="142" height="7" />
    <rect x="433" y="607" fill="#ED1C24" width="142" height="7" />
    <rect x="556" y="669" fill="#ED1C24" width="119" height="7" />
    <rect x="228" y="669" fill="#ED1C24" width="268" height="7" />
    <text transform="matrix(1 0 0 1 344.4033 74.0674)">
        <tspan x="0" y="0" fill="#FFFFFF" font-family="Roboto" font-size="41.9282">Logical </tspan>
        <tspan x="145.479" y="0" fill="#F7BE2C" font-family="'Roboto'" font-size="41.9282">Operators</tspan>
    </text>
    <rect x="225.75" y="112.5" fill="none" width="570.5" height="60.5" />
    <text transform="matrix(1 0 0 1 225.7505 130.5)">
        <tspan x="0" y="0" fill="#FFFFFF" font-family="Roboto" font-size="24">Logical OR </tspan>
        <tspan x="120.492" y="0" fill="#FFFFFF" font-family="'Roboto'" font-size="24">|| </tspan>
        <tspan x="138.609" y="0" fill="#FFFFFF" font-family="Roboto" font-size="24">checks whether one of the two oper</tspan>
        <tspan x="518.707" y="0" fill="#FFFFFF" font-family="Roboto" font-size="24">-</tspan>
        <tspan x="0" y="30" fill="#FFFFFF" font-family="Roboto" font-size="24">ands returns true once they have been
            evaluated:</tspan>
    </text>
    <rect x="225.75" y="406.5" fill="none" width="570.5" height="60.5" />
    <text transform="matrix(1 0 0 1 225.7505 424.5)">
        <tspan x="0" y="0" fill="#FFFFFF" font-family="Roboto" font-size="24">Logical AND </tspan>
        <tspan x="137.719" y="0" fill="#FFFFFF" font-family="'Roboto'" font-size="24">&amp;&amp; </tspan>
        <tspan x="175.195" y="0" fill="#FFFFFF" font-family="Roboto" font-size="24">checks whether both operands re</tspan>
        <tspan x="529.664" y="0" fill="#FFFFFF" font-family="Roboto" font-size="24">-</tspan>
        <tspan x="0" y="30" fill="#FFFFFF" font-family="Roboto" font-size="24">turns true once they have been evaluated:</tspan>
    </text>
    <text transform="matrix(1.0055 0 0 1 227.5005 213.875)">
        <tspan x="0" y="0" fill="#F2F2F2" font-family="Hack" font-size="26.1119">( 5 &gt; 4 ) || ( 4 &gt; 3 )</tspan>
        <tspan x="345.854" y="0" fill="#CCCCCC" font-family="Hack" font-size="26.1119">;</tspan>
        <tspan x="361.576" y="0" fill="#FFFFFF" font-family="Hack" font-size="26.1119" letter-spacing="13.923"> </tspan>
        <tspan x="391.679" y="0" fill="#FFFFFF" font-family="Hack" font-size="26.1119" letter-spacing="22.874"> </tspan>
        <tspan x="470.016" y="0" fill="#FFFFFF" font-family="Hack" font-size="26.1119">true</tspan>
        <tspan x="0" y="65.28" fill="#F2F2F2" font-family="Hack" font-size="26.1119">( 5 &gt; 4 ) || ( 4 &lt; 3 );</tspan>
        <tspan x="361.576" y="65.28" fill="#F2F2F2" font-family="Hack" font-size="26.1119" letter-spacing="13.923">
        </tspan>
        <tspan x="391.679" y="65.28" fill="#FFFFFF" font-family="Hack" font-size="26.1119" letter-spacing="22.874">
        </tspan>
        <tspan x="470.016" y="65.28" fill="#FFFFFF" font-family="Hack" font-size="26.1119">true</tspan>
        <tspan x="0" y="130.56" fill="#F2F2F2" font-family="Hack" font-size="26.1119">”text” === “diff” || 4 == 3;</tspan>
        <tspan x="440.18" y="130.56" fill="#FFFFFF" font-family="Hack" font-size="26.1119" letter-spacing="13.923">
        </tspan>
        <tspan x="470.016" y="130.56" fill="#FFFFFF" font-family="Hack" font-size="26.1119">false</tspan>
    </text>
    <text transform="matrix(1.0055 0 0 1 227.5005 527.875)">
        <tspan x="0" y="0" fill="#F2F2F2" font-family="Hack" font-size="26.1119">( 5 &gt; 4 ) &amp;&amp; ( 4 &gt; 3 )</tspan>
        <tspan x="345.854" y="0" fill="#CCCCCC" font-family="Hack" font-size="26.1119">;</tspan>
        <tspan x="361.576" y="0" fill="#FFFFFF" font-family="Hack" font-size="26.1119" letter-spacing="13.923"> </tspan>
        <tspan x="391.679" y="0" fill="#FFFFFF" font-family="Hack" font-size="26.1119" letter-spacing="22.874"> </tspan>
        <tspan x="470.016" y="0" fill="#FFFFFF" font-family="Hack" font-size="26.1119">true</tspan>
        <tspan x="0" y="65.28" fill="#F2F2F2" font-family="Hack" font-size="26.1119">( 5 &gt; 4 ) &amp;&amp; ( 4 &lt; 3
            );</tspan>
        <tspan x="361.576" y="65.28" fill="#F2F2F2" font-family="Hack" font-size="26.1119" letter-spacing="13.923">
        </tspan>
        <tspan x="391.679" y="65.28" fill="#FFFFFF" font-family="Hack" font-size="26.1119" letter-spacing="22.874">
        </tspan>
        <tspan x="470.016" y="65.28" fill="#FFFFFF" font-family="Hack" font-size="26.1119">false</tspan>
        <tspan x="0" y="130.56" fill="#F2F2F2" font-family="Hack" font-size="26.1119">”text” === “diff” &amp;&amp; 4 ==
            3;</tspan>
        <tspan x="440.18" y="130.56" fill="#FFFFFF" font-family="Hack" font-size="26.1119" letter-spacing="13.923">
        </tspan>
        <tspan x="470.016" y="130.56" fill="#FFFFFF" font-family="Hack" font-size="26.1119">false</tspan>
    </text>
</svg>
