<svg xmlns="http://www.w3.org/2000/svg" xmlns:xlink="http://www.w3.org/1999/xlink" viewBox="0 0 61 81" fill="#fff" fill-rule="evenodd" stroke="#000" stroke-linecap="round" stroke-linejoin="round"><use xlink:href="#A" x=".5" y=".5"/><symbol id="A" overflow="visible"><path d="M32.708 39.689c-.208-.416-.625-.623-.833-1.039-.417-.208-.833-.416-1.25-.416-.625 0-1.042.208-1.458.416s-.625.623-1.042.831l-.625 1.247c-.208.416-.208 1.039-.208 1.662 0 .831 0 1.454.208 1.87.208.623.417 1.039.625 1.247.209.416.625.623 1.042.623.417.208.833.208 1.25.208s.833 0 1.041-.208c.417-.208.625-.416 1.042-.831l.625-1.247c.208-.415.208-1.039.208-1.87 0-.623 0-1.039-.208-1.662l-.417-.831zM29.999 0C13.333 0 0 5.61 0 11.844v56.104C0 74.182 13.541 80 29.999 80c16.666 0 29.999-5.611 29.999-11.844V12.052C60.206 5.818 46.665 0 29.999 0zm-8.958 46.961c0 .416-.208.831-.417 1.247s-.417.831-.833 1.039c-.417.416-.833.623-1.25.831s-1.042.416-1.875.624c-.625.208-1.458.208-2.5.208h-1.458c-.417 0-.833 0-1.25-.208-.417 0-.833-.208-1.042-.208-.417 0-.625-.208-.833-.416v-4.364c.208.208.625.416 1.042.624s.625.416 1.041.623.834.208 1.25.416.833.208 1.25.208.625 0 .833-.208c.208 0 .417-.208.417-.208.208 0 .208-.208.208-.416v-.416c0-.208 0-.416-.208-.623s-.208-.416-.417-.416c-.208-.208-.417-.208-.833-.416s-.625-.208-1.042-.416c-.625-.208-1.25-.623-1.875-1.039-.417-.416-.833-.623-1.25-1.039s-.625-.831-.625-1.247c-.209-.415-.209-1.039-.209-1.454 0-.831.209-1.455.417-2.078.417-.623.833-1.247 1.25-1.663.625-.415 1.25-.831 2.083-1.039s1.667-.416 2.708-.416h1.458c.417 0 .833 0 1.25.208.416 0 .625.208 1.042.208s.625.208.833.208v4.156c-.209-.208-.417-.208-.833-.415-.208-.208-.625-.208-1.042-.416s-.625-.208-1.042-.208h-1.25c-.625 0-1.042 0-1.25.208-.417.208-.417.416-.417.831 0 .208 0 .416.208.416 0 .208.208.208.417.416s.417.208.625.416.625.208 1.042.416c.625.208 1.25.623 1.875.831.625.416 1.041.624 1.458 1.039s.625.831 1.042 1.247c.208.416.417 1.039.417 1.87a1.59 1.59 0 0 0-.417 1.039zm12.291 7.896l-3.541-3.74c-1.042 0-2.083-.415-2.917-.623-.833-.416-1.666-1.039-2.291-1.662s-1.25-1.455-1.667-2.494-.625-2.078-.625-3.325.208-2.493.625-3.532 1.042-1.87 1.667-2.701 1.666-1.247 2.5-1.662c1.042-.416 2.083-.623 3.333-.623s2.291.208 3.125.624a7.5 7.5 0 0 1 2.5 1.662c.625.623 1.25 1.662 1.666 2.493.417 1.039.625 2.078.625 3.533 0 .831 0 1.87-.416 2.493-.208.831-.625 1.455-1.042 2.078s-.833 1.247-1.458 1.662-1.041.831-1.875 1.247l5.416 4.571h-5.625zm17.916-4.156H40.832v-16h4.791v12.26h5.625v3.74zM29.999 17.455c-11.875 0-21.457-2.909-21.457-6.442S18.125 4.572 30 4.572s21.458 2.909 21.458 6.441S41.875 17.455 30 17.455z" fill="#0078d7" stroke="none"/></symbol></svg>