<svg enable-background="new 0 0 58 58" viewBox="0 0 58 58" xmlns="http://www.w3.org/2000/svg"><path d="m0 0h58v58h-58z" fill="#ecf0f1"/><path d="m0 0h58v12h-58z" fill="#546a79"/><circle cx="6" cy="6" fill="#ed7161" r="3"/><circle cx="15" cy="6" fill="#f0c419" r="3"/><circle cx="24" cy="6" fill="#4fba6f" r="3"/><path d="m0 12h12v46h-12z" fill="#556080"/><g fill="#768e9b"><path d="m4 19h4c.552 0 1-.447 1-1s-.448-1-1-1h-4c-.552 0-1 .447-1 1s.448 1 1 1z"/><path d="m8 22h-4c-.552 0-1 .447-1 1s.448 1 1 1h4c.552 0 1-.447 1-1s-.448-1-1-1z"/><path d="m8 27h-4c-.552 0-1 .447-1 1s.448 1 1 1h4c.552 0 1-.447 1-1s-.448-1-1-1z"/><path d="m8 32h-4c-.552 0-1 .447-1 1s.448 1 1 1h4c.552 0 1-.447 1-1s-.448-1-1-1z"/><path d="m8 37h-4c-.552 0-1 .447-1 1s.448 1 1 1h4c.552 0 1-.447 1-1s-.448-1-1-1z"/><path d="m8 42h-4c-.552 0-1 .447-1 1s.448 1 1 1h4c.552 0 1-.447 1-1s-.448-1-1-1z"/><path d="m8 47h-4c-.552 0-1 .447-1 1s.448 1 1 1h4c.552 0 1-.447 1-1s-.448-1-1-1z"/><path d="m8 52h-4c-.552 0-1 .447-1 1s.448 1 1 1h4c.552 0 1-.447 1-1s-.448-1-1-1z"/></g><path d="m18 18h14v14h-14z" fill="#9777a8"/><path d="m38 18h14v14h-14z" fill="#f29c1f"/><path d="m18 38h14v14h-14z" fill="#26b99a"/><path d="m38 38h14v14h-14z" fill="#ed7161"/></svg>