<?xml version="1.0" encoding="utf-8"?>
<!-- Generator: Adobe Illustrator 15.0.0, SVG Export Plug-In . SVG Version: 6.00 Build 0)  -->
<!DOCTYPE svg PUBLIC "-//W3C//DTD SVG 1.1//EN" "http://www.w3.org/Graphics/SVG/1.1/DTD/svg11.dtd">
<svg version="1.1" id="Layer_1" xmlns="http://www.w3.org/2000/svg" xmlns:xlink="http://www.w3.org/1999/xlink" x="0px" y="0px"
	 width="1024px" height="512px" viewBox="0 0 1024 512" enable-background="new 0 0 1024 512" xml:space="preserve">
<g>
	<path fill="#F9672E" d="M268.762,184.143c-1.717-5.167-9.48-9.24-19.817-10.1l-28.842-14.514c-1.718-5.168-9.766-9.241-20.104-10.1
		l-4.006-2.025l-4.029,2.025c-10.34,0.859-18.471,4.932-20.189,10.1l-29.023,14.514c-10.34,0.86-18.478,4.933-20.195,10.1
		l-29.029,14.518c-10.337,0.857-18.477,4.927-20.195,10.097l-29.034,14.515c-10.338,0.86-18.382,4.929-20.099,10.1L0.554,245.244
		v72.61l96.37,48.612l194.828-97.84v-72.61L268.762,184.143z"/>
	<ellipse opacity="0.08" enable-background="new    " cx="196.039" cy="210.785" rx="24.612" ry="12.308"/>
	<ellipse opacity="0.08" enable-background="new    " cx="245.266" cy="186.171" rx="24.615" ry="12.306"/>
	<polygon opacity="0.2" enable-background="new    " points="293.263,268.627 97.583,366.467 97.583,293.855 293.263,196.017 	"/>
	<polygon opacity="0.11" enable-background="new    " points="0.358,317.854 97.583,366.467 97.583,293.855 0.358,245.244 	"/>
	<ellipse opacity="0.08" enable-background="new    " cx="97.583" cy="260.013" rx="24.614" ry="12.308"/>
	<ellipse opacity="0.08" enable-background="new    " cx="146.81" cy="235.399" rx="24.614" ry="12.306"/>
	<ellipse opacity="0.08" enable-background="new    " cx="196.039" cy="161.558" rx="24.612" ry="12.306"/>
	<ellipse opacity="0.08" enable-background="new    " cx="146.81" cy="186.171" rx="24.614" ry="12.306"/>
	<ellipse opacity="0.08" enable-background="new    " cx="97.583" cy="210.785" rx="24.614" ry="12.308"/>
	<ellipse opacity="0.08" enable-background="new    " cx="48.355" cy="235.399" rx="24.615" ry="12.306"/>
	<path opacity="0.2" enable-background="new    " d="M146.153,247.705c-13.595,0-24.151-5.51-24.151-12.308v9.229
		c0,6.77,10.613,12.306,24.151,12.306s24.151-5.537,24.151-12.306v-9.229C170.304,242.195,159.746,247.705,146.153,247.705z"/>
	<path opacity="0.2" enable-background="new    " d="M195.836,223.038c-13.595,0-25.532-5.51-25.532-12.306v9.229
		c0,6.77,11.993,12.308,25.532,12.308s25.531-5.538,25.531-12.308v-9.229C221.367,217.528,209.428,223.038,195.836,223.038z"/>
	<path opacity="0.2" enable-background="new    " d="M246.209,198.37c-13.595,0-24.842-5.509-24.842-12.306v9.229
		c0,6.768,11.303,12.308,24.842,12.308c13.538,0,24.841-5.54,24.841-12.308v-9.229C271.05,192.86,259.801,198.37,246.209,198.37z"/>
	<path opacity="0.2" enable-background="new    " d="M195.836,173.704c-13.595,0-25.532-5.51-25.532-12.308v9.232
		c0,6.767,11.993,12.306,25.532,12.306s25.531-5.539,25.531-12.306v-9.232C221.367,168.194,209.428,173.704,195.836,173.704z"/>
	<path opacity="0.2" enable-background="new    " d="M97.16,223.038c-13.595,0-24.841-5.51-24.841-12.306v9.229
		c0,6.77,11.303,12.308,24.841,12.308c13.539,0,24.842-5.538,24.842-12.308v-9.229C122.001,217.528,110.754,223.038,97.16,223.038z"
		/>
	<path opacity="0.2" enable-background="new    " d="M146.153,198.37c-13.595,0-24.151-5.509-24.151-12.306v9.229
		c0,6.768,10.613,12.308,24.151,12.308s24.151-5.54,24.151-12.308v-9.229C170.304,192.86,159.746,198.37,146.153,198.37z"/>
	<path opacity="0.2" enable-background="new    " d="M48.167,247.705c-13.595,0-24.151-5.51-24.151-12.308v9.229
		c0,6.77,10.613,12.306,24.151,12.306s24.151-5.537,24.151-12.306v-9.229C72.318,242.195,61.761,247.705,48.167,247.705z"/>
	<path opacity="0.2" enable-background="new    " d="M97.16,272.371c-13.595,0-24.841-5.51-24.841-12.308v9.231
		c0,6.768,11.303,12.306,24.841,12.306c13.539,0,24.842-5.538,24.842-12.306v-9.231C122.001,266.861,110.754,272.371,97.16,272.371z
		"/>
</g>
<g>
	<path fill="#00ABDD" d="M634.379,184.143c-1.717-5.167-9.529-9.24-19.867-10.1l-28.867-14.514c-1.72-5.168-9.779-9.241-20.119-10.1
		l-4.012-2.025l-4.031,2.025c-10.343,0.859-18.472,4.932-20.191,10.1l-29.024,14.514c-10.34,0.86-18.479,4.933-20.196,10.1
		l-29.032,14.518c-10.336,0.857-18.473,4.927-20.192,10.097l-29.033,14.515c-10.34,0.86-18.279,4.929-19.997,10.1l-23.542,11.871
		v72.61l96.371,48.612l194.826-97.84v-72.61L634.379,184.143z"/>
	<ellipse opacity="0.08" enable-background="new    " cx="561.556" cy="210.785" rx="24.614" ry="12.308"/>
	<ellipse opacity="0.08" enable-background="new    " cx="610.783" cy="186.171" rx="24.613" ry="12.306"/>
	<polygon opacity="0.2" enable-background="new    " points="658.779,268.627 463.101,366.467 463.101,293.855 658.779,196.017 	"/>
	<polygon opacity="0.11" enable-background="new    " points="365.875,317.854 463.101,366.467 463.101,293.855 365.875,245.244 	
		"/>
	<ellipse opacity="0.08" enable-background="new    " cx="463.101" cy="260.013" rx="24.613" ry="12.308"/>
	<ellipse opacity="0.08" enable-background="new    " cx="512.328" cy="235.399" rx="24.614" ry="12.306"/>
	<ellipse opacity="0.08" enable-background="new    " cx="561.556" cy="161.558" rx="24.614" ry="12.306"/>
	<ellipse opacity="0.08" enable-background="new    " cx="512.328" cy="186.171" rx="24.614" ry="12.306"/>
	<ellipse opacity="0.08" enable-background="new    " cx="463.101" cy="210.785" rx="24.613" ry="12.308"/>
	<ellipse opacity="0.08" enable-background="new    " cx="413.873" cy="235.399" rx="24.614" ry="12.306"/>
	<path opacity="0.2" enable-background="new    " d="M512.565,247.705c-13.595,0-24.841-5.51-24.841-12.308v9.229
		c0,6.77,11.303,12.306,24.841,12.306c13.539,0,24.841-5.537,24.841-12.306v-9.229C537.406,242.195,526.158,247.705,512.565,247.705
		z"/>
	<path opacity="0.2" enable-background="new    " d="M561.558,223.038c-13.593,0-24.151-5.51-24.151-12.306v9.229
		c0,6.77,10.613,12.308,24.151,12.308s24.151-5.538,24.151-12.308v-9.229C585.709,217.528,575.151,223.038,561.558,223.038z"/>
	<path opacity="0.2" enable-background="new    " d="M610.551,198.37c-13.593,0-24.842-5.509-24.842-12.306v9.229
		c0,6.768,11.306,12.308,24.842,12.308c13.538,0,24.842-5.54,24.842-12.308v-9.229C635.393,192.86,624.145,198.37,610.551,198.37z"
		/>
	<path opacity="0.2" enable-background="new    " d="M561.558,173.704c-13.593,0-24.151-5.51-24.151-12.308v9.232
		c0,6.767,10.613,12.306,24.151,12.306s24.151-5.539,24.151-12.306v-9.232C585.709,168.194,575.151,173.704,561.558,173.704z"/>
	<path opacity="0.2" enable-background="new    " d="M462.882,223.038c-13.594,0-24.841-5.51-24.841-12.306v9.229
		c0,6.77,11.303,12.308,24.841,12.308s24.842-5.538,24.842-12.308v-9.229C487.724,217.528,476.476,223.038,462.882,223.038z"/>
	<path opacity="0.2" enable-background="new    " d="M512.565,198.37c-13.595,0-24.841-5.509-24.841-12.306v9.229
		c0,6.768,11.303,12.308,24.841,12.308c13.539,0,24.841-5.54,24.841-12.308v-9.229C537.406,192.86,526.158,198.37,512.565,198.37z"
		/>
	<path opacity="0.2" enable-background="new    " d="M413.889,247.705c-13.595,0-24.151-5.51-24.151-12.308v9.229
		c0,6.77,10.615,12.306,24.151,12.306s24.151-5.537,24.151-12.306v-9.229C438.041,242.195,427.482,247.705,413.889,247.705z"/>
	<path opacity="0.2" enable-background="new    " d="M462.882,272.371c-13.594,0-24.841-5.51-24.841-12.308v9.231
		c0,6.768,11.303,12.306,24.841,12.306s24.842-5.538,24.842-12.306v-9.231C487.724,266.861,476.476,272.371,462.882,272.371z"/>
</g>
<g>
	<path fill="#F7BE2C" d="M1000.004,184.143c-1.72-5.167-9.584-9.24-19.924-10.1l-28.89-14.514c-1.717-5.168-9.794-9.241-20.131-10.1
		l-4.02-2.025l-4.035,2.025c-10.342,0.859-18.476,4.932-20.191,10.1l-29.026,14.514c-10.337,0.86-18.479,4.933-20.194,10.1
		l-29.029,14.518c-10.337,0.857-18.479,4.927-20.195,10.097l-29.033,14.515c-10.34,0.86-18.18,4.929-19.896,10.1l-23.44,11.871
		v72.61l96.37,48.612l194.828-97.84v-72.61L1000.004,184.143z"/>
	<ellipse opacity="0.08" enable-background="new    " cx="927.078" cy="210.785" rx="24.612" ry="12.308"/>
	<ellipse opacity="0.08" enable-background="new    " cx="976.303" cy="186.171" rx="24.614" ry="12.306"/>
	<polygon opacity="0.2" enable-background="new    " points="1024.3,268.627 828.619,366.467 828.619,293.855 1024.3,196.017 	"/>
	<polygon opacity="0.11" enable-background="new    " points="731.395,317.854 828.619,366.467 828.619,293.855 731.395,245.244 	
		"/>
	<ellipse opacity="0.08" enable-background="new    " cx="828.619" cy="260.013" rx="24.615" ry="12.308"/>
	<ellipse opacity="0.08" enable-background="new    " cx="877.85" cy="235.399" rx="24.613" ry="12.306"/>
	<ellipse opacity="0.08" enable-background="new    " cx="927.078" cy="161.558" rx="24.612" ry="12.306"/>
	<ellipse opacity="0.08" enable-background="new    " cx="877.85" cy="186.171" rx="24.613" ry="12.306"/>
	<ellipse opacity="0.08" enable-background="new    " cx="828.619" cy="210.785" rx="24.615" ry="12.308"/>
	<ellipse opacity="0.08" enable-background="new    " cx="779.392" cy="235.399" rx="24.613" ry="12.306"/>
	<path opacity="0.2" enable-background="new    " d="M877.598,247.705c-13.594,0-24.152-5.51-24.152-12.308v9.229
		c0,6.77,10.615,12.306,24.152,12.306c13.539,0,24.151-5.537,24.151-12.306v-9.229C901.749,242.195,891.19,247.705,877.598,247.705z
		"/>
	<path opacity="0.2" enable-background="new    " d="M926.59,223.038c-13.593,0-24.841-5.51-24.841-12.306v9.229
		c0,6.77,11.303,12.308,24.841,12.308s24.842-5.538,24.842-12.308v-9.229C951.432,217.528,940.184,223.038,926.59,223.038z"/>
	<path opacity="0.2" enable-background="new    " d="M976.273,198.37c-13.594,0-24.842-5.509-24.842-12.306v9.229
		c0,6.768,11.304,12.308,24.842,12.308s24.841-5.54,24.841-12.308v-9.229C1001.114,192.86,989.866,198.37,976.273,198.37z"/>
	<path opacity="0.2" enable-background="new    " d="M926.59,173.704c-13.593,0-24.841-5.51-24.841-12.308v9.232
		c0,6.767,11.303,12.306,24.841,12.306s24.842-5.539,24.842-12.306v-9.232C951.432,168.194,940.184,173.704,926.59,173.704z"/>
	<path opacity="0.2" enable-background="new    " d="M828.604,223.038c-13.594,0-24.842-5.51-24.842-12.306v9.229
		c0,6.77,11.304,12.308,24.842,12.308s24.841-5.538,24.841-12.308v-9.229C853.445,217.528,842.197,223.038,828.604,223.038z"/>
	<path opacity="0.2" enable-background="new    " d="M877.598,198.37c-13.594,0-24.152-5.509-24.152-12.306v9.229
		c0,6.768,10.615,12.308,24.152,12.308c13.539,0,24.151-5.54,24.151-12.308v-9.229C901.749,192.86,891.19,198.37,877.598,198.37z"/>
	<path opacity="0.2" enable-background="new    " d="M779.611,247.705c-13.594,0-24.151-5.51-24.151-12.308v9.229
		c0,6.77,10.614,12.306,24.151,12.306c13.539,0,24.151-5.537,24.151-12.306v-9.229C803.763,242.195,793.204,247.705,779.611,247.705
		z"/>
	<path opacity="0.2" enable-background="new    " d="M828.604,272.371c-13.594,0-24.842-5.51-24.842-12.308v9.231
		c0,6.768,11.304,12.306,24.842,12.306s24.841-5.538,24.841-12.306v-9.231C853.445,266.861,842.197,272.371,828.604,272.371z"/>
</g>
</svg>
