<svg enable-background="new 0 0 58 58" viewBox="0 0 58 58" xmlns="http://www.w3.org/2000/svg"><path d="m0 0h58v58h-58z" fill="#ecf0f1"/><path d="m0 0h58v12h-58z" fill="#546a79"/><circle cx="6" cy="6" fill="#ed7161" r="3"/><circle cx="15" cy="6" fill="#f0c419" r="3"/><circle cx="24" cy="6" fill="#4fba6f" r="3"/><path d="m45 17h8v36h-8z" fill="#bdc3c7"/><path d="m5 17h8v36h-8z" fill="#bdc3c7"/><path d="m18 47h22v6h-22z" fill="#71c285"/><path d="m18 17h22v12h-22z" fill="#71c285"/><g fill="#bdc3c7"><path d="m28 34h-9c-.552 0-1-.448-1-1s.448-1 1-1h9c.552 0 1 .448 1 1s-.448 1-1 1z"/><path d="m39 38h-20c-.552 0-1-.448-1-1s.448-1 1-1h20c.552 0 1 .448 1 1s-.448 1-1 1z"/><path d="m39 42h-20c-.552 0-1-.448-1-1s.448-1 1-1h20c.552 0 1 .448 1 1s-.448 1-1 1z"/></g></svg>