<svg version="1.1" id="Layer_1" xmlns="http://www.w3.org/2000/svg" xmlns:xlink="http://www.w3.org/1999/xlink" x="0px"
    y="0px" width="1024px" height="768px" viewBox="0 0 1024 768" enable-background="new 0 0 1024 768" xml:space="preserve">
    <rect x="1" y="-2" fill="#0D2234" width="1023" height="769" />
    <g opacity="0.1">
        <rect x="-0.5" y="-2.5" fill="none" stroke="#FFFFFF" stroke-miterlimit="10" width="1023" height="769" />
        <line fill="none" stroke="#FFFFFF" stroke-miterlimit="10" x1="4" y1="728.5" x2="1021" y2="728.5" />
        <line fill="none" stroke="#FFFFFF" stroke-miterlimit="10" x1="4" y1="691.5" x2="1021" y2="691.5" />
        <line fill="none" stroke="#FFFFFF" stroke-miterlimit="10" x1="4" y1="650.5" x2="1021" y2="650.5" />
        <line fill="none" stroke="#FFFFFF" stroke-miterlimit="10" x1="4" y1="624.5" x2="1021" y2="624.5" />
        <line fill="none" stroke="#FFFFFF" stroke-miterlimit="10" x1="4" y1="586.5" x2="1021" y2="586.5" />
        <line fill="none" stroke="#FFFFFF" stroke-miterlimit="10" x1="4" y1="545.5" x2="1021" y2="545.5" />
        <line fill="none" stroke="#FFFFFF" stroke-miterlimit="10" x1="4" y1="508.5" x2="1021" y2="508.5" />
        <line fill="none" stroke="#FFFFFF" stroke-miterlimit="10" x1="4" y1="471.5" x2="1021" y2="471.5" />
        <line fill="none" stroke="#FFFFFF" stroke-miterlimit="10" x1="4" y1="433.5" x2="1021" y2="433.5" />
        <line fill="none" stroke="#FFFFFF" stroke-miterlimit="10" x1="4" y1="396.5" x2="1021" y2="396.5" />
        <line fill="none" stroke="#FFFFFF" stroke-miterlimit="10" x1="4" y1="366.5" x2="1021" y2="366.5" />
        <line fill="none" stroke="#FFFFFF" stroke-miterlimit="10" x1="4" y1="329.5" x2="1021" y2="329.5" />
        <line fill="none" stroke="#FFFFFF" stroke-miterlimit="10" x1="4" y1="292.5" x2="1021" y2="292.5" />
        <line fill="none" stroke="#FFFFFF" stroke-miterlimit="10" x1="4" y1="251.5" x2="1021" y2="251.5" />
        <line fill="none" stroke="#FFFFFF" stroke-miterlimit="10" x1="4" y1="213.5" x2="1021" y2="213.5" />
        <line fill="none" stroke="#FFFFFF" stroke-miterlimit="10" x1="4" y1="176.5" x2="1021" y2="176.5" />
        <line fill="none" stroke="#FFFFFF" stroke-miterlimit="10" x1="4" y1="139.5" x2="1021" y2="139.5" />
        <line fill="none" stroke="#FFFFFF" stroke-miterlimit="10" x1="4" y1="109.5" x2="1021" y2="109.5" />
        <line fill="none" stroke="#FFFFFF" stroke-miterlimit="10" x1="4" y1="72.5" x2="1021" y2="72.5" />
        <line fill="none" stroke="#FFFFFF" stroke-miterlimit="10" x1="4" y1="34.5" x2="1021" y2="34.5" />
        <line fill="none" stroke="#FFFFFF" stroke-miterlimit="10" x1="977.5" y1="-1" x2="977.5" y2="760" />
        <line fill="none" stroke="#FFFFFF" stroke-miterlimit="10" x1="925.5" y1="-1" x2="925.5" y2="760" />
        <line fill="none" stroke="#FFFFFF" stroke-miterlimit="10" x1="877.5" y1="-1" x2="877.5" y2="760" />
        <line fill="none" stroke="#FFFFFF" stroke-miterlimit="10" x1="825.5" y1="-1" x2="825.5" y2="760" />
        <line fill="none" stroke="#FFFFFF" stroke-miterlimit="10" x1="780.5" y1="-1" x2="780.5" y2="760" />
        <line fill="none" stroke="#FFFFFF" stroke-miterlimit="10" x1="734.5" y1="-1" x2="734.5" y2="760" />
        <line fill="none" stroke="#FFFFFF" stroke-miterlimit="10" x1="682.5" y1="-1" x2="682.5" y2="760" />
        <line fill="none" stroke="#FFFFFF" stroke-miterlimit="10" x1="637.5" y1="-1" x2="637.5" y2="760" />
        <line fill="none" stroke="#FFFFFF" stroke-miterlimit="10" x1="585.5" y1="-1" x2="585.5" y2="760" />
        <line fill="none" stroke="#FFFFFF" stroke-miterlimit="10" x1="537.5" y1="-1" x2="537.5" y2="760" />
        <line fill="none" stroke="#FFFFFF" stroke-miterlimit="10" x1="491.5" y1="-1" x2="491.5" y2="760" />
        <line fill="none" stroke="#FFFFFF" stroke-miterlimit="10" x1="439.5" y1="-1" x2="439.5" y2="760" />
        <line fill="none" stroke="#FFFFFF" stroke-miterlimit="10" x1="394.5" y1="-1" x2="394.5" y2="760" />
        <line fill="none" stroke="#FFFFFF" stroke-miterlimit="10" x1="342.5" y1="-1" x2="342.5" y2="760" />
        <line fill="none" stroke="#FFFFFF" stroke-miterlimit="10" x1="294.5" y1="-1" x2="294.5" y2="760" />
        <line fill="none" stroke="#FFFFFF" stroke-miterlimit="10" x1="248.5" y1="-1" x2="248.5" y2="760" />
        <line fill="none" stroke="#FFFFFF" stroke-miterlimit="10" x1="197.5" y1="-1" x2="197.5" y2="760" />
        <line fill="none" stroke="#FFFFFF" stroke-miterlimit="10" x1="151.5" y1="-1" x2="151.5" y2="760" />
        <line fill="none" stroke="#FFFFFF" stroke-miterlimit="10" x1="99.5" y1="-1" x2="99.5" y2="760" />
        <line fill="none" stroke="#FFFFFF" stroke-miterlimit="10" x1="54.5" y1="-1" x2="54.5" y2="760" />
    </g>
    <path fill="none" d="M348.855,472.992c0.063-0.156,0.13-0.315,0.193-0.466C348.98,472.681,348.916,472.82,348.855,472.992z" />
    <path fill="none" d="M348.377,474.229l0.159-0.407C348.479,473.945,348.427,474.087,348.377,474.229z" />
    <path fill="none" d="M349.422,471.659c0.076-0.163,0.154-0.325,0.234-0.485C349.591,471.338,349.51,471.497,349.422,471.659z" />
    <path fill="none" d="M349.994,470.554c0.126-0.239,0.256-0.476,0.389-0.708C350.25,470.078,350.12,470.314,349.994,470.554z" />
    <path fill="none" d="M351.349,468.248c0.215-0.33,0.436-0.654,0.665-0.976C351.784,467.591,351.563,467.916,351.349,468.248z" />
    <path fill="none" d="M350.733,469.229c0.109-0.184,0.22-0.365,0.335-0.545C350.953,468.863,350.843,469.045,350.733,469.229z" />
    <path fill="none" d="M347.939,475.561c0.021-0.086,0.051-0.176,0.075-0.262C347.986,475.385,347.961,475.47,347.939,475.561z" />
    <path fill="none" d="M347.26,478.246l0.025-0.131L347.26,478.246z" />
    <path fill="none" d="M347.002,479.75c0.018-0.113,0.035-0.229,0.055-0.347C347.037,479.506,347.02,479.622,347.002,479.75z" />
    <path fill="none" d="M347.56,476.92l0.095-0.378L347.56,476.92z" />
    <path fill="none" d="M353.963,464.811c0.187-0.212,0.377-0.408,0.573-0.627C354.34,464.391,354.149,464.599,353.963,464.811z" />
    <path fill="none" d="M346.727,482.641c0-0.11,0-0.225,0-0.336C346.735,482.416,346.73,482.53,346.727,482.641z" />
    <path fill="none" d="M352.906,466.073c0.328-0.414,0.67-0.823,1.021-1.223C353.576,465.247,353.234,465.654,352.906,466.073z" />
    <path fill="none" d="M356.57,462.223c-0.662,0.58-1.297,1.187-1.904,1.827C355.273,463.409,355.908,462.803,356.57,462.223z" />
    <path fill="none" d="M352.245,466.942c0.147-0.2,0.297-0.399,0.448-0.595C352.543,466.543,352.393,466.742,352.245,466.942z" />
    <path fill="none" d="M346.836,481.051" />
    <rect x="174.536" y="68.5" fill="none" width="671.994" height="205.5" />
    <text transform="matrix(1 0 0 1 174.5361 86.5)">
        <tspan x="0" y="0" fill="#FFFFFF" font-family="'Roboto'" font-size="24">Arithmetic </tspan>
        <tspan x="116.578" y="0" fill="#FFFFFF" font-family="'Roboto'" font-size="24">Operators </tspan>
        <tspan x="230.004" y="0" fill="#FFFFFF" font-family="'Roboto'" font-size="24">include:</tspan>
        <tspan x="0" y="30" fill="#FFFFFF" font-family="'Roboto'" font-size="24">+</tspan>
        <tspan x="13.605" y="30" fill="#FFFFFF" font-family="'Roboto'" font-size="24" letter-spacing="16"> </tspan>
        <tspan x="36" y="30" fill="#FFFFFF" font-family="'Roboto'" font-size="24">Addition</tspan>
        <tspan x="0" y="60" fill="#FFFFFF" font-family="'Roboto'" font-size="24">-</tspan>
        <tspan x="6.621" y="60" fill="#FFFFFF" font-family="'Roboto'" font-size="24" letter-spacing="23"> </tspan>
        <tspan x="36" y="60" fill="#FFFFFF" font-family="'Roboto'" font-size="24">Subtraction</tspan>
        <tspan x="0" y="90" fill="#FFFFFF" font-family="'Roboto'" font-size="24">*</tspan>
        <tspan x="10.336" y="90" fill="#FFFFFF" font-family="'Roboto'" font-size="24" letter-spacing="19"> </tspan>
        <tspan x="36" y="90" fill="#FFFFFF" font-family="'Roboto'" font-size="24">Multiplication</tspan>
        <tspan x="0" y="120" fill="#FFFFFF" font-family="'Roboto'" font-size="24">/</tspan>
        <tspan x="9.891" y="120" fill="#FFFFFF" font-family="'Roboto'" font-size="24" letter-spacing="20"> </tspan>
        <tspan x="36" y="120" fill="#FFFFFF" font-family="'Roboto'" font-size="24">Division</tspan>
        <tspan x="0" y="150" fill="#FFFFFF" font-family="'Roboto'" font-size="24">**</tspan>
        <tspan x="20.672" y="150" fill="#FFFFFF" font-family="'Roboto'" font-size="24" letter-spacing="9"> </tspan>
        <tspan x="36" y="150" fill="#FFFFFF" font-family="'Roboto'" font-size="24">Exponentiation </tspan>
        <tspan x="0" y="180" fill="#FFFFFF" font-family="'Roboto'" font-size="24">%</tspan>
        <tspan x="17.578" y="180" fill="#FFFFFF" font-family="'Roboto'" font-size="24" letter-spacing="12"> </tspan>
        <tspan x="36" y="180" fill="#FFFFFF" font-family="'Roboto'" font-size="24">Remainder</tspan>
    </text>
    <g>
        <g>
            <g>
                <path fill="#FFFFFF" d="M181.549,669.113c-3.058,0-5.546-2.487-5.546-5.545l0.533-361.852c0-3.061,2.488-5.548,5.546-5.548
                    h656.901c3.059,0,5.547,2.487,5.547,5.545l-0.533,361.852c0,3.061-2.488,5.548-5.547,5.548H181.549z" />
                <g>
                    <path fill="#5E7FB5" d="M838.983,298.169c1.956,0,3.547,1.59,3.547,3.539l-0.533,361.86c0,1.955-1.591,3.545-3.547,3.545
                        H181.549c-1.955,0-3.546-1.59-3.546-3.539l0.533-361.86c0-1.955,1.591-3.545,3.546-3.545H838.983 M838.983,294.169H182.082
                        c-4.15,0-7.546,3.396-7.546,7.545l-0.533,361.854c0,4.15,3.396,7.545,7.546,7.545H838.45c4.15,0,7.547-3.395,7.547-7.545
                        l0.533-361.854C846.53,297.565,843.134,294.169,838.983,294.169L838.983,294.169z" />
                </g>
            </g>
            <g>
                <g>
                    <path fill="#5E7FB5" d="M838.983,294.169H182.082c-4.15,0-7.546,3.396-7.546,7.545v27.92H846.53v-27.92
                        C846.53,297.565,843.134,294.169,838.983,294.169z" />
                    <circle fill="#E3E6E9" cx="195.287" cy="311.901" r="6.414" />
                    <circle fill="#E3E6E9" cx="237.544" cy="311.901" r="6.414" />
                    <circle fill="#E3E6E9" cx="216.215" cy="311.901" r="6.414" />
                </g>
            </g>
        </g>
    </g>
    <text transform="matrix(1 0 0 1 197.5 367.5)">
        <tspan x="0" y="0" fill="#231F20" font-family="'Hack'" font-size="24">&gt; 1995 + 23;</tspan>
        <tspan x="0" y="32.64" fill="#231F20" font-family="'Hack'" font-size="24">&gt; 2018</tspan>
        <tspan x="0" y="65.28" fill="#231F20" font-family="'Hack'" font-size="24">&gt; 100 * 1.22;</tspan>
        <tspan x="0" y="97.92" fill="#231F20" font-family="'Hack'" font-size="24">&gt; 122</tspan>
        <tspan x="0" y="130.56" fill="#231F20" font-family="'Hack'" font-size="24">&gt; 122 / 100;</tspan>
        <tspan x="0" y="163.199" fill="#231F20" font-family="'Hack'" font-size="24">&gt; 1.22</tspan>
        <tspan x="0" y="195.84" fill="#231F20" font-family="'Hack'" font-size="24">&gt; 2 ** 3</tspan>
        <tspan x="0" y="228.479" fill="#231F20" font-family="'Hack'" font-size="24">&gt; 8</tspan>
        <tspan x="0" y="261.119" fill="#231F20" font-family="'Hack'" font-size="24">&gt; 10 + 5; 20 * 2;</tspan>
    </text>
    <g>
        <path fill="#F7BE2C" d="M105.902,81.04l27.54-27.54l27.54,27.54l-27.54,27.54L105.902,81.04z" />
        <path fill="#231F20" d="M121.583,81.444v-0.688l6.467-4.022l0.794,1.247l-5.044,3.048l5.044,2.981l-0.786,1.247l-6.479-3.812
            H121.583z M135.341,75.67l1.359,0.606l-4.943,11.197l-1.363-0.637l4.943-11.167H135.341z M139,85.257l-0.786-1.247l5.04-2.981
            l-5.044-3.048l0.786-1.243l6.479,4.021v0.693l-6.479,3.809L139,85.257z" />
    </g>
    <text transform="matrix(1 0 0 1 160.4658 716.0537)" fill="#FFFFFF" font-family="'Hack'" font-size="22">JavaScript
        also supports decimals (floating point numbers).</text>
    <g>
        <circle fill="#FCEE21" cx="134.419" cy="707.11" r="14.61" />
        <text transform="matrix(1 0 0 1 131.1079 716.0537)" font-family="'Roboto'" font-size="24.7523">!</text>
    </g>
</svg>
