<svg version="1.1" id="Layer_1" xmlns="http://www.w3.org/2000/svg" xmlns:xlink="http://www.w3.org/1999/xlink" x="0px"
    y="0px" width="1024px" height="768px" viewBox="0 0 1024 768" enable-background="new 0 0 1024 768" xml:space="preserve">
    <rect x="1" y="-2" fill="#0D2234" width="1023" height="769" />
    <g opacity="0.1">
        <rect x="-0.5" y="-2.5" fill="none" stroke="#FFFFFF" stroke-miterlimit="10" width="1023" height="769" />
        <line fill="none" stroke="#FFFFFF" stroke-miterlimit="10" x1="4" y1="728.5" x2="1021" y2="728.5" />
        <line fill="none" stroke="#FFFFFF" stroke-miterlimit="10" x1="4" y1="691.5" x2="1021" y2="691.5" />
        <line fill="none" stroke="#FFFFFF" stroke-miterlimit="10" x1="4" y1="650.5" x2="1021" y2="650.5" />
        <line fill="none" stroke="#FFFFFF" stroke-miterlimit="10" x1="4" y1="624.5" x2="1021" y2="624.5" />
        <line fill="none" stroke="#FFFFFF" stroke-miterlimit="10" x1="4" y1="586.5" x2="1021" y2="586.5" />
        <line fill="none" stroke="#FFFFFF" stroke-miterlimit="10" x1="4" y1="545.5" x2="1021" y2="545.5" />
        <line fill="none" stroke="#FFFFFF" stroke-miterlimit="10" x1="4" y1="508.5" x2="1021" y2="508.5" />
        <line fill="none" stroke="#FFFFFF" stroke-miterlimit="10" x1="4" y1="471.5" x2="1021" y2="471.5" />
        <line fill="none" stroke="#FFFFFF" stroke-miterlimit="10" x1="4" y1="433.5" x2="1021" y2="433.5" />
        <line fill="none" stroke="#FFFFFF" stroke-miterlimit="10" x1="4" y1="396.5" x2="1021" y2="396.5" />
        <line fill="none" stroke="#FFFFFF" stroke-miterlimit="10" x1="4" y1="366.5" x2="1021" y2="366.5" />
        <line fill="none" stroke="#FFFFFF" stroke-miterlimit="10" x1="4" y1="329.5" x2="1021" y2="329.5" />
        <line fill="none" stroke="#FFFFFF" stroke-miterlimit="10" x1="4" y1="292.5" x2="1021" y2="292.5" />
        <line fill="none" stroke="#FFFFFF" stroke-miterlimit="10" x1="4" y1="251.5" x2="1021" y2="251.5" />
        <line fill="none" stroke="#FFFFFF" stroke-miterlimit="10" x1="4" y1="213.5" x2="1021" y2="213.5" />
        <line fill="none" stroke="#FFFFFF" stroke-miterlimit="10" x1="4" y1="176.5" x2="1021" y2="176.5" />
        <line fill="none" stroke="#FFFFFF" stroke-miterlimit="10" x1="4" y1="139.5" x2="1021" y2="139.5" />
        <line fill="none" stroke="#FFFFFF" stroke-miterlimit="10" x1="4" y1="109.5" x2="1021" y2="109.5" />
        <line fill="none" stroke="#FFFFFF" stroke-miterlimit="10" x1="4" y1="72.5" x2="1021" y2="72.5" />
        <line fill="none" stroke="#FFFFFF" stroke-miterlimit="10" x1="4" y1="34.5" x2="1021" y2="34.5" />
        <line fill="none" stroke="#FFFFFF" stroke-miterlimit="10" x1="977.5" y1="-1" x2="977.5" y2="760" />
        <line fill="none" stroke="#FFFFFF" stroke-miterlimit="10" x1="925.5" y1="-1" x2="925.5" y2="760" />
        <line fill="none" stroke="#FFFFFF" stroke-miterlimit="10" x1="877.5" y1="-1" x2="877.5" y2="760" />
        <line fill="none" stroke="#FFFFFF" stroke-miterlimit="10" x1="825.5" y1="-1" x2="825.5" y2="760" />
        <line fill="none" stroke="#FFFFFF" stroke-miterlimit="10" x1="780.5" y1="-1" x2="780.5" y2="760" />
        <line fill="none" stroke="#FFFFFF" stroke-miterlimit="10" x1="734.5" y1="-1" x2="734.5" y2="760" />
        <line fill="none" stroke="#FFFFFF" stroke-miterlimit="10" x1="682.5" y1="-1" x2="682.5" y2="760" />
        <line fill="none" stroke="#FFFFFF" stroke-miterlimit="10" x1="637.5" y1="-1" x2="637.5" y2="760" />
        <line fill="none" stroke="#FFFFFF" stroke-miterlimit="10" x1="585.5" y1="-1" x2="585.5" y2="760" />
        <line fill="none" stroke="#FFFFFF" stroke-miterlimit="10" x1="537.5" y1="-1" x2="537.5" y2="760" />
        <line fill="none" stroke="#FFFFFF" stroke-miterlimit="10" x1="491.5" y1="-1" x2="491.5" y2="760" />
        <line fill="none" stroke="#FFFFFF" stroke-miterlimit="10" x1="439.5" y1="-1" x2="439.5" y2="760" />
        <line fill="none" stroke="#FFFFFF" stroke-miterlimit="10" x1="394.5" y1="-1" x2="394.5" y2="760" />
        <line fill="none" stroke="#FFFFFF" stroke-miterlimit="10" x1="342.5" y1="-1" x2="342.5" y2="760" />
        <line fill="none" stroke="#FFFFFF" stroke-miterlimit="10" x1="294.5" y1="-1" x2="294.5" y2="760" />
        <line fill="none" stroke="#FFFFFF" stroke-miterlimit="10" x1="248.5" y1="-1" x2="248.5" y2="760" />
        <line fill="none" stroke="#FFFFFF" stroke-miterlimit="10" x1="197.5" y1="-1" x2="197.5" y2="760" />
        <line fill="none" stroke="#FFFFFF" stroke-miterlimit="10" x1="151.5" y1="-1" x2="151.5" y2="760" />
        <line fill="none" stroke="#FFFFFF" stroke-miterlimit="10" x1="99.5" y1="-1" x2="99.5" y2="760" />
        <line fill="none" stroke="#FFFFFF" stroke-miterlimit="10" x1="54.5" y1="-1" x2="54.5" y2="760" />
    </g>
    <text transform="matrix(1 0 0 1 187.3975 116.0674)">
        <tspan x="0" y="0" fill="#F7BE2C" font-family="'Roboto'" font-size="41.9282">Arrays:</tspan>
        <tspan x="135.714" y="0" fill="#FFFFFF" font-family="'Roboto'" font-size="41.9282"> Adding &amp; Removing Values</tspan>
    </text>
    <rect x="225.75" y="176.5" fill="none" width="570.5" height="80.75" />
    <text transform="matrix(1 0 0 1 225.7505 194.5)">
        <tspan x="0" y="0" fill="#FFFFFF" font-family="'Roboto'" font-size="24">You can add and remove values from an
            Array using </tspan>
        <tspan x="0" y="30" fill="#FFFFFF" font-family="'Roboto'" font-size="24">the following methods:</tspan>
    </text>
    <rect x="225.75" y="508.5" fill="none" width="570.5" height="80.75" />
    <text transform="matrix(1 0 0 1 225.7505 526.5)">
        <tspan x="0" y="0" fill="#FFFFFF" font-family="'Roboto'" font-size="24">You can always check the number of
            elements </tspan>
        <tspan x="0" y="30" fill="#FFFFFF" font-family="'Roboto'" font-size="24">in an Array using the </tspan>
        <tspan x="223.289" y="30" fill="#FFFFFF" font-family="'Roboto'" font-size="24">length </tspan>
        <tspan x="297.281" y="30" fill="#FFFFFF" font-family="'Roboto'" font-size="24">property:</tspan>
    </text>
    <text transform="matrix(1.0055 0 0 1 88.0962 289.875)">
        <tspan x="0" y="0" fill="#F9672E" font-family="'Hack'" font-size="24">let</tspan>
        <tspan x="47.162" y="0" fill="#F7BE2C" font-family="'Hack'" font-size="24"> numberList </tspan>
        <tspan x="235.811" y="0" fill="#CCCCCC" font-family="'Hack'" font-size="24">= </tspan>
        <tspan x="267.252" y="0" fill="#FFFFFF" font-family="'Hack'" font-size="24">[ 1, 2, 3 ]</tspan>
        <tspan x="440.18" y="0" fill="#CCCCCC" font-family="'Hack'" font-size="24">;</tspan>
        <tspan x="0" y="65.28" fill="#F7BE2C" font-family="'Hack'" font-size="24">numberList</tspan>
        <tspan x="150.207" y="65.28" fill="#CCCCCC" font-family="'Hack'" font-size="24">.</tspan>
        <tspan x="172.927" y="65.28" fill="#F9672E" font-family="'Hack'" font-size="24">push</tspan>
        <tspan x="235.81" y="65.28" fill="#CCCCCC" font-family="'Hack'" font-size="24">(</tspan>
        <tspan x="251.531" y="65.28" fill="#F7BE2C" font-family="'Hack'" font-size="24">4</tspan>
        <tspan x="267.252" y="65.28" fill="#CCCCCC" font-family="'Hack'" font-size="24">);</tspan>
        <tspan x="298.693" y="65.28" fill="#CCCCCC" font-family="'Hack'" font-size="24" letter-spacing="-0.995"> </tspan>
        <tspan x="313.343" y="65.28" fill="#CCCCCC" font-family="'Hack'" font-size="24" letter-spacing="22.874"> </tspan>
        <tspan x="509.183" y="65.28" fill="#CCCCCC" font-family="'Hack'" font-size="24">[ 1, 2, 3, </tspan>
        <tspan x="682.11" y="65.28" fill="#F7BE2C" font-family="'Hack'" font-size="24">4</tspan>
        <tspan x="697.831" y="65.28" fill="#CCCCCC" font-family="'Hack'" font-size="24"> ]</tspan>
        <tspan x="0" y="97.92" fill="#F7BE2C" font-family="'Hack'" font-size="24">numberList</tspan>
        <tspan x="150.207" y="97.92" fill="#CCCCCC" font-family="'Hack'" font-size="24">.</tspan>
        <tspan x="172.927" y="97.92" fill="#F9672E" font-family="'Hack'" font-size="24">pop</tspan>
        <tspan x="220.09" y="97.92" fill="#CCCCCC" font-family="'Hack'" font-size="24">();</tspan>
        <tspan x="267.252" y="97.92" fill="#CCCCCC" font-family="'Hack'" font-size="24" letter-spacing="-7.956"> </tspan>
        <tspan x="274.175" y="97.92" fill="#CCCCCC" font-family="'Hack'" font-size="24" letter-spacing="22.874"> </tspan>
        <tspan x="509.183" y="97.92" fill="#CCCCCC" font-family="'Hack'" font-size="24">[ 1, 2, 3 </tspan>
        <tspan x="682.11" y="97.92" fill="#F7BE2C" font-family="'Hack'" font-size="24">_</tspan>
        <tspan x="697.831" y="97.92" fill="#CCCCCC" font-family="'Hack'" font-size="24"> ]</tspan>
        <tspan x="0" y="130.56" fill="#F7BE2C" font-family="'Hack'" font-size="24">numberList</tspan>
        <tspan x="150.207" y="130.56" fill="#CCCCCC" font-family="'Hack'" font-size="24">.</tspan>
        <tspan x="172.927" y="130.56" fill="#F9672E" font-family="'Hack'" font-size="24">unshift</tspan>
        <tspan x="282.972" y="130.56" fill="#CCCCCC" font-family="'Hack'" font-size="24">(</tspan>
        <tspan x="298.693" y="130.56" fill="#F7BE2C" font-family="'Hack'" font-size="24">0</tspan>
        <tspan x="314.414" y="130.56" fill="#CCCCCC" font-family="'Hack'" font-size="24">);</tspan>
        <tspan x="345.855" y="130.56" fill="#CCCCCC" font-family="'Hack'" font-size="24" letter-spacing="-8.951"> </tspan>
        <tspan x="352.511" y="130.56" fill="#CCCCCC" font-family="'Hack'" font-size="24" letter-spacing="22.874"> </tspan>
        <tspan x="509.183" y="130.56" fill="#CCCCCC" font-family="'Hack'" font-size="24">[ </tspan>
        <tspan x="540.624" y="130.56" fill="#F7BE2C" font-family="'Hack'" font-size="24">0</tspan>
        <tspan x="556.345" y="130.56" fill="#CCCCCC" font-family="'Hack'" font-size="24">, 1, 2, 3 ]</tspan>
        <tspan x="0" y="163.199" fill="#F7BE2C" font-family="'Hack'" font-size="24">numberList</tspan>
        <tspan x="150.207" y="163.199" fill="#CCCCCC" font-family="'Hack'" font-size="24">.</tspan>
        <tspan x="172.927" y="163.199" fill="#F9672E" font-family="'Hack'" font-size="24">shift</tspan>
        <tspan x="251.531" y="163.199" fill="#CCCCCC" font-family="'Hack'" font-size="24">();</tspan>
        <tspan x="298.693" y="163.199" fill="#CCCCCC" font-family="'Hack'" font-size="24" letter-spacing="-0.995">
        </tspan>
        <tspan x="313.343" y="163.199" fill="#CCCCCC" font-family="'Hack'" font-size="24" letter-spacing="22.874">
        </tspan>
        <tspan x="509.183" y="163.199" fill="#CCCCCC" font-family="'Hack'" font-size="24">[ </tspan>
        <tspan x="540.624" y="163.199" fill="#F7BE2C" font-family="'Hack'" font-size="24">_</tspan>
        <tspan x="556.345" y="163.199" fill="#CCCCCC" font-family="'Hack'" font-size="24"> 1, 2, 3 ]</tspan>
    </text>
    <text transform="matrix(1.0055 0 0 1 88.0962 636.875)">
        <tspan x="0" y="0" fill="#E6E6E6" font-family="'Hack'" font-size="24">console.log(</tspan>
        <tspan x="188.649" y="0" fill="#F7BE2C" font-family="'Hack'" font-size="24"> numberList</tspan>
        <tspan x="332" y="0" fill="#CCCCCC" font-family="'Hack'" font-size="24">.</tspan>
        <tspan x="341.297" y="0" fill="#F9672E" font-family="'Hack'" font-size="24">length </tspan>
        <tspan x="450.342" y="0" fill="#E6E6E6" font-family="'Hack'" font-size="24">);</tspan>
    </text>
</svg>
