<svg version="1.1" id="Layer_1" xmlns="http://www.w3.org/2000/svg" xmlns:xlink="http://www.w3.org/1999/xlink" x="0px"
    y="0px" width="1024px" height="768px" viewBox="0 0 1024 768" enable-background="new 0 0 1024 768" xml:space="preserve">
    <rect x="1" y="-2" fill="#0D2234" width="1023" height="769" />
    <g opacity="0.1">
        <rect x="-0.5" y="-2.5" fill="none" stroke="#FFFFFF" stroke-miterlimit="10" width="1023" height="769" />
        <line fill="none" stroke="#FFFFFF" stroke-miterlimit="10" x1="4" y1="728.5" x2="1021" y2="728.5" />
        <line fill="none" stroke="#FFFFFF" stroke-miterlimit="10" x1="4" y1="691.5" x2="1021" y2="691.5" />
        <line fill="none" stroke="#FFFFFF" stroke-miterlimit="10" x1="4" y1="650.5" x2="1021" y2="650.5" />
        <line fill="none" stroke="#FFFFFF" stroke-miterlimit="10" x1="4" y1="624.5" x2="1021" y2="624.5" />
        <line fill="none" stroke="#FFFFFF" stroke-miterlimit="10" x1="4" y1="586.5" x2="1021" y2="586.5" />
        <line fill="none" stroke="#FFFFFF" stroke-miterlimit="10" x1="4" y1="545.5" x2="1021" y2="545.5" />
        <line fill="none" stroke="#FFFFFF" stroke-miterlimit="10" x1="4" y1="508.5" x2="1021" y2="508.5" />
        <line fill="none" stroke="#FFFFFF" stroke-miterlimit="10" x1="4" y1="471.5" x2="1021" y2="471.5" />
        <line fill="none" stroke="#FFFFFF" stroke-miterlimit="10" x1="4" y1="433.5" x2="1021" y2="433.5" />
        <line fill="none" stroke="#FFFFFF" stroke-miterlimit="10" x1="4" y1="396.5" x2="1021" y2="396.5" />
        <line fill="none" stroke="#FFFFFF" stroke-miterlimit="10" x1="4" y1="366.5" x2="1021" y2="366.5" />
        <line fill="none" stroke="#FFFFFF" stroke-miterlimit="10" x1="4" y1="329.5" x2="1021" y2="329.5" />
        <line fill="none" stroke="#FFFFFF" stroke-miterlimit="10" x1="4" y1="292.5" x2="1021" y2="292.5" />
        <line fill="none" stroke="#FFFFFF" stroke-miterlimit="10" x1="4" y1="251.5" x2="1021" y2="251.5" />
        <line fill="none" stroke="#FFFFFF" stroke-miterlimit="10" x1="4" y1="213.5" x2="1021" y2="213.5" />
        <line fill="none" stroke="#FFFFFF" stroke-miterlimit="10" x1="4" y1="176.5" x2="1021" y2="176.5" />
        <line fill="none" stroke="#FFFFFF" stroke-miterlimit="10" x1="4" y1="139.5" x2="1021" y2="139.5" />
        <line fill="none" stroke="#FFFFFF" stroke-miterlimit="10" x1="4" y1="109.5" x2="1021" y2="109.5" />
        <line fill="none" stroke="#FFFFFF" stroke-miterlimit="10" x1="4" y1="72.5" x2="1021" y2="72.5" />
        <line fill="none" stroke="#FFFFFF" stroke-miterlimit="10" x1="4" y1="34.5" x2="1021" y2="34.5" />
        <line fill="none" stroke="#FFFFFF" stroke-miterlimit="10" x1="977.5" y1="-1" x2="977.5" y2="760" />
        <line fill="none" stroke="#FFFFFF" stroke-miterlimit="10" x1="925.5" y1="-1" x2="925.5" y2="760" />
        <line fill="none" stroke="#FFFFFF" stroke-miterlimit="10" x1="877.5" y1="-1" x2="877.5" y2="760" />
        <line fill="none" stroke="#FFFFFF" stroke-miterlimit="10" x1="825.5" y1="-1" x2="825.5" y2="760" />
        <line fill="none" stroke="#FFFFFF" stroke-miterlimit="10" x1="780.5" y1="-1" x2="780.5" y2="760" />
        <line fill="none" stroke="#FFFFFF" stroke-miterlimit="10" x1="734.5" y1="-1" x2="734.5" y2="760" />
        <line fill="none" stroke="#FFFFFF" stroke-miterlimit="10" x1="682.5" y1="-1" x2="682.5" y2="760" />
        <line fill="none" stroke="#FFFFFF" stroke-miterlimit="10" x1="637.5" y1="-1" x2="637.5" y2="760" />
        <line fill="none" stroke="#FFFFFF" stroke-miterlimit="10" x1="585.5" y1="-1" x2="585.5" y2="760" />
        <line fill="none" stroke="#FFFFFF" stroke-miterlimit="10" x1="537.5" y1="-1" x2="537.5" y2="760" />
        <line fill="none" stroke="#FFFFFF" stroke-miterlimit="10" x1="491.5" y1="-1" x2="491.5" y2="760" />
        <line fill="none" stroke="#FFFFFF" stroke-miterlimit="10" x1="439.5" y1="-1" x2="439.5" y2="760" />
        <line fill="none" stroke="#FFFFFF" stroke-miterlimit="10" x1="394.5" y1="-1" x2="394.5" y2="760" />
        <line fill="none" stroke="#FFFFFF" stroke-miterlimit="10" x1="342.5" y1="-1" x2="342.5" y2="760" />
        <line fill="none" stroke="#FFFFFF" stroke-miterlimit="10" x1="294.5" y1="-1" x2="294.5" y2="760" />
        <line fill="none" stroke="#FFFFFF" stroke-miterlimit="10" x1="248.5" y1="-1" x2="248.5" y2="760" />
        <line fill="none" stroke="#FFFFFF" stroke-miterlimit="10" x1="197.5" y1="-1" x2="197.5" y2="760" />
        <line fill="none" stroke="#FFFFFF" stroke-miterlimit="10" x1="151.5" y1="-1" x2="151.5" y2="760" />
        <line fill="none" stroke="#FFFFFF" stroke-miterlimit="10" x1="99.5" y1="-1" x2="99.5" y2="760" />
        <line fill="none" stroke="#FFFFFF" stroke-miterlimit="10" x1="54.5" y1="-1" x2="54.5" y2="760" />
    </g>
    <text transform="matrix(1 0 0 1 306.3955 116.0674)">
        <tspan x="0" y="0" fill="#F7BE2C" font-family="'Roboto'" font-size="41.9282">Arrays:</tspan>
        <tspan x="135.714" y="0" fill="#FFFFFF" font-family="'Roboto'" font-size="41.9282"> lists of Values</tspan>
    </text>
    <rect x="151.5" y="164.25" fill="none" width="726" height="80.75" />
    <text transform="matrix(1 0 0 1 151.5 182.25)">
        <tspan x="0" y="0" fill="#FFFFFF" font-family="'Roboto'" font-size="24">Arrays </tspan>
        <tspan x="76.887" y="0" fill="#FFFFFF" font-family="'Roboto'" font-size="24">are Values grouped together in
            lists. They can contain all </tspan>
        <tspan x="0" y="30" fill="#FFFFFF" font-family="'Roboto'" font-size="24">kinds of Data Types, such as </tspan>
        <tspan x="310.254" y="30" fill="#FFFFFF" font-family="'Roboto'" font-size="24">Strings, Numbers, Booleans</tspan>
        <tspan x="610.559" y="30" fill="#FFFFFF" font-family="'Roboto'" font-size="24">, including </tspan>
        <tspan x="0" y="60" fill="#FFFFFF" font-family="'Roboto'" font-size="24">other </tspan>
        <tspan x="61.523" y="60" fill="#FFFFFF" font-family="'Roboto'" font-size="24">Arrays</tspan>
        <tspan x="132.434" y="60" fill="#FFFFFF" font-family="'Roboto'" font-size="24">.</tspan>
    </text>
    <text transform="matrix(1.0055 0 0 1 88.0962 309.5)">
        <tspan x="0" y="0" fill="#F9672E" font-family="'Hack'" font-size="24">const </tspan>
        <tspan x="94.324" y="0" fill="#F7BE2C" font-family="'Hack'" font-size="24">numberList </tspan>
        <tspan x="267.252" y="0" fill="#CCCCCC" font-family="'Hack'" font-size="24">= [ 0, 1, 2, 3 ];</tspan>
        <tspan x="534.505" y="0" fill="#F9672E" font-family="'Hack'" font-size="24"> </tspan>
        <tspan x="0" y="65.28" fill="#F9672E" font-family="'Hack'" font-size="24">let</tspan>
        <tspan x="47.162" y="65.28" fill="#F7BE2C" font-family="'Hack'" font-size="24"> listOfNames </tspan>
        <tspan x="267.252" y="65.28" fill="#CCCCCC" font-family="'Hack'" font-size="24">= [ ‘Abdul’, ‘Kostas’, ‘Chris’ ];</tspan>
        <tspan x="0" y="130.56" fill="#F9672E" font-family="'Hack'" font-size="24">let</tspan>
        <tspan x="47.162" y="130.56" fill="#F7BE2C" font-family="'Hack'" font-size="24"> mixedData </tspan>
        <tspan x="267.252" y="130.56" fill="#CCCCCC" font-family="'Hack'" font-size="24">= [ ‘Athens’, 2018, false,
        </tspan>
        <tspan x="691.711" y="130.56" fill="#FFFFFF" font-family="'Hack'" font-size="24">[ 1,2,3 ]</tspan>
        <tspan x="833.197" y="130.56" fill="#CCCCCC" font-family="'Hack'" font-size="24"> ];</tspan>
    </text>
    <text transform="matrix(1 0 0 1 160.4658 680.0537)">
        <tspan x="0" y="0" fill="#FFFFFF" font-family="'Hack'" font-size="22">The </tspan>
        <tspan x="52.98" y="0" fill="#FFFFFF" font-family="'Hack'" font-size="22">typeof</tspan>
        <tspan x="132.451" y="0" fill="#FFFFFF" font-family="'Hack'" font-size="22"> an Array is ‘object’!</tspan>
    </text>
    <g>
        <circle fill="#FCEE21" cx="134.419" cy="671.11" r="14.61" />
        <text transform="matrix(1 0 0 1 131.1079 680.0537)" font-family="'Roboto'" font-size="24.7523">!</text>
    </g>
</svg>
