<svg version="1.1" id="Layer_1" xmlns="http://www.w3.org/2000/svg" xmlns:xlink="http://www.w3.org/1999/xlink" x="0px"
    y="0px" width="1024px" height="768px" viewBox="0 0 1024 768" enable-background="new 0 0 1024 768" xml:space="preserve">
    <rect x="1" y="-2" fill="#0D2234" width="1023" height="769" />
    <g opacity="0.1">
        <rect x="-0.5" y="-2.5" fill="none" stroke="#FFFFFF" stroke-miterlimit="10" width="1023" height="769" />
        <line fill="none" stroke="#FFFFFF" stroke-miterlimit="10" x1="4" y1="728.5" x2="1021" y2="728.5" />
        <line fill="none" stroke="#FFFFFF" stroke-miterlimit="10" x1="4" y1="691.5" x2="1021" y2="691.5" />
        <line fill="none" stroke="#FFFFFF" stroke-miterlimit="10" x1="4" y1="650.5" x2="1021" y2="650.5" />
        <line fill="none" stroke="#FFFFFF" stroke-miterlimit="10" x1="4" y1="624.5" x2="1021" y2="624.5" />
        <line fill="none" stroke="#FFFFFF" stroke-miterlimit="10" x1="4" y1="586.5" x2="1021" y2="586.5" />
        <line fill="none" stroke="#FFFFFF" stroke-miterlimit="10" x1="4" y1="545.5" x2="1021" y2="545.5" />
        <line fill="none" stroke="#FFFFFF" stroke-miterlimit="10" x1="4" y1="508.5" x2="1021" y2="508.5" />
        <line fill="none" stroke="#FFFFFF" stroke-miterlimit="10" x1="4" y1="471.5" x2="1021" y2="471.5" />
        <line fill="none" stroke="#FFFFFF" stroke-miterlimit="10" x1="4" y1="433.5" x2="1021" y2="433.5" />
        <line fill="none" stroke="#FFFFFF" stroke-miterlimit="10" x1="4" y1="396.5" x2="1021" y2="396.5" />
        <line fill="none" stroke="#FFFFFF" stroke-miterlimit="10" x1="4" y1="366.5" x2="1021" y2="366.5" />
        <line fill="none" stroke="#FFFFFF" stroke-miterlimit="10" x1="4" y1="329.5" x2="1021" y2="329.5" />
        <line fill="none" stroke="#FFFFFF" stroke-miterlimit="10" x1="4" y1="292.5" x2="1021" y2="292.5" />
        <line fill="none" stroke="#FFFFFF" stroke-miterlimit="10" x1="4" y1="251.5" x2="1021" y2="251.5" />
        <line fill="none" stroke="#FFFFFF" stroke-miterlimit="10" x1="4" y1="213.5" x2="1021" y2="213.5" />
        <line fill="none" stroke="#FFFFFF" stroke-miterlimit="10" x1="4" y1="176.5" x2="1021" y2="176.5" />
        <line fill="none" stroke="#FFFFFF" stroke-miterlimit="10" x1="4" y1="139.5" x2="1021" y2="139.5" />
        <line fill="none" stroke="#FFFFFF" stroke-miterlimit="10" x1="4" y1="109.5" x2="1021" y2="109.5" />
        <line fill="none" stroke="#FFFFFF" stroke-miterlimit="10" x1="4" y1="72.5" x2="1021" y2="72.5" />
        <line fill="none" stroke="#FFFFFF" stroke-miterlimit="10" x1="4" y1="34.5" x2="1021" y2="34.5" />
        <line fill="none" stroke="#FFFFFF" stroke-miterlimit="10" x1="977.5" y1="-1" x2="977.5" y2="760" />
        <line fill="none" stroke="#FFFFFF" stroke-miterlimit="10" x1="925.5" y1="-1" x2="925.5" y2="760" />
        <line fill="none" stroke="#FFFFFF" stroke-miterlimit="10" x1="877.5" y1="-1" x2="877.5" y2="760" />
        <line fill="none" stroke="#FFFFFF" stroke-miterlimit="10" x1="825.5" y1="-1" x2="825.5" y2="760" />
        <line fill="none" stroke="#FFFFFF" stroke-miterlimit="10" x1="780.5" y1="-1" x2="780.5" y2="760" />
        <line fill="none" stroke="#FFFFFF" stroke-miterlimit="10" x1="734.5" y1="-1" x2="734.5" y2="760" />
        <line fill="none" stroke="#FFFFFF" stroke-miterlimit="10" x1="682.5" y1="-1" x2="682.5" y2="760" />
        <line fill="none" stroke="#FFFFFF" stroke-miterlimit="10" x1="637.5" y1="-1" x2="637.5" y2="760" />
        <line fill="none" stroke="#FFFFFF" stroke-miterlimit="10" x1="585.5" y1="-1" x2="585.5" y2="760" />
        <line fill="none" stroke="#FFFFFF" stroke-miterlimit="10" x1="537.5" y1="-1" x2="537.5" y2="760" />
        <line fill="none" stroke="#FFFFFF" stroke-miterlimit="10" x1="491.5" y1="-1" x2="491.5" y2="760" />
        <line fill="none" stroke="#FFFFFF" stroke-miterlimit="10" x1="439.5" y1="-1" x2="439.5" y2="760" />
        <line fill="none" stroke="#FFFFFF" stroke-miterlimit="10" x1="394.5" y1="-1" x2="394.5" y2="760" />
        <line fill="none" stroke="#FFFFFF" stroke-miterlimit="10" x1="342.5" y1="-1" x2="342.5" y2="760" />
        <line fill="none" stroke="#FFFFFF" stroke-miterlimit="10" x1="294.5" y1="-1" x2="294.5" y2="760" />
        <line fill="none" stroke="#FFFFFF" stroke-miterlimit="10" x1="248.5" y1="-1" x2="248.5" y2="760" />
        <line fill="none" stroke="#FFFFFF" stroke-miterlimit="10" x1="197.5" y1="-1" x2="197.5" y2="760" />
        <line fill="none" stroke="#FFFFFF" stroke-miterlimit="10" x1="151.5" y1="-1" x2="151.5" y2="760" />
        <line fill="none" stroke="#FFFFFF" stroke-miterlimit="10" x1="99.5" y1="-1" x2="99.5" y2="760" />
        <line fill="none" stroke="#FFFFFF" stroke-miterlimit="10" x1="54.5" y1="-1" x2="54.5" y2="760" />
    </g>
    <text transform="matrix(1 0 0 1 298.2983 98.0674)">
        <tspan x="0" y="0" fill="#FFFFFF" font-family="Roboto" font-size="41.9282">Comparison </tspan>
        <tspan x="237.688" y="0" fill="#F7BE2C" font-family="'Roboto'" font-size="41.9282">Operators</tspan>
    </text>
    <rect x="151.5" y="139.5" fill="none" width="726" height="242.5" />
    <text transform="matrix(1 0 0 1 151.5 157.5)">
        <tspan x="0" y="0" fill="#FFFFFF" font-family="'Roboto'" font-size="24">&gt;</tspan>
        <tspan x="12.398" y="0" fill="#FFFFFF" font-family="Roboto" font-size="24" letter-spacing="17"> </tspan>
        <tspan x="36" y="0" fill="#FFFFFF" font-family="Roboto" font-size="24" letter-spacing="30"> </tspan>
        <tspan x="72" y="0" fill="#FFFFFF" font-family="Roboto" font-size="24">Checks whether the left operand is greater
            than the right one</tspan>
        <tspan x="0" y="30" fill="#FFFFFF" font-family="'Roboto'" font-size="24">&gt;=</tspan>
        <tspan x="26.133" y="30" fill="#FFFFFF" font-family="Roboto" font-size="24" letter-spacing="3"> </tspan>
        <tspan x="36" y="30" fill="#FFFFFF" font-family="Roboto" font-size="24" letter-spacing="30"> </tspan>
        <tspan x="72" y="30" fill="#FFFFFF" font-family="Roboto" font-size="24">Checks whether the left operand is
            greater than or equal </tspan>
        <tspan x="0" y="60" fill="#FFFFFF" font-family="Roboto" font-size="24" letter-spacing="30"> </tspan>
        <tspan x="72" y="60" fill="#FFFFFF" font-family="Roboto" font-size="24">to the right one</tspan>
        <tspan x="0" y="90" fill="#FFFFFF" font-family="'Roboto'" font-size="24">&lt;</tspan>
        <tspan x="12.211" y="90" fill="#FFFFFF" font-family="Roboto" font-size="24" letter-spacing="17"> </tspan>
        <tspan x="36" y="90" fill="#FFFFFF" font-family="Roboto" font-size="24" letter-spacing="30"> </tspan>
        <tspan x="72" y="90" fill="#FFFFFF" font-family="Roboto" font-size="24">Checks whether the left operand is less
            than the right one</tspan>
        <tspan x="0" y="120" fill="#FFFFFF" font-family="'Roboto'" font-size="24">&lt;=</tspan>
        <tspan x="25.945" y="120" fill="#FFFFFF" font-family="Roboto" font-size="24" letter-spacing="4"> </tspan>
        <tspan x="36" y="120" fill="#FFFFFF" font-family="Roboto" font-size="24" letter-spacing="30"> </tspan>
        <tspan x="72" y="120" fill="#FFFFFF" font-family="Roboto" font-size="24">Checks whether the left operand is less
            than or equal </tspan>
        <tspan x="0" y="150" fill="#FFFFFF" font-family="Roboto" font-size="24" letter-spacing="30"> </tspan>
        <tspan x="72" y="150" fill="#FFFFFF" font-family="Roboto" font-size="24">to the right one</tspan>
    </text>
    <text transform="matrix(1.0055 0 0 1 294.251 379.5)">
        <tspan x="0" y="0" fill="#F7BE2C" font-family="Hack" font-size="26.1119">4 </tspan>
        <tspan x="31.441" y="0" fill="#CCCCCC" font-family="Hack" font-size="26.1119">&gt; </tspan>
        <tspan x="62.883" y="0" fill="#F7BE2C" font-family="Hack" font-size="26.1119">5</tspan>
        <tspan x="78.603" y="0" fill="#CCCCCC" font-family="Hack" font-size="26.1119">;</tspan>
        <tspan x="94.324" y="0" fill="#CCCCCC" font-family="Hack" font-size="26.1119" letter-spacing="6.962"> </tspan>
        <tspan x="117.504" y="0" fill="#CCCCCC" font-family="Hack" font-size="26.1119" letter-spacing="22.874"> </tspan>
        <tspan x="352.512" y="0" fill="#CCCCCC" font-family="Hack" font-size="26.1119">false</tspan>
        <tspan x="0" y="32.64" fill="#F7BE2C" font-family="Hack" font-size="26.1119">4 </tspan>
        <tspan x="31.441" y="32.64" fill="#CCCCCC" font-family="Hack" font-size="26.1119">&gt;= </tspan>
        <tspan x="78.603" y="32.64" fill="#F7BE2C" font-family="Hack" font-size="26.1119">4</tspan>
        <tspan x="94.324" y="32.64" fill="#CCCCCC" font-family="Hack" font-size="26.1119">;</tspan>
        <tspan x="110.045" y="32.64" fill="#CCCCCC" font-family="Hack" font-size="26.1119" letter-spacing="-7.956">
        </tspan>
        <tspan x="117.504" y="32.64" fill="#CCCCCC" font-family="Hack" font-size="26.1119" letter-spacing="22.874">
        </tspan>
        <tspan x="352.512" y="32.64" fill="#CCCCCC" font-family="Hack" font-size="26.1119">true</tspan>
        <tspan x="0" y="65.28" fill="#F7BE2C" font-family="Hack" font-size="26.1119">4 </tspan>
        <tspan x="31.441" y="65.28" fill="#CCCCCC" font-family="Hack" font-size="26.1119">&gt;= </tspan>
        <tspan x="78.603" y="65.28" fill="#F7BE2C" font-family="Hack" font-size="26.1119">“4”</tspan>
        <tspan x="125.765" y="65.28" fill="#CCCCCC" font-family="Hack" font-size="26.1119">;</tspan>
        <tspan x="141.486" y="65.28" fill="#CCCCCC" font-family="Hack" font-size="26.1119"> </tspan>
        <tspan x="156.672" y="65.28" fill="#CCCCCC" font-family="Hack" font-size="26.1119" letter-spacing="22.874">
        </tspan>
        <tspan x="352.512" y="65.28" fill="#CCCCCC" font-family="Hack" font-size="26.1119">true</tspan>
        <tspan x="0" y="97.92" fill="#F7BE2C" font-family="Hack" font-size="26.1119">4 </tspan>
        <tspan x="31.441" y="97.92" fill="#CCCCCC" font-family="Hack" font-size="26.1119">&lt; </tspan>
        <tspan x="62.883" y="97.92" fill="#F7BE2C" font-family="Hack" font-size="26.1119">5</tspan>
        <tspan x="78.603" y="97.92" fill="#CCCCCC" font-family="Hack" font-size="26.1119">;</tspan>
        <tspan x="94.324" y="97.92" fill="#CCCCCC" font-family="Hack" font-size="26.1119" letter-spacing="6.962"> </tspan>
        <tspan x="117.504" y="97.92" fill="#CCCCCC" font-family="Hack" font-size="26.1119" letter-spacing="22.874">
        </tspan>
        <tspan x="352.512" y="97.92" fill="#CCCCCC" font-family="Hack" font-size="26.1119">true</tspan>
        <tspan x="0" y="130.56" fill="#F7BE2C" font-family="Hack" font-size="26.1119">2 </tspan>
        <tspan x="31.441" y="130.56" fill="#CCCCCC" font-family="Hack" font-size="26.1119">&gt;= </tspan>
        <tspan x="78.603" y="130.56" fill="#F7BE2C" font-family="Hack" font-size="26.1119">2</tspan>
        <tspan x="94.324" y="130.56" fill="#CCCCCC" font-family="Hack" font-size="26.1119">;</tspan>
        <tspan x="110.045" y="130.56" fill="#CCCCCC" font-family="Hack" font-size="26.1119" letter-spacing="-7.956">
        </tspan>
        <tspan x="117.504" y="130.56" fill="#CCCCCC" font-family="Hack" font-size="26.1119" letter-spacing="22.874">
        </tspan>
        <tspan x="352.512" y="130.56" fill="#CCCCCC" font-family="Hack" font-size="26.1119">true</tspan>
    </text>
</svg>
