<svg enable-background="new 0 0 1024 768" height="768" viewBox="0 0 1024 768" width="1024" xml:space="preserve"
    xmlns="http://www.w3.org/2000/svg">
    <path d="m1-2h1023v769h-1023z" fill="#0d2234" />
    <g fill="none" opacity=".1" stroke="#fff" stroke-miterlimit="10">
        <path d="m-.5-2.5h1023v769h-1023z" />
        <path d="m4 728.5h1017" />
        <path d="m4 691.5h1017" />
        <path d="m4 650.5h1017" />
        <path d="m4 624.5h1017" />
        <path d="m4 586.5h1017" />
        <path d="m4 545.5h1017" />
        <path d="m4 508.5h1017" />
        <path d="m4 471.5h1017" />
        <path d="m4 433.5h1017" />
        <path d="m4 396.5h1017" />
        <path d="m4 366.5h1017" />
        <path d="m4 329.5h1017" />
        <path d="m4 292.5h1017" />
        <path d="m4 251.5h1017" />
        <path d="m4 213.5h1017" />
        <path d="m4 176.5h1017" />
        <path d="m4 139.5h1017" />
        <path d="m4 109.5h1017" />
        <path d="m4 72.5h1017" />
        <path d="m4 34.5h1017" />
        <path d="m977.5-1v761" />
        <path d="m925.5-1v761" />
        <path d="m877.5-1v761" />
        <path d="m825.5-1v761" />
        <path d="m780.5-1v761" />
        <path d="m734.5-1v761" />
        <path d="m682.5-1v761" />
        <path d="m637.5-1v761" />
        <path d="m585.5-1v761" />
        <path d="m537.5-1v761" />
        <path d="m491.5-1v761" />
        <path d="m439.5-1v761" />
        <path d="m394.5-1v761" />
        <path d="m342.5-1v761" />
        <path d="m294.5-1v761" />
        <path d="m248.5-1v761" />
        <path d="m197.5-1v761" />
        <path d="m151.5-1v761" />
        <path d="m99.5-1v761" />
        <path d="m54.5-1v761" />
    </g><text transform="translate(298.2983 98.0674)">
        <tspan fill="#fff" font-family="Roboto" font-size="41.9282" x="0" y="0">Comparison </tspan>
        <tspan fill="#f7be2c" font-family="'Roboto'" font-size="41.9282" x="237.688" y="0">Operators</tspan>
    </text>
    <path d="m248.5 139.5h559.5v153h-559.5z" fill="none" /><text transform="translate(248.5 157.5)">
        <tspan fill="#fff" font-family="'Roboto'" font-size="24" x="0" y="0">==</tspan>
        <tspan fill="#fff" font-family="Roboto" font-size="24" letter-spacing="2" x="27.469" y="0"></tspan>
        <tspan fill="#fff" font-family="Roboto" font-size="24" letter-spacing="30" x="36" y="0"></tspan>
        <tspan fill="#fff" font-family="Roboto" font-size="24" x="72" y="0">Checks whether two operands are equal</tspan>
        <tspan fill="#fff" font-family="'Roboto'" font-size="24" x="0" y="30">!=</tspan>
        <tspan fill="#fff" font-family="Roboto" font-size="24" letter-spacing="9" x="20.262" y="30"></tspan>
        <tspan fill="#fff" font-family="Roboto" font-size="24" letter-spacing="30" x="36" y="30"></tspan>
        <tspan fill="#fff" font-family="Roboto" font-size="24" x="72" y="30">Checks whether two operands are not equal</tspan>
        <tspan fill="#fff" font-family="Roboto" font-size="24" x="0" y="90">(Both of these operators, automatically
            convert the </tspan>
        <tspan fill="#fff" font-family="Roboto" font-size="24" x="0" y="120">two operands to the same data type)</tspan>
    </text>
    <path d="m136.5 479.5h826v186.5h-826z" fill="none" /><text transform="translate(136.5 497.5)">
        <tspan fill="#fff" font-family="Roboto" font-size="24" x="0" y="0">===</tspan>
        <tspan fill="#fff" font-family="Roboto" font-size="24" letter-spacing="26" x="39.516" y="0"></tspan>
        <tspan fill="#fff" font-family="Roboto" font-size="24" x="72" y="0">Checks whether two operands are equal and of
            the same type</tspan>
        <tspan fill="#fff" font-family="Roboto" font-size="24" x="0" y="30">!==</tspan>
        <tspan fill="#fff" font-family="Roboto" font-size="24" letter-spacing="-2" x="32.52" y="30"></tspan>
        <tspan fill="#fff" font-family="Roboto" font-size="24" letter-spacing="30" x="36" y="30"></tspan>
        <tspan fill="#fff" font-family="Roboto" font-size="24" x="72" y="30">Checks whether two operands are of the same
            type and not equal </tspan>
        <tspan fill="#fff" font-family="Roboto" font-size="24" letter-spacing="30" x="0" y="60"></tspan>
        <tspan fill="#fff" font-family="Roboto" font-size="24" x="72" y="60">or they are not of the same type</tspan>
    </text><text transform="matrix(1.0055 0 0 1 294.251 325.5)">
        <tspan fill="#f7be2c" font-family="Hack" font-size="26.1119" x="0" y="0">4 </tspan>
        <tspan fill="#ccc" font-family="Hack" font-size="26.1119" x="31.441" y="0">== </tspan>
        <tspan fill="#f7be2c" font-family="Hack" font-size="26.1119" x="78.603" y="0">5</tspan>
        <tspan fill="#ccc" font-family="Hack" font-size="26.1119" x="94.324" y="0">;</tspan>
        <tspan fill="#ccc" font-family="Hack" font-size="26.1119" letter-spacing="-7.956" x="110.045" y="0"></tspan>
        <tspan fill="#ccc" font-family="Hack" font-size="26.1119" letter-spacing="22.874" x="117.504" y="0"></tspan>
        <tspan fill="#ccc" font-family="Hack" font-size="26.1119" x="352.512" y="0">false</tspan>
        <tspan fill="#f7be2c" font-family="Hack" font-size="26.1119" x="0" y="32.64">4 </tspan>
        <tspan fill="#ccc" font-family="Hack" font-size="26.1119" x="31.441" y="32.64">== </tspan>
        <tspan fill="#f7be2c" font-family="Hack" font-size="26.1119" x="78.603" y="32.64">4</tspan>
        <tspan fill="#ccc" font-family="Hack" font-size="26.1119" x="94.324" y="32.64">;</tspan>
        <tspan fill="#ccc" font-family="Hack" font-size="26.1119" letter-spacing="-7.956" x="110.045" y="32.64"></tspan>
        <tspan fill="#ccc" font-family="Hack" font-size="26.1119" letter-spacing="22.874" x="117.504" y="32.64"></tspan>
        <tspan fill="#ccc" font-family="Hack" font-size="26.1119" x="352.512" y="32.64">true</tspan>
        <tspan fill="#f7be2c" font-family="Hack" font-size="26.1119" x="0" y="65.28">4 </tspan>
        <tspan fill="#ccc" font-family="Hack" font-size="26.1119" x="31.441" y="65.28">== </tspan>
        <tspan fill="#f7be2c" font-family="Hack" font-size="26.1119" x="78.603" y="65.28">“4”</tspan>
        <tspan fill="#ccc" font-family="Hack" font-size="26.1119" x="125.765" y="65.28">;</tspan>
        <tspan fill="#ccc" font-family="Hack" font-size="26.1119" x="141.486" y="65.28"></tspan>
        <tspan fill="#ccc" font-family="Hack" font-size="26.1119" letter-spacing="22.874" x="156.672" y="65.28"></tspan>
        <tspan fill="#ccc" font-family="Hack" font-size="26.1119" x="352.512" y="65.28">true</tspan>
        <tspan fill="#f7be2c" font-family="Hack" font-size="26.1119" x="0" y="97.92">”text” </tspan>
        <tspan fill="#ccc" font-family="Hack" font-size="26.1119" x="110.045" y="97.92">== </tspan>
        <tspan fill="#f7be2c" font-family="Hack" font-size="26.1119" x="157.207" y="97.92">“text”</tspan>
        <tspan fill="#ccc" font-family="Hack" font-size="26.1119" x="251.531" y="97.92">;</tspan>
        <tspan fill="#ccc" font-family="Hack" font-size="26.1119" letter-spacing="-7.956" x="267.252" y="97.92"></tspan>
        <tspan fill="#ccc" font-family="Hack" font-size="26.1119" letter-spacing="22.874" x="274.175" y="97.92"></tspan>
        <tspan fill="#ccc" font-family="Hack" font-size="26.1119" x="352.511" y="97.92">true</tspan>
        <tspan fill="#f7be2c" font-family="Hack" font-size="26.1119" x="0" y="130.56">”text”</tspan>
        <tspan fill="#ccc" font-family="Hack" font-size="26.1119" x="94.324" y="130.56"> != </tspan>
        <tspan fill="#f7be2c" font-family="Hack" font-size="26.1119" x="157.207" y="130.56">“other”</tspan>
        <tspan fill="#ccc" font-family="Hack" font-size="26.1119" x="267.252" y="130.56">;</tspan>
        <tspan fill="#ccc" font-family="Hack" font-size="26.1119" letter-spacing="13.923" x="282.972" y="130.56"></tspan>
        <tspan fill="#ccc" font-family="Hack" font-size="26.1119" letter-spacing="22.874" x="313.342" y="130.56"></tspan>
        <tspan fill="#ccc" font-family="Hack" font-size="26.1119" x="352.511" y="130.56">true</tspan>
    </text><text transform="matrix(1.0055 0 0 1 294.251 605.5)">
        <tspan fill="#f7be2c" font-family="Hack" font-size="26.1119" x="0" y="0">4 </tspan>
        <tspan fill="#ccc" font-family="Hack" font-size="26.1119" x="31.441" y="0">=== </tspan>
        <tspan fill="#f7be2c" font-family="Hack" font-size="26.1119" x="94.324" y="0">4</tspan>
        <tspan fill="#ccc" font-family="Hack" font-size="26.1119" x="110.045" y="0">;</tspan>
        <tspan fill="#ccc" font-family="Hack" font-size="26.1119" letter-spacing="14.918" x="125.765" y="0"></tspan>
        <tspan fill="#ccc" font-family="Hack" font-size="26.1119" letter-spacing="22.874" x="156.672" y="0"></tspan>
        <tspan fill="#ccc" font-family="Hack" font-size="26.1119" x="391.679" y="0">true</tspan>
        <tspan fill="#f7be2c" font-family="Hack" font-size="26.1119" x="0" y="32.64">4 </tspan>
        <tspan fill="#ccc" font-family="Hack" font-size="26.1119" x="31.441" y="32.64">=== </tspan>
        <tspan fill="#f7be2c" font-family="Hack" font-size="26.1119" x="94.324" y="32.64">“4”</tspan>
        <tspan fill="#ccc" font-family="Hack" font-size="26.1119" x="141.486" y="32.64">;</tspan>
        <tspan fill="#ccc" font-family="Hack" font-size="26.1119" letter-spacing="22.874" x="157.207" y="32.64"></tspan>
        <tspan fill="#ccc" font-family="Hack" font-size="26.1119" letter-spacing="22.874" x="195.839" y="32.64"></tspan>
        <tspan fill="#ccc" font-family="Hack" font-size="26.1119" x="391.679" y="32.64">false</tspan>
        <tspan fill="#f7be2c" font-family="Hack" font-size="26.1119" x="0" y="65.28">365 </tspan>
        <tspan fill="#ccc" font-family="Hack" font-size="26.1119" x="62.883" y="65.28">!== </tspan>
        <tspan fill="#f7be2c" font-family="Hack" font-size="26.1119" x="125.765" y="65.28">“text”</tspan>
        <tspan fill="#f7be2c" font-family="Hack" font-size="26.1119" x="220.09" y="65.28"></tspan>
        <tspan fill="#f7be2c" font-family="Hack" font-size="26.1119" letter-spacing="22.874" x="235.008" y="65.28"></tspan>
        <tspan fill="#ccc" font-family="Hack" font-size="26.1119" x="391.679" y="65.28">true</tspan>
    </text>
</svg>
