<svg version="1.1" id="Layer_1" xmlns="http://www.w3.org/2000/svg" xmlns:xlink="http://www.w3.org/1999/xlink" x="0px"
    y="0px" width="1024px" height="768px" viewBox="0 0 1024 768" enable-background="new 0 0 1024 768" xml:space="preserve">

    <text transform="matrix(1 0 0 1 55.9067 103.8667)" fill="#FFFFFF" font-family="'Roboto'" font-size="41.9282">2.
        CSS</text>

    <text transform="matrix(1 0 0 1 63.4912 160.1538)">
        <tspan x="0" y="0" fill="#00ABDD" font-family="'Roboto'" font-size="24">CSS</tspan>
        <tspan x="49.211" y="0" fill="#FFFFFF" font-family="'Roboto'" font-size="24"> or </tspan>
        <tspan x="78.902" y="0" fill="#FFFFFF" font-family="'Roboto'" font-size="24">Cascading Style Sheets</tspan>
        <tspan x="333.684" y="0" fill="#FFFFFF" font-family="'Roboto'" font-size="24"> is a style sheet </tspan>
        <tspan x="0" y="30" fill="#FFFFFF" font-family="'Roboto'" font-size="24">language used for describing the </tspan>
        <tspan x="354.656" y="30" fill="#FFFFFF" font-family="'Roboto'" font-size="24">presentation </tspan>
        <tspan x="497.086" y="30" fill="#FFFFFF" font-family="'Roboto'" font-size="24">of </tspan>
        <tspan x="0" y="60" fill="#FFFFFF" font-family="'Roboto'" font-size="24">a document written in HTML. It is
            designed pri</tspan>
        <tspan x="490.113" y="60" fill="#FFFFFF" font-family="'Roboto'" font-size="24">-</tspan>
        <tspan x="0" y="90" fill="#FFFFFF" font-family="'Roboto'" font-size="24">marily to enable the separation of
            presentation </tspan>
        <tspan x="0" y="120" fill="#FFFFFF" font-family="'Roboto'" font-size="24">and content, including aspects such as
            the </tspan>
        <tspan x="0" y="150" fill="#FFFFFF" font-family="'Roboto'" font-size="24">layout, colors, </tspan>
        <tspan x="152.555" y="150" fill="#FFFFFF" font-family="'Roboto'" font-size="24">responsiveness</tspan>
        <tspan x="322.043" y="150" fill="#FFFFFF" font-family="'Roboto'" font-size="24">, and fonts.</tspan>
    </text>

    <text transform="matrix(1 0 0 1 161.5 388.5889)">
        <tspan x="0" y="0" fill="#F9672E" font-family="'Hack'" font-size="24">selector </tspan>
        <tspan x="130.043" y="0" fill="#F2F2F2" font-family="'Hack'" font-size="24">{</tspan>
        <tspan x="0" y="30" fill="#FFFFFF" font-family="'Hack'" font-size="24"> </tspan>
        <tspan x="28.898" y="30" fill="#FBB03B" font-family="'Hack'" font-size="24">property: </tspan>
        <tspan x="173.39" y="30" fill="#39B54A" font-family="'Hack'" font-size="24">value;</tspan>
        <tspan x="0" y="60" fill="#F2F2F2" font-family="'Hack'" font-size="24">} </tspan>
        <tspan x="0" y="120" fill="#F9672E" font-family="'Hack'" font-size="24">#another .selector </tspan>
        <tspan x="274.535" y="120" fill="#F2F2F2" font-family="'Hack'" font-size="24">{</tspan>
        <tspan x="0" y="150" fill="#FFFFFF" font-family="'Hack'" font-size="24"> </tspan>
        <tspan x="28.898" y="150" fill="#FBB03B" font-family="'Hack'" font-size="24">property: </tspan>
        <tspan x="173.39" y="150" fill="#39B54A" font-family="'Hack'" font-size="24">value;</tspan>
        <tspan x="0" y="180" fill="#F2F2F2" font-family="'Hack'" font-size="24">}</tspan>
    </text>

    <text transform="matrix(1 0 0 1 640.6035 593.8145)">
        <tspan x="0" y="0" opacity="0.5" fill="#FFFFFF" font-family="'Hack'" font-size="22">index.html </tspan>
        <tspan x="145.696" y="0" fill="#FFFFFF" font-family="'Hack'" font-size="22">+ style.css</tspan>
    </text>

    <g>
        <path fill="#FFFFFF" d="M639.066,507.546H939.48V175.172H639.066" />
        <polyline fill="#1B3958" points="639.066,175.17 939.48,175.17 939.48,139.258 639.066,139.258 	" />
        <polyline fill="#1B3958" points="664.633,326.124 913.913,326.124 913.913,221.277 664.633,221.277 	" />
        <path fill="#06A1F2" d="M664.63,202.449h51.005v-8.456H664.63" />
        <path fill="#FF3279" d="M730.716,202.449h51.012v-8.456h-51.012" />
        <path fill="#06A1F2" d="M796.819,202.449h51.001v-8.456h-51.001 M862.908,202.449h51.007v-8.456h-51.002" />
        <polyline fill="#A4CA39" points="664.633,408.519 728.205,408.519 728.205,344.946 664.633,344.946 	" />
        <polyline fill="#D9D8D7" points="664.633,422.329 728.205,422.329 728.205,417.793 664.633,417.793 	" />
        <polyline fill="#D9D8D7" points="664.633,431.405 728.205,431.405 728.205,426.865 664.633,426.865 	" />
        <polyline fill="#D9D8D7" points="664.633,440.504 696.428,440.504 696.428,435.949 664.633,435.949 	" />
        <polyline fill="#FFDC1A" points="757.484,408.519 821.062,408.519 821.062,344.946 757.484,344.946 	" />
        <polyline fill="#D9D8D7" points="757.484,422.329 821.069,422.329 821.069,417.793 757.484,417.793 	" />
        <polyline fill="#D9D8D7" points="757.484,431.405 821.069,431.405 821.069,426.865 757.484,426.865 	" />
        <polyline fill="#D9D8D7" points="757.484,440.504 789.289,440.504 789.289,435.949 757.484,435.949 	" />
        <path fill="#FF3279" d="M850.335,408.519h63.578v-63.572h-63.578" />
        <path fill="#D9D8D7" d="M850.354,422.329h63.584v-4.536h-63.584 M850.354,431.405h63.584v-4.54h-63.584 M850.35,440.504h31.789
            v-4.555H850.35" />
        <rect x="675.832" y="462.031" fill="#A4CA39" width="41.174" height="9.357" />
        <rect x="770.659" y="462.031" fill="#FFDC1A" width="41.177" height="9.357" />
        <rect x="858.982" y="462.031" fill="#FF3279" width="41.177" height="9.357" />
        <g>
            <rect x="639.066" y="507.546" fill="#64798A" width="300.414" height="35.802" />
            <path fill="#FFFFFF" d="M886.208,517.148c3.859,0,6.987,3.129,6.987,6.989c0,3.856-3.128,6.984-6.987,6.984
                c-3.854,0-6.985-3.128-6.985-6.984C879.223,520.277,882.354,517.148,886.208,517.148z" />
            <path fill="#FFFFFF" d="M912.407,517.148c3.858,0,6.987,3.129,6.987,6.989c0,3.856-3.129,6.984-6.987,6.984
                c-3.859,0-6.984-3.128-6.984-6.984C905.423,520.277,908.548,517.148,912.407,517.148z" />
            <rect x="652.166" y="516.278" fill="#3A556A" width="63.751" height="8.732" />
        </g>
        <g>
            <g>
                <path fill="#FFFFFF" d="M684.989,281.522c-0.717,0-0.717,0-1.437-0.721l-5.753-5.753c-0.719-0.719-0.719-2.157,0-2.876
                    l5.753-5.752c0.72-0.72,2.157-0.72,2.877,0c0.719,0.719,0.719,2.156,0,2.877l-4.316,4.313l4.316,4.315
                    c0.719,0.72,0.719,2.158,0,2.876C686.43,281.522,685.71,281.522,684.989,281.522z" />
            </g>
            <g>
                <path fill="#FFFFFF" d="M893.557,281.522c0.718,0,0.718,0,1.438-0.721l5.754-5.753c0.718-0.719,0.718-2.157,0-2.876l-5.754-5.752
                    c-0.72-0.72-2.156-0.72-2.876,0c-0.721,0.719-0.721,2.156,0,2.877l4.314,4.313l-4.314,5.036c-0.721,0.718-0.721,2.156,0,2.877
                    C892.118,281.522,892.838,281.522,893.557,281.522z" />
            </g>
        </g>
        <rect x="651.046" y="149.166" fill="#EBF0F3" width="219.131" height="14.223" />
        <g>
            <circle fill="#E56353" cx="924.901" cy="156.97" r="4.639" />
            <circle fill="#44C4A1" cx="910.473" cy="156.97" r="4.639" />
            <path fill="#FCD462" d="M896.555,152.331c2.559,0,4.64,2.077,4.64,4.639s-2.081,4.64-4.64,4.64c-2.563,0-4.64-2.078-4.64-4.64
                S893.991,152.331,896.555,152.331z" />
        </g>
    </g>
    <g>
        <path fill="#BF392B" d="M818.54,663.755l7.991-13.984c0.826-1.447,2.688-1.93,4.134-1.103l58.97,34.376
            c1.447,0.827,1.93,2.687,1.103,4.134l-7.991,13.984c-0.826,1.447-2.687,1.929-4.133,1.103l-58.971-34.376
            C818.195,667.062,817.713,665.201,818.54,663.755z" />
        <path fill="#AC3327" d="M826.601,650.046l-0.138-0.138l-1.584,2.824l45.26,40.37C870.139,693.102,826.601,650.046,826.601,650.046z
            " />
        <path fill="#D6D6D6" d="M882.746,701.162l7.991-13.984c0.827-1.447,0.345-3.307-1.103-4.134l-18.669-10.885l-11.643,18.876
            l19.29,11.229C880.06,703.091,881.92,702.609,882.746,701.162z" />
        <path fill="#CACACA" d="M862.63,685.662l-0.345,0.482l7.785,6.957L862.63,685.662z" />
        <path fill="#E2574C" d="M826.601,645.843l11.298-11.229c1.171-1.171,3.1-1.171,4.271,0l48.086,47.604
            c1.17,1.171,1.17,3.031,0,4.202l-11.299,11.229c-1.171,1.171-3.1,1.171-4.271,0l-48.085-47.604
            C825.43,648.874,825.43,647.015,826.601,645.843z" />
        <path fill="#CB4E44" d="M837.141,635.372l-2.617,2.549l30.311,45.468L837.141,635.372z" />
        <path fill="#E0E0E0" d="M890.255,686.42c1.171-1.171,1.171-3.031,0-4.202l-16.327-16.121l-15.707,15.226l16.465,16.327
            c1.172,1.171,3.1,1.171,4.271,0L890.255,686.42z" />
        <path fill="#D07C40" d="M838.242,631.238l13.986-8.06c1.445-0.827,3.306-0.345,4.133,1.102l34.308,59.521
            c0.826,1.447,0.345,3.307-1.103,4.134l-13.985,8.06c-1.446,0.827-3.306,0.345-4.133-1.102l-34.308-59.521
            C836.314,633.925,836.796,632.065,838.242,631.238z" />
        <path fill="#D1D1D1" d="M861.666,677.946l-0.275,0.275l3.443,5.167L861.666,677.946z" />
        <path fill="#EBEBEB" d="M875.65,696.064l13.984-8.06c1.447-0.827,1.93-2.688,1.103-4.134l-11.987-20.806l-18.944,11.712
            l11.643,20.185C872.344,696.409,874.203,696.892,875.65,696.064z" />
        <path fill="#BB6F39" d="M853.398,624.418c-0.137-0.551-0.137-1.103,0-1.653c-0.413,0.069-0.758,0.207-1.17,0.414l-2.825,1.653
            l19.427,56.49L853.398,624.418z M875.513,691.38h0.138v-0.068L875.513,691.38z" />
        <path fill="#DBDBDB" d="M875.513,691.38h0.138v-0.068L875.513,691.38z M866.006,670.92l-0.62,0.413l3.444,9.989L866.006,670.92z" />
        <path fill="#F4B459" d="M855.465,620.768l15.57-4.134c1.584-0.413,3.237,0.482,3.72,2.066l17.705,65.032
            c0.413,1.585-0.552,3.238-2.136,3.651l-15.569,4.134c-1.585,0.413-3.237-0.482-3.72-2.066l-17.637-65.033
            C852.916,622.834,853.881,621.181,855.465,620.768z" />
        <path fill="#EFC75E" d="M874.755,614.498h14.261c1.998,0,3.582,1.584,3.582,3.582v67.237c0,1.998-1.584,3.583-3.582,3.583h-14.261
            c-1.998,0-3.583-1.585-3.583-3.583V618.08C871.172,616.082,872.758,614.498,874.755,614.498z" />
        <path fill="#E6E6E6" d="M865.248,668.164l5.787,21.287c0.413,1.584,2.066,2.549,3.72,2.066l15.569-4.134
            c1.584-0.413,2.549-2.066,2.135-3.651l-5.786-21.012L865.248,668.164z" />
        <path fill="#DBA250" d="M871.172,618.08c0-0.551,0.139-1.033,0.345-1.446c-0.138,0-0.345,0-0.481,0.069l-3.652,0.964l3.789,54.905
            V618.08z" />
        <path fill="#EFEFEF" d="M871.172,662.652v22.665c0,1.998,1.585,3.582,3.583,3.582h14.261c1.998,0,3.582-1.584,3.582-3.582v-22.665
            H871.172z" />
        <path fill="#DDDDDD" d="M871.172,666.648l-0.412,0.138l0.412,5.787V666.648z" />
        <path fill="#BFBFBF" d="M886.673,680.633c0.965,0,1.722,0.758,1.722,1.723c0,0.964-0.757,1.722-1.722,1.722
            c-0.964,0-1.722-0.758-1.722-1.722C884.95,681.391,885.709,680.633,886.673,680.633z" />
    </g>

</svg>