<svg version="1.1" id="Layer_1" xmlns="http://www.w3.org/2000/svg" xmlns:xlink="http://www.w3.org/1999/xlink" x="0px"
    y="0px" width="1024px" height="768px" viewBox="0 0 1024 768" enable-background="new 0 0 1024 768" xml:space="preserve">

    <text transform="matrix(1 0 0 1 55.9067 103.8667)" fill="#FFFFFF" font-family="'Roboto'" font-size="41.9282">1.
        HTML</text>
    <g>
        <path fill="#2196F3" d="M966.493,401.962c-3.633-2.542-7.755-3.877-11.953-3.872V138.172H631.736v317.669h322.8
            c13.202-0.003,23.908-12.933,23.907-28.88C978.443,416.649,973.887,407.12,966.493,401.962z" />
        <g opacity="0.4">
            <polygon fill="#242C3C" points="920.688,426.96 906.252,138.172 935.131,138.172 		" />
        </g>
        <g opacity="0.1">
            <path fill="#242C3C" d="M965.177,401.962c-2.627-1.656-5.5-2.807-8.486-3.4l21.76-260.39H726.251l132.736,317.669h92.925
                c14.661-0.009,26.538-12.943,26.531-28.892C978.438,416.642,973.382,407.118,965.177,401.962z" />
        </g>
        <path fill="#7CCEF1" d="M964.011,113.165c-13.81-7.976-31.47-3.246-39.445,10.564c-2.536,4.39-3.871,9.372-3.871,14.443V426.96
            c0-0.444,0-0.884,0.032-1.319c0-0.11,0-0.225,0-0.336c0.023-0.406,0.054-0.838,0.093-1.254v-0.049
            c0.046-0.408,0.098-0.849,0.163-1.272c0.018-0.113,0.035-0.229,0.055-0.347c0.061-0.383,0.125-0.761,0.203-1.137l0.025-0.131
            c0.08-0.408,0.173-0.814,0.275-1.195l0.099-0.378c0.086-0.332,0.179-0.66,0.28-0.987c0.026-0.085,0.054-0.174,0.077-0.259
            c0.115-0.36,0.238-0.715,0.363-1.068c0.054-0.142,0.108-0.285,0.159-0.408c0.103-0.272,0.208-0.543,0.319-0.814
            c0.063-0.156,0.13-0.314,0.195-0.466c0.126-0.291,0.26-0.578,0.407-0.868c0.076-0.164,0.154-0.325,0.237-0.484
            c0.101-0.208,0.211-0.407,0.315-0.624c0.105-0.216,0.256-0.477,0.389-0.71c0.134-0.232,0.232-0.407,0.351-0.609
            c0.119-0.206,0.22-0.368,0.335-0.548l0.28-0.436c0.215-0.33,0.436-0.654,0.665-0.976l0.236-0.328
            c0.146-0.201,0.296-0.409,0.448-0.597l0.215-0.271c0.329-0.42,0.673-0.828,1.022-1.225l0.034-0.037
            c0.187-0.211,0.381-0.406,0.576-0.627l0.13-0.139c0.605-0.636,1.24-1.244,1.902-1.826l0.054-0.045
            c12.035-10.461,30.276-9.184,40.735,2.853c4.561,5.247,7.076,11.967,7.083,18.918V138.172
            C978.453,127.855,972.948,118.32,964.011,113.165z" />
        <path fill="none" d="M922.855,415.992c0.063-0.156,0.13-0.315,0.193-0.466C922.98,415.681,922.916,415.82,922.855,415.992z" />
        <path fill="none" d="M922.377,417.229l0.159-0.407C922.479,416.945,922.427,417.087,922.377,417.229z" />
        <path fill="none" d="M923.422,414.659c0.076-0.163,0.154-0.325,0.234-0.485C923.591,414.338,923.51,414.497,923.422,414.659z" />
        <path fill="none" d="M923.994,413.554c0.126-0.239,0.256-0.476,0.389-0.708C924.25,413.078,924.12,413.314,923.994,413.554z" />
        <path fill="none" d="M925.349,411.248c0.215-0.33,0.436-0.654,0.665-0.976C925.784,410.591,925.563,410.916,925.349,411.248z" />
        <path fill="none" d="M924.733,412.229c0.109-0.184,0.22-0.365,0.335-0.545C924.953,411.863,924.843,412.045,924.733,412.229z" />
        <path fill="none" d="M921.939,418.561c0.021-0.086,0.051-0.176,0.075-0.262C921.986,418.385,921.961,418.47,921.939,418.561z" />
        <path fill="none" d="M921.26,421.246l0.025-0.131L921.26,421.246z" />
        <path fill="none" d="M921.002,422.75c0.018-0.113,0.035-0.229,0.055-0.347C921.037,422.506,921.02,422.622,921.002,422.75z" />
        <path fill="none" d="M921.56,419.92l0.095-0.378L921.56,419.92z" />
        <path fill="none" d="M927.963,407.811c0.187-0.212,0.377-0.408,0.573-0.627C928.34,407.391,928.149,407.599,927.963,407.811z" />
        <path fill="none" d="M920.727,425.641c0-0.11,0-0.225,0-0.336C920.735,425.416,920.73,425.53,920.727,425.641z" />
        <path fill="none" d="M926.906,409.073c0.328-0.414,0.67-0.823,1.021-1.223C927.576,408.247,927.234,408.654,926.906,409.073z" />
        <path fill="none" d="M930.57,405.223c-0.662,0.58-1.297,1.187-1.904,1.827C929.273,406.409,929.908,405.803,930.57,405.223z" />
        <path fill="none" d="M926.245,409.942c0.147-0.2,0.297-0.399,0.448-0.595C926.543,409.543,926.393,409.742,926.245,409.942z" />
        <path fill="none" d="M920.836,424.051" />
        <path fill="#BBDEFB" d="M964.011,163.179v-50.014c-4.387-2.542-9.366-3.878-14.438-3.872v288.789
            c5.071-0.005,10.051,1.332,14.438,3.872V163.179z" />
        <path fill="#E3F2FD" d="M949.568,138.172v-28.879c-15.947,0-28.88,12.93-28.88,28.879V426.96c0-0.444,0-0.884,0.035-1.319
            c0-0.11,0-0.225,0-0.336c0.021-0.406,0.051-0.838,0.093-1.254v-0.049c0.044-0.408,0.099-0.849,0.162-1.272
            c0.017-0.113,0.034-0.229,0.054-0.347c0.062-0.383,0.128-0.761,0.203-1.137l0.024-0.131c0.083-0.408,0.177-0.814,0.277-1.195
            l0.098-0.378c0.088-0.332,0.181-0.66,0.282-0.987c0.024-0.085,0.054-0.174,0.079-0.259c0.112-0.36,0.234-0.715,0.361-1.068
            c0.052-0.142,0.105-0.285,0.157-0.408c0.105-0.272,0.211-0.543,0.318-0.814c0.066-0.156,0.13-0.314,0.196-0.466
            c0.125-0.291,0.26-0.578,0.406-0.868c0.076-0.164,0.155-0.325,0.238-0.484c0.101-0.208,0.211-0.407,0.319-0.624
            c0.105-0.216,0.249-0.477,0.384-0.71c0.136-0.232,0.233-0.407,0.354-0.609c0.117-0.206,0.218-0.368,0.333-0.548l0.282-0.436
            c0.213-0.33,0.436-0.654,0.664-0.976l0.235-0.328c0.147-0.201,0.298-0.409,0.448-0.597l0.219-0.271
            c0.328-0.42,0.668-0.828,1.021-1.225l0.031-0.037c0.189-0.211,0.38-0.406,0.576-0.627l0.13-0.139
            c0.605-0.636,1.24-1.244,1.904-1.826l0.052-0.045c5.249-4.58,11.981-7.101,18.946-7.092V138.172H949.568z" />
        <path fill="#90CAF9" d="M964.011,113.165v288.797c8.936,5.154,14.439,14.685,14.439,24.998V138.172
            C978.453,127.855,972.948,118.32,964.011,113.165z" />
        <path fill="#1976D2" d="M928.666,407.05l-0.13,0.137c-0.196,0.208-0.387,0.408-0.573,0.629l-0.035,0.035
            c-0.35,0.399-0.69,0.809-1.021,1.223l-0.218,0.274c-0.152,0.195-0.299,0.395-0.448,0.595l-0.233,0.33
            c-0.23,0.321-0.45,0.646-0.667,0.976l-0.281,0.436c-0.112,0.18-0.223,0.361-0.334,0.545c-0.109,0.185-0.237,0.408-0.351,0.612
            c-0.112,0.203-0.259,0.473-0.387,0.709c-0.127,0.237-0.215,0.408-0.318,0.624c-0.101,0.216-0.159,0.322-0.234,0.485
            c-0.139,0.286-0.273,0.573-0.41,0.867c-0.063,0.154-0.128,0.312-0.193,0.466c-0.113,0.271-0.219,0.543-0.318,0.814l-0.159,0.408
            c-0.128,0.355-0.251,0.708-0.363,1.067c-0.029,0.086-0.051,0.176-0.079,0.262c-0.096,0.325-0.19,0.654-0.278,0.985l-0.102,0.38
            c-0.095,0.408-0.188,0.791-0.275,1.194l-0.022,0.13c-0.079,0.376-0.146,0.759-0.206,1.139c-0.018,0.113-0.036,0.228-0.052,0.345
            c-0.061,0.406-0.117,0.846-0.164,1.272v0.049c-0.039,0.408-0.074,0.835-0.094,1.256c0,0.109,0,0.224,0,0.335
            c0,0.436-0.033,0.875-0.033,1.319c-0.003,10.321,5.501,19.857,14.439,25.016v-50.002c-1.594,0.929-3.095,2.007-4.485,3.22
            l-0.051,0.044C929.911,405.803,929.273,406.409,928.666,407.05z" />
        <g>
            <path fill="#FFFFFF" d="M690.588,203.87h34.194v-5.668h-34.194" />
            <path fill="#FFFFFF" d="M734.895,203.87h34.199v-5.668h-34.199" />
            <path fill="#FFFFFF" d="M779.211,203.87h34.192v-5.668h-34.192 M823.521,203.87h34.194v-5.668h-34.192" />
            <polyline fill="#FFFFFF" points="690.59,351.283 733.211,351.283 733.211,348.242 690.59,348.242 		" />
            <polyline fill="#FFFFFF" points="690.59,357.368 733.211,357.368 733.211,354.323 690.59,354.323 		" />
            <polyline fill="#FFFFFF" points="690.59,363.467 711.906,363.467 711.906,360.415 690.59,360.415 		" />
            <polyline fill="#FFFFFF" points="752.842,351.283 795.47,351.283 795.47,348.242 752.842,348.242 		" />
            <polyline fill="#FFFFFF" points="752.842,357.368 795.47,357.368 795.47,354.323 752.842,354.323 		" />
            <polyline fill="#FFFFFF" points="752.842,363.467 774.163,363.467 774.163,360.415 752.842,360.415 		" />
            <path fill="#FFFFFF" d="M815.103,351.283h42.627v-3.041h-42.627 M815.103,357.368h42.627v-3.045h-42.627 M815.1,363.467h21.312
                v-3.052H815.1" />
            <rect x="698.1" y="377.9" fill="none" stroke="#FFFFFF" stroke-miterlimit="10" width="27.604" height="6.273" />
            <rect x="761.674" y="377.9" fill="none" stroke="#FFFFFF" stroke-miterlimit="10" width="27.604" height="6.273" />
            <rect x="820.889" y="377.9" fill="none" stroke="#FFFFFF" stroke-miterlimit="10" width="27.604" height="6.273" />

            <rect x="673.451" y="408.413" fill="none" stroke="#FFFFFF" stroke-width="2" stroke-miterlimit="10" width="201.404"
                height="24.004" />

            <rect x="673.451" y="160.914" fill="none" stroke="#FFFFFF" stroke-width="2" stroke-miterlimit="10" width="201.404"
                height="24.003" />
            <circle fill="#FFFFFF" cx="839.141" cy="419.537" r="4.685" />
            <circle fill="#FFFFFF" cx="856.706" cy="419.537" r="4.685" />
            <rect x="682.232" y="414.269" fill="#FFFFFF" width="42.741" height="5.855" />
            <rect x="681.482" y="168.147" fill="none" stroke="#FFFFFF" stroke-miterlimit="10" width="146.91" height="9.536" />
            <g>
                <circle fill="#FFFFFF" cx="865.082" cy="173.38" r="3.11" />
                <circle fill="#FFFFFF" cx="855.407" cy="173.38" r="3.11" />
                <circle fill="#FFFFFF" cx="846.076" cy="173.38" r="3.11" />
            </g>

            <rect x="673.451" y="184.917" fill="none" stroke="#FFFFFF" stroke-width="2" stroke-miterlimit="10" width="201.404"
                height="223.496" />

            <rect x="690.863" y="216.493" fill="none" stroke="#FFFFFF" stroke-width="2" stroke-miterlimit="10" width="166.852"
                height="70.292" />

            <rect x="690.863" y="299.403" fill="none" stroke="#FFFFFF" stroke-width="2" stroke-miterlimit="10" width="42.348"
                height="42.621" />

            <rect x="752.979" y="299.403" fill="none" stroke="#FFFFFF" stroke-width="2" stroke-miterlimit="10" width="42.349"
                height="42.621" />

            <rect x="815.242" y="299.403" fill="none" stroke="#FFFFFF" stroke-width="2" stroke-miterlimit="10" width="42.348"
                height="42.621" />
            <g>
                <line fill="none" stroke="#FFFFFF" stroke-miterlimit="10" x1="690.863" y1="299.403" x2="733.211" y2="342.024" />
                <line fill="none" stroke="#FFFFFF" stroke-miterlimit="10" x1="733.211" y1="299.403" x2="690.863" y2="342.024" />
            </g>
            <g>
                <line fill="none" stroke="#FFFFFF" stroke-miterlimit="10" x1="753.602" y1="299.403" x2="795.949" y2="342.024" />
                <line fill="none" stroke="#FFFFFF" stroke-miterlimit="10" x1="795.949" y1="299.403" x2="753.602" y2="342.024" />
            </g>
            <g>
                <line fill="none" stroke="#FFFFFF" stroke-miterlimit="10" x1="815.084" y1="299.403" x2="857.434" y2="342.024" />
                <line fill="none" stroke="#FFFFFF" stroke-miterlimit="10" x1="857.434" y1="299.403" x2="815.084" y2="342.024" />
            </g>
            <g>
                <line fill="none" stroke="#FFFFFF" stroke-miterlimit="10" x1="690.863" y1="215.239" x2="857.715" y2="285.53" />
                <line fill="none" stroke="#FFFFFF" stroke-miterlimit="10" x1="857.715" y1="215.239" x2="690.863" y2="285.53" />
            </g>
            <g>

                <line fill="none" stroke="#FFFFFF" stroke-width="0.5" stroke-miterlimit="10" x1="698.392" y1="377.499" x2="725.704"
                    y2="384.174" />

                <line fill="none" stroke="#FFFFFF" stroke-width="0.5" stroke-miterlimit="10" x1="725.704" y1="377.499" x2="698.392"
                    y2="384.174" />
            </g>
            <g>

                <line fill="none" stroke="#FFFFFF" stroke-width="0.5" stroke-miterlimit="10" x1="762.385" y1="377.499" x2="789.698"
                    y2="384.174" />

                <line fill="none" stroke="#FFFFFF" stroke-width="0.5" stroke-miterlimit="10" x1="789.698" y1="377.499" x2="762.385"
                    y2="384.174" />
            </g>
            <g>

                <line fill="none" stroke="#FFFFFF" stroke-width="0.5" stroke-miterlimit="10" x1="821.358" y1="377.499" x2="848.672"
                    y2="384.174" />

                <line fill="none" stroke="#FFFFFF" stroke-width="0.5" stroke-miterlimit="10" x1="848.672" y1="377.499" x2="821.358"
                    y2="384.174" />
            </g>
        </g>
    </g>

    <text transform="matrix(1 0 0 1 63.4912 160.1538)">
        <tspan x="0" y="0" fill="#F9672E" font-family="'Roboto'" font-size="24">HTML</tspan>
        <tspan x="69.824" y="0" fill="#FFFFFF" font-family="'Roboto'" font-size="24"> or </tspan>
        <tspan x="99.516" y="0" fill="#FFFFFF" font-family="'Roboto'" font-size="24">HyperText Markup Language</tspan>
        <tspan x="409.781" y="0" fill="#FFFFFF" font-family="'Roboto'" font-size="24"> is the </tspan>
        <tspan x="0" y="30" fill="#FFFFFF" font-family="'Roboto'" font-size="24">standard language for describing the
        </tspan>
        <tspan x="397.559" y="30" fill="#FFFFFF" font-family="'Roboto'" font-size="24">structure </tspan>
        <tspan x="501.949" y="30" fill="#FFFFFF" font-family="'Roboto'" font-size="24">of </tspan>
        <tspan x="0" y="60" fill="#FFFFFF" font-family="'Roboto'" font-size="24">a web page using HTML elements (or tags)
        </tspan>
        <tspan x="0" y="90" fill="#FFFFFF" font-family="'Roboto'" font-size="24">which are the building blocks of HTML
            pages.</tspan>
    </text>

    <text transform="matrix(1 0 0 1 106.3501 349.9067)">
        <tspan x="0" y="0" fill="#FFFFFF" font-family="'Hack'" font-size="24">&lt;</tspan>
        <tspan x="14.449" y="0" fill="#F9672E" font-family="'Hack'" font-size="24">element</tspan>
        <tspan x="115.594" y="0" fill="#FFFFFF" font-family="'Hack'" font-size="24"> </tspan>
        <tspan x="130.043" y="0" fill="#FBB03B" font-family="'Hack'" font-size="24">attribute</tspan>
        <tspan x="260.085" y="0" fill="#FFFFFF" font-family="'Hack'" font-size="24">=</tspan>
        <tspan x="274.535" y="0" fill="#39B54A" font-family="'Hack'" font-size="24">”value”</tspan>
        <tspan x="375.679" y="0" fill="#FFFFFF" font-family="'Hack'" font-size="24">&gt;</tspan>
        <tspan x="24" y="30" fill="#FFFFFF" font-family="'Hack'" font-size="24"> Content hoes here</tspan>
        <tspan x="0" y="60" fill="#FFFFFF" font-family="'Hack'" font-size="24">&lt;/</tspan>
        <tspan x="28.898" y="60" fill="#F9672E" font-family="'Hack'" font-size="24">element</tspan>
        <tspan x="130.043" y="60" fill="#FFFFFF" font-family="'Hack'" font-size="24">&gt;</tspan>
    </text>

    <text transform="matrix(1 0 0 1 703.6035 499.4922)" fill="#FFFFFF" font-family="'Hack'" font-size="22">index.html</text>
    <g>
        <g>
            <g>
                <path fill="#F0D6BF" d="M642.004,484.359v5.608l0,0c-3.001,10.346-17.613,10.346-20.615,0l0,0v-5.608" />
            </g>
        </g>
        <g opacity="0.15">
            <g>
                <path fill="#62345B" d="M621.311,488.624c4.265,2.37,7.978,2.844,10.347,2.844c2.606,0,6.239-0.553,10.347-2.844v-4.344h-20.693
                    V488.624z" />
            </g>
        </g>
        <g>
            <g>
                <g>
                    <path fill="#CFCDD1" d="M661.039,497.707l-19.035-7.739l0,0c-1.264,4.422-4.66,6.949-8.373,7.582
                        c-0.157,0.079-0.236,0.079-0.395,0.157H661.039z" />
                </g>
            </g>
        </g>
        <g>
            <g>
                <g>
                    <path fill="#CFCDD1" d="M621.311,489.968l-19.035,7.739h27.802c-0.158-0.078-0.236-0.078-0.395-0.157
                        C626.049,496.917,622.574,494.39,621.311,489.968z" />
                </g>
            </g>
        </g>
        <g>
            <g>
                <path fill="#62345B" d="M631.657,498.892c-5.45,0-9.952-3.396-11.452-8.608c0-0.079-0.079-0.237-0.079-0.315v-5.608
                    c0-0.632,0.553-1.185,1.185-1.185s1.185,0.553,1.185,1.185v5.37c1.5,4.977,5.845,6.793,9.162,6.793s7.582-1.737,9.161-6.793
                    v-5.37c0-0.632,0.554-1.185,1.186-1.185s1.185,0.553,1.185,1.185v5.608c0,0.078,0,0.236-0.079,0.315
                    C641.609,495.496,637.106,498.892,631.657,498.892z" />
            </g>
        </g>
        <g>
            <g>
                <g>
                    <g>
                        <path fill="#F0D6BF" d="M659.538,448.106c0-22.668-11.295-34.278-27.881-34.278s-27.881,11.689-27.881,34.278
                            c-5.371,0.395-4.187,12.479,1.975,11.848c7.74,21.641,18.561,27.328,25.906,27.328s18.166-5.688,25.906-27.328
                            C663.645,460.665,664.829,448.501,659.538,448.106z" />
                    </g>
                </g>
                <g opacity="0.1">
                    <g>
                        <path fill="#62345B" d="M662.775,451.739L662.775,451.739c0-0.157-0.078-0.315-0.078-0.474l0,0
                            c0-0.157-0.079-0.315-0.158-0.396v-0.078c-0.079-0.158-0.079-0.237-0.158-0.396v-0.079c-0.079-0.078-0.079-0.236-0.157-0.315
                            c0,0,0-0.079-0.079-0.079c-0.079-0.079-0.158-0.158-0.158-0.315l-0.079-0.079c-0.079-0.079-0.158-0.158-0.158-0.237
                            s-0.079-0.079-0.079-0.157c-0.078-0.079-0.157-0.158-0.236-0.158s-0.079-0.079-0.158-0.079
                            c-0.079-0.079-0.158-0.079-0.236-0.158c-0.079,0-0.079-0.079-0.158-0.079c-0.079-0.078-0.159-0.078-0.237-0.078
                            c-0.079,0-0.079-0.08-0.158-0.08s-0.158-0.079-0.316-0.079c-0.078,0-0.078,0-0.157-0.079c-0.158,0-0.316-0.078-0.474-0.078
                            c0-22.668-11.295-34.278-27.881-34.278c-0.554,0-1.186,0-1.738,0.078h-0.078c-0.553,0-1.106,0.079-1.659,0.158l0,0l0,0
                            c-14.611,1.58-24.326,13.111-24.326,34.042c-2.765,0.078-3.792,3.238-3.396,6.239h48.259c2.843,0,4.817,2.765,3.948,5.45l0,0
                            c-6.556,18.402-16.586,26.063-24.484,26.933c1.264,0.315,2.369,0.396,3.476,0.396c7.346,0,18.166-5.688,25.906-27.328
                            C661.513,460.428,663.408,455.373,662.775,451.739z" />
                    </g>
                </g>
                <g>
                    <g>
                        <path fill="#DEBAAB" d="M659.854,448.186c-0.079,0-0.237,0-0.315-0.079c0-22.668-11.295-34.278-27.881-34.278
                            c-16.191,0-27.407,11.216-27.803,33.094C615.071,420.226,632.447,456.163,659.854,448.186z" />
                    </g>
                </g>
                <g>
                    <g>
                        <path fill="#62345B" d="M602.275,498.892c-0.474,0-0.948-0.315-1.105-0.711c-0.237-0.631,0.079-1.264,0.632-1.579l19.035-7.74
                            c0.631-0.237,1.264,0.079,1.579,0.632c0.237,0.632-0.079,1.264-0.632,1.58l-19.035,7.74
                            C602.591,498.813,602.434,498.892,602.275,498.892z" />
                    </g>
                </g>
                <g>
                    <g>
                        <path fill="#62345B" d="M661.039,498.892c-0.158,0-0.317,0-0.475-0.078l-19.034-7.819c-0.633-0.237-0.869-0.948-0.633-1.58
                            c0.237-0.632,0.948-0.868,1.58-0.632l19.035,7.74c0.632,0.237,0.868,0.948,0.632,1.58
                            C661.907,498.576,661.513,498.892,661.039,498.892z" />
                    </g>
                </g>
                <g>
                    <g>
                        <g>
                            <path fill="#62345B" d="M605.277,461.218c-1.738,0-3.239-0.869-4.424-2.37c-1.737-2.448-2.211-6.477-0.948-9.083
                                c0.791-1.658,2.133-2.606,3.792-2.764c0.632,0,1.185,0.474,1.264,1.105s-0.474,1.185-1.106,1.264
                                c-0.789,0.079-1.421,0.553-1.816,1.422c-0.868,1.896-0.553,4.896,0.711,6.713c0.711,1.027,1.659,1.501,2.844,1.422
                                c0.632-0.079,1.264,0.396,1.343,1.027c0.079,0.631-0.395,1.264-1.027,1.343C605.672,461.139,605.435,461.218,605.277,461.218z
                                " />
                        </g>
                    </g>
                    <g>
                        <g>
                            <path fill="#62345B" d="M658.037,461.218c-0.237,0-0.395,0-0.632,0c-0.632-0.079-1.105-0.633-1.026-1.343
                                c0.079-0.632,0.632-1.105,1.342-1.027c1.106,0.158,2.054-0.315,2.844-1.421c1.264-1.738,1.58-4.818,0.711-6.714
                                c-0.395-0.869-1.027-1.343-1.816-1.422c-0.632-0.079-1.106-0.632-1.106-1.264c0.08-0.632,0.633-1.105,1.264-1.105
                                c1.659,0.158,3.002,1.105,3.792,2.765c1.264,2.605,0.789,6.634-0.948,9.083C661.354,460.349,659.774,461.218,658.037,461.218z
                                " />
                        </g>
                    </g>
                    <g>
                        <g>
                            <path fill="#62345B" d="M631.657,488.467c-5.056,0-17.93-2.765-27.013-28.118v-0.079c-0.947-3.396-1.974-7.267-1.974-12.163
                                c-0.08-22.194,10.82-35.463,28.986-35.463s29.064,13.269,29.064,35.463c0,3.317-0.789,8.767-1.974,12.242
                                C649.586,485.781,636.712,488.467,631.657,488.467z M606.856,459.638c8.609,23.932,20.22,26.538,24.801,26.538
                                c4.58,0,16.191-2.606,24.801-26.538c1.185-3.159,1.895-8.372,1.895-11.452c0-20.693-9.951-33.094-26.695-33.094
                                s-26.696,12.321-26.696,33.015C604.961,452.688,605.987,456.242,606.856,459.638z" />
                        </g>
                    </g>
                </g>
                <g>
                    <g>
                        <path fill="#62345B" d="M651.64,450.555c-9.162,0-17.061-4.106-23.695-7.582c-6.239-3.238-11.531-6.003-15.796-4.423
                            c-3.002,1.105-5.45,4.423-7.661,10.031c-0.237,0.631-0.948,0.947-1.501,0.71c-0.632-0.236-0.948-0.948-0.711-1.501
                            c2.448-6.396,5.371-10.03,9.004-11.373c5.213-1.975,11.058,1.026,17.771,4.502c8.768,4.581,18.641,9.715,30.646,6.161
                            c0.632-0.158,1.265,0.157,1.501,0.789c0.158,0.632-0.157,1.265-0.79,1.501C657.326,450.16,654.404,450.555,651.64,450.555z" />
                    </g>
                </g>
                <g>
                    <g>

                        <path fill="none" stroke="#62345B" stroke-width="3" stroke-linecap="round" stroke-linejoin="round"
                            stroke-miterlimit="10" d="
                            M633.553,497.944" />
                    </g>
                </g>
            </g>
        </g>
        <g>
            <g>
                <g>
                    <path fill="#E3D34C" d="M601.959,444.236c1.186-0.315,1.976-1.422,1.976-2.686v-0.632c0-11.215,6.713-20.93,16.349-25.195
                        v-1.896c0-1.501,1.264-2.765,2.765-2.765h5.45h3.08h3.159h5.529c1.5,0,2.764,1.264,2.764,2.765v1.896h0.079
                        c9.557,4.344,16.191,13.98,16.191,25.195v0.632c0,1.264,0.79,2.29,1.975,2.686l1.896,0.553v5.528l0,0h-63.027l0,0v-5.528
                        L601.959,444.236z" />
                </g>
            </g>
            <g>
                <g opacity="0.15">
                    <g>
                        <path fill="#62345B" d="M661.354,444.236c-1.186-0.315-1.975-1.422-1.975-2.686v-0.632c0-11.215-6.635-20.852-16.271-25.195
                            h-0.079v-1.896c0-1.501-1.264-2.765-2.764-2.765h-0.711c1.5,0,2.764,1.264,2.764,2.765l0.711,1.896h-0.632
                            c9.557,4.344,12.084,13.98,12.084,25.195v0.632c0,1.264,0.79,2.29,1.976,2.686l1.895,0.553v5.528c3.081,0,4.897,0,4.897,0l0,0
                            v-5.528L661.354,444.236z" />
                    </g>
                </g>
            </g>
            <g>
                <g>
                    <path fill="#62345B" d="M663.171,451.503h-63.027c-0.633,0-1.186-0.553-1.186-1.186v-5.528c0-0.553,0.316-1.026,0.869-1.106
                        l1.896-0.552c0.711-0.158,1.185-0.79,1.185-1.501v-0.632c0-11.373,6.714-21.642,17.061-26.302
                        c0.632-0.236,1.579,1.896,0.947,2.133c-9.478,4.266-15.638,13.743-15.638,24.169v0.632c0,1.737-1.186,3.317-2.844,3.791
                        l-1.026,0.315v3.476h60.658v-3.476l-1.026-0.315c-1.659-0.474-2.845-2.054-2.845-3.791v-0.632
                        c0-10.347-6.081-19.824-15.559-24.09c-0.632-0.237,0.395-2.448,0.947-2.132c10.269,4.659,16.981,15.006,16.981,26.301v0.632
                        c0,0.711,0.475,1.343,1.185,1.5l1.896,0.554c0.474,0.158,0.869,0.632,0.869,1.105v5.528
                        C664.355,450.95,663.803,451.503,663.171,451.503z" />
                </g>
            </g>
            <g>
                <g>
                    <path fill="#62345B" d="M643.03,421.805c-0.632,0-1.185-0.553-1.185-1.185v-6.792c0-0.869-0.711-1.579-1.579-1.579h-17.219
                        c-0.868,0-1.58,0.71-1.58,1.579v6.792c0,0.632-0.553,1.185-1.185,1.185s-1.185-0.553-1.185-1.185v-6.792
                        c0-2.212,1.738-3.949,3.949-3.949h17.139c2.212,0,3.95,1.737,3.95,3.949v6.792C644.216,421.331,643.662,421.805,643.03,421.805z
                        " />
                </g>
            </g>
            <g>
                <g>
                    <path fill="#62345B" d="M631.578,429.861c-0.632,0-1.185-0.553-1.185-1.185v-16.823c0-0.632,0.553-1.185,1.185-1.185
                        s1.185,0.553,1.185,1.185v16.823C632.763,429.309,632.21,429.861,631.578,429.861z" />
                </g>
            </g>
            <g>
                <g>
                    <path fill="#62345B" d="M651.007,444.868h-38.701c-0.631,0-1.184-0.553-1.184-1.186c0-0.631,0.553-1.184,1.184-1.184h38.701
                        c0.633,0,1.186,0.553,1.186,1.184C652.192,444.315,651.64,444.868,651.007,444.868z" />
                </g>
            </g>
        </g>
    </g>

</svg>