<svg enable-background="new 0 0 1024 768" height="768" viewBox="0 0 1024 768" width="1024" xmlns="http://www.w3.org/2000/svg"><text fill="#fff" font-family="'Montserrat-Bold'" font-size="25.1911" transform="translate(54.0571 56.6694)">JAVASCRIPT FUNDAMENTALS</text><g fill="#f7be2c"><text font-family="'Roboto-Bold'" font-size="41.8301" transform="translate(54.1299 96.8472)">An Introduction to JavaScript</text><path d="m552.78 432.492c10.662 17.408 24.536 30.207 49.068 30.207 20.61 0 33.776-10.303 33.776-24.535 0-17.057-13.527-23.096-36.213-33.021l-12.437-5.334c-35.892-15.292-59.737-34.451-59.737-74.947 0-37.307 28.422-65.706 72.847-65.706 31.623 0 54.359 11.007 70.745 39.827l-38.733 24.869c-8.53-15.29-17.729-21.315-32.012-21.315-14.571 0-23.804 9.242-23.804 21.315 0 14.923 9.242 20.964 30.583 30.206l12.437 5.327c42.264 18.125 66.124 36.599 66.124 78.14 0 44.783-35.18 69.318-82.426 69.318-46.194 0-76.039-22.014-90.641-50.867zm-175.715 4.311c7.815 13.863 14.923 25.584 32.013 25.584 16.343 0 26.652-6.395 26.652-31.256v-169.134h49.741v169.808c0 51.506-30.197 74.945-74.275 74.945-39.826 0-62.889-20.607-74.62-45.434z"/></g></svg>