<svg version="1.1" id="Layer_1" xmlns="http://www.w3.org/2000/svg" xmlns:xlink="http://www.w3.org/1999/xlink" x="0px"
    y="0px" width="1024px" height="768px" viewBox="0 0 1024 768" enable-background="new 0 0 1024 768" xml:space="preserve">

    <path fill="none" d="M348.855,472.992c0.063-0.156,0.13-0.315,0.193-0.466C348.98,472.681,348.916,472.82,348.855,472.992z" />
    <path fill="none" d="M348.377,474.229l0.159-0.407C348.479,473.945,348.427,474.087,348.377,474.229z" />
    <path fill="none" d="M349.422,471.659c0.076-0.163,0.154-0.325,0.234-0.485C349.591,471.338,349.51,471.497,349.422,471.659z" />
    <path fill="none" d="M349.994,470.554c0.126-0.239,0.256-0.476,0.389-0.708C350.25,470.078,350.12,470.314,349.994,470.554z" />
    <path fill="none" d="M351.349,468.248c0.215-0.33,0.436-0.654,0.665-0.976C351.784,467.591,351.563,467.916,351.349,468.248z" />
    <path fill="none" d="M350.733,469.229c0.109-0.184,0.22-0.365,0.335-0.545C350.953,468.863,350.843,469.045,350.733,469.229z" />
    <path fill="none" d="M347.939,475.561c0.021-0.086,0.051-0.176,0.075-0.262C347.986,475.385,347.961,475.47,347.939,475.561z" />
    <path fill="none" d="M347.26,478.246l0.025-0.131L347.26,478.246z" />
    <path fill="none" d="M347.002,479.75c0.018-0.113,0.035-0.229,0.055-0.347C347.037,479.506,347.02,479.622,347.002,479.75z" />
    <path fill="none" d="M347.56,476.92l0.095-0.378L347.56,476.92z" />
    <path fill="none" d="M353.963,464.811c0.187-0.212,0.377-0.408,0.573-0.627C354.34,464.391,354.149,464.599,353.963,464.811z" />
    <path fill="none" d="M346.727,482.641c0-0.11,0-0.225,0-0.336C346.735,482.416,346.73,482.53,346.727,482.641z" />
    <path fill="none" d="M352.906,466.073c0.328-0.414,0.67-0.823,1.021-1.223C353.576,465.247,353.234,465.654,352.906,466.073z" />
    <path fill="none" d="M356.57,462.223c-0.662,0.58-1.297,1.187-1.904,1.827C355.273,463.409,355.908,462.803,356.57,462.223z" />
    <path fill="none" d="M352.245,466.942c0.147-0.2,0.297-0.399,0.448-0.595C352.543,466.543,352.393,466.742,352.245,466.942z" />
    <path fill="none" d="M346.836,481.051" />
    <text transform="matrix(1 0 0 1 296.415 115.0674)">
        <tspan x="0" y="0" fill="#FFFFFF" font-family="'Roboto'" font-size="41.9282">A Basic understanding </tspan>
        <tspan x="-47.743" y="50.313" fill="#FFFFFF" font-family="'Roboto'" font-size="41.9282">of the </tspan>
        <tspan x="70.487" y="50.313" fill="#F7BE2C" font-family="'Roboto'" font-size="41.9282">JavaScript</tspan>
        <tspan x="271.878" y="50.313" fill="#FFFFFF" font-family="'Roboto'" font-size="41.9282"> Interpreter</tspan>
    </text>

    <text transform="matrix(1 0 0 1 217.8057 240.5615)">
        <tspan x="0" y="0" fill="#FFFFFF" font-family="'Roboto'" font-size="24">In regard to output, </tspan>
        <tspan x="208.078" y="0" fill="#F7BE2C" font-family="'Roboto'" font-size="24">JavaScript </tspan>
        <tspan x="329.332" y="0" fill="#FFFFFF" font-family="'Roboto'" font-size="24">can modify HTML ele</tspan>
        <tspan x="556.336" y="0" fill="#FFFFFF" font-family="'Roboto'" font-size="24">-</tspan>
        <tspan x="0" y="30" fill="#FFFFFF" font-family="'Roboto'" font-size="24">ments, dynamically create new ones and
            place them on </tspan>
        <tspan x="0" y="60" fill="#FFFFFF" font-family="'Roboto'" font-size="24">the web page, modify the CSS, create
            graphics, manipu</tspan>
        <tspan x="582.938" y="60" fill="#FFFFFF" font-family="'Roboto'" font-size="24">-</tspan>
        <tspan x="0" y="90" fill="#FFFFFF" font-family="'Roboto'" font-size="24">late images, play sounds, etc.</tspan>
    </text>

    <text transform="matrix(1 0 0 1 217.8057 387.5312)">
        <tspan x="0" y="0" fill="#FFFFFF" font-family="'Roboto'" font-size="32">• </tspan>
        <tspan x="19.469" y="0" opacity="0.2" fill="#FFFFFF" font-family="'Roboto'" font-size="32">Input</tspan>
        <tspan x="93.453" y="0" fill="#FFFFFF" font-family="'Roboto'" font-size="32"> </tspan>
        <tspan x="101.422" y="0" opacity="0.2" fill="#FFFFFF" font-family="'Roboto'" font-size="32">/ </tspan>
        <tspan x="121.344" y="0" fill="#FFFFFF" font-family="'Roboto'" font-size="32">Output</tspan>
        <tspan x="0" y="38.399" opacity="0.2" fill="#FFFFFF" font-family="'Roboto'" font-size="32">• Data Manipulation
            (or Processing)</tspan>
    </text>
    <g>
        <g>
            <path fill="#FFFFFF" d="M187.325,696.219h180.931V496.04H187.325" />
            <polyline fill="#1B3958" points="187.325,496.039 368.256,496.039 368.256,474.41 187.325,474.41 		" />
            <polyline fill="#1B3958" points="202.723,586.954 352.857,586.954 352.857,523.809 202.723,523.809 		" />
            <path fill="#06A1F2" d="M202.721,512.468h30.719v-5.092h-30.719" />
            <path fill="#FF3279" d="M242.523,512.468h30.723v-5.092h-30.723" />
            <path fill="#06A1F2" d="M282.335,512.468h30.716v-5.092h-30.716 M322.138,512.468h30.72v-5.092h-30.717" />
            <polyline fill="#A4CA39" points="202.723,636.578 241.011,636.578 241.011,598.29 202.723,598.29 		" />
            <polyline fill="#D9D8D7" points="202.723,644.896 241.011,644.896 241.011,642.164 202.723,642.164 		" />
            <polyline fill="#D9D8D7" points="202.723,650.361 241.011,650.361 241.011,647.628 202.723,647.628 		" />
            <polyline fill="#D9D8D7" points="202.723,655.842 221.872,655.842 221.872,653.099 202.723,653.099 		" />
            <polyline fill="#FFDC1A" points="258.644,636.578 296.936,636.578 296.936,598.29 258.644,598.29 		" />
            <polyline fill="#D9D8D7" points="258.644,644.896 296.94,644.896 296.94,642.164 258.644,642.164 		" />
            <polyline fill="#D9D8D7" points="258.644,650.361 296.94,650.361 296.94,647.628 258.644,647.628 		" />
            <polyline fill="#D9D8D7" points="258.644,655.842 277.8,655.842 277.8,653.099 258.644,653.099 		" />
            <path fill="#FF3279" d="M314.565,636.578h38.292V598.29h-38.292" />
            <path fill="#D9D8D7" d="M314.577,644.896h38.295v-2.731h-38.295 M314.577,650.361h38.295v-2.733h-38.295 M314.574,655.842h19.146
                v-2.743h-19.146" />
            <rect x="209.468" y="668.807" fill="#A4CA39" width="24.798" height="5.637" />
            <rect x="266.58" y="668.807" fill="#FFDC1A" width="24.799" height="5.637" />
            <rect x="319.774" y="668.807" fill="#FF3279" width="24.799" height="5.637" />
            <g>
                <rect x="187.325" y="696.219" fill="#64798A" width="180.931" height="21.562" />
                <circle fill="#FFFFFF" cx="336.171" cy="706.211" r="4.208" />
                <circle fill="#FFFFFF" cx="351.95" cy="706.211" r="4.208" />
                <rect x="195.214" y="701.479" fill="#3A556A" width="38.396" height="5.259" />
            </g>
            <g>
                <g>
                    <path fill="#FFFFFF" d="M214.982,560.092c-0.431,0-0.431,0-0.865-0.435l-3.465-3.464c-0.433-0.433-0.433-1.299,0-1.732
                        l3.465-3.465c0.434-0.435,1.299-0.435,1.733,0c0.433,0.433,0.433,1.299,0,1.732l-2.6,2.598l2.6,2.6
                        c0.433,0.434,0.433,1.3,0,1.731C215.851,560.092,215.417,560.092,214.982,560.092z" />
                </g>
                <g>
                    <path fill="#FFFFFF" d="M340.597,560.092c0.432,0,0.432,0,0.865-0.435l3.465-3.464c0.433-0.433,0.433-1.299,0-1.732
                        l-3.465-3.465c-0.433-0.435-1.299-0.435-1.731,0c-0.435,0.433-0.435,1.299,0,1.732l2.598,2.598l-2.598,3.033
                        c-0.435,0.432-0.435,1.298,0,1.732C339.731,560.092,340.164,560.092,340.597,560.092z" />
                </g>
            </g>
            <rect x="194.54" y="480.377" fill="#EBF0F3" width="131.977" height="8.565" />
            <g>
                <circle fill="#E56353" cx="359.475" cy="485.078" r="2.794" />
                <circle fill="#44C4A1" cx="350.785" cy="485.078" r="2.794" />
                <circle fill="#FCD462" cx="342.403" cy="485.078" r="2.794" />
            </g>
        </g>
        <g>
            <g>
                <g>
                    <path fill="#FFFFFF" d="M579.321,558.838c-6.499-12.521-15.554-21.97-26.184-27.326c-2.038-1.026-4.521-0.341-5.745,1.584
                        l-8.326,13.104c-0.697,1.097-0.879,2.445-0.496,3.688s1.293,2.256,2.486,2.771c13.884,5.982,23.96,26.579,23.96,48.975
                        c0,22.128-9.94,42.658-23.637,48.818c-1.166,0.523-2.05,1.525-2.425,2.748c-0.375,1.224-0.203,2.548,0.469,3.636l8.141,13.169
                        c0.836,1.351,2.287,2.105,3.78,2.105c0.682,0,1.372-0.156,2.017-0.486c10.573-5.4,19.572-14.853,26.026-27.338
                        c6.485-12.546,9.914-27.295,9.914-42.652C589.302,586.215,585.851,571.418,579.321,558.838z M552.858,661.678l-3.423-5.536
                        c14.607-9.425,24.461-30.946,24.461-54.509c0-23.821-9.973-45.407-24.762-54.721l3.49-5.493
                        c16.77,10.63,27.797,34.202,27.797,60.214C580.422,627.478,569.49,650.973,552.858,661.678z" />
                    <path fill="#FFFFFF" d="M557.903,601.761c0-17.953-7.575-34.473-20.266-44.187c-0.987-0.756-2.251-1.062-3.475-0.846
                        c-1.226,0.218-2.304,0.94-2.972,1.991l-8.148,12.822c-1.166,1.837-0.83,4.249,0.793,5.696
                        c6.029,5.375,9.775,14.771,9.775,24.522c0,9.567-3.472,18.57-9.287,24.081c-1.527,1.448-1.828,3.771-0.721,5.56l8.039,12.981
                        c0.666,1.076,1.761,1.816,3.007,2.035c0.256,0.046,0.513,0.066,0.769,0.066c0.991,0,1.963-0.332,2.752-0.955
                        C550.527,635.764,557.903,619.402,557.903,601.761z M536.393,635.184l-3.447-5.564c6.027-7.153,9.547-17.292,9.547-27.858
                        c0-10.927-3.706-21.273-10.054-28.444l3.477-5.473c8.28,8.255,13.109,20.575,13.109,33.917
                        C549.023,614.796,544.374,626.925,536.393,635.184z" />
                    <path fill="#FFFFFF" d="M510.32,549.252c-1.53-0.742-3.351-0.547-4.686,0.508l-34.214,26.966h-5.426h-3.212h-9.479
                        c-11.38,0-20.639,11.146-20.639,24.848c0,13.7,9.258,24.847,20.639,24.847h9.479h3.212h5.426l34.214,26.967
                        c0.798,0.63,1.77,0.953,2.749,0.953c0.659,0,1.321-0.146,1.937-0.445c1.531-0.742,2.502-2.294,2.502-3.994v-96.654
                        C512.823,551.545,511.851,549.993,510.32,549.252z M458.341,617.54h-5.039c-6.484,0-11.758-7.163-11.758-15.967
                        c0-8.806,5.274-15.968,11.758-15.968h5.039V617.54z M503.943,640.747l-28.235-22.255c-0.783-0.617-1.751-0.952-2.749-0.952
                        h-5.738v-31.935h5.738c0.998,0,1.966-0.336,2.749-0.953l28.235-22.255V640.747z" />
                </g>
            </g>
        </g>
        <g>
            <rect x="654" y="469" width="181" height="249" />
            <g>
                <g transform="translate(50 0)">
                    <g>
                        <g id="backgrid_1_">

                            <line fill="none" stroke="#ADD8E6" stroke-linecap="square" stroke-linejoin="round" x1="636.676" y1="485.625"
                                x2="636.676" y2="548.875" />

                            <line fill="none" stroke="#ADD8E6" stroke-linecap="square" stroke-linejoin="round" x1="665.426" y1="485.625"
                                x2="665.426" y2="548.875" />

                            <line fill="none" stroke="#ADD8E6" stroke-linecap="square" stroke-linejoin="round" x1="694.176" y1="485.625"
                                x2="694.176" y2="548.875" />

                            <line fill="none" stroke="#ADD8E6" stroke-linecap="square" stroke-linejoin="round" x1="722.926" y1="485.625"
                                x2="722.926" y2="548.875" />

                            <line fill="none" stroke="#ADD8E6" stroke-linecap="square" stroke-linejoin="round" x1="751.676" y1="485.625"
                                x2="751.676" y2="548.875" />

                            <line fill="none" stroke="#ADD8E6" stroke-linecap="square" stroke-linejoin="round" x1="633.801" y1="488.5"
                                x2="754.551" y2="488.5" />

                            <line fill="none" stroke="#ADD8E6" stroke-linecap="square" stroke-linejoin="round" x1="633.801" y1="517.25"
                                x2="754.551" y2="517.25" />

                            <line fill="none" stroke="#ADD8E6" stroke-linecap="square" stroke-linejoin="round" x1="633.801" y1="546" x2="754.551"
                                y2="546" />
                        </g>
                    </g>
                    <polyline fill="none" stroke="#FF0000" stroke-width="2" stroke-linecap="round" stroke-linejoin="round" points="636.676,546 
                        665.426,517.25 694.176,517.25 722.926,517.25 751.676,546 				" />

                    <circle fill="none" stroke="#FF0000" stroke-width="2" stroke-linecap="round" stroke-linejoin="round" cx="665.426"
                        cy="517.25" r="2.875" />

                    <circle fill="none" stroke="#FF0000" stroke-width="2" stroke-linecap="round" stroke-linejoin="round" cx="694.176"
                        cy="517.25" r="2.875" />

                    <circle fill="none" stroke="#FF0000" stroke-width="2" stroke-linecap="round" stroke-linejoin="round" cx="722.926"
                        cy="517.25" r="2.875" />

                    <circle fill="none" stroke="#FF0000" stroke-width="2" stroke-linecap="round" stroke-linejoin="round" cx="751.676"
                        cy="546" r="2.875" />
                </g>
                <g transform="translate(50 30)">
                    <g>
                        <g id="backgrid_4_">

                            <line fill="none" stroke="#ADD8E6" stroke-linecap="square" stroke-linejoin="round" x1="636.676" y1="531.875"
                                x2="636.676" y2="595.125" />

                            <line fill="none" stroke="#ADD8E6" stroke-linecap="square" stroke-linejoin="round" x1="665.426" y1="531.875"
                                x2="665.426" y2="595.125" />

                            <line fill="none" stroke="#ADD8E6" stroke-linecap="square" stroke-linejoin="round" x1="694.176" y1="531.875"
                                x2="694.176" y2="595.125" />

                            <line fill="none" stroke="#ADD8E6" stroke-linecap="square" stroke-linejoin="round" x1="722.926" y1="531.875"
                                x2="722.926" y2="595.125" />

                            <line fill="none" stroke="#ADD8E6" stroke-linecap="square" stroke-linejoin="round" x1="751.676" y1="531.875"
                                x2="751.676" y2="595.125" />

                            <line fill="none" stroke="#ADD8E6" stroke-linecap="square" stroke-linejoin="round" x1="633.801" y1="534.75"
                                x2="754.551" y2="534.75" />

                            <line fill="none" stroke="#ADD8E6" stroke-linecap="square" stroke-linejoin="round" x1="633.801" y1="563.5"
                                x2="754.551" y2="563.5" />

                            <line fill="none" stroke="#ADD8E6" stroke-linecap="square" stroke-linejoin="round" x1="633.801" y1="592.25"
                                x2="754.551" y2="592.25" />
                        </g>
                    </g>
                    <polyline fill="none" stroke="#FF0000" stroke-width="2" stroke-linecap="round" stroke-linejoin="round" points="
                        636.676,592.25 665.426,563.5 694.176,563.5 722.926,592.25 751.676,592.25 				" />

                    <circle fill="none" stroke="#FF0000" stroke-width="2" stroke-linecap="round" stroke-linejoin="round" cx="665.426"
                        cy="563.5" r="2.875" />

                    <circle fill="none" stroke="#FF0000" stroke-width="2" stroke-linecap="round" stroke-linejoin="round" cx="694.176"
                        cy="563.5" r="2.875" />

                    <circle fill="none" stroke="#FF0000" stroke-width="2" stroke-linecap="round" stroke-linejoin="round" cx="722.926"
                        cy="592.25" r="2.875" />

                    <circle fill="none" stroke="#FF0000" stroke-width="2" stroke-linecap="round" stroke-linejoin="round" cx="751.676"
                        cy="592.25" r="2.875" />
                </g>
                <g transform="translate(50 60)">
                    <g>
                        <g id="backgrid_7_">

                            <line fill="none" stroke="#ADD8E6" stroke-linecap="square" stroke-linejoin="round" x1="636.676" y1="578.125"
                                x2="636.676" y2="641.375" />

                            <line fill="none" stroke="#ADD8E6" stroke-linecap="square" stroke-linejoin="round" x1="665.426" y1="578.125"
                                x2="665.426" y2="641.375" />

                            <line fill="none" stroke="#ADD8E6" stroke-linecap="square" stroke-linejoin="round" x1="694.176" y1="578.125"
                                x2="694.176" y2="641.375" />

                            <line fill="none" stroke="#ADD8E6" stroke-linecap="square" stroke-linejoin="round" x1="722.926" y1="578.125"
                                x2="722.926" y2="641.375" />

                            <line fill="none" stroke="#ADD8E6" stroke-linecap="square" stroke-linejoin="round" x1="751.676" y1="578.125"
                                x2="751.676" y2="641.375" />

                            <line fill="none" stroke="#ADD8E6" stroke-linecap="square" stroke-linejoin="round" x1="633.801" y1="581" x2="754.551"
                                y2="581" />

                            <line fill="none" stroke="#ADD8E6" stroke-linecap="square" stroke-linejoin="round" x1="633.801" y1="609.75"
                                x2="754.551" y2="609.75" />

                            <line fill="none" stroke="#ADD8E6" stroke-linecap="square" stroke-linejoin="round" x1="633.801" y1="638.5"
                                x2="754.551" y2="638.5" />
                        </g>
                    </g>
                    <polyline fill="none" stroke="#FF0000" stroke-width="2" stroke-linecap="round" stroke-linejoin="round" points="
                        636.676,638.5 665.426,638.5 694.176,638.5 722.926,609.75 751.676,638.5 				" />

                    <circle fill="none" stroke="#FF0000" stroke-width="2" stroke-linecap="round" stroke-linejoin="round" cx="665.426"
                        cy="638.5" r="2.875" />

                    <circle fill="none" stroke="#FF0000" stroke-width="2" stroke-linecap="round" stroke-linejoin="round" cx="694.176"
                        cy="638.5" r="2.875" />

                    <circle fill="none" stroke="#FF0000" stroke-width="2" stroke-linecap="round" stroke-linejoin="round" cx="722.926"
                        cy="609.75" r="2.875" />

                    <circle fill="none" stroke="#FF0000" stroke-width="2" stroke-linecap="round" stroke-linejoin="round" cx="751.676"
                        cy="638.5" r="2.875" />
                </g>
            </g>
        </g>
    </g>

</svg>
