<svg version="1.1" id="Layer_1" xmlns="http://www.w3.org/2000/svg" xmlns:xlink="http://www.w3.org/1999/xlink" x="0px"
    y="0px" width="1024px" height="768px" viewBox="0 0 1024 768" enable-background="new 0 0 1024 768" xml:space="preserve">

    <g>
        <path fill="#F5F5F5" d="M530.312,422.215c0,11.494,9.396,20.869,20.878,20.869h15.179c11.494,0,20.887-9.375,20.887-20.869v-59.717
            c0-11.482-9.374-20.872-20.868-20.872h-15.169c-11.481,0-20.878,9.39-20.878,20.872v59.717H530.312z" />
        <path fill="#E6E5E5" d="M539.936,344.971c-0.205,1.181-0.337,2.383-0.337,3.616v45.287c0,9.047,3.452,18.063,10.334,24.946
            c6.909,6.9,15.935,10.335,24.969,10.335h0.754c4.137,0,8.012-1.234,11.242-3.342c-1.693,9.77-10.271,17.242-20.528,17.242H551.19
            c-11.479,0-20.868-9.374-20.868-20.868v-59.71c0-7.349,3.855-13.813,9.626-17.532" />
        <path fill="#353F49" d="M554.039,363.44c0,2.631,2.107,4.747,4.747,4.747c2.631,0,4.729-2.116,4.729-4.75
            c0-2.618-2.101-4.751-4.729-4.751c-2.64,0-4.747,2.133-4.747,4.751" />
        <path fill="#ECF0F1" d="M642.126,473.015c20.151,0,36.546-16.403,36.549-36.564l0.012-15.46l-4.248-0.008l-0.018,15.468
            c0,17.818-14.505,32.316-32.302,32.316c-17.812,0-32.316-14.498-32.316-32.316h-0.095c0.095-1.161,0.095-2.962,0.095-5.739V273.122
            c0-14.658-11.932-26.582-26.596-26.582c-14.646,0-26.574,11.93-26.574,26.591l0.01,68.498h4.244l-0.012-68.493
            c0-12.324,10.021-22.345,22.329-22.345c12.321,0,22.345,10.021,22.345,22.345c0,115.188-0.006,152.635-0.009,161.212v2.133
            c0,20.16,16.403,36.562,36.552,36.562" />
    </g>

    <text transform="matrix(1 0 0 1 55.9067 103.8667)" fill="#FFFFFF" font-family="'Roboto'" font-size="41.9282">3.
        JavaScript</text>

    <text transform="matrix(1 0 0 1 63.4912 160.1538)">
        <tspan x="0" y="0" fill="#F7BE2C" font-family="'Roboto'" font-size="24">JavaScript</tspan>
        <tspan x="115.277" y="0" fill="#00ABDD" font-family="'Roboto'" font-size="24"> </tspan>
        <tspan x="121.254" y="0" fill="#FFFFFF" font-family="'Roboto'" font-size="24">(JS) </tspan>
        <tspan x="170.32" y="0" fill="#FFFFFF" font-family="'Roboto'" font-size="24">is a programming language used
        </tspan>
        <tspan x="0" y="30" fill="#FFFFFF" font-family="'Roboto'" font-size="24">to make webpages interactive and provide
            online </tspan>
        <tspan x="0" y="60" fill="#FFFFFF" font-family="'Roboto'" font-size="24">programs, including video games. All
            modern </tspan>
        <tspan x="0" y="90" fill="#FFFFFF" font-family="'Roboto'" font-size="24">web browsers support JavaScript.</tspan>
    </text>

    <text transform="matrix(1 0 0 1 101.0498 350.6177)">
        <tspan x="0" y="0" fill="#F9672E" font-family="'Hack'" font-size="24">console.</tspan>
        <tspan x="115.594" y="0" fill="#FBB03B" font-family="'Hack'" font-size="24">log(</tspan>
        <tspan x="173.39" y="0" fill="#39B54A" font-family="'Hack'" font-size="24">true</tspan>
        <tspan x="231.187" y="0" fill="#FBB03B" font-family="'Hack'" font-size="24">)</tspan>
        <tspan x="245.636" y="0" fill="#F2F2F2" font-family="'Hack'" font-size="24">;</tspan>
        <tspan x="0" y="30" fill="#FBB03B" font-family="'Hack'" font-size="24">if (</tspan>
        <tspan x="57.797" y="30" fill="#39B54A" font-family="'Hack'" font-size="24">click</tspan>
        <tspan x="130.043" y="30" fill="#FBB03B" font-family="'Hack'" font-size="24">)</tspan>
        <tspan x="149.492" y="30" fill="#F9672E" font-family="'Hack'" font-size="24"> showDialog()</tspan>
        <tspan x="320.332" y="30" fill="#F2F2F2" font-family="'Hack'" font-size="24">;</tspan>
        <tspan x="0" y="60" fill="#F9672E" font-family="'Hack'" font-size="24">startTimer()</tspan>
        <tspan x="173.39" y="60" fill="#F2F2F2" font-family="'Hack'" font-size="24">;</tspan>
    </text>
    <text transform="matrix(1 0 0 1 558.6035 587.5)">
        <tspan x="0" y="0" opacity="0.5" fill="#FFFFFF" font-family="'Hack'" font-size="22">index.html </tspan>
        <tspan x="145.696" y="0" fill="#FFFFFF" font-family="'Hack'" font-size="22">+ </tspan>
        <tspan x="172.187" y="0" opacity="0.5" fill="#FFFFFF" font-family="'Hack'" font-size="22">style.css</tspan>
        <tspan x="303.393" y="0" fill="#FFFFFF" font-family="'Hack'" font-size="22"> + script.js</tspan>
    </text>
    <g>
        <path fill="#FFFFFF" d="M639.066,507.546H939.48V175.172H639.066" />
        <polyline fill="#1B3958" points="639.066,175.17 939.48,175.17 939.48,139.258 639.066,139.258 	" />
        <polyline fill="#1B3958" points="664.633,326.124 913.913,326.124 913.913,221.277 664.633,221.277 	" />
        <path fill="#06A1F2" d="M664.63,202.449h51.005v-8.456H664.63" />
        <path fill="#FF3279" d="M730.716,202.449h51.012v-8.456h-51.012" />
        <path fill="#06A1F2" d="M796.819,202.449h51.001v-8.456h-51.001 M862.908,202.449h51.007v-8.456h-51.002" />
        <polyline fill="#A4CA39" points="664.633,408.519 728.205,408.519 728.205,344.946 664.633,344.946 	" />
        <polyline fill="#D9D8D7" points="664.633,422.329 728.205,422.329 728.205,417.793 664.633,417.793 	" />
        <polyline fill="#D9D8D7" points="664.633,431.405 728.205,431.405 728.205,426.865 664.633,426.865 	" />
        <polyline fill="#D9D8D7" points="664.633,440.504 696.428,440.504 696.428,435.949 664.633,435.949 	" />
        <polyline fill="#FFDC1A" points="757.484,408.519 821.062,408.519 821.062,344.946 757.484,344.946 	" />
        <polyline fill="#D9D8D7" points="757.484,422.329 821.069,422.329 821.069,417.793 757.484,417.793 	" />
        <polyline fill="#D9D8D7" points="757.484,431.405 821.069,431.405 821.069,426.865 757.484,426.865 	" />
        <polyline fill="#D9D8D7" points="757.484,440.504 789.289,440.504 789.289,435.949 757.484,435.949 	" />
        <path fill="#FF3279" d="M850.335,408.519h63.578v-63.572h-63.578" />
        <path fill="#D9D8D7" d="M850.354,422.329h63.584v-4.536h-63.584 M850.354,431.405h63.584v-4.54h-63.584 M850.35,440.504h31.789
            v-4.555H850.35" />
        <rect x="675.832" y="462.031" fill="#A4CA39" width="41.174" height="9.357" />
        <rect x="770.659" y="462.031" fill="#FFDC1A" width="41.177" height="9.357" />
        <rect x="858.982" y="462.031" fill="#FF3279" width="41.177" height="9.357" />
        <g>
            <rect x="639.066" y="507.546" fill="#64798A" width="300.414" height="35.802" />
            <path fill="#FFFFFF" d="M886.208,517.148c3.859,0,6.987,3.129,6.987,6.989c0,3.856-3.128,6.984-6.987,6.984
                c-3.854,0-6.985-3.128-6.985-6.984C879.223,520.277,882.354,517.148,886.208,517.148z" />
            <path fill="#FFFFFF" d="M912.407,517.148c3.858,0,6.987,3.129,6.987,6.989c0,3.856-3.129,6.984-6.987,6.984
                c-3.859,0-6.984-3.128-6.984-6.984C905.423,520.277,908.548,517.148,912.407,517.148z" />
            <rect x="652.166" y="516.278" fill="#3A556A" width="63.751" height="8.732" />
        </g>
        <g>
            <g>
                <path fill="#FFFFFF" d="M684.989,281.522c-0.717,0-0.717,0-1.437-0.721l-5.753-5.753c-0.719-0.719-0.719-2.157,0-2.876
                    l5.753-5.752c0.72-0.72,2.157-0.72,2.877,0c0.719,0.719,0.719,2.156,0,2.877l-4.316,4.313l4.316,4.315
                    c0.719,0.72,0.719,2.158,0,2.876C686.43,281.522,685.71,281.522,684.989,281.522z" />
            </g>
            <g>
                <path fill="#FFFFFF" d="M893.557,281.522c0.718,0,0.718,0,1.438-0.721l5.754-5.753c0.718-0.719,0.718-2.157,0-2.876l-5.754-5.752
                    c-0.72-0.72-2.156-0.72-2.876,0c-0.721,0.719-0.721,2.156,0,2.877l4.314,4.313l-4.314,5.036c-0.721,0.718-0.721,2.156,0,2.877
                    C892.118,281.522,892.838,281.522,893.557,281.522z" />
            </g>
        </g>
        <rect x="651.046" y="149.166" fill="#EBF0F3" width="219.131" height="14.223" />
        <g>
            <circle fill="#E56353" cx="924.901" cy="156.97" r="4.639" />
            <circle fill="#44C4A1" cx="910.473" cy="156.97" r="4.639" />
            <path fill="#FCD462" d="M896.555,152.331c2.559,0,4.64,2.077,4.64,4.639s-2.081,4.64-4.64,4.64c-2.563,0-4.64-2.078-4.64-4.64
                S893.991,152.331,896.555,152.331z" />
        </g>
    </g>
    <path fill="#F7BE2C" d="M945.128,626.308c0-1.84-0.652-3.409-1.951-4.71c-1.3-1.299-2.869-1.951-4.71-1.951
        c-1.84,0-3.409,0.652-4.709,1.951c-1.3,1.301-1.952,2.87-1.952,4.71s0.652,3.409,1.952,4.709s2.869,1.952,4.709,1.952
        c1.841,0,3.41-0.652,4.71-1.952C944.481,629.713,945.128,628.143,945.128,626.308L945.128,626.308z M965.106,639.626
        c0-0.903-0.33-1.683-0.987-2.34c-0.658-0.658-1.438-0.988-2.34-0.988c-0.901,0-1.682,0.33-2.34,0.988
        c-0.656,0.657-0.988,1.437-0.988,2.34c0,0.917,0.325,1.702,0.973,2.354c0.653,0.652,1.438,0.973,2.355,0.973
        s1.702-0.326,2.354-0.973C964.781,641.328,965.106,640.543,965.106,639.626L965.106,639.626z M965.106,612.99
        c0-0.902-0.33-1.683-0.987-2.34c-0.658-0.657-1.438-0.988-2.34-0.988c-0.901,0-1.682,0.331-2.34,0.988
        c-0.656,0.657-0.988,1.438-0.988,2.34c0,0.917,0.325,1.702,0.973,2.354c0.653,0.652,1.438,0.974,2.355,0.974
        s1.702-0.326,2.354-0.974C964.781,614.692,965.106,613.907,965.106,612.99L965.106,612.99z M955.118,623.938v4.812
        c0,0.173-0.062,0.341-0.185,0.51c-0.121,0.163-0.259,0.255-0.417,0.275l-4.032,0.626c-0.188,0.606-0.469,1.265-0.83,1.978
        c0.592,0.831,1.371,1.83,2.339,2.992c0.123,0.173,0.184,0.347,0.184,0.521c0,0.209-0.061,0.371-0.184,0.494
        c-0.396,0.52-1.115,1.294-2.145,2.328c-1.035,1.03-1.713,1.55-2.045,1.55c-0.188,0-0.371-0.061-0.545-0.184l-2.991-2.339
        c-0.643,0.332-1.311,0.596-2.004,0.805c-0.188,1.87-0.393,3.217-0.596,4.032c-0.123,0.418-0.383,0.621-0.78,0.621h-4.836
        c-0.189,0-0.367-0.065-0.521-0.193c-0.157-0.127-0.244-0.28-0.26-0.454l-0.597-3.979c-0.591-0.175-1.238-0.444-1.951-0.806
        l-3.068,2.313c-0.123,0.123-0.296,0.184-0.521,0.184c-0.188,0-0.372-0.071-0.545-0.209c-2.497-2.309-3.746-3.694-3.746-4.163
        c0-0.158,0.062-0.322,0.183-0.495c0.174-0.244,0.53-0.704,1.066-1.376c0.54-0.678,0.948-1.203,1.223-1.586
        c-0.397-0.764-0.703-1.473-0.912-2.13l-3.955-0.621c-0.174-0.016-0.321-0.103-0.443-0.245c-0.122-0.147-0.184-0.316-0.184-0.51
        v-4.812c0-0.173,0.062-0.341,0.184-0.509c0.122-0.163,0.26-0.255,0.418-0.275l4.031-0.622c0.188-0.606,0.469-1.264,0.831-1.978
        c-0.592-0.83-1.371-1.83-2.339-2.992c-0.123-0.188-0.185-0.366-0.185-0.52c0-0.208,0.062-0.382,0.185-0.52
        c0.382-0.52,1.09-1.295,2.129-2.313c1.04-1.021,1.723-1.535,2.055-1.535c0.188,0,0.372,0.062,0.546,0.185l2.991,2.339
        c0.591-0.311,1.259-0.592,2.003-0.831c0.189-1.87,0.393-3.205,0.597-4.006c0.122-0.418,0.382-0.621,0.779-0.621h4.837
        c0.188,0,0.367,0.065,0.52,0.192c0.158,0.128,0.245,0.28,0.261,0.454l0.596,3.98c0.591,0.174,1.238,0.443,1.952,0.806l3.068-2.313
        c0.138-0.123,0.311-0.185,0.521-0.185c0.188,0,0.371,0.071,0.545,0.21c2.497,2.308,3.745,3.694,3.745,4.163
        c0,0.158-0.061,0.321-0.183,0.495c-0.209,0.274-0.571,0.743-1.091,1.406c-0.521,0.657-0.912,1.178-1.172,1.56
        c0.396,0.831,0.692,1.544,0.882,2.13l3.965,0.582c0.173,0.035,0.321,0.127,0.442,0.274
        C955.057,623.581,955.118,623.749,955.118,623.938L955.118,623.938z M971.769,637.806v3.645c0,0.274-1.289,0.545-3.873,0.805
        c-0.21,0.469-0.469,0.918-0.78,1.351c0.888,1.962,1.325,3.154,1.325,3.589c0,0.071-0.036,0.132-0.107,0.183
        c-2.114,1.229-3.189,1.846-3.227,1.846c-0.137,0-0.539-0.408-1.196-1.224c-0.658-0.815-1.112-1.401-1.352-1.769
        c-0.347,0.036-0.605,0.051-0.779,0.051s-0.433-0.015-0.78-0.051c-0.244,0.361-0.693,0.953-1.351,1.769s-1.055,1.224-1.197,1.224
        c-0.036,0-1.111-0.617-3.227-1.846c-0.071-0.051-0.106-0.111-0.106-0.183c0-0.435,0.443-1.632,1.325-3.589
        c-0.311-0.433-0.571-0.887-0.779-1.351c-2.585-0.26-3.874-0.53-3.874-0.805v-3.645c0-0.275,1.289-0.546,3.874-0.806
        c0.224-0.505,0.483-0.953,0.779-1.35c-0.888-1.963-1.325-3.155-1.325-3.589c0-0.071,0.035-0.133,0.106-0.184
        c0.071-0.036,0.372-0.208,0.912-0.52c0.536-0.312,1.05-0.606,1.534-0.882s0.744-0.413,0.78-0.418c0.138,0,0.54,0.402,1.197,1.208
        s1.111,1.392,1.351,1.759c0.348-0.037,0.606-0.052,0.78-0.052s0.433,0.015,0.779,0.052c0.887-1.233,1.682-2.202,2.391-2.916
        l0.157-0.051c0.072,0,1.147,0.606,3.227,1.819c0.071,0.051,0.107,0.112,0.107,0.184c0,0.434-0.443,1.632-1.325,3.589
        c0.296,0.396,0.556,0.851,0.78,1.35C970.479,637.26,971.769,637.525,971.769,637.806L971.769,637.806z M971.769,611.165v3.639
        c0,0.276-1.289,0.546-3.873,0.807c-0.21,0.469-0.469,0.916-0.78,1.35c0.888,1.963,1.325,3.155,1.325,3.588
        c0,0.071-0.036,0.133-0.107,0.185c-2.114,1.228-3.189,1.844-3.227,1.844c-0.137,0-0.539-0.407-1.196-1.223
        c-0.658-0.815-1.112-1.401-1.352-1.769c-0.347,0.035-0.605,0.051-0.779,0.051s-0.433-0.016-0.78-0.051
        c-0.244,0.361-0.693,0.953-1.351,1.769s-1.055,1.223-1.197,1.223c-0.036,0-1.111-0.616-3.227-1.844
        c-0.071-0.052-0.106-0.113-0.106-0.185c0-0.433,0.443-1.631,1.325-3.588c-0.311-0.434-0.571-0.887-0.779-1.35
        c-2.585-0.261-3.874-0.53-3.874-0.807v-3.644c0-0.275,1.289-0.545,3.874-0.805c0.224-0.505,0.483-0.953,0.779-1.352
        c-0.888-1.962-1.325-3.154-1.325-3.588c0-0.07,0.035-0.132,0.106-0.184c0.071-0.035,0.372-0.209,0.912-0.52
        c0.536-0.311,1.05-0.606,1.534-0.881c0.484-0.276,0.744-0.413,0.78-0.419c0.138,0,0.54,0.403,1.197,1.208
        c0.657,0.806,1.111,1.392,1.351,1.758c0.348-0.035,0.606-0.05,0.78-0.05s0.433,0.015,0.779,0.05
        c0.887-1.228,1.682-2.201,2.391-2.914l0.157-0.052c0.072,0,1.147,0.606,3.227,1.819c0.071,0.052,0.107,0.113,0.107,0.184
        c0,0.434-0.443,1.631-1.325,3.588c0.296,0.398,0.556,0.852,0.78,1.352C970.479,610.62,971.769,610.89,971.769,611.165
        L971.769,611.165z" />
    <rect x="639" y="175" opacity="0.59" fill="#231F20" width="300" height="368" />
    <g>
        <path fill="#06A1F2" d="M788.246,183.229h216.522v129.154H788.246V183.229z" />
        <path opacity="0.6" fill="#1B3958" enable-background="new    " d="M788.246,276.986h216.522v35.397H788.246V276.986z" />
        <path fill="#6BB9E3" d="M807.239,286.553h119.657v16.263H807.239V286.553z M931.645,286.553h56.03v16.263h-56.03V286.553z" />
        <path fill="#126295" d="M941.141,293.251h37.037v2.868h-37.037V293.251z" />
        <path opacity="0.5" fill="#FFFFFF" enable-background="new    " d="M822.435,208.021c0,1.133-0.391,2.09-1.166,2.884
            c-0.775,0.79-1.717,1.185-2.822,1.185c-1.109,0-2.052-0.395-2.827-1.185c-0.775-0.792-1.163-1.751-1.163-2.882
            c0-1.12,0.388-2.089,1.163-2.868c0.775-0.778,1.718-1.177,2.827-1.177c1.105,0,2.052,0.399,2.822,1.196
            c0.775,0.794,1.166,1.748,1.166,2.884V208.021z M843.707,216.156v9.487h-29.251v-4.063l6.647-6.782l3.324,3.391l10.638-10.845
            L843.707,216.156z M845.701,201.247h-33.238c-0.183,0-0.338,0.067-0.468,0.202c-0.134,0.132-0.196,0.284-0.196,0.475v25.735
            c0,0.171,0.062,0.342,0.196,0.475c0.134,0.132,0.285,0.189,0.468,0.189h33.238c0.177,0,0.333-0.068,0.467-0.203
            c0.133-0.133,0.196-0.295,0.196-0.475v-25.72c0-0.185-0.066-0.342-0.196-0.475C846.034,201.318,845.878,201.247,845.701,201.247z
                M849.024,201.925v25.751c0,0.93-0.327,1.728-0.976,2.393c-0.652,0.665-1.436,0.995-2.348,0.995h-33.238
            c-0.917,0-1.699-0.332-2.349-0.995c-0.651-0.665-0.977-1.463-0.977-2.393v-25.751c0-0.931,0.323-1.729,0.977-2.394
            c0.649-0.664,1.432-0.995,2.349-0.995h33.238c0.912,0,1.695,0.333,2.348,0.995C848.697,200.196,849.024,200.994,849.024,201.925z
                M857.57,200.452h84.521v8.609H857.57V200.452z M857.57,214.802h113.011v3.826H857.57V214.802z M857.57,224.367h103.514v3.827
            H857.57V224.367z M807.239,243.501h179.486v3.827H807.239V243.501z M807.239,253.068h169.989v3.827H807.239V253.068z
                M807.239,262.635h179.486v3.827H807.239V262.635z" />
        <path opacity="0.5" fill="#004265" enable-background="new    " d="M987.675,200.452l3.646-4.942l-3.541-4.627h2.07l2.81,3.685
            l2.545-3.685h1.705l-3.324,4.854l3.617,4.715h-2.07l-2.887-3.79l-2.793,3.779" />
    </g>
    <polyline fill="#A4CA39" points="664.633,408.519 728.205,408.519 728.205,344.946 664.633,344.946 " />
    <g>
        <path fill="#353F49" d="M715.688,425.418l-19.875-49.253l49.248,19.855l-19.164,10.19" />
        <path fill="#353F49" d="M726.727,401.524l-5.535,5.553l16.406,16.393l5.531-5.549" />
        <path fill="#FFFFFF" d="M686.128,367.869l-6.34-6.346l1.404-1.382l6.334,6.331 M683.696,372.199l-8.279-3.438l0.738-1.808
            l8.289,3.426 M683.107,377.146l-8.975-0.006v-1.964h8.975 M676.165,385.387l-0.738-1.827l8.264-3.443l0.739,1.829 M681.163,392.211
            l-1.401-1.399l6.339-6.344l1.401,1.401 M688.397,396.583l-1.829-0.744l3.442-8.299l1.829,0.744 M694.795,397.84v-8.969h1.982v8.974
                M708.476,377.16h8.979v-1.973h-8.979 M707.905,372.211l-0.752-1.813l8.288-3.432l0.74,1.819 M705.46,367.891l-1.401-1.4
            l6.357-6.339l1.383,1.379 M701.559,364.817l-1.82-0.776l3.433-8.28l1.811,0.76 M694.783,363.452h1.982v-8.956h-1.982
                M689.998,364.817l-3.435-8.283l1.829-0.758l3.436,8.276" />
    </g>
</svg>