<svg version="1.1" id="Layer_1" xmlns="http://www.w3.org/2000/svg" xmlns:xlink="http://www.w3.org/1999/xlink" x="0px"
    y="0px" width="1024px" height="768px" viewBox="0 0 1024 768" enable-background="new 0 0 1024 768" xml:space="preserve">
    <rect x="1" y="-2" fill="#0D2234" width="1023" height="769" />
    <g opacity="0.1">
        <rect x="-0.5" y="-2.5" fill="none" stroke="#FFFFFF" stroke-miterlimit="10" width="1023" height="769" />
        <line fill="none" stroke="#FFFFFF" stroke-miterlimit="10" x1="4" y1="728.5" x2="1021" y2="728.5" />
        <line fill="none" stroke="#FFFFFF" stroke-miterlimit="10" x1="4" y1="691.5" x2="1021" y2="691.5" />
        <line fill="none" stroke="#FFFFFF" stroke-miterlimit="10" x1="4" y1="650.5" x2="1021" y2="650.5" />
        <line fill="none" stroke="#FFFFFF" stroke-miterlimit="10" x1="4" y1="624.5" x2="1021" y2="624.5" />
        <line fill="none" stroke="#FFFFFF" stroke-miterlimit="10" x1="4" y1="586.5" x2="1021" y2="586.5" />
        <line fill="none" stroke="#FFFFFF" stroke-miterlimit="10" x1="4" y1="545.5" x2="1021" y2="545.5" />
        <line fill="none" stroke="#FFFFFF" stroke-miterlimit="10" x1="4" y1="508.5" x2="1021" y2="508.5" />
        <line fill="none" stroke="#FFFFFF" stroke-miterlimit="10" x1="4" y1="471.5" x2="1021" y2="471.5" />
        <line fill="none" stroke="#FFFFFF" stroke-miterlimit="10" x1="4" y1="433.5" x2="1021" y2="433.5" />
        <line fill="none" stroke="#FFFFFF" stroke-miterlimit="10" x1="4" y1="396.5" x2="1021" y2="396.5" />
        <line fill="none" stroke="#FFFFFF" stroke-miterlimit="10" x1="4" y1="366.5" x2="1021" y2="366.5" />
        <line fill="none" stroke="#FFFFFF" stroke-miterlimit="10" x1="4" y1="329.5" x2="1021" y2="329.5" />
        <line fill="none" stroke="#FFFFFF" stroke-miterlimit="10" x1="4" y1="292.5" x2="1021" y2="292.5" />
        <line fill="none" stroke="#FFFFFF" stroke-miterlimit="10" x1="4" y1="251.5" x2="1021" y2="251.5" />
        <line fill="none" stroke="#FFFFFF" stroke-miterlimit="10" x1="4" y1="213.5" x2="1021" y2="213.5" />
        <line fill="none" stroke="#FFFFFF" stroke-miterlimit="10" x1="4" y1="176.5" x2="1021" y2="176.5" />
        <line fill="none" stroke="#FFFFFF" stroke-miterlimit="10" x1="4" y1="139.5" x2="1021" y2="139.5" />
        <line fill="none" stroke="#FFFFFF" stroke-miterlimit="10" x1="4" y1="109.5" x2="1021" y2="109.5" />
        <line fill="none" stroke="#FFFFFF" stroke-miterlimit="10" x1="4" y1="72.5" x2="1021" y2="72.5" />
        <line fill="none" stroke="#FFFFFF" stroke-miterlimit="10" x1="4" y1="34.5" x2="1021" y2="34.5" />
        <line fill="none" stroke="#FFFFFF" stroke-miterlimit="10" x1="977.5" y1="-1" x2="977.5" y2="760" />
        <line fill="none" stroke="#FFFFFF" stroke-miterlimit="10" x1="925.5" y1="-1" x2="925.5" y2="760" />
        <line fill="none" stroke="#FFFFFF" stroke-miterlimit="10" x1="877.5" y1="-1" x2="877.5" y2="760" />
        <line fill="none" stroke="#FFFFFF" stroke-miterlimit="10" x1="825.5" y1="-1" x2="825.5" y2="760" />
        <line fill="none" stroke="#FFFFFF" stroke-miterlimit="10" x1="780.5" y1="-1" x2="780.5" y2="760" />
        <line fill="none" stroke="#FFFFFF" stroke-miterlimit="10" x1="734.5" y1="-1" x2="734.5" y2="760" />
        <line fill="none" stroke="#FFFFFF" stroke-miterlimit="10" x1="682.5" y1="-1" x2="682.5" y2="760" />
        <line fill="none" stroke="#FFFFFF" stroke-miterlimit="10" x1="637.5" y1="-1" x2="637.5" y2="760" />
        <line fill="none" stroke="#FFFFFF" stroke-miterlimit="10" x1="585.5" y1="-1" x2="585.5" y2="760" />
        <line fill="none" stroke="#FFFFFF" stroke-miterlimit="10" x1="537.5" y1="-1" x2="537.5" y2="760" />
        <line fill="none" stroke="#FFFFFF" stroke-miterlimit="10" x1="491.5" y1="-1" x2="491.5" y2="760" />
        <line fill="none" stroke="#FFFFFF" stroke-miterlimit="10" x1="439.5" y1="-1" x2="439.5" y2="760" />
        <line fill="none" stroke="#FFFFFF" stroke-miterlimit="10" x1="394.5" y1="-1" x2="394.5" y2="760" />
        <line fill="none" stroke="#FFFFFF" stroke-miterlimit="10" x1="342.5" y1="-1" x2="342.5" y2="760" />
        <line fill="none" stroke="#FFFFFF" stroke-miterlimit="10" x1="294.5" y1="-1" x2="294.5" y2="760" />
        <line fill="none" stroke="#FFFFFF" stroke-miterlimit="10" x1="248.5" y1="-1" x2="248.5" y2="760" />
        <line fill="none" stroke="#FFFFFF" stroke-miterlimit="10" x1="197.5" y1="-1" x2="197.5" y2="760" />
        <line fill="none" stroke="#FFFFFF" stroke-miterlimit="10" x1="151.5" y1="-1" x2="151.5" y2="760" />
        <line fill="none" stroke="#FFFFFF" stroke-miterlimit="10" x1="99.5" y1="-1" x2="99.5" y2="760" />
        <line fill="none" stroke="#FFFFFF" stroke-miterlimit="10" x1="54.5" y1="-1" x2="54.5" y2="760" />
    </g>
    <text transform="matrix(1 0 0 1 197.3369 116.0674)">
        <tspan x="0" y="0" fill="#FFFFFF" font-family="Roboto" font-size="41.9282">More on Values: </tspan>
        <tspan x="311.861" y="0" fill="#F7BE2C" font-family="Roboto" font-size="41.9282">Null </tspan>
        <tspan x="397.601" y="0" fill="#FFFFFF" font-family="Roboto" font-size="41.9282">&amp; </tspan>
        <tspan x="434.042" y="0" fill="#F7BE2C" font-family="Roboto" font-size="41.9282">Undefined</tspan>
    </text>
    <rect x="197.5" y="176.5" fill="none" width="628" height="62.5" />
    <text transform="matrix(1 0 0 1 197.5 194.5)">
        <tspan x="0" y="0" fill="#FFFFFF" font-family="Roboto" font-size="24">Undefined </tspan>
        <tspan x="116.613" y="0" fill="#FFFFFF" font-family="Roboto" font-size="24">is the value that gets returned when
            we try to </tspan>
        <tspan x="0" y="30" fill="#FFFFFF" font-family="Roboto" font-size="24">access a variable with no assigned value:</tspan>
    </text>
    <rect x="197.5" y="379.5" fill="none" width="628" height="62.5" />
    <text transform="matrix(1 0 0 1 197.5 397.5)">
        <tspan x="0" y="0" fill="#FFFFFF" font-family="Roboto" font-size="24">Null </tspan>
        <tspan x="49.078" y="0" fill="#FFFFFF" font-family="Roboto" font-size="24">is a special object that can be
            assigned to a variable </tspan>
        <tspan x="0" y="30" fill="#FFFFFF" font-family="Roboto" font-size="24">and indicates the absence of a value.</tspan>
    </text>
    <text transform="matrix(1.0055 0 0 1 225.7505 292.5)">
        <tspan x="0" y="0" fill="#F9672E" font-family="Hack" font-size="26.1119">let</tspan>
        <tspan x="53.162" y="0" fill="#F7BE2C" font-family="Hack" font-size="26.1119"> numberList;</tspan>
        <tspan x="0" y="32.64" fill="#F9672E" font-family="Hack" font-size="26.1119">console.log( </tspan>
        <tspan x="204.369" y="32.64" fill="#F7BE2C" font-family="Hack" font-size="26.1119">numberList </tspan>
        <tspan x="377.297" y="32.64" fill="#F9672E" font-family="Hack" font-size="26.1119">); </tspan>
        <tspan x="424.459" y="32.64" fill="#CCCCCC" font-family="Hack" font-size="26.1119">“undefined”</tspan>
    </text>
    <text transform="matrix(1.0055 0 0 1 225.7505 496.5)">
        <tspan x="0" y="0" fill="#F9672E" font-family="Hack" font-size="26.1119">let</tspan>
        <tspan x="53.162" y="0" fill="#F7BE2C" font-family="Hack" font-size="26.1119"> emptyness = null;</tspan>
        <tspan x="0" y="32.64" fill="#F9672E" font-family="Hack" font-size="26.1119">console.log( </tspan>
        <tspan x="204.369" y="32.64" fill="#F7BE2C" font-family="Hack" font-size="26.1119">emptyness </tspan>
        <tspan x="361.576" y="32.64" fill="#F9672E" font-family="Hack" font-size="26.1119">); </tspan>
        <tspan x="408.738" y="32.64" fill="#CCCCCC" font-family="Hack" font-size="26.1119">null</tspan>
        <tspan x="0" y="65.28" fill="#F9672E" font-family="Hack" font-size="26.1119">console.log( typeof </tspan>
        <tspan x="314.414" y="65.28" fill="#F7BE2C" font-family="Hack" font-size="26.1119">emptyness </tspan>
        <tspan x="471.621" y="65.28" fill="#F9672E" font-family="Hack" font-size="26.1119">); </tspan>
        <tspan x="518.783" y="65.28" fill="#CCCCCC" font-family="Hack" font-size="26.1119">“object”</tspan>
    </text>
    <text transform="matrix(1 0 0 1 160.4658 680.0537)">
        <tspan x="0" y="0" fill="#FFFFFF" font-family="Hack" font-size="22">undefined is returned when we try to get the
            typeof</tspan>
        <tspan x="0" y="30" fill="#FFFFFF" font-family="Hack" font-size="22">an undeclared variable: typeof
            nonExistentVar</tspan>
    </text>
    <g>
        <circle fill="#FCEE21" cx="134.419" cy="671.11" r="14.61" />
        <text transform="matrix(1 0 0 1 131.1079 680.0537)" font-family="Roboto" font-size="24.7523">!</text>
    </g>
</svg>
