<svg version="1.1" id="Layer_1" xmlns="http://www.w3.org/2000/svg" xmlns:xlink="http://www.w3.org/1999/xlink" x="0px"
    y="0px" width="1024px" height="768px" viewBox="0 0 1024 768" enable-background="new 0 0 1024 768" xml:space="preserve">
    <rect x="1" y="-2" fill="#0D2234" width="1023" height="769" />
    <g opacity="0.1">
        <rect x="-0.5" y="-2.5" fill="none" stroke="#FFFFFF" stroke-miterlimit="10" width="1023" height="769" />
        <line fill="none" stroke="#FFFFFF" stroke-miterlimit="10" x1="4" y1="728.5" x2="1021" y2="728.5" />
        <line fill="none" stroke="#FFFFFF" stroke-miterlimit="10" x1="4" y1="691.5" x2="1021" y2="691.5" />
        <line fill="none" stroke="#FFFFFF" stroke-miterlimit="10" x1="4" y1="650.5" x2="1021" y2="650.5" />
        <line fill="none" stroke="#FFFFFF" stroke-miterlimit="10" x1="4" y1="624.5" x2="1021" y2="624.5" />
        <line fill="none" stroke="#FFFFFF" stroke-miterlimit="10" x1="4" y1="586.5" x2="1021" y2="586.5" />
        <line fill="none" stroke="#FFFFFF" stroke-miterlimit="10" x1="4" y1="545.5" x2="1021" y2="545.5" />
        <line fill="none" stroke="#FFFFFF" stroke-miterlimit="10" x1="4" y1="508.5" x2="1021" y2="508.5" />
        <line fill="none" stroke="#FFFFFF" stroke-miterlimit="10" x1="4" y1="471.5" x2="1021" y2="471.5" />
        <line fill="none" stroke="#FFFFFF" stroke-miterlimit="10" x1="4" y1="433.5" x2="1021" y2="433.5" />
        <line fill="none" stroke="#FFFFFF" stroke-miterlimit="10" x1="4" y1="396.5" x2="1021" y2="396.5" />
        <line fill="none" stroke="#FFFFFF" stroke-miterlimit="10" x1="4" y1="366.5" x2="1021" y2="366.5" />
        <line fill="none" stroke="#FFFFFF" stroke-miterlimit="10" x1="4" y1="329.5" x2="1021" y2="329.5" />
        <line fill="none" stroke="#FFFFFF" stroke-miterlimit="10" x1="4" y1="292.5" x2="1021" y2="292.5" />
        <line fill="none" stroke="#FFFFFF" stroke-miterlimit="10" x1="4" y1="251.5" x2="1021" y2="251.5" />
        <line fill="none" stroke="#FFFFFF" stroke-miterlimit="10" x1="4" y1="213.5" x2="1021" y2="213.5" />
        <line fill="none" stroke="#FFFFFF" stroke-miterlimit="10" x1="4" y1="176.5" x2="1021" y2="176.5" />
        <line fill="none" stroke="#FFFFFF" stroke-miterlimit="10" x1="4" y1="139.5" x2="1021" y2="139.5" />
        <line fill="none" stroke="#FFFFFF" stroke-miterlimit="10" x1="4" y1="109.5" x2="1021" y2="109.5" />
        <line fill="none" stroke="#FFFFFF" stroke-miterlimit="10" x1="4" y1="72.5" x2="1021" y2="72.5" />
        <line fill="none" stroke="#FFFFFF" stroke-miterlimit="10" x1="4" y1="34.5" x2="1021" y2="34.5" />
        <line fill="none" stroke="#FFFFFF" stroke-miterlimit="10" x1="977.5" y1="-1" x2="977.5" y2="760" />
        <line fill="none" stroke="#FFFFFF" stroke-miterlimit="10" x1="925.5" y1="-1" x2="925.5" y2="760" />
        <line fill="none" stroke="#FFFFFF" stroke-miterlimit="10" x1="877.5" y1="-1" x2="877.5" y2="760" />
        <line fill="none" stroke="#FFFFFF" stroke-miterlimit="10" x1="825.5" y1="-1" x2="825.5" y2="760" />
        <line fill="none" stroke="#FFFFFF" stroke-miterlimit="10" x1="780.5" y1="-1" x2="780.5" y2="760" />
        <line fill="none" stroke="#FFFFFF" stroke-miterlimit="10" x1="734.5" y1="-1" x2="734.5" y2="760" />
        <line fill="none" stroke="#FFFFFF" stroke-miterlimit="10" x1="682.5" y1="-1" x2="682.5" y2="760" />
        <line fill="none" stroke="#FFFFFF" stroke-miterlimit="10" x1="637.5" y1="-1" x2="637.5" y2="760" />
        <line fill="none" stroke="#FFFFFF" stroke-miterlimit="10" x1="585.5" y1="-1" x2="585.5" y2="760" />
        <line fill="none" stroke="#FFFFFF" stroke-miterlimit="10" x1="537.5" y1="-1" x2="537.5" y2="760" />
        <line fill="none" stroke="#FFFFFF" stroke-miterlimit="10" x1="491.5" y1="-1" x2="491.5" y2="760" />
        <line fill="none" stroke="#FFFFFF" stroke-miterlimit="10" x1="439.5" y1="-1" x2="439.5" y2="760" />
        <line fill="none" stroke="#FFFFFF" stroke-miterlimit="10" x1="394.5" y1="-1" x2="394.5" y2="760" />
        <line fill="none" stroke="#FFFFFF" stroke-miterlimit="10" x1="342.5" y1="-1" x2="342.5" y2="760" />
        <line fill="none" stroke="#FFFFFF" stroke-miterlimit="10" x1="294.5" y1="-1" x2="294.5" y2="760" />
        <line fill="none" stroke="#FFFFFF" stroke-miterlimit="10" x1="248.5" y1="-1" x2="248.5" y2="760" />
        <line fill="none" stroke="#FFFFFF" stroke-miterlimit="10" x1="197.5" y1="-1" x2="197.5" y2="760" />
        <line fill="none" stroke="#FFFFFF" stroke-miterlimit="10" x1="151.5" y1="-1" x2="151.5" y2="760" />
        <line fill="none" stroke="#FFFFFF" stroke-miterlimit="10" x1="99.5" y1="-1" x2="99.5" y2="760" />
        <line fill="none" stroke="#FFFFFF" stroke-miterlimit="10" x1="54.5" y1="-1" x2="54.5" y2="760" />
    </g>
    <text transform="matrix(1 0 0 1 228.9165 86.0674)">
        <tspan x="0" y="0" fill="#FFFFFF" font-family="'Roboto'" font-size="41.9282">Storing values using </tspan>
        <tspan x="386.443" y="0" fill="#F7BE2C" font-family="'Roboto'" font-size="41.9282">Variables</tspan>
    </text>
    <rect x="217.806" y="125.25" fill="none" width="619.5" height="152.5" />
    <text transform="matrix(1 0 0 1 217.8057 143.25)">
        <tspan x="0" y="0" fill="#FFFFFF" font-family="'Roboto'" font-size="24">Values </tspan>
        <tspan x="79.641" y="0" fill="#FFFFFF" font-family="'Roboto'" font-size="24">can be stored in memory and accessed
            at any </tspan>
        <tspan x="0" y="30" fill="#FFFFFF" font-family="'Roboto'" font-size="24">point during the execution of our
            program using </tspan>
        <tspan x="512.637" y="30" fill="#FFFFFF" font-family="'Roboto'" font-size="24">Vari</tspan>
        <tspan x="556.312" y="30" fill="#FFFFFF" font-family="'Roboto'" font-size="24">-</tspan>
        <tspan x="0" y="60" fill="#FFFFFF" font-family="'Roboto'" font-size="24">ables</tspan>
        <tspan x="58.055" y="60" fill="#FFFFFF" font-family="'Roboto'" font-size="24">.</tspan>
        <tspan x="0" y="90" fill="#FFFFFF" font-family="'Roboto'" font-size="24">We use the </tspan>
        <tspan x="123.926" y="90" fill="#FFFFFF" font-family="'Roboto'" font-size="24">let </tspan>
        <tspan x="157.348" y="90" fill="#FFFFFF" font-family="'Roboto'" font-size="24">and </tspan>
        <tspan x="203.121" y="90" fill="#FFFFFF" font-family="'Roboto'" font-size="24">const </tspan>
        <tspan x="269.074" y="90" fill="#FFFFFF" font-family="'Roboto'" font-size="24">keywords to declare a variable’s
        </tspan>
        <tspan x="0" y="120" fill="#FFFFFF" font-family="'Roboto'" font-size="24">name and the assignment ( = ) </tspan>
        <tspan x="330.129" y="120" fill="#FFFFFF" font-family="'Roboto'" font-size="24">Operator </tspan>
        <tspan x="431.215" y="120" fill="#FFFFFF" font-family="'Roboto'" font-size="24">to assign a value </tspan>
    </text>
    <rect x="217.806" y="482.5" fill="none" width="619.5" height="63" />
    <text transform="matrix(1 0 0 1 217.8057 500.5)">
        <tspan x="0" y="0" fill="#FFFFFF" font-family="'Roboto'" font-size="24">Values </tspan>
        <tspan x="79.641" y="0" fill="#FFFFFF" font-family="'Roboto'" font-size="24">stored in</tspan>
        <tspan x="172.922" y="0" fill="#FFFFFF" font-family="'Roboto'" font-size="24"> Variables </tspan>
        <tspan x="286.605" y="0" fill="#FFFFFF" font-family="'Roboto'" font-size="24">can be accessed, just by call</tspan>
        <tspan x="589.219" y="0" fill="#FFFFFF" font-family="'Roboto'" font-size="24">-</tspan>
        <tspan x="0" y="30" fill="#FFFFFF" font-family="'Roboto'" font-size="24">ing their names:</tspan>
    </text>
    <text transform="matrix(1 0 0 1 217.8057 327.5)">
        <tspan x="0" y="0" fill="#F9672E" font-family="'Hack'" font-size="24">let</tspan>
        <tspan x="47.162" y="0" fill="#F7BE2C" font-family="'Hack'" font-size="24"> someName </tspan>
        <tspan x="204.369" y="0" fill="#CCCCCC" font-family="'Hack'" font-size="24">= “Name”;</tspan>
        <tspan x="0" y="32.64" fill="#F9672E" font-family="'Hack'" font-size="24">let</tspan>
        <tspan x="47.162" y="32.64" fill="#F7BE2C" font-family="'Hack'" font-size="24"> someDate;</tspan>
        <tspan x="0" y="65.28" fill="#F7BE2C" font-family="'Hack'" font-size="24">someDate</tspan>
        <tspan x="130.207" y="65.28" fill="#CCCCCC" font-family="'Hack'" font-size="24">= 2018;</tspan>
        <tspan x="0" y="97.92" fill="#F9672E" font-family="'Hack'" font-size="24">const</tspan>
        <tspan x="78.604" y="97.92" fill="#F7BE2C" font-family="'Hack'" font-size="24"> dateOfBirth </tspan>
        <tspan x="282.973" y="97.92" fill="#CCCCCC" font-family="'Hack'" font-size="24">= 1995;</tspan>
    </text>
    <text transform="matrix(1 0 0 1 217.8057 596.5)">
        <tspan x="0" y="0" fill="#F7BE2C" font-family="'Hack'" font-size="24">someName;</tspan>
        <tspan x="141.486" y="0" fill="#F7BE2C" font-family="'Hack'" font-size="24"> </tspan>
        <tspan x="156.672" y="0" fill="#F7BE2C" font-family="'Hack'" font-size="24" letter-spacing="23"> </tspan>
        <tspan x="313.343" y="0" fill="#E6E6E6" font-family="'Hack'" font-size="24">Returns:</tspan>
        <tspan x="439.108" y="0" fill="#F7BE2C" font-family="'Hack'" font-size="24"> “Name”</tspan>
        <tspan x="0" y="32.64" fill="#F7BE2C" font-family="'Hack'" font-size="24">someDate;</tspan>
        <tspan x="141.486" y="32.64" fill="#F7BE2C" font-family="'Hack'" font-size="24"> </tspan>
        <tspan x="156.672" y="32.64" fill="#F7BE2C" font-family="'Hack'" font-size="24" letter-spacing="23"> </tspan>
        <tspan x="313.343" y="32.64" fill="#E6E6E6" font-family="'Hack'" font-size="24">Returns:</tspan>
        <tspan x="439.108" y="32.64" fill="#F7BE2C" font-family="'Hack'" font-size="24"> 2018</tspan>
        <tspan x="0" y="65.28" fill="#F7BE2C" font-family="'Hack'" font-size="24">dateOfBirth; </tspan>
        <tspan x="204.369" y="65.28" fill="#F7BE2C" font-family="'Hack'" font-size="24" letter-spacing="14"> </tspan>
        <tspan x="235.007" y="65.28" fill="#F7BE2C" font-family="'Hack'" font-size="24" letter-spacing="23"> </tspan>
        <tspan x="313.343" y="65.28" fill="#E6E6E6" font-family="'Hack'" font-size="24">Returns:</tspan>
        <tspan x="439.108" y="65.28" fill="#F7BE2C" font-family="'Hack'" font-size="24"> 1995</tspan>
    </text>
</svg>
