<svg version="1.1" id="Layer_1" xmlns="http://www.w3.org/2000/svg" xmlns:xlink="http://www.w3.org/1999/xlink" x="0px"
    y="0px" width="1024px" height="768px" viewBox="0 0 1024 768" enable-background="new 0 0 1024 768" xml:space="preserve">
    <rect x="1" y="-2" fill="#0D2234" width="1023" height="769" />
    <g opacity="0.1">
        <rect x="-0.5" y="-2.5" fill="none" stroke="#FFFFFF" stroke-miterlimit="10" width="1023" height="769" />
        <line fill="none" stroke="#FFFFFF" stroke-miterlimit="10" x1="4" y1="728.5" x2="1021" y2="728.5" />
        <line fill="none" stroke="#FFFFFF" stroke-miterlimit="10" x1="4" y1="691.5" x2="1021" y2="691.5" />
        <line fill="none" stroke="#FFFFFF" stroke-miterlimit="10" x1="4" y1="650.5" x2="1021" y2="650.5" />
        <line fill="none" stroke="#FFFFFF" stroke-miterlimit="10" x1="4" y1="624.5" x2="1021" y2="624.5" />
        <line fill="none" stroke="#FFFFFF" stroke-miterlimit="10" x1="4" y1="586.5" x2="1021" y2="586.5" />
        <line fill="none" stroke="#FFFFFF" stroke-miterlimit="10" x1="4" y1="545.5" x2="1021" y2="545.5" />
        <line fill="none" stroke="#FFFFFF" stroke-miterlimit="10" x1="4" y1="508.5" x2="1021" y2="508.5" />
        <line fill="none" stroke="#FFFFFF" stroke-miterlimit="10" x1="4" y1="471.5" x2="1021" y2="471.5" />
        <line fill="none" stroke="#FFFFFF" stroke-miterlimit="10" x1="4" y1="433.5" x2="1021" y2="433.5" />
        <line fill="none" stroke="#FFFFFF" stroke-miterlimit="10" x1="4" y1="396.5" x2="1021" y2="396.5" />
        <line fill="none" stroke="#FFFFFF" stroke-miterlimit="10" x1="4" y1="366.5" x2="1021" y2="366.5" />
        <line fill="none" stroke="#FFFFFF" stroke-miterlimit="10" x1="4" y1="329.5" x2="1021" y2="329.5" />
        <line fill="none" stroke="#FFFFFF" stroke-miterlimit="10" x1="4" y1="292.5" x2="1021" y2="292.5" />
        <line fill="none" stroke="#FFFFFF" stroke-miterlimit="10" x1="4" y1="251.5" x2="1021" y2="251.5" />
        <line fill="none" stroke="#FFFFFF" stroke-miterlimit="10" x1="4" y1="213.5" x2="1021" y2="213.5" />
        <line fill="none" stroke="#FFFFFF" stroke-miterlimit="10" x1="4" y1="176.5" x2="1021" y2="176.5" />
        <line fill="none" stroke="#FFFFFF" stroke-miterlimit="10" x1="4" y1="139.5" x2="1021" y2="139.5" />
        <line fill="none" stroke="#FFFFFF" stroke-miterlimit="10" x1="4" y1="109.5" x2="1021" y2="109.5" />
        <line fill="none" stroke="#FFFFFF" stroke-miterlimit="10" x1="4" y1="72.5" x2="1021" y2="72.5" />
        <line fill="none" stroke="#FFFFFF" stroke-miterlimit="10" x1="4" y1="34.5" x2="1021" y2="34.5" />
        <line fill="none" stroke="#FFFFFF" stroke-miterlimit="10" x1="977.5" y1="-1" x2="977.5" y2="760" />
        <line fill="none" stroke="#FFFFFF" stroke-miterlimit="10" x1="925.5" y1="-1" x2="925.5" y2="760" />
        <line fill="none" stroke="#FFFFFF" stroke-miterlimit="10" x1="877.5" y1="-1" x2="877.5" y2="760" />
        <line fill="none" stroke="#FFFFFF" stroke-miterlimit="10" x1="825.5" y1="-1" x2="825.5" y2="760" />
        <line fill="none" stroke="#FFFFFF" stroke-miterlimit="10" x1="780.5" y1="-1" x2="780.5" y2="760" />
        <line fill="none" stroke="#FFFFFF" stroke-miterlimit="10" x1="734.5" y1="-1" x2="734.5" y2="760" />
        <line fill="none" stroke="#FFFFFF" stroke-miterlimit="10" x1="682.5" y1="-1" x2="682.5" y2="760" />
        <line fill="none" stroke="#FFFFFF" stroke-miterlimit="10" x1="637.5" y1="-1" x2="637.5" y2="760" />
        <line fill="none" stroke="#FFFFFF" stroke-miterlimit="10" x1="585.5" y1="-1" x2="585.5" y2="760" />
        <line fill="none" stroke="#FFFFFF" stroke-miterlimit="10" x1="537.5" y1="-1" x2="537.5" y2="760" />
        <line fill="none" stroke="#FFFFFF" stroke-miterlimit="10" x1="491.5" y1="-1" x2="491.5" y2="760" />
        <line fill="none" stroke="#FFFFFF" stroke-miterlimit="10" x1="439.5" y1="-1" x2="439.5" y2="760" />
        <line fill="none" stroke="#FFFFFF" stroke-miterlimit="10" x1="394.5" y1="-1" x2="394.5" y2="760" />
        <line fill="none" stroke="#FFFFFF" stroke-miterlimit="10" x1="342.5" y1="-1" x2="342.5" y2="760" />
        <line fill="none" stroke="#FFFFFF" stroke-miterlimit="10" x1="294.5" y1="-1" x2="294.5" y2="760" />
        <line fill="none" stroke="#FFFFFF" stroke-miterlimit="10" x1="248.5" y1="-1" x2="248.5" y2="760" />
        <line fill="none" stroke="#FFFFFF" stroke-miterlimit="10" x1="197.5" y1="-1" x2="197.5" y2="760" />
        <line fill="none" stroke="#FFFFFF" stroke-miterlimit="10" x1="151.5" y1="-1" x2="151.5" y2="760" />
        <line fill="none" stroke="#FFFFFF" stroke-miterlimit="10" x1="99.5" y1="-1" x2="99.5" y2="760" />
        <line fill="none" stroke="#FFFFFF" stroke-miterlimit="10" x1="54.5" y1="-1" x2="54.5" y2="760" />
    </g>
    <text transform="matrix(1 0 0 1 228.9165 116.0674)">
        <tspan x="0" y="0" fill="#FFFFFF" font-family="'Roboto'" font-size="41.9282">Storing values using </tspan>
        <tspan x="386.443" y="0" fill="#F7BE2C" font-family="'Roboto'" font-size="41.9282">Variables</tspan>
    </text>
    <rect x="210" y="165.25" fill="none" width="627.306" height="152.5" />
    <text transform="matrix(1 0 0 1 210 183.25)">
        <tspan x="0" y="0" fill="#FFFFFF" font-family="'Roboto'" font-size="24">The values of </tspan>
        <tspan x="148.922" y="0" fill="#FFFFFF" font-family="'Roboto'" font-size="24">Variables </tspan>
        <tspan x="256.629" y="0" fill="#FFFFFF" font-family="'Roboto'" font-size="24">declared with the</tspan>
        <tspan x="439.266" y="0" fill="#FFFFFF" font-family="'Roboto'" font-size="24"> let </tspan>
        <tspan x="478.664" y="0" fill="#FFFFFF" font-family="'Roboto'" font-size="24">keyword can </tspan>
        <tspan x="0" y="30" fill="#FFFFFF" font-family="'Roboto'" font-size="24">be changed (re-assigned) at any point in
            the program. The </tspan>
        <tspan x="0" y="60" fill="#FFFFFF" font-family="'Roboto'" font-size="24">value of variables declared with the
        </tspan>
        <tspan x="380.93" y="60" fill="#FFFFFF" font-family="'Roboto'" font-size="24">const </tspan>
        <tspan x="446.883" y="60" fill="#FFFFFF" font-family="'Roboto'" font-size="24">keyword is as</tspan>
        <tspan x="592.008" y="60" fill="#FFFFFF" font-family="'Roboto'" font-size="24">-</tspan>
        <tspan x="0" y="90" fill="#FFFFFF" font-family="'Roboto'" font-size="24">signed once during its declaration, and
            cannot be changed.</tspan>
    </text>
    <text transform="matrix(1 0 0 1 217.8057 337.5)">
        <tspan x="0" y="0" fill="#F9672E" font-family="'Hack'" font-size="24">let</tspan>
        <tspan x="47.162" y="0" fill="#F7BE2C" font-family="'Hack'" font-size="24"> someName </tspan>
        <tspan x="204.369" y="0" fill="#CCCCCC" font-family="'Hack'" font-size="24">= “Name”;</tspan>
        <tspan x="0" y="32.64" fill="#F9672E" font-family="'Hack'" font-size="24">let</tspan>
        <tspan x="47.162" y="32.64" fill="#F7BE2C" font-family="'Hack'" font-size="24"> someDate </tspan>
        <tspan x="204.369" y="32.64" fill="#CCCCCC" font-family="'Hack'" font-size="24">= 2018;</tspan>
        <tspan x="0" y="65.28" fill="#F9672E" font-family="'Hack'" font-size="24">const</tspan>
        <tspan x="78.604" y="65.28" fill="#F7BE2C" font-family="'Hack'" font-size="24"> dateOfBirth </tspan>
        <tspan x="282.973" y="65.28" fill="#CCCCCC" font-family="'Hack'" font-size="24">= 1995;</tspan>
        <tspan x="0" y="130.56" fill="#F7BE2C" font-family="'Hack'" font-size="24">someName </tspan>
        <tspan x="141.486" y="130.56" fill="#CCCCCC" font-family="'Hack'" font-size="24">= “Other Name”;</tspan>
        <tspan x="0" y="195.84" fill="#F7BE2C" font-family="'Hack'" font-size="24">dateOfBirth </tspan>
        <tspan x="188.648" y="195.84" fill="#CCCCCC" font-family="'Hack'" font-size="24">= 2018;</tspan>
        <tspan x="0" y="228.479" fill="#ED1C24" font-family="'Hack'" font-size="24">Uncaught TypeError: Assignment to
            constant variable</tspan>
    </text>
    <text transform="matrix(1 0 0 1 160.4658 716.0537)" fill="#FFFFFF" font-family="'Hack'" font-size="22">Before ES6
        all variables were declared with the var keyword.</text>
    <g>
        <circle fill="#FCEE21" cx="134.419" cy="707.11" r="14.61" />
        <text transform="matrix(1 0 0 1 131.1079 716.0537)" font-family="'Roboto'" font-size="24.7523">!</text>
    </g>
</svg>
