<svg version="1.1" id="Layer_1" xmlns="http://www.w3.org/2000/svg" xmlns:xlink="http://www.w3.org/1999/xlink" x="0px"
    y="0px" width="1024px" height="768px" viewBox="0 0 1024 768" enable-background="new 0 0 1024 768" xml:space="preserve">
    <text transform="matrix(1 0 0 1 249.8467 108.0674)">
        <tspan x="0" y="0" fill="#FFFFFF" font-family="'Roboto'" font-size="41.9282">The </tspan>
        <tspan x="80.704" y="0" fill="#FFFFFF" font-family="'Roboto'" font-size="41.9282">World Wide Web</tspan>
        <tspan x="389.003" y="0" fill="#FFFFFF" font-family="'Roboto'" font-size="41.9282"> (www)</tspan>
    </text>
    <text transform="matrix(1 0 0 1 183.7354 361.5244)" fill="#FFFFFF" font-family="'Roboto-Light'" font-size="41.9282">HTML</text>
    <text transform="matrix(1 0 0 1 466.3799 361.5244)" fill="#FFFFFF" font-family="'Roboto-Light'" font-size="41.9282">CSS</text>
    <text transform="matrix(1 0 0 1 650.9805 361.5244)" fill="#FFFFFF" font-family="'Roboto-Light'" font-size="41.9282">JAVASCRIPT</text>
    <g>
        <path fill="#F9672E" d="M328.342,451.69c-1.244-3.744-6.869-6.695-14.36-7.318l-20.898-10.517
            c-1.245-3.745-7.076-6.696-14.567-7.318l-2.903-1.468l-2.919,1.468c-7.493,0.622-13.384,3.573-14.629,7.318l-21.03,10.517
            c-7.492,0.623-13.389,3.574-14.633,7.318l-21.035,10.52c-7.49,0.621-13.388,3.57-14.633,7.316l-21.038,10.518
            c-7.491,0.623-13.319,3.571-14.563,7.318L134,495.964v52.613l69.829,35.224L345,512.907v-52.613L328.342,451.69z" />
        <ellipse opacity="0.08" enable-background="new    " cx="275.647" cy="470.995" rx="17.834" ry="8.918" />
        <ellipse opacity="0.08" enable-background="new    " cx="311.316" cy="453.16" rx="17.836" ry="8.917" />
        <polygon opacity="0.2" enable-background="new    " points="346.095,512.907 204.306,583.801 204.306,531.188 346.095,460.294 	" />
        <polygon opacity="0.11" enable-background="new    " points="133.858,548.577 204.306,583.801 204.306,531.188 133.858,495.964 	
            " />
        <ellipse opacity="0.08" enable-background="new    " cx="204.306" cy="506.665" rx="17.835" ry="8.918" />
        <ellipse opacity="0.08" enable-background="new    " cx="239.976" cy="488.83" rx="17.835" ry="8.917" />
        <ellipse opacity="0.08" enable-background="new    " cx="275.647" cy="435.325" rx="17.834" ry="8.917" />
        <ellipse opacity="0.08" enable-background="new    " cx="239.976" cy="453.16" rx="17.835" ry="8.917" />
        <ellipse opacity="0.08" enable-background="new    " cx="204.306" cy="470.995" rx="17.835" ry="8.918" />
        <ellipse opacity="0.08" enable-background="new    " cx="168.636" cy="488.83" rx="17.836" ry="8.917" />
        <path opacity="0.2" enable-background="new    " d="M239.5,497.747c-9.851,0-17.5-3.992-17.5-8.918v6.688
            c0,4.905,7.69,8.917,17.5,8.917s17.5-4.012,17.5-8.917v-6.688C257,493.755,249.349,497.747,239.5,497.747z" />
        <path opacity="0.2" enable-background="new    " d="M275.5,479.873c-9.851,0-18.5-3.992-18.5-8.917v6.688
            c0,4.905,8.69,8.918,18.5,8.918s18.5-4.013,18.5-8.918v-6.688C294,475.881,285.349,479.873,275.5,479.873z" />
        <path opacity="0.2" enable-background="new    " d="M312,461.999c-9.851,0-18-3.992-18-8.917v6.688c0,4.904,8.19,8.918,18,8.918
            s18-4.014,18-8.918v-6.688C330,458.007,321.849,461.999,312,461.999z" />
        <path opacity="0.2" enable-background="new    " d="M275.5,444.126c-9.851,0-18.5-3.992-18.5-8.918v6.689
            c0,4.904,8.69,8.917,18.5,8.917s18.5-4.013,18.5-8.917v-6.689C294,440.134,285.349,444.126,275.5,444.126z" />
        <path opacity="0.2" enable-background="new    " d="M204,479.873c-9.851,0-18-3.992-18-8.917v6.688c0,4.905,8.19,8.918,18,8.918
            s18-4.013,18-8.918v-6.688C222,475.881,213.85,479.873,204,479.873z" />
        <path opacity="0.2" enable-background="new    " d="M239.5,461.999c-9.851,0-17.5-3.992-17.5-8.917v6.688
            c0,4.904,7.69,8.918,17.5,8.918s17.5-4.014,17.5-8.918v-6.688C257,458.007,249.349,461.999,239.5,461.999z" />
        <path opacity="0.2" enable-background="new    " d="M168.5,497.747c-9.851,0-17.5-3.992-17.5-8.918v6.688
            c0,4.905,7.69,8.917,17.5,8.917s17.5-4.012,17.5-8.917v-6.688C186,493.755,178.35,497.747,168.5,497.747z" />
        <path opacity="0.2" enable-background="new    " d="M204,515.62c-9.851,0-18-3.992-18-8.918v6.689c0,4.904,8.19,8.917,18,8.917
            s18-4.013,18-8.917v-6.689C222,511.628,213.85,515.62,204,515.62z" />
    </g>
    <g>
        <path fill="#00ABDD" d="M593.266,451.69c-1.244-3.744-6.906-6.695-14.396-7.318l-20.917-10.517
            c-1.246-3.745-7.086-6.696-14.578-7.318l-2.907-1.468l-2.921,1.468c-7.494,0.622-13.385,3.573-14.631,7.318l-21.03,10.517
            c-7.492,0.623-13.39,3.574-14.634,7.318l-21.036,10.52c-7.489,0.621-13.386,3.57-14.631,7.316l-21.037,10.518
            c-7.492,0.623-13.245,3.571-14.489,7.318L399,495.964v52.613l69.83,35.224L610,512.907v-52.613L593.266,451.69z" />
        <ellipse opacity="0.08" enable-background="new    " cx="540.498" cy="470.995" rx="17.836" ry="8.918" />
        <ellipse opacity="0.08" enable-background="new    " cx="576.168" cy="453.16" rx="17.835" ry="8.917" />
        <polygon opacity="0.2" enable-background="new    " points="610.946,512.907 469.158,583.801 469.158,531.188 610.946,460.294 	" />
        <polygon opacity="0.11" enable-background="new    " points="398.709,548.577 469.158,583.801 469.158,531.188 398.709,495.964 	
            " />
        <ellipse opacity="0.08" enable-background="new    " cx="469.158" cy="506.665" rx="17.835" ry="8.918" />
        <ellipse opacity="0.08" enable-background="new    " cx="504.828" cy="488.83" rx="17.835" ry="8.917" />
        <ellipse opacity="0.08" enable-background="new    " cx="540.498" cy="435.325" rx="17.836" ry="8.917" />
        <ellipse opacity="0.08" enable-background="new    " cx="504.828" cy="453.16" rx="17.835" ry="8.917" />
        <ellipse opacity="0.08" enable-background="new    " cx="469.158" cy="470.995" rx="17.835" ry="8.918" />
        <ellipse opacity="0.08" enable-background="new    " cx="433.488" cy="488.83" rx="17.835" ry="8.917" />
        <path opacity="0.2" enable-background="new    " d="M505,497.747c-9.851,0-18-3.992-18-8.918v6.688c0,4.905,8.19,8.917,18,8.917
            s18-4.012,18-8.917v-6.688C523,493.755,514.85,497.747,505,497.747z" />
        <path opacity="0.2" enable-background="new    " d="M540.5,479.873c-9.85,0-17.5-3.992-17.5-8.917v6.688
            c0,4.905,7.69,8.918,17.5,8.918s17.5-4.013,17.5-8.918v-6.688C558,475.881,550.35,479.873,540.5,479.873z" />
        <path opacity="0.2" enable-background="new    " d="M576,461.999c-9.85,0-18-3.992-18-8.917v6.688c0,4.904,8.191,8.918,18,8.918
            c9.81,0,18-4.014,18-8.918v-6.688C594,458.007,585.85,461.999,576,461.999z" />
        <path opacity="0.2" enable-background="new    " d="M540.5,444.126c-9.85,0-17.5-3.992-17.5-8.918v6.689
            c0,4.904,7.69,8.917,17.5,8.917s17.5-4.013,17.5-8.917v-6.689C558,440.134,550.35,444.126,540.5,444.126z" />
        <path opacity="0.2" enable-background="new    " d="M469,479.873c-9.851,0-18-3.992-18-8.917v6.688c0,4.905,8.19,8.918,18,8.918
            s18-4.013,18-8.918v-6.688C487,475.881,478.85,479.873,469,479.873z" />
        <path opacity="0.2" enable-background="new    " d="M505,461.999c-9.851,0-18-3.992-18-8.917v6.688c0,4.904,8.19,8.918,18,8.918
            s18-4.014,18-8.918v-6.688C523,458.007,514.85,461.999,505,461.999z" />
        <path opacity="0.2" enable-background="new    " d="M433.5,497.747c-9.851,0-17.5-3.992-17.5-8.918v6.688
            c0,4.905,7.691,8.917,17.5,8.917c9.809,0,17.5-4.012,17.5-8.917v-6.688C451,493.755,443.35,497.747,433.5,497.747z" />
        <path opacity="0.2" enable-background="new    " d="M469,515.62c-9.851,0-18-3.992-18-8.918v6.689c0,4.904,8.19,8.917,18,8.917
            s18-4.013,18-8.917v-6.689C487,511.628,478.85,515.62,469,515.62z" />
    </g>
    <g>
        <path fill="#F7BE2C" d="M858.195,451.69c-1.246-3.744-6.944-6.695-14.436-7.318l-20.934-10.517
            c-1.244-3.745-7.097-6.696-14.587-7.318l-2.912-1.468l-2.924,1.468c-7.494,0.622-13.387,3.573-14.631,7.318l-21.032,10.517
            c-7.49,0.623-13.389,3.574-14.633,7.318l-21.034,10.52c-7.49,0.621-13.39,3.57-14.634,7.316l-21.037,10.518
            c-7.492,0.623-13.173,3.571-14.417,7.318L664,495.964v52.613l69.829,35.224L875,512.907v-52.613L858.195,451.69z" />
        <ellipse opacity="0.08" enable-background="new    " cx="805.354" cy="470.995" rx="17.834" ry="8.918" />
        <ellipse opacity="0.08" enable-background="new    " cx="841.021" cy="453.16" rx="17.835" ry="8.917" />
        <polygon opacity="0.2" enable-background="new    " points="875.8,512.907 734.011,583.801 734.011,531.188 875.8,460.294 	" />
        <polygon opacity="0.11" enable-background="new    " points="663.563,548.577 734.011,583.801 734.011,531.188 663.563,495.964 	
            " />
        <ellipse opacity="0.08" enable-background="new    " cx="734.011" cy="506.665" rx="17.836" ry="8.918" />
        <ellipse opacity="0.08" enable-background="new    " cx="769.683" cy="488.83" rx="17.835" ry="8.917" />
        <ellipse opacity="0.08" enable-background="new    " cx="805.354" cy="435.325" rx="17.834" ry="8.917" />
        <ellipse opacity="0.08" enable-background="new    " cx="769.683" cy="453.16" rx="17.835" ry="8.917" />
        <ellipse opacity="0.08" enable-background="new    " cx="734.011" cy="470.995" rx="17.836" ry="8.918" />
        <ellipse opacity="0.08" enable-background="new    " cx="698.341" cy="488.83" rx="17.835" ry="8.917" />
        <path opacity="0.2" enable-background="new    " d="M769.5,497.747c-9.85,0-17.5-3.992-17.5-8.918v6.688
            c0,4.905,7.691,8.917,17.5,8.917c9.811,0,17.5-4.012,17.5-8.917v-6.688C787,493.755,779.35,497.747,769.5,497.747z" />
        <path opacity="0.2" enable-background="new    " d="M805,479.873c-9.85,0-18-3.992-18-8.917v6.688c0,4.905,8.19,8.918,18,8.918
            s18-4.013,18-8.918v-6.688C823,475.881,814.85,479.873,805,479.873z" />
        <path opacity="0.2" enable-background="new    " d="M841,461.999c-9.85,0-18-3.992-18-8.917v6.688c0,4.904,8.19,8.918,18,8.918
            s18-4.014,18-8.918v-6.688C859,458.007,850.85,461.999,841,461.999z" />
        <path opacity="0.2" enable-background="new    " d="M805,444.126c-9.85,0-18-3.992-18-8.918v6.689c0,4.904,8.19,8.917,18,8.917
            s18-4.013,18-8.917v-6.689C823,440.134,814.85,444.126,805,444.126z" />
        <path opacity="0.2" enable-background="new    " d="M734,479.873c-9.85,0-18-3.992-18-8.917v6.688c0,4.905,8.19,8.918,18,8.918
            s18-4.013,18-8.918v-6.688C752,475.881,743.85,479.873,734,479.873z" />
        <path opacity="0.2" enable-background="new    " d="M769.5,461.999c-9.85,0-17.5-3.992-17.5-8.917v6.688
            c0,4.904,7.691,8.918,17.5,8.918c9.811,0,17.5-4.014,17.5-8.918v-6.688C787,458.007,779.35,461.999,769.5,461.999z" />
        <path opacity="0.2" enable-background="new    " d="M698.5,497.747c-9.85,0-17.5-3.992-17.5-8.918v6.688
            c0,4.905,7.691,8.917,17.5,8.917c9.811,0,17.5-4.012,17.5-8.917v-6.688C716,493.755,708.35,497.747,698.5,497.747z" />
        <path opacity="0.2" enable-background="new    " d="M734,515.62c-9.85,0-18-3.992-18-8.918v6.689c0,4.904,8.19,8.917,18,8.917
            s18-4.013,18-8.917v-6.689C752,511.628,743.85,515.62,734,515.62z" />
    </g>
    <text transform="matrix(1 0 0 1 204.3066 183.1245)">
        <tspan x="0" y="0" fill="#F7BE2C" font-family="'Roboto'" font-size="24">JavaScript</tspan>
        <tspan x="115.277" y="0" fill="#FFFFFF" font-family="'Roboto'" font-size="24"> </tspan>
        <tspan x="121.254" y="0" fill="#FFFFFF" font-family="'Roboto'" font-size="24">along with </tspan>
        <tspan x="237.328" y="0" fill="#F9672E" font-family="'Roboto'" font-size="24">HTML</tspan>
        <tspan x="309.152" y="0" fill="#FFFFFF" font-family="'Roboto'" font-size="24"> and </tspan>
        <tspan x="354.867" y="0" fill="#00ABDD" font-family="'Roboto'" font-size="24">CSS</tspan>
        <tspan x="405.078" y="0" fill="#FFFFFF" font-family="'Roboto'" font-size="24"> forms a triad of </tspan>
        <tspan x="0" y="30" fill="#FFFFFF" font-family="'Roboto'" font-size="24">cornerstone technologies for creating
            web pages and </tspan>
        <tspan x="0" y="60" fill="#FFFFFF" font-family="'Roboto'" font-size="24">web applications.</tspan>
    </text>
</svg>