<?xml version="1.0" encoding="utf-8"?>
<!-- Generator: Adobe Illustrator 22.1.0, SVG Export Plug-In . SVG Version: 6.00 Build 0)  -->
<svg version="1.1" xmlns="http://www.w3.org/2000/svg" xmlns:xlink="http://www.w3.org/1999/xlink" x="0px" y="0px"
	 viewBox="0 0 1000 1000" style="enable-background:new 0 0 1000 1000;" xml:space="preserve">
<style type="text/css">
	.st0{fill:none;}
	.st1{fill:#DDDDDD;}
	.st2{fill:#F3F3F3;}
	.st3{fill:#FFFFFF;}
	.st4{fill:#E1E1E1;}
	.st5{fill:url(#SVGID_1_);}
	.st6{fill:url(#SVGID_2_);}
	.st7{fill:url(#SVGID_3_);}
	.st8{fill:url(#SVGID_4_);}
	.st9{fill:none;stroke:#000000;stroke-linecap:round;stroke-linejoin:round;stroke-miterlimit:10;}
	.st10{fill:none;stroke:#000000;stroke-miterlimit:10;}
	.st11{fill:none;stroke:#000000;stroke-width:0.95;stroke-miterlimit:10;}
	.st12{fill:none;stroke:#000000;stroke-width:1.0746;stroke-linecap:round;stroke-miterlimit:10;}
	.st13{fill:none;stroke:#000000;stroke-linecap:round;stroke-miterlimit:10;}
</style>
<pattern  width="33" height="22" patternUnits="userSpaceOnUse" id="New_Pattern" viewBox="4.8 -26.8 33 22" style="overflow:visible;">
	<g>
		<rect x="4.8" y="-26.8" class="st0" width="33" height="22"/>
		<circle class="st1" cx="37.8" cy="-4.8" r="4.8"/>
		<circle class="st1" cx="4.8" cy="-4.8" r="4.8"/>
		<circle class="st1" cx="37.8" cy="-26.8" r="4.8"/>
		<circle class="st1" cx="21.3" cy="-15.8" r="4.8"/>
		<circle class="st1" cx="4.8" cy="-26.8" r="4.8"/>
	</g>
</pattern>
<g id="Background">
	<path class="st2" d="M794.5,543.5c-2.2-5.6-7.2-53-0.9-97.4c-8.9-4.7-22.1-13.1-24.7-19.9c0.7-14,34-50,48.4-44.5
		c0,0,0.1,0.1,0.1,0.1c4.9-5.6,10.5-10,17.2-12.8l1-15.4l-2.6-2.1l-3.3-3.3l-2.3-4.5l-0.5-3v-5.3l-1.3-1.6l-3.7-3.8l-0.9-1.8
		l3.1-6.2l6.9-13.1l2.8-5.9c0,0-25.9-20.8-22.3-33.5c0.9-3.1,3.6-6.4,3.6-6.4c-0.2,1.8-3.5,11.9,15.9,21.3c0.9,0.3,3.4,1.1,6.7,2.1
		V43H109.9v665.4c13.1-20.2,26.6-39.1,26.6-72.6c0-11.5-1.5-24.2-1.5-29.2c0-17.8,18.2-29.3,31.1-29.3c10.2,0,17.7,4.6,22.8,11.1
		c-5,1-8.7,5.4-8.7,10.7c0,6,4.9,10.9,10.9,10.9c2.1,0,4-0.6,5.6-1.6c0.2,1.6,0.3,3.1,0.3,4.7c0,17.1-10.1,52.3-10.1,55.5
		c0,3.2,2,6.8,5.3,6.8c14.7,0,27.9-35.4,40.1-35.4c12.2,0,14.9,10,14.9,17.6c0,53.5-48.2,78.1-62.7,100.5c-0.3,0.5-0.8,1.2-1.4,2.2
		h654.6V551.9C817,552.9,797.6,551.3,794.5,543.5z"/>
	<rect x="507.2" y="332.4" class="st3" width="290.9" height="339.9"/>
	<g>
		<path class="st4" d="M812.6,277.5H486.9v15.2h336.3C819,288.1,814.6,282.6,812.6,277.5z"/>
		<path class="st4" d="M820.7,277.5c2.4,2.3,5.8,4.6,10.6,6.9c2.3,0.7,15.9,4.9,24.5,8.3h30.4v-15.2H820.7z"/>
	</g>
	<rect x="109.9" y="43" class="st4" width="727.7" height="54.6"/>
	<circle cx="148.3" cy="71" r="8.6"/>
	<circle cx="176" cy="71" r="8.6"/>
	<circle cx="203.7" cy="71" r="8.6"/>
	<rect x="145.5" y="137.4" class="st3" width="290.9" height="157.6"/>
	<rect x="145.5" y="332.4" class="st3" width="290.9" height="157.6"/>
	<rect x="486.9" y="148.8" class="st4" width="399.4" height="15.2"/>
	<rect x="486.9" y="191.7" class="st4" width="399.4" height="15.2"/>
	<rect x="486.9" y="234.6" class="st4" width="399.4" height="15.2"/>
</g>
<g id="Shadows">
	<pattern  id="SVGID_1_" xlink:href="#New_Pattern" patternTransform="matrix(0.3 0 0 0.3 -5370.8037 -4697.1909)">
	</pattern>
	<path class="st5" d="M732.7,796c0,5.7-38.2,106.6-94.1,106.6c45.8,0,141.5,0,141.5,0V796H732.7"/>
	<pattern  id="SVGID_2_" xlink:href="#New_Pattern" patternTransform="matrix(0.3 0 0 0.3 -5370.8037 -4697.1909)">
	</pattern>
	<path class="st6" d="M135.4,819.7c0,3.5-42.4,90.2-57.6,90.2c17.2,0,62.9,0,62.9,0l23-90.4h-28.2"/>
	<pattern  id="SVGID_3_" xlink:href="#New_Pattern" patternTransform="matrix(0.3 0 0 0.3 -5371.3267 -4690.8672)">
	</pattern>
	<path class="st7" d="M777.1,408.2c0,6.7-6.1,78.1-21.2,84.3c11.4-6.1,28.9-15.3,34.7-22.6c0.4-4.6,2-23.7,2.8-26.4
		c0.8-2.7,4-25,8-33.5c4-8.5,4.9-11.9,4.9-11.9l2.8-5.4l3.1-5l3.1-4.6l1.1-1.6l-1.4-0.3l-2.8-0.1l-3.6,0.8l-4.6,2.2l-5.5,3.3
		l-3.9,2.8l-3.7,3.1l-3.9,3.8l-4,4.4l-5.6,6.5"/>
	<pattern  id="SVGID_4_" xlink:href="#New_Pattern" patternTransform="matrix(0.3 0 0 0.3 -5371.3267 -4690.8672)">
	</pattern>
	<path class="st8" d="M881.7,461.1c0,2.7-17.5,89.3-46.6,89.3c32.9,3,49.2-1.3,49.2-1.3l5.8-5.2l2-5.8c0,0,1.6-16.2,1.6-17.7
		c0.1-2.3,0.4-7.6,0.4-7.6l0.5-10l1.3-25l-5.2-8.4l-3.5-8.6L881.7,461.1z"/>
</g>
<g id="Foreground">
	<polygon class="st9" points="140.7,910.6 70.4,909.9 45.8,819.6 163.7,819.6 	"/>
	<path d="M96.4,819.1c-2.6-4.1-10.9-20.8-10.9-36c0-27.8,7.6-46.4,16.9-62.4c-23.4-94.5-58.6-143.3-63.8-141
		c-8.9,3.9-11.5,80.2,4.4,159c0.4,0,0.7-0.1,1.1-0.1c4.6,0,8.3,3.7,8.3,8.3c0,1.4-0.3,2.7-0.9,3.8c2.7,1.4,4.6,4.2,4.6,7.4
		c0,4-2.9,7.4-6.7,8.2c4.7,18.2,10.6,36.2,17.6,52.9c3.6,0,44,0,44,0l0,0C102.8,819.2,96.4,819.1,96.4,819.1z"/>
	<path class="st9" d="M232.3,640c-12.3,0-25.5,35.4-40.1,35.4c-3.2,0-5.3-3.5-5.3-6.8c0-3.2,10.1-38.4,10.1-55.5
		c0-1.5-0.1-3.1-0.3-4.7c-1.6,1-3.6,1.6-5.6,1.6c-6,0-10.9-4.9-10.9-10.9c0-5.3,3.7-9.6,8.7-10.7c-5.1-6.5-12.6-11.1-22.8-11.1
		c-12.9,0-31.1,11.5-31.1,29.3c0,5,1.5,17.7,1.5,29.2c0,65.2-51.1,75-51.1,147.2c0,15.2,8.4,31.9,10.9,36c0,0,42.8,0.5,46.9,0.5
		s37.4-55.6,41.2-61.5c14.5-22.4,62.7-47,62.7-100.5C247.1,650,244.4,640,232.3,640z"/>
	<path class="st10" d="M893.8,389.4c-6.8-9-18.1-17.2-33.8-20.5"/>
	<path class="st10" d="M891.6,540.8c2-8.5,2.7-33,4.4-62.9"/>
	<path class="st10" d="M834.7,369.1c-56.6,23.6-44.1,164.5-40.2,174.4c6.6,16.8,88.3,4.8,95.6,0.3"/>
	<path class="st11" d="M801.7,449.6"/>
	<path class="st12" d="M870.1,340.1c-6.5,8-11,32.6-11.1,35.4c-1,1.7-5.9,2.2-10.8,2.3"/>
	<path class="st9" d="M771.3,430c-9.2,8-27.3,28.4-28.8,31c-4.6-2.2-52.5-27.4-56.1-29c-3.6-1.6-11.2-14.3-13.8-14.3
		c-1.5,0-2.9,2.9-2.9,4.9c0,3.4,1.6,6,2.6,7.1c-3.4-0.5-33.4-2.8-33.4-0.8c0,5.2,33.6,12.1,36.2,13.5c2.6,1.4,57.3,52,76.3,52
		c7.4,0,39.8-22.2,39.8-24.6"/>
	<polyline class="st9" points="885.5,877.4 885.5,894 843.3,894 870.2,877.4 	"/>
	<line class="st9" x1="885.5" y1="877.4" x2="885.5" y2="854.2"/>
	<line class="st9" x1="870.4" y1="877.4" x2="870.4" y2="854.2"/>
	<polyline class="st9" points="704.5,779.4 704.5,796 662.4,796 689.2,779.4 	"/>
	<line class="st9" x1="704.5" y1="785.4" x2="704.5" y2="762.2"/>
	<line class="st9" x1="689.5" y1="779.4" x2="689.5" y2="760.3"/>
	<rect x="598" y="796" class="st9" width="182.1" height="106.6"/>
	<path class="st13" d="M887.4,461.5c0.9,5.5,21.9,38.6,24.4,41.5c-5.3,4.6-34.8,69.1-37.1,73.3c0,2.4,7.2,10.3,9.8,12.9
		c4.4,0,53.9-63.7,53.9-70.9s0.8-54.2-12.5-74.5"/>
	<path class="st13" d="M881.5,460.5c7.2,3.1,42.2-7.4,45-18c3-15.7-20.6-60.9-41.6-52.4"/>
	<path d="M884.4,589.3c-2.6-2.6-9.8-10.5-9.8-12.9c1.1-1.9,7.9-16.7,15.5-32.4c-18.8,5.1-65.6,8.9-82.7,5c-4.6-1-9.2-3.2-12.9-5.4
		c-4.5,2.9-70.7,49.2-101.3,94.6c-1.6,3.6-4,122.3-4,122.3l24.3,2.1l21.7-101.1c3.5,0,50.8-18.1,84.7-39.7l40.2,232.6h26.1
		l5.7-271.8C888.1,586.6,885.3,589.3,884.4,589.3z"/>
	<path class="st12" d="M815.1,266.3c0,27,68.2,20,68.2,54.6c0,15-8.2,18.6-13,18.6"/>
	<path class="st12" d="M811.5,274.5c0,3,3.8,11.4,14.8,21.8"/>
	<path class="st12" d="M833.5,302.9c-1.2,4-12.2,23.4-12.2,25.8s5.5,5.5,5.5,7.2s-2.2,10.6,8.8,17.9c-0.5,3.3-0.9,15.3-0.9,15.3"/>
	<circle cx="837.2" cy="318.1" r="1.5"/>
	<path class="st12" d="M833.5,340.8c-2,0.9-4.1,1.5-6.3,1.8"/>
	<path class="st11" d="M817.4,381.7c-14.4-5.5-47.8,30.5-48.4,44.5c2.6,6.9,16.2,15.5,25.1,20.2"/>
</g>
</svg>
