<svg id="Layer_1" data-name="Layer 1" xmlns="http://www.w3.org/2000/svg" viewBox="0 0 538 215.5"><title>asset</title><rect x="438.5" y="88.7" width="99" height="71" style="fill:#f16975"/><path d="M536.6,88.6v70.2H1.4V88.6H536.6m.9-.9H.5v72h537v-72Z"/><path d="M40.2,128.4V102h5.5v26.6c0,9-6.2,14.9-15.5,14.9s-15.5-5.9-15.5-14.9V102h5.4v26.4c0,6.3,3.9,10.1,10.1,10.1S40.2,134.7,40.2,128.4Z" style="fill:#aaa"/><path d="M74.3,132.3c.8,3.9,4.4,6.4,9.7,6.4s9.2-2.8,9.2-7-2.1-5.1-6.6-6.3l-7.1-1.8c-6.1-1.6-9.6-5.3-9.6-10.7,0-7,5.9-11.8,14.2-11.8s13.5,4.5,14.1,10.7H92.7c-.8-3.6-4-5.9-8.7-5.9s-8.6,2.7-8.6,6.7,2,4.8,5.8,5.7l6.9,1.9c7.1,1.8,10.6,5.1,10.6,11.1s-5.9,12.2-15.2,12.2-14.2-4.6-14.8-11.2Z" style="fill:#aaa"/><path d="M147.7,142.7H123.1V102h24.6v4.9H128.6v12.7h18v4.7h-18v13.5h19.1Z" style="fill:#aaa"/><path d="M200.8,114.2c0,5.6-3.1,9.8-7.6,11.4l8.3,17.1h-6.3l-7.4-16.1h-9.6v16.1h-5.5V102h14.9C195.7,102,200.8,106.8,200.8,114.2Zm-14.2,7.7c5.5,0,8.5-2.5,8.5-7.4s-3.1-7.7-8.3-7.7h-8.6v15.1Z" style="fill:#aaa"/><path d="M225.8,142.7V102H231l20.1,31.1h.3V102h5.4v40.7h-5.2l-20.2-31.2h-.2v31.2Z" style="fill:#aaa"/><path d="M279.2,142.7,293.6,102h5.6l14.4,40.7h-5.8l-4-12H288.9l-4,12Zm17-34.3-5.9,17.9h12.1l-5.9-17.9Z" style="fill:#aaa"/><path d="M336.2,142.7V102h5.3l13.3,31h.2l13.2-31h5.4v40.7h-5V113.2h-.3L357.1,139h-4.5l-11.2-25.8h-.3v29.5Z" style="fill:#aaa"/><path d="M424.8,142.7H400.2V102h24.6v4.9H405.7v12.7h18v4.7h-18v13.5h19.1Z" style="fill:#aaa"/><path d="M458.6,142.7V108h-.2l-9.4,6.8v-5.6l9.6-7.2h5.5v40.7Z" style="fill:#404242"/><path d="M497.6,113.4v-.2c0-6.2,4.5-12,12.9-12s12.7,4.7,12.7,11.1-3.1,8.6-6.9,12.9l-10.8,12.3v.3H524v4.9H497.8v-3.5l15.3-17.4c2.2-2.5,4.6-5.4,4.6-9.1s-3.1-6.8-7.3-6.8a7.1,7.1,0,0,0-7.5,7.2v.3Z" style="fill:#404242"/><path d="M22.2,185c0-7.1,3.1-11.8,8.4-11.8S39,177.8,39,185v.9c0,7.1-3,11.8-8.4,11.8s-8.4-4.7-8.4-11.8Zm3.1.8c0,5.7,2.1,9.1,5.3,9.1s5.3-3.4,5.3-9.1V185c0-5.6-2.1-9.1-5.3-9.1s-5.3,3.5-5.3,9.1Z" style="fill:#aaa"/><path d="M80.5,197.2V177.1h-.2L74.9,181v-3.2l5.6-4.2h3.1v23.6Z" style="fill:#aaa"/><path d="M127.7,180.2h0c0-3.6,2.6-6.9,7.5-6.9s7.4,2.7,7.4,6.4-1.8,5-4,7.5l-6.3,7.1v.2H143v2.8H127.8v-2.1l8.9-10c1.3-1.5,2.7-3.1,2.7-5.3s-1.8-3.9-4.2-3.9a4.2,4.2,0,0,0-4.4,4.2h-3.1Z" style="fill:#aaa"/><path d="M183.7,183.7h2.4a4,4,0,0,0,4.3-4c0-2.3-1.8-3.8-4.3-3.8s-4.1,1.5-4.3,3.2h-3c.1-3,2.6-5.9,7.3-5.9s7.4,2.6,7.5,6a5.6,5.6,0,0,1-4.4,5.6v.2a5.7,5.7,0,0,1,5.2,5.6c0,4.2-3.5,7.1-8.4,7.1s-7.6-2.7-7.8-6.1h3c.2,1.9,2.2,3.3,4.9,3.4s5.1-1.9,5-4.4-2-4.2-4.9-4.2h-2.5Z" style="fill:#aaa"/><path d="M246.7,173.6v16h3v2.8h-3v4.8h-3.1v-4.8H232.2v-2.9c2.9-5.3,6.4-10.5,9.8-15.9Zm-3.1,16V176.4h-.1c-2.8,4.1-5.7,8.7-8.2,13v.2Z" style="fill:#aaa"/><path d="M291.9,191.7c.5,2.3,2.7,3.2,4.8,3.2a5,5,0,0,0,5-5.3,4.9,4.9,0,0,0-5-5,5,5,0,0,0-4.6,2.6h-2.7l1-13.6h13.3v2.8H293.1l-.6,7.5h.1a5.8,5.8,0,0,1,4.8-2,7.2,7.2,0,0,1,7.5,7.6c0,4.8-3.4,8.2-8.4,8.2s-7.4-2.6-7.6-6Z" style="fill:#aaa"/><path d="M360,178.7c-.3-1.1-1.6-2.6-4.2-2.6s-5.7,3.1-5.7,9.6h.2c.6-1.7,2.5-3.5,5.9-3.5a7.2,7.2,0,0,1,7.4,7.5c0,5.1-3.5,8.1-8.1,8.1a7.6,7.6,0,0,1-6.8-3.6,15.3,15.3,0,0,1-1.7-7.8c0-9,3.6-13.1,8.9-13.1s7,2.8,7.2,5.4Zm-4.5,16.4c2.8,0,5-1.7,5-5.3a4.7,4.7,0,0,0-5-5,4.8,4.8,0,0,0-5,5A5,5,0,0,0,355.5,195.1Z" style="fill:#aaa"/><path d="M419.7,173.6v3l-9.6,20.6h-3.3l9.7-20.6v-.2H404.7v-2.8Z" style="fill:#aaa"/><path d="M452.1,190.8a6,6,0,0,1,4.7-6h0a5.6,5.6,0,0,1-3.8-5.3c0-3.6,3.1-6.2,7.4-6.2s7.5,2.6,7.5,6.2a5.5,5.5,0,0,1-3.8,5.3h0a6,6,0,0,1,4.7,5.9c0,4.1-3.5,7-8.4,7S452.1,194.9,452.1,190.8Zm13.6-.2c0-2.6-2.3-4.4-5.3-4.4s-5.2,1.8-5.2,4.4,2.2,4.4,5.2,4.4S465.7,193.2,465.7,190.6Zm-.9-10.9c0-2.3-1.8-3.9-4.4-3.9s-4.4,1.6-4.4,3.9,1.9,3.9,4.4,3.9S464.8,182,464.8,179.7Z" style="fill:#aaa"/><path d="M504.3,192.6c.3,1.1,1.6,2.3,3.9,2.3,4.4,0,5.9-4.3,5.8-9.6h-.2c-.7,2-2.6,3.7-5.8,3.7s-7.5-2.9-7.5-7.9,3.5-8,8.2-8,8.4,2.4,8.4,11.8-2.9,12.7-8.9,12.7c-4.4,0-6.8-2.4-7.1-5Zm4.2-16.7c-2.7,0-4.9,1.9-4.9,5.2s2.3,5.2,5,5.2a4.8,4.8,0,0,0,4.9-5.1C513.5,177.8,511.3,175.9,508.5,175.9Z" style="fill:#aaa"/><line x1="56" y1="88.2" x2="56" y2="159.2" style="fill:none;stroke:#000;stroke-miterlimit:10"/><line x1="111" y1="88.7" x2="111" y2="159.7" style="fill:none;stroke:#000;stroke-miterlimit:10"/><line x1="159" y1="88.7" x2="159" y2="159.7" style="fill:none;stroke:#000;stroke-miterlimit:10"/><line x1="212" y1="88.7" x2="212" y2="159.7" style="fill:none;stroke:#000;stroke-miterlimit:10"/><line x1="269" y1="88.7" x2="269" y2="159.7" style="fill:none;stroke:#000;stroke-miterlimit:10"/><line x1="325" y1="88.7" x2="325" y2="159.7" style="fill:none;stroke:#000;stroke-miterlimit:10"/><line x1="387" y1="88.7" x2="387" y2="159.7" style="fill:none;stroke:#000;stroke-miterlimit:10"/><line x1="438" y1="88.7" x2="438" y2="159.7" style="fill:none;stroke:#000;stroke-miterlimit:10"/><line x1="481" y1="88.7" x2="481" y2="159.7" style="fill:none;stroke:#000;stroke-miterlimit:10"/><polyline points="0.5 81.7 0.5 48.7 537.5 48.7 537.5 81.7" style="fill:none;stroke:#000;stroke-miterlimit:10"/><line x1="438" y1="49.2" x2="438" y2="82.2" style="fill:none;stroke:#000;stroke-miterlimit:10"/><path d="M129.2,4.2h6.3c2.8,0,4.6,1.5,4.6,4.1a3.5,3.5,0,0,1-2.7,3.6h0a3.9,3.9,0,0,1,3.7,4.2c0,2.9-2.3,4.6-5.8,4.6h-6.1Zm2.2,7.1h2.5c2.8,0,4-.8,4-2.6a2.5,2.5,0,0,0-2.8-2.6h-3.7Zm0,7.6h2.8c3.3,0,4.6-.8,4.6-2.8s-1.3-2.9-3.5-2.9h-3.9Z" style="fill:#404242"/><path d="M154.9,20.8h-2.1V18.7h-.2a3.7,3.7,0,0,1-3.8,2.3c-2.6,0-4.4-1.1-4.4-4.1V8h2.2v8.3a2.5,2.5,0,0,0,2.8,2.8,3.1,3.1,0,0,0,3.3-3V8h2.2Z" style="fill:#404242"/><path d="M160.4,9.8h-2.2V8h2.2V6.7c0-2.4,1.1-3.6,4-3.6h1.5V5h-1.2c-1.5,0-2.1.4-2.1,1.9V8h2.9V9.8h-2.9v11h-2.2Z" style="fill:#404242"/><path d="M170.2,9.8H168V8h2.2V6.7c0-2.4,1.1-3.6,4-3.6h1.5V5h-1.2c-1.5,0-2.1.4-2.1,1.9V8h2.9V9.8h-2.9v11h-2.2Z" style="fill:#404242"/><path d="M177.8,15.4v-2c0-3.5,2.2-5.6,5.3-5.6s5.3,2.2,5.3,5.6V15H180v.6c0,2,1.1,3.5,3.2,3.5a2.8,2.8,0,0,0,2.8-1.5h2.2c-.2,1.4-1.7,3.4-5,3.4S177.8,18.9,177.8,15.4Zm8.4-2v-.2c0-2.1-1.2-3.5-3.1-3.5s-3.1,1.4-3.1,3.5v.2Z" style="fill:#404242"/><path d="M192.3,8h2.2v2h.1a3.3,3.3,0,0,1,3.5-2.2h.8v2h-1c-2.3,0-3.4,1.4-3.4,3.1v7.9h-2.2Z" style="fill:#404242"/><path d="M218,13.5v1.8c0,3.7-2.4,5.7-5.6,5.7s-5.5-2-5.5-5.7V13.5c0-3.5,2.3-5.7,5.5-5.7A5.3,5.3,0,0,1,218,13.5Zm-8.9.1v1.6c0,2.3,1.2,3.9,3.3,3.9s3.4-1.6,3.4-3.9V13.6c0-2.3-1.3-3.9-3.4-3.9S209.1,11.3,209.1,13.6Z" style="fill:#404242"/><path d="M220,8h2.5l3.1,10.5h.1L229.1,8h2.4l-4.7,12.8h-2.3Z" style="fill:#404242"/><path d="M233.5,15.4v-2c0-3.5,2.2-5.6,5.3-5.6s5.3,2.2,5.3,5.6V15h-8.4v.6c0,2,1.1,3.5,3.3,3.5s2.5-.7,2.7-1.5H244c-.2,1.4-1.8,3.4-5,3.4S233.5,18.9,233.5,15.4Zm8.5-2v-.2a3.2,3.2,0,0,0-3.2-3.5c-1.9,0-3.1,1.4-3.1,3.5v.2Z" style="fill:#404242"/><path d="M248,8h2.2v2h.1a3.4,3.4,0,0,1,3.5-2.2h.8v2h-1c-2.3,0-3.4,1.4-3.4,3.1v7.9H248Z" style="fill:#404242"/><path d="M259.2,9.8h-2.1V8h2.1V6.7c0-2.4,1.2-3.6,4.1-3.6h1.4V5h-1.1c-1.5,0-2.2.4-2.2,1.9V8h3V9.8h-3v11h-2.2Z" style="fill:#404242"/><path d="M268,3.3h2.2V20.8H268Z" style="fill:#404242"/><path d="M285.1,13.5v1.8c0,3.7-2.4,5.7-5.5,5.7s-5.6-2-5.6-5.7V13.5a5.6,5.6,0,1,1,11.1,0Zm-8.9.1v1.6c0,2.3,1.2,3.9,3.4,3.9s3.3-1.6,3.3-3.9V13.6c0-2.3-1.3-3.9-3.3-3.9S276.2,11.3,276.2,13.6Z" style="fill:#404242"/><path d="M301.1,20.8h-2.2L296,11h0l-2.9,9.8h-2.2L287.3,8h2.5l2.3,10.1h0L295,8h2l2.9,10.1h.1L302.3,8h2.2Z" style="fill:#404242"/><path d="M312.4,15.4v-2c0-3.5,2.3-5.6,5.4-5.6s5.3,2.2,5.3,5.6V15h-8.5v.6a3.2,3.2,0,0,0,3.3,3.5c1.5,0,2.5-.7,2.7-1.5h2.3c-.2,1.4-1.7,3.4-5,3.4S312.4,18.9,312.4,15.4Zm8.5-2v-.2c0-2.1-1.3-3.5-3.1-3.5a3.2,3.2,0,0,0-3.2,3.5v.2Z" style="fill:#404242"/><path d="M331,16.1h-.1l-3,4.7h-2.5l4.3-6.3L325.3,8H328l2.9,4.7h.1L334,8h2.5l-4.3,6.3,4.4,6.5H334Z" style="fill:#404242"/><path d="M338.9,17.1c0-2.3,1.6-3.8,4.6-3.8h3.3V12.1c0-1.7-1-2.4-2.7-2.4s-2.3.6-2.5,1.5h-2.2c.2-2.2,1.9-3.4,4.8-3.4s4.8,1.1,4.8,4.3v8.7h-2.1V19.1h-.1a3.9,3.9,0,0,1-3.7,1.9C340.7,21,338.9,19.5,338.9,17.1Zm7.9-.7V15h-3.2c-1.7,0-2.4.9-2.4,2s1.2,2.2,2.6,2.2A2.8,2.8,0,0,0,346.8,16.4Z" style="fill:#404242"/><path d="M353.3,8h2.2v2h.1c.3-.9,1.1-2.2,3.5-2.2a3.5,3.5,0,0,1,3.6,2.4h.1a3.8,3.8,0,0,1,3.9-2.4c2.6,0,4.2,1.4,4.2,4v9h-2.2V12.4A2.5,2.5,0,0,0,366,9.7a2.8,2.8,0,0,0-2.8,3v8.1H361V12.5a2.5,2.5,0,0,0-2.7-2.8,2.8,2.8,0,0,0-2.8,3v8.1h-2.2Z" style="fill:#404242"/><path d="M377.5,18.9h-.1v6.2h-2.2V8h2.1v2h.1a3.9,3.9,0,0,1,3.9-2.2c3,0,4.9,2.1,4.9,5.5v2.2c0,3.4-1.9,5.5-5,5.5A3.7,3.7,0,0,1,377.5,18.9Zm6.5-3.8V13.8c0-2.6-1.2-4.1-3.3-4.1s-3.3,1.4-3.3,3.7v2.2a3.3,3.3,0,0,0,3.4,3.5C382.8,19.1,384,17.6,384,15.1Z" style="fill:#404242"/><path d="M390,3.3h2.2V20.8H390Z" style="fill:#404242"/><path d="M396,15.4v-2c0-3.5,2.3-5.6,5.3-5.6s5.4,2.2,5.4,5.6V15h-8.5v.6a3.2,3.2,0,0,0,3.3,3.5c1.5,0,2.5-.7,2.7-1.5h2.3c-.2,1.4-1.7,3.4-5,3.4S396,18.9,396,15.4Zm8.5-2v-.2a3.2,3.2,0,0,0-3.2-3.5c-1.8,0-3.1,1.4-3.1,3.5v.2Z" style="fill:#404242"/><path d="M160.8,61.5h5.1c2.3,0,3.7,1.3,3.7,3.3a2.8,2.8,0,0,1-2.1,2.9h0a3.1,3.1,0,0,1,2.9,3.3c0,2.3-1.8,3.7-4.7,3.7h-4.9Zm1.8,5.7h2c2.2,0,3.2-.7,3.2-2.1s-.8-2-2.2-2h-3Zm0,6.1h2.3c2.6,0,3.6-.7,3.6-2.2s-1-2.4-2.7-2.4h-3.2Z" style="fill:#404242"/><path d="M181.5,74.8h-1.8V73.1h-.1a3.1,3.1,0,0,1-3.1,1.9c-2,0-3.5-.9-3.5-3.3V64.6h1.8v6.6a2,2,0,0,0,2.2,2.2,2.6,2.6,0,0,0,2.7-2.4V64.6h1.8Z" style="fill:#404242"/><path d="M185.8,66h-1.7V64.6h1.7v-1c0-2,.9-2.9,3.2-2.9h1.2v1.5h-.9c-1.2,0-1.7.4-1.7,1.6v.9h2.3V66h-2.3v8.8h-1.8Z" style="fill:#404242"/><path d="M193.6,66h-1.7V64.6h1.7v-1c0-2,1-2.9,3.3-2.9H198v1.5h-.9c-1.2,0-1.7.4-1.7,1.6v.9h2.4V66h-2.4v8.8h-1.8Z" style="fill:#404242"/><path d="M199.7,70.5V68.9a4.1,4.1,0,0,1,4.3-4.5c2.5,0,4.2,1.7,4.2,4.5v1.3h-6.7v.5a2.5,2.5,0,0,0,2.6,2.8,2.2,2.2,0,0,0,2.2-1.2h1.8c-.2,1.1-1.4,2.7-4,2.7S199.7,73.2,199.7,70.5Zm6.8-1.6v-.2a2.5,2.5,0,1,0-5,0v.2Z" style="fill:#404242"/><path d="M211.3,64.6h1.8v1.5h.1a2.8,2.8,0,0,1,2.8-1.7h.6v1.6h-.8a2.4,2.4,0,0,0-2.7,2.5v6.3h-1.8Z" style="fill:#404242"/><path d="M228.1,60.8a15.1,15.1,0,0,0-2.4,8.3,15.3,15.3,0,0,0,2.4,8.7h-1.5c-1.7-1.9-2.7-5.1-2.7-8.6a12.8,12.8,0,0,1,2.7-8.4Z" style="fill:#404242"/><path d="M230,71.2a3.4,3.4,0,0,1,2.7-3.4h0a3.2,3.2,0,0,1-2.2-3c0-2.1,1.8-3.6,4.2-3.6s4.2,1.5,4.2,3.6a3,3,0,0,1-2.1,3h0a3.4,3.4,0,0,1,2.6,3.4c0,2.3-2,3.9-4.7,3.9S230,73.5,230,71.2Zm7.7-.1c0-1.5-1.3-2.5-3-2.5s-3,1-3,2.5,1.3,2.5,3,2.5S237.7,72.6,237.7,71.1Zm-.5-6.2a2.2,2.2,0,0,0-2.5-2.2,2.2,2.2,0,1,0,0,4.4A2.2,2.2,0,0,0,237.2,64.9Z" style="fill:#404242"/><path d="M248.7,73.3h0v1.5H247v-14h1.7v5.4h.1a3,3,0,0,1,3-1.8c2.5,0,4,1.7,4,4.4v1.8c0,2.7-1.6,4.4-4,4.4A3.1,3.1,0,0,1,248.7,73.3Zm5.3-3V69.2c0-2.1-.9-3.3-2.6-3.3s-2.7,1.2-2.7,3.1v1.6a2.8,2.8,0,0,0,2.8,2.9C253.1,73.5,254,72.3,254,70.3Z" style="fill:#404242"/><path d="M263.2,74.8l-.2.6c-.8,2.2-1.8,3-3.6,3h-1V76.9h.7a1.9,1.9,0,0,0,2.1-1.7V75l-3.8-10.4h2l2.7,8.5h.1l2.7-8.5h1.9Z" style="fill:#404242"/><path d="M270.3,62H272v2.6h2.3V66H272v5.9c0,1.2.4,1.5,1.7,1.5h.8v1.4h-1.3c-2.4,0-3-.9-3-2.9V66h-1.5V64.6h1.6Z" style="fill:#404242"/><path d="M276.7,70.5V68.9a4.1,4.1,0,0,1,4.3-4.5c2.5,0,4.2,1.7,4.2,4.5v1.3h-6.7v.5a2.5,2.5,0,0,0,2.6,2.8,2.2,2.2,0,0,0,2.2-1.2h1.8c-.2,1.1-1.4,2.7-4,2.7S276.7,73.2,276.7,70.5Zm6.8-1.6v-.2a2.5,2.5,0,1,0-5,0v.2Z" style="fill:#404242"/><path d="M291.5,64.4c2.2,0,3.7,1.1,3.7,2.9h-1.7c0-.8-.7-1.5-2.1-1.5s-2,.5-2,1.5,1.4,1.4,2.5,1.6,3.5.9,3.5,2.9-1.6,3.2-4.1,3.2-3.8-1-3.8-2.9h1.7c.2.9.8,1.5,2.2,1.5s2.3-.7,2.3-1.6-1.1-1.3-2.6-1.6-3.4-.9-3.4-2.9S289.5,64.4,291.5,64.4Z" style="fill:#404242"/><path d="M298.7,60.8a12.8,12.8,0,0,1,2.7,8.4c0,3.5-1,6.7-2.7,8.6h-1.5a15.3,15.3,0,0,0,2.4-8.7,15.1,15.1,0,0,0-2.4-8.3Z" style="fill:#404242"/><path d="M452.7,75.1c-3.3,0-5.4-2.2-5.4-6V67.2c0-3.8,2.1-6,5.4-6s5.3,2.2,5.3,6v1.9C458,72.9,455.9,75.1,452.7,75.1Zm0-12.3c-2.1,0-3.6,1.5-3.6,4.4v1.9c0,3,1.5,4.4,3.6,4.4s3.5-1.4,3.5-4.4V67.2C456.2,64.3,454.7,62.8,452.7,62.8Z" style="fill:#404242"/><path d="M460.1,64.6h2l2.5,8.4h.1l2.7-8.4h1.9l-3.7,10.2h-1.9Z" style="fill:#404242"/><path d="M470.9,70.5V68.9a4.1,4.1,0,0,1,4.3-4.5c2.5,0,4.2,1.7,4.2,4.5v1.3h-6.7v.5a2.5,2.5,0,0,0,2.6,2.8,2.2,2.2,0,0,0,2.2-1.2h1.8c-.2,1.1-1.4,2.7-4,2.7S470.9,73.2,470.9,70.5Zm6.8-1.6v-.2a2.5,2.5,0,1,0-5,0v.2Z" style="fill:#404242"/><path d="M482.5,64.6h1.8v1.5h.1a2.8,2.8,0,0,1,2.8-1.7h.6v1.6H487a2.4,2.4,0,0,0-2.7,2.5v6.3h-1.8Z" style="fill:#404242"/><path d="M491.5,66h-1.7V64.6h1.7v-1c0-2,.9-2.9,3.2-2.9h1.2v1.5H495c-1.2,0-1.7.4-1.7,1.6v.9h2.3V66h-2.3v8.8h-1.8Z" style="fill:#404242"/><path d="M498.5,60.8h1.8v14h-1.8Z" style="fill:#404242"/><path d="M512.2,68.9v1.5a4.5,4.5,0,1,1-8.9,0V68.9a4.3,4.3,0,0,1,4.5-4.5A4.2,4.2,0,0,1,512.2,68.9Zm-7.1.2v1.2c0,1.9,1,3.2,2.7,3.2s2.6-1.3,2.6-3.2V69.1c0-1.9-1-3.2-2.6-3.2S505.1,67.2,505.1,69.1Z" style="fill:#404242"/><path d="M525,74.8h-1.7L520.9,67h0l-2.3,7.8h-1.7L514,64.6h2l1.8,8h0l2.3-8h1.6l2.4,8h0l1.9-8h1.7Z" style="fill:#404242"/></svg>